<svg width="140" height="99" viewBox="0 0 140 99" fill="none" xmlns="http://www.w3.org/2000/svg">
<g clip-path="url(#clip0_6316_1439)">
<path fill-rule="evenodd" clip-rule="evenodd" d="M27.7606 66.1464C17.5093 66.1464 9.20363 57.8407 9.20363 47.6643C9.20363 37.488 17.5093 29.1823 27.7606 29.1823C38.0118 29.1823 46.3175 37.488 46.3175 47.6643C46.3175 57.8407 38.0118 66.1464 27.7606 66.1464ZM54.0246 22.2234H50.8819C48.3378 22.2234 46.2426 24.2437 46.2426 26.7878V27.0123C41.3041 22.5975 34.7942 19.9038 27.6857 19.9038C12.4212 19.9038 0 32.3998 0 47.6643C0 62.9289 12.4212 75.3501 27.7606 75.3501C43.0999 75.3501 41.3789 72.6563 46.3175 68.2416V70.5612C46.3175 80.7376 37.9369 89.3426 27.7606 89.3426C23.1961 89.3426 18.9311 87.6964 15.6387 84.7782C13.9925 83.3565 11.5232 83.2068 9.80225 84.5537L7.03367 86.6488C6.36023 87.1726 6.21058 88.1454 6.80919 88.8188C12.1219 95.0294 19.7541 98.4714 27.985 98.4714C43.3244 98.4714 55.7456 85.7509 55.7456 70.4115V23.7948C55.7456 22.9717 55.0722 22.2982 54.1742 22.2982L54.0246 22.2234ZM67.4185 75.4249H70.5612C73.1053 75.4249 75.2004 73.4046 75.2004 70.8605V1.49653C75.2004 0.673437 74.527 0 73.6291 0H70.4864C67.9423 0 65.8471 2.02031 65.8471 4.5644V73.9284C65.8471 74.7515 66.5206 75.4249 67.4185 75.4249ZM140 47.6643C140 32.3998 127.579 19.9038 112.239 19.9038C96.9 19.9038 84.4789 32.325 84.4789 47.6643C84.4789 63.0037 96.9 75.4249 112.239 75.4249C127.579 75.4249 140 63.0037 140 47.6643Z" fill="white"/>
<path d="M112.24 66.1466C122.447 66.1466 130.722 57.8718 130.722 47.6645C130.722 37.4571 122.447 29.1824 112.24 29.1824C102.033 29.1824 93.7578 37.4571 93.7578 47.6645C93.7578 57.8718 102.033 66.1466 112.24 66.1466Z" fill="#EE7100"/>
</g>
<defs>
<clipPath id="clip0_6316_1439">
<rect width="140" height="98.5462" fill="white"/>
</clipPath>
</defs>
</svg>
