<svg width="108" height="33" viewBox="0 0 108 33" fill="none" xmlns="http://www.w3.org/2000/svg">
<path d="M6.71592 31.8996C6.47384 31.8996 6.23755 31.8965 5.99738 31.8909C5.55311 31.8784 5.02617 31.8532 4.51214 31.7597C4.02715 31.6709 3.59613 31.5263 3.19573 31.3189C2.78134 31.1061 2.40883 30.831 2.08564 30.501C1.75658 30.1741 1.48612 29.7985 1.27466 29.3773C1.06867 28.9712 0.927807 28.535 0.843224 28.044C0.746145 27.5026 0.721399 26.9533 0.710888 26.5354C0.70584 26.3657 0.699219 25.8008 0.699219 25.8008V6.79433C0.699219 6.79433 0.706254 6.23806 0.710888 6.07465C0.721316 5.65305 0.746145 5.10423 0.842397 4.56841C0.927393 4.07449 1.06817 3.63881 1.27425 3.23103C1.48537 2.8091 1.75609 2.43157 2.08084 2.10626C2.40949 1.77307 2.78349 1.49728 3.19515 1.28358C3.60341 1.07375 4.03369 0.930448 4.50891 0.845893C5.04396 0.748935 5.58639 0.724549 5.99928 0.71399L6.71633 0.704102H100.622L101.347 0.714325C101.755 0.724549 102.297 0.748935 102.824 0.845222C103.303 0.930029 103.736 1.07425 104.152 1.28601C104.559 1.49736 104.933 1.77307 105.258 2.10316C105.583 2.43006 105.855 2.8096 106.071 3.23304C106.276 3.64434 106.415 4.08002 106.496 4.55978C106.589 5.06736 106.617 5.58869 106.634 6.07825C106.637 6.30611 106.637 6.55089 106.637 6.79441C106.643 7.09618 106.643 7.38328 106.643 7.6729V24.9319C106.643 25.2242 106.643 25.5093 106.637 25.7969C106.637 26.0586 106.637 26.2983 106.633 26.545C106.617 27.0188 106.589 27.5398 106.498 28.0363C106.415 28.5298 106.276 28.9659 106.069 29.38C105.854 29.798 105.582 30.1759 105.262 30.4949C104.933 30.8312 104.561 31.1055 104.15 31.3176C103.737 31.5297 103.317 31.6703 102.824 31.7599C102.315 31.8534 101.788 31.8785 101.339 31.8911C101.106 31.8966 100.862 31.8997 100.626 31.8997L99.7645 31.9014L6.71583 31.8997L6.71592 31.8996Z" fill="black"/>
<path d="M39.8129 22.0354H36.0884L35.1766 24.5583H33.5391L37.1865 15.1361H38.7343L42.4653 24.5583H40.7443L39.813 22.0354H39.8129ZM36.5574 20.7544H39.338L38.3423 18.0556C38.2054 17.6829 38.0708 17.2713 37.9377 16.8204C37.8178 17.2191 37.6873 17.6268 37.5463 18.0429L36.5575 20.7544H36.5574Z" fill="white"/>
<path d="M43.2055 19.2589C43.2055 18.7384 43.1881 18.1664 43.1543 17.542H44.6439C44.6994 17.8326 44.738 18.1295 44.7596 18.433C45.3761 17.7524 46.0823 17.412 46.8789 17.412C47.3412 17.412 47.7696 17.5302 48.163 17.7663C48.5571 18.0028 48.8751 18.3755 49.117 18.8847C49.359 19.3942 49.4799 20.0414 49.4799 20.8258C49.4799 21.6453 49.3416 22.3454 49.0653 22.9263C48.7895 23.5072 48.4029 23.9471 47.9064 24.2463C47.4098 24.5453 46.8361 24.695 46.1854 24.695C45.7142 24.695 45.2499 24.6145 44.7919 24.4544V27.3545L43.2055 27.4911V19.259V19.2589ZM47.3766 22.8449C47.6998 22.4049 47.8615 21.7623 47.8615 20.917C47.8615 20.1322 47.7277 19.5635 47.46 19.2099C47.1921 18.8565 46.836 18.6801 46.3908 18.6801C46.0822 18.6801 45.7975 18.7536 45.5366 18.901C45.2757 19.0484 45.0269 19.2457 44.7918 19.4928V23.2514C44.9497 23.3295 45.1341 23.3913 45.3438 23.4368C45.5535 23.4822 45.7611 23.5049 45.9672 23.5049C46.5836 23.5049 47.0532 23.2848 47.3766 22.8449Z" fill="white"/>
<path d="M50.4927 19.2589C50.4927 18.7384 50.4753 18.1664 50.4414 17.542H51.931C51.9865 17.8326 52.0251 18.1295 52.0467 18.433C52.6631 17.7524 53.3694 17.412 54.1659 17.412C54.6282 17.412 55.0565 17.5302 55.4501 17.7663C55.8441 18.0028 56.1621 18.3755 56.4041 18.8847C56.646 19.3942 56.767 20.0414 56.767 20.8258C56.767 21.6453 56.6286 22.3454 56.3523 22.9263C56.0766 23.5072 55.6898 23.9471 55.1934 24.2463C54.6969 24.5453 54.1231 24.695 53.4725 24.695C53.0012 24.695 52.537 24.6145 52.0789 24.4544V27.3545L50.4926 27.4911V19.259L50.4927 19.2589ZM54.6637 22.8449C54.9869 22.4049 55.1486 21.7623 55.1486 20.917C55.1486 20.1322 55.0148 19.5635 54.747 19.2099C54.4792 18.8565 54.1231 18.6801 53.678 18.6801C53.3694 18.6801 53.0847 18.7536 52.8238 18.901C52.5628 19.0484 52.3141 19.2457 52.0789 19.4928V23.2514C52.2368 23.3295 52.4212 23.3913 52.631 23.4368C52.8407 23.4822 53.0482 23.5049 53.2543 23.5049C53.8707 23.5049 54.3403 23.2848 54.6637 22.8449Z" fill="white"/>
<path d="M59.7609 24.1128C59.0758 23.7294 58.5491 23.1798 58.1809 22.4647C57.8127 21.7492 57.6289 20.9039 57.6289 19.9286C57.6289 18.8709 57.8408 17.9723 58.2644 17.2331C58.6886 16.4942 59.2654 15.9392 59.9955 15.5686C60.7249 15.1979 61.5437 15.0126 62.4518 15.0126C62.9868 15.0126 63.4971 15.0722 63.9831 15.1915C64.4691 15.3107 64.9218 15.4741 65.3417 15.6822L64.9371 16.9178C64.0936 16.5104 63.2885 16.3067 62.5225 16.3067C61.876 16.3067 61.3097 16.4462 60.8237 16.726C60.3378 17.0055 59.9601 17.4163 59.6902 17.9584C59.4207 18.5002 59.2855 19.1547 59.2855 19.9222C59.2855 20.594 59.3896 21.1901 59.5972 21.7103C59.8048 22.2304 60.1323 22.6426 60.5797 22.9458C61.0271 23.2494 61.5913 23.401 62.2717 23.401C62.5802 23.401 62.8887 23.3751 63.1966 23.3229C63.5052 23.2711 63.7941 23.1951 64.0635 23.0954V21.1902H61.9125V19.9417H65.6048V23.9084C65.074 24.1598 64.5162 24.3526 63.932 24.4871C63.3477 24.6214 62.7667 24.6886 62.1882 24.6886C61.2548 24.6886 60.446 24.4968 59.761 24.113L59.7609 24.1128Z" fill="white"/>
<path d="M71.32 24.5583C71.2646 24.2852 71.2282 23.9753 71.2113 23.6284C70.9672 23.9234 70.6493 24.1738 70.2572 24.3794C69.8658 24.5853 69.4237 24.6883 68.9314 24.6883C68.533 24.6883 68.1702 24.6091 67.8426 24.4511C67.5151 24.2928 67.2552 24.0545 67.0624 23.7358C66.8696 23.4172 66.7734 23.0281 66.7734 22.5686C66.7734 21.888 67.0153 21.3451 67.4993 20.9397C67.9832 20.5342 68.7897 20.3315 69.9202 20.3315C70.3444 20.3315 70.7638 20.362 71.1789 20.4227V20.2861C71.1789 19.6661 71.0484 19.2295 70.787 18.976C70.5261 18.7224 70.1515 18.5953 69.6634 18.5953C69.3254 18.5953 68.9635 18.6454 68.578 18.7452C68.1929 18.8449 67.8542 18.9639 67.5631 19.1027L67.3128 17.9321C67.5954 17.8022 67.9679 17.6829 68.4305 17.5746C68.8928 17.4663 69.3808 17.412 69.8947 17.412C70.4937 17.412 71.0035 17.5043 71.4229 17.6885C71.8424 17.8727 72.1699 18.1892 72.4055 18.6377C72.6411 19.0864 72.7588 19.6904 72.7588 20.4488V23.2384C72.7588 23.5289 72.7757 23.969 72.8102 24.5584H71.32L71.32 24.5583ZM70.3698 23.2578C70.6993 23.0975 70.9693 22.8981 71.179 22.6595V21.359C70.7464 21.3114 70.3935 21.2876 70.1193 21.2876C69.4644 21.2876 69.0116 21.3949 68.7613 21.6093C68.5109 21.824 68.3857 22.1134 68.3857 22.4774C68.3857 22.8243 68.4766 23.0813 68.6583 23.2482C68.8406 23.4151 69.0878 23.4985 69.4 23.4985C69.7169 23.4985 70.0402 23.4182 70.3698 23.2578H70.3698Z" fill="white"/>
<path d="M74.1465 22.874V14.5833L75.726 14.4534V22.5881C75.726 22.8871 75.7761 23.0983 75.877 23.2219C75.9774 23.3454 76.1369 23.4072 76.3556 23.4072C76.4539 23.4072 76.5933 23.3834 76.7729 23.3358L76.9594 24.4868C76.8093 24.5475 76.6261 24.5962 76.41 24.6332C76.194 24.6698 75.9896 24.6882 75.7968 24.6882C74.6964 24.6882 74.1466 24.0834 74.1466 22.8738L74.1465 22.874Z" fill="white"/>
<path d="M78.0957 22.874V14.5833L79.6751 14.4534V22.5881C79.6751 22.8871 79.7254 23.0983 79.8263 23.2219C79.9266 23.3454 80.0861 23.4072 80.3049 23.4072C80.4031 23.4072 80.5426 23.3834 80.7221 23.3358L80.9086 24.4868C80.7586 24.5475 80.5753 24.5962 80.3592 24.6332C80.1432 24.6698 79.9388 24.6882 79.746 24.6882C78.6457 24.6882 78.0958 24.0834 78.0958 22.8738L78.0957 22.874Z" fill="white"/>
<path d="M87.4845 21.2551H82.9505C83.0234 22.7246 83.7149 23.4596 85.0249 23.4596C85.3504 23.4596 85.6832 23.4194 86.0239 23.3392C86.364 23.2589 86.6905 23.1518 87.0032 23.0172L87.3497 24.1163C86.5748 24.4977 85.7038 24.6884 84.736 24.6884C83.9996 24.6884 83.379 24.5476 82.8735 24.2658C82.3685 23.984 81.9887 23.5788 81.7335 23.0498C81.4789 22.5211 81.3516 21.8839 81.3516 21.1379C81.3516 20.3621 81.4862 19.6946 81.7561 19.1354C82.0261 18.5759 82.4017 18.149 82.8834 17.8543C83.3647 17.5593 83.9203 17.412 84.5495 17.412C85.2045 17.412 85.7518 17.5671 86.1906 17.8771C86.6291 18.187 86.9545 18.5999 87.1668 19.1158C87.3787 19.6317 87.4844 20.2016 87.4844 20.8258V21.2551H87.4845ZM85.9367 20.2342C85.907 19.675 85.7676 19.2554 85.5194 18.976C85.2711 18.6962 84.9394 18.5565 84.5241 18.5565C84.1216 18.5565 83.7867 18.6972 83.5188 18.9791C83.2515 19.261 83.0767 19.6792 82.9954 20.2341H85.9366L85.9367 20.2342Z" fill="white"/>
<path d="M88.7641 19.3044C88.7641 18.9185 88.7467 18.3312 88.7129 17.542H90.1962C90.2221 17.7372 90.2463 17.9702 90.2701 18.241C90.2933 18.5122 90.3097 18.732 90.3181 18.9011C90.502 18.5932 90.6831 18.3344 90.8607 18.1242C91.0381 17.914 91.2462 17.7426 91.484 17.6104C91.7212 17.478 91.9921 17.412 92.2958 17.412C92.5399 17.412 92.7496 17.438 92.9255 17.4901L92.7264 18.8815C92.5722 18.8339 92.4009 18.8101 92.2123 18.8101C91.84 18.8101 91.5146 18.9067 91.2362 19.0995C90.9578 19.2923 90.6604 19.61 90.344 20.052V24.5583H88.764V19.3043L88.7641 19.3044Z" fill="white"/>
<path d="M93.8763 27.4293C93.645 27.388 93.4547 27.3415 93.3047 27.2894L93.5937 26.1191C93.7005 26.1493 93.8356 26.1785 93.9983 26.2068C94.161 26.2349 94.3152 26.249 94.4605 26.249C95.1626 26.249 95.6892 25.7915 96.0405 24.8768L96.1429 24.6168L93.5873 17.5419H95.2887L96.5734 21.4956C96.7832 22.1719 96.9179 22.6899 96.9781 23.0496C97.0979 22.5423 97.239 22.0353 97.4017 21.5279L98.7054 17.5419H100.304L97.7552 24.6492C97.5154 25.3213 97.2566 25.863 96.9781 26.2749C96.6997 26.6868 96.3712 26.9925 95.9924 27.1918C95.6132 27.3912 95.1562 27.491 94.6213 27.491C94.3555 27.491 94.1078 27.4704 93.8764 27.4292L93.8763 27.4293Z" fill="white"/>
<path fill-rule="evenodd" clip-rule="evenodd" d="M21.7579 5.9314H12.8003C8.58062 5.9314 7.03711 7.4942 7.03711 11.7667V20.8369C7.03711 25.1095 8.58062 26.6723 12.8002 26.6723H21.7551C25.9747 26.6723 27.5211 25.1095 27.5211 20.8369V11.7667C27.5211 7.4942 25.9776 5.9314 21.7579 5.9314H21.7579Z" fill="#C7102D"/>
<path d="M11.0947 16.3036H11.6378V19.0153H11.0947V17.914H9.86771V19.0153H9.32422V16.3036H9.86771V17.3975H11.0947V16.3036ZM14.1555 17.8558C14.1555 18.2966 13.9393 18.5322 13.5467 18.5322C13.152 18.5322 12.9346 18.29 12.9346 17.8369V16.3051H12.3911V17.8558C12.3911 18.6185 12.8097 19.0558 13.5394 19.0558C14.2762 19.0558 14.6987 18.6103 14.6987 17.8332V16.3036H14.1555V17.8558ZM20.4354 18.1683L19.8273 16.3035H19.3838L18.7759 18.1683L18.1843 16.3048H17.6059L18.5393 19.0151H18.9891L19.5981 17.2347L20.2068 19.0151H20.6606L21.5917 16.3048H21.0283L20.4353 18.1683H20.4354ZM22.5659 17.8483H23.5541V17.3546H22.5659V16.7995H24.0005V16.3053H22.0298V19.0136H24.0522V18.5197H22.5659V17.8483ZM24.7 19.0119H25.2361V16.3036H24.7V19.0119ZM15.7726 18.4492L15.529 19.0138H14.9743L16.154 16.3036H16.6335L17.8085 19.0138H17.2389L16.9984 18.4492H15.7727H15.7726ZM15.9749 17.9603H16.7963L16.3842 16.9899L15.9749 17.9603Z" fill="white"/>
<path d="M17.2807 12.8509C15.4006 12.8509 13.8711 11.3022 13.8711 9.39844H14.3528C14.3528 11.0332 15.6663 12.3631 17.2808 12.3631C18.8952 12.3631 20.2087 11.0332 20.2087 9.39844H20.6905C20.6905 11.3022 19.1609 12.8509 17.2808 12.8509H17.2807Z" fill="white"/>
<path d="M35.8228 10.7785C36.1432 10.7785 36.414 10.7028 36.6371 10.5523C36.8586 10.4 37.0263 10.193 37.1353 9.92845C37.2451 9.66314 37.3007 9.36087 37.3007 9.01996C37.3007 8.68434 37.2515 8.38635 37.1548 8.12447C37.0564 7.86293 36.9011 7.65485 36.6873 7.49973C36.4735 7.3442 36.1975 7.26651 35.8619 7.26651C35.5402 7.26651 35.2665 7.3442 35.042 7.50241C34.8178 7.65962 34.6494 7.87131 34.5378 8.13679C34.4249 8.40143 34.368 8.69381 34.368 9.01309C34.368 9.34947 34.422 9.65031 34.5272 9.91688C34.6333 10.1824 34.795 10.3922 35.0137 10.5476C35.2313 10.7008 35.5012 10.7785 35.8227 10.7785H35.8228ZM71.7803 10.7561C72.1088 10.7561 72.3533 10.6893 72.5154 10.5558C72.6779 10.4208 72.7591 10.2321 72.7591 9.98745C72.7591 9.72775 72.669 9.53023 72.4901 9.39615C72.3113 9.25997 72.0528 9.19301 71.7168 9.19301H71.183V10.7562H71.7803V10.7561ZM71.183 8.59769H71.6791C71.8436 8.59769 71.9894 8.564 72.1152 8.49914C72.2413 8.43193 72.3375 8.34176 72.4059 8.22947C72.4733 8.11751 72.5083 7.9929 72.5083 7.85865C72.5083 7.66692 72.4391 7.5242 72.3038 7.43009C72.1665 7.33615 71.9683 7.28948 71.711 7.28948H71.1829V8.59761L71.183 8.59769ZM72.4599 8.84884C72.669 8.88052 72.8564 8.94764 73.0211 9.05013C73.185 9.15161 73.3147 9.28586 73.4085 9.45171C73.5018 9.6173 73.5496 9.81289 73.5496 10.0355C73.5496 10.2952 73.4858 10.5243 73.3575 10.7226C73.2296 10.9201 73.0421 11.0753 72.7948 11.1855C72.5489 11.2959 72.2527 11.3515 71.907 11.3515H70.4079V6.69416H71.8435C72.3314 6.69416 72.6964 6.78893 72.9398 6.98084C73.1831 7.1704 73.3053 7.43311 73.3053 7.76463C73.3053 8.04067 73.2266 8.2728 73.0712 8.4585C72.9162 8.64353 72.7124 8.77401 72.4597 8.84884H72.4599ZM64.7507 6.6939H67.4597L67.3837 7.35601H65.5435V8.63951H67.279V9.26072H65.5435V10.682H67.4825L67.4151 11.3511H64.7506V6.6939H64.7507ZM61.8534 7.36582H60.428L60.496 6.6939H64.0771L64.004 7.36582H62.6477V11.3515H61.8534V7.36582H61.8534ZM57.8443 6.42323C57.5991 6.42323 57.3917 6.37923 57.2242 6.28797C57.0574 6.19797 56.9299 6.08283 56.8419 5.94095C56.7537 5.79933 56.6979 5.64656 56.6751 5.48474H57.247C57.3082 5.82698 57.5071 5.99852 57.8443 5.99852C58.1799 5.99852 58.3809 5.82698 58.4441 5.48474H59.0198C58.9961 5.64656 58.9405 5.79933 58.8531 5.94095C58.765 6.08283 58.6375 6.19797 58.4679 6.28797C58.3004 6.37923 58.0908 6.42323 57.8443 6.42323ZM59.016 11.3518V8.79052C59.016 8.46964 59.0284 8.1005 59.0513 7.68368L56.7413 11.3518H55.8589V6.69357H56.5967V9.35441C56.5967 9.64378 56.5859 9.95904 56.567 10.3024L58.842 6.69365H59.7533V11.3519H59.0159L59.016 11.3518ZM52.6619 10.7785C52.9824 10.7785 53.2539 10.7028 53.4762 10.5523C53.6987 10.4 53.8654 10.193 53.9752 9.92845C54.0843 9.66314 54.1398 9.36087 54.1398 9.01996C54.1398 8.68434 54.0906 8.38635 53.994 8.12447C53.8956 7.86293 53.7402 7.65485 53.5264 7.49973C53.3126 7.3442 53.0368 7.26651 52.7011 7.26651C52.379 7.26651 52.1056 7.3442 51.8811 7.50241C51.6569 7.65962 51.4883 7.87131 51.3768 8.13679C51.2641 8.40143 51.2071 8.69381 51.2071 9.01309C51.2071 9.34947 51.2613 9.65031 51.3664 9.91688C51.473 10.1824 51.634 10.3922 51.8528 10.5476C52.0702 10.7008 52.3403 10.7785 52.6617 10.7785H52.6619ZM52.615 11.4159C52.1538 11.4159 51.7543 11.318 51.4176 11.1228C51.0816 10.9279 50.8239 10.6538 50.6461 10.3003C50.4682 9.94839 50.3784 9.53819 50.3784 9.07058C50.3784 8.57959 50.4729 8.15019 50.6631 7.78223C50.8524 7.41509 51.125 7.12958 51.4816 6.93014C51.8388 6.72876 52.26 6.62896 52.7457 6.62896C53.2086 6.62896 53.6089 6.72608 53.9431 6.92067C54.2773 7.11408 54.5325 7.38736 54.7078 7.73907C54.8838 8.09003 54.9719 8.49822 54.9719 8.96105C54.9719 9.46042 54.8764 9.89459 54.6843 10.2638C54.4929 10.6329 54.2203 10.9165 53.8654 11.1168C53.5105 11.3162 53.0928 11.4159 52.615 11.4159ZM48.1013 9.00672C48.4253 9.00672 48.6719 8.92795 48.8415 8.77367C49.0108 8.61747 49.0953 8.39799 49.0953 8.11542C49.0953 7.82756 49.0091 7.62166 48.8359 7.4942C48.6645 7.36867 48.411 7.30439 48.0758 7.30439H47.6435V8.95803C47.843 8.9903 47.9952 9.00672 48.1013 9.00672ZM46.8498 6.69382H48.0888C48.6712 6.69382 49.117 6.81366 49.4253 7.05333C49.735 7.29375 49.8895 7.64169 49.8895 8.09614C49.8895 8.40461 49.8205 8.67403 49.6811 8.90516C49.5418 9.13494 49.3498 9.31251 49.1017 9.43528C48.854 9.55889 48.5701 9.62115 48.2472 9.62115C48.0722 9.62115 47.8704 9.59903 47.6435 9.55696V11.3514H46.8498V6.69382ZM46.2428 11.3514H45.3473L43.9774 9.29902H43.4343V11.3514H42.64V6.69407H43.4343V8.61663H43.8505L44.8039 7.22118C44.9429 7.01335 45.0833 6.86285 45.2244 6.76891C45.3651 6.67664 45.5433 6.62971 45.7561 6.62971C45.9342 6.62971 46.0932 6.65846 46.2332 6.71888L46.0676 7.34596C45.9802 7.31026 45.899 7.29216 45.8195 7.29216C45.7269 7.29216 45.6474 7.31604 45.5801 7.36213C45.513 7.41015 45.4439 7.48591 45.373 7.59124L44.5302 8.81331L46.2428 11.3515V11.3514ZM39.7431 7.36574H38.3174L38.3868 6.69382H41.9669L41.8938 7.36574H40.5376V11.3514H39.7431V7.36574ZM35.7759 11.4159C35.3138 11.4159 34.9145 11.318 34.5784 11.1228C34.2423 10.9279 33.9848 10.6538 33.8061 10.3003C33.6289 9.94839 33.5391 9.53819 33.5391 9.07058C33.5391 8.57959 33.6338 8.15019 33.824 7.78223C34.0131 7.41509 34.2857 7.12958 34.6426 6.93014C34.9996 6.72876 35.4207 6.62896 35.9056 6.62896C36.3695 6.62896 36.7697 6.72608 37.104 6.92067C37.4383 7.11408 37.6938 7.38736 37.8687 7.73907C38.0448 8.09003 38.1328 8.49822 38.1328 8.96105C38.1328 9.46042 38.0363 9.89459 37.8452 10.2638C37.6538 10.6329 37.3812 10.9165 37.0263 11.1168C36.6713 11.3162 36.2536 11.4159 35.7759 11.4159Z" fill="white"/>
</svg>
