<svg width="60" height="60" viewBox="0 0 60 60" fill="none" xmlns="http://www.w3.org/2000/svg">
<g filter="url(#filter0_d_2_394)">
<rect x="5" y="5" width="50" height="50" rx="15" fill="white"/>
</g>
<path d="M31.6401 26.9261C31.3289 26.5992 30.778 26.8195 30.778 27.2709V38.3052C30.778 38.5813 30.5542 38.8052 30.278 38.8052H29.278C29.0019 38.8052 28.778 38.5813 28.778 38.3052V27.2709C28.778 26.8195 28.2271 26.5992 27.9159 26.9261L23.7761 31.2742C23.5791 31.4812 23.2489 31.4812 23.0519 31.2742L22.3283 30.5142C22.1444 30.3211 22.1444 30.0177 22.3283 29.8246L29.4159 22.3803C29.6129 22.1734 29.9431 22.1734 30.1401 22.3803L37.2278 29.8246C37.4116 30.0177 37.4116 30.3211 37.2278 30.5142L36.5041 31.2742C36.3071 31.4812 35.977 31.4812 35.7799 31.2742L31.6401 26.9261Z" fill="#5C5C5C"/>
<defs>
<filter id="filter0_d_2_394" x="0" y="0" width="60" height="60" filterUnits="userSpaceOnUse" color-interpolation-filters="sRGB">
<feFlood flood-opacity="0" result="BackgroundImageFix"/>
<feColorMatrix in="SourceAlpha" type="matrix" values="0 0 0 0 0 0 0 0 0 0 0 0 0 0 0 0 0 0 127 0" result="hardAlpha"/>
<feOffset/>
<feGaussianBlur stdDeviation="2.5"/>
<feComposite in2="hardAlpha" operator="out"/>
<feColorMatrix type="matrix" values="0 0 0 0 0 0 0 0 0 0 0 0 0 0 0 0 0 0 0.15 0"/>
<feBlend mode="normal" in2="BackgroundImageFix" result="effect1_dropShadow_2_394"/>
<feBlend mode="normal" in="SourceGraphic" in2="effect1_dropShadow_2_394" result="shape"/>
</filter>
</defs>
</svg>
