<svg width="23" height="20" viewBox="0 0 23 20" fill="none" xmlns="http://www.w3.org/2000/svg">
<path d="M4.06362 9.78927L5.75571 13.1794C6.09413 11.8234 6.6356 9.04345 6.09413 8.77224M9.47832 8.09421L11.5088 13.1794C11.9601 11.5973 12.7271 8.29762 12.1857 7.7552M16.2467 8.77224L18.2772 13.1794C18.6156 12.4152 19.2248 10.7351 18.9541 10.1283M4.40204 9.11131C5.75571 7.64225 9.61369 4.02606 12.8625 4.02606C14.329 2.444 17.9388 -0.245502 20.6462 1.65297C23.3535 3.55144 20.1949 6.96421 18.2772 8.43328M11.5088 4.70414L13.5394 6.39921C13.5394 6.0602 13.4717 5.17876 13.2009 4.36513M1.01801 14.1965C0.401659 7.71497 15.774 4.04351 20.8316 11.6238C21.8406 13.1359 21.6055 15.2032 20.2304 16.3921C14.2798 21.5368 1.01769 18.1378 1.01801 14.1965Z" stroke="#F21066" stroke-width="1.5" stroke-linecap="round"/>
</svg>
