<svg width="61" height="61" viewBox="0 0 61 61" fill="none" xmlns="http://www.w3.org/2000/svg">
<path d="M30.5 19.6982L30.5 16.1832" stroke="#F50F64" stroke-width="2.9" stroke-linecap="round"/>
<path fill-rule="evenodd" clip-rule="evenodd" d="M48.5513 24.9717H12.4492V30.2442C13.6837 30.2442 14.301 30.2442 14.8162 30.4486C15.3511 30.6608 15.8108 31.0274 16.1368 31.5017C16.4507 31.9585 16.5881 32.5603 16.8628 33.7639L18.6404 41.5523C19.134 43.715 19.3808 44.7963 20.1742 45.429C20.9675 46.0617 22.0767 46.0617 24.295 46.0617H36.7055C38.9238 46.0617 40.0329 46.0617 40.8263 45.429C41.6197 44.7963 41.8665 43.715 42.3601 41.5523L42.3601 41.5523L44.1377 33.7639C44.4124 32.5603 44.5498 31.9585 44.8637 31.5017C45.1896 31.0274 45.6493 30.6608 46.1843 30.4486C46.6995 30.2442 47.3167 30.2442 48.5513 30.2442V24.9717ZM25.6109 33.5141C25.4757 32.7248 24.7263 32.1945 23.937 32.3296C23.1477 32.4647 22.6173 33.2141 22.7524 34.0034L23.655 39.276C23.7901 40.0653 24.5395 40.5956 25.3288 40.4605C26.1182 40.3254 26.6485 39.576 26.5134 38.7866L25.6109 33.5141ZM38.2464 34.0034C38.3815 33.2141 37.8512 32.4647 37.0618 32.3296C36.2725 32.1945 35.5231 32.7248 35.388 33.5141L34.4854 38.7866C34.3503 39.576 34.8806 40.3254 35.67 40.4605C36.4593 40.5956 37.2087 40.0653 37.3438 39.276L38.2464 34.0034Z" fill="#F50F64"/>
<rect x="1" y="1" width="59" height="59" rx="14" stroke="#F50F64" stroke-width="2"/>
</svg>
