<svg width="21" height="20" viewBox="0 0 21 20" fill="none" xmlns="http://www.w3.org/2000/svg">
<path d="M1 8.60561V7.85561H0.217969L0.250655 8.63696L1 8.60561ZM16.2721 8.60561H17.0221V7.85561H16.2721V8.60561ZM1 18.25C0.585786 18.25 0.25 18.5858 0.25 19C0.25 19.4142 0.585786 19.75 1 19.75V18.25ZM16.5267 19.75C16.9409 19.75 17.2767 19.4142 17.2767 19C17.2767 18.5858 16.9409 18.25 16.5267 18.25V19.75ZM16.2584 8.91938C15.8716 9.06756 15.6781 9.50125 15.8263 9.88805C15.9745 10.2749 16.4082 10.4683 16.795 10.3201L16.2584 8.91938ZM15.627 14.4596C15.2197 14.5347 14.9504 14.9258 15.0255 15.3332C15.1006 15.7405 15.4918 16.0098 15.8991 15.9347L15.627 14.4596ZM5.32412 0.307522C4.94167 0.148435 4.50267 0.329503 4.34359 0.711949C4.1845 1.09439 4.36557 1.53339 4.74802 1.69248L5.32412 0.307522ZM5.29353 3.78872L4.84401 3.18836L5.29353 3.78872ZM5.93584 7.31581C6.34362 7.3885 6.73313 7.11686 6.80583 6.70908C6.87853 6.30129 6.60688 5.91179 6.1991 5.83909L5.93584 7.31581ZM8.37854 0.307522C7.9961 0.148435 7.5571 0.329503 7.39801 0.711949C7.23893 1.09439 7.42 1.53339 7.80244 1.69248L8.37854 0.307522ZM8.34795 3.78872L7.89844 3.18836L8.34795 3.78872ZM8.99027 7.31581C9.39805 7.3885 9.78756 7.11686 9.86025 6.70908C9.93295 6.30129 9.66131 5.91179 9.25353 5.83909L8.99027 7.31581ZM11.433 0.307522C11.0505 0.148435 10.6115 0.329503 10.4524 0.711949C10.2934 1.09439 10.4744 1.53339 10.8569 1.69248L11.433 0.307522ZM11.4024 3.78872L10.9529 3.18836L11.4024 3.78872ZM12.0447 7.31581C12.4525 7.3885 12.842 7.11686 12.9147 6.70908C12.9874 6.30129 12.7157 5.91179 12.308 5.83909L12.0447 7.31581ZM1 9.35561H16.2721V7.85561H1V9.35561ZM15.5221 8.60561C15.5221 10.1235 15.4898 11.4599 15.3376 12.6198C15.1854 13.7798 14.9188 14.7137 14.4822 15.4475C13.658 16.8328 12.0748 17.7429 8.63606 17.7429V19.2429C12.3243 19.2429 14.5592 18.2516 15.7713 16.2144C16.3528 15.237 16.6589 14.0793 16.8248 12.815C16.9908 11.5506 17.0221 10.1299 17.0221 8.60561H15.5221ZM8.63606 17.7429C5.5325 17.7429 3.9846 16.8508 3.10596 15.4354C2.16223 13.9151 1.87759 11.6399 1.74934 8.57426L0.250655 8.63696C0.376943 11.6558 0.650691 14.3242 1.83154 16.2265C3.07748 18.2336 5.22034 19.2429 8.63606 19.2429V17.7429ZM1 19.75H16.5267V18.25H1V19.75ZM16.795 10.3201C17.9835 9.86478 19.0495 10.6307 19.2251 11.5924C19.3075 12.0437 19.1978 12.5795 18.7052 13.094C18.1976 13.6242 17.2503 14.1602 15.627 14.4596L15.8991 15.9347C17.712 15.6003 18.9919 14.9637 19.7888 14.1313C20.6007 13.2831 20.8729 12.2661 20.7007 11.323C20.3672 9.49607 18.3788 8.10707 16.2584 8.91938L16.795 10.3201ZM4.74802 1.69248C4.93584 1.77061 5.1346 1.86907 5.29956 1.98427C5.47184 2.10458 5.55236 2.20508 5.58124 2.26686C5.59337 2.29281 5.61269 2.32954 5.56219 2.4401C5.49587 2.58533 5.31006 2.83941 4.84401 3.18836L5.74305 4.38908C6.3084 3.96578 6.71355 3.52983 6.92664 3.06323C7.15556 2.56197 7.14274 2.0651 6.94009 1.63161C6.75419 1.23398 6.43728 0.949234 6.1584 0.754472C5.87219 0.554602 5.56604 0.408155 5.32412 0.307522L4.74802 1.69248ZM4.84401 3.18836C4.272 3.61666 3.8612 4.07676 3.6722 4.58403C3.46767 5.13295 3.55342 5.65698 3.82127 6.08183C4.06855 6.47405 4.44695 6.74882 4.80285 6.93385C5.16689 7.12311 5.56795 7.25022 5.93584 7.31581L6.1991 5.83909C5.96534 5.79742 5.71098 5.71537 5.49478 5.60297C5.27044 5.48634 5.14379 5.36693 5.09014 5.28185C5.05707 5.22939 5.04603 5.193 5.0778 5.10776C5.12508 4.98086 5.28366 4.73305 5.74305 4.38908L4.84401 3.18836ZM7.80244 1.69248C7.99027 1.77061 8.18903 1.86907 8.35399 1.98427C8.52627 2.10458 8.60678 2.20508 8.63567 2.26686C8.6478 2.29281 8.66711 2.32954 8.61662 2.4401C8.5503 2.58533 8.36449 2.83941 7.89844 3.18836L8.79747 4.38908C9.36282 3.96578 9.76797 3.52983 9.98106 3.06323C10.21 2.56197 10.1972 2.0651 9.99451 1.63161C9.80862 1.23398 9.49171 0.949234 9.21282 0.754472C8.92662 0.554602 8.62047 0.408155 8.37854 0.307522L7.80244 1.69248ZM7.89844 3.18836C7.32642 3.61666 6.91563 4.07676 6.72662 4.58403C6.52209 5.13295 6.60785 5.65698 6.8757 6.08183C7.12298 6.47405 7.50137 6.74882 7.85728 6.93385C8.22131 7.12311 8.62238 7.25022 8.99027 7.31581L9.25353 5.83909C9.01976 5.79742 8.76541 5.71537 8.5492 5.60297C8.32487 5.48634 8.19821 5.36693 8.14457 5.28185C8.1115 5.22939 8.10046 5.193 8.13222 5.10776C8.1795 4.98086 8.33808 4.73305 8.79747 4.38908L7.89844 3.18836ZM10.8569 1.69248C11.0447 1.77061 11.2435 1.86907 11.4084 1.98427C11.5807 2.10458 11.6612 2.20508 11.6901 2.26686C11.7022 2.29281 11.7215 2.32954 11.671 2.4401C11.6047 2.58533 11.4189 2.83941 10.9529 3.18836L11.8519 4.38908C12.4172 3.96578 12.8224 3.52983 13.0355 3.06323C13.2644 2.56197 13.2516 2.0651 13.0489 1.63161C12.863 1.23398 12.5461 0.949234 12.2672 0.754472C11.981 0.554602 11.6749 0.408155 11.433 0.307522L10.8569 1.69248ZM10.9529 3.18836C10.3808 3.61666 9.97005 4.07676 9.78105 4.58403C9.57652 5.13295 9.66227 5.65698 9.93012 6.08183C10.1774 6.47405 10.5558 6.74882 10.9117 6.93385C11.2757 7.12311 11.6768 7.25022 12.0447 7.31581L12.308 5.83909C12.0742 5.79742 11.8198 5.71537 11.6036 5.60297C11.3793 5.48634 11.2526 5.36693 11.199 5.28185C11.1659 5.22939 11.1549 5.193 11.1866 5.10776C11.2339 4.98086 11.3925 4.73305 11.8519 4.38908L10.9529 3.18836Z" fill="#F21066"/>
</svg>
