<svg width="31" height="31" viewBox="0 0 31 31" fill="none" xmlns="http://www.w3.org/2000/svg">
<circle cx="15.5" cy="15.5" r="15.5" fill="#E6DAF6"/>
<path d="M13.5336 16.4554C13.1882 16.5063 12.8615 16.4803 12.5535 16.3774C12.2445 16.2676 11.9861 16.0939 11.7784 15.8563C11.5707 15.6187 11.4435 15.341 11.3967 15.0232C11.3499 14.7054 11.3922 14.4063 11.5236 14.1258C11.654 13.8384 11.8518 13.601 12.1171 13.4137C12.3814 13.2195 12.6862 13.097 13.0316 13.0462C13.3697 12.9964 13.6932 13.0264 14.0022 13.1362C14.3102 13.239 14.5681 13.4093 14.7758 13.6469C14.9824 13.8776 15.1092 14.1519 15.156 14.4697C15.2027 14.7875 15.161 15.09 15.0306 15.3774C14.9002 15.6648 14.7029 15.9056 14.4386 16.0998C14.1733 16.2871 13.8717 16.4056 13.5336 16.4554ZM16.7871 12.6203L17.9888 12.4433L14.8066 19.8993L13.6159 20.0747L16.7871 12.6203ZM13.4027 15.4901C13.6085 15.4598 13.7674 15.3658 13.8793 15.2082C13.9986 15.0494 14.042 14.8595 14.0094 14.6385C13.9779 14.4243 13.8822 14.2584 13.7222 14.1408C13.5695 14.0221 13.3903 13.978 13.1845 14.0083C12.9641 14.0407 12.7942 14.1363 12.6749 14.295C12.5629 14.4527 12.5227 14.6386 12.5542 14.8527C12.5868 15.0738 12.6794 15.2437 12.832 15.3624C12.9847 15.4811 13.1749 15.5236 13.4027 15.4901ZM18.5606 19.4631C18.2225 19.5129 17.8994 19.4863 17.5915 19.3834C17.2824 19.2737 17.0241 19.1 16.8164 18.8623C16.6087 18.6247 16.4815 18.347 16.4347 18.0292C16.3879 17.7114 16.4302 17.4123 16.5616 17.1318C16.692 16.8444 16.8898 16.6071 17.1551 16.4198C17.4193 16.2256 17.7205 16.1036 18.0586 16.0538C18.3967 16.0041 18.7202 16.0341 19.0292 16.1438C19.3445 16.2456 19.6061 16.4153 19.8138 16.653C20.0204 16.8837 20.1472 17.1579 20.1939 17.4757C20.2407 17.7935 20.1989 18.0961 20.0686 18.3835C19.9382 18.6709 19.7408 18.9117 19.4766 19.1059C19.2113 19.2932 18.906 19.4122 18.5606 19.4631ZM18.4282 18.4874C18.6339 18.4571 18.7928 18.3631 18.9048 18.2055C19.0241 18.0467 19.0679 17.8603 19.0364 17.6461C19.0049 17.432 18.9091 17.2661 18.7491 17.1485C18.5965 17.0298 18.4173 16.9856 18.2115 17.0159C17.9837 17.0495 17.8138 17.1451 17.7018 17.3027C17.5889 17.4534 17.5487 17.6393 17.5812 17.8604C17.6138 18.0815 17.7063 18.2513 17.859 18.37C18.0106 18.4818 18.2003 18.5209 18.4282 18.4874Z" fill="#8344D6"/>
<path d="M21.1891 10.3691L21.1908 10.3705L25.7747 14.5538L22.591 19.8808L22.5899 19.8827C22.4457 20.1252 22.1375 20.3557 21.7166 20.4179C21.7166 20.4179 21.7165 20.4179 21.7165 20.4179C21.7163 20.4179 21.7161 20.418 21.7159 20.418L10.7886 22.0181L10.7879 22.0182C10.0566 22.1259 9.61379 21.6904 9.5634 21.3482L8.29306 12.7203C8.24267 12.3781 8.54117 11.8335 9.2725 11.7258L9.2732 11.7257L20.198 10.1084C20.1981 10.1083 20.1982 10.1083 20.1983 10.1083C20.6193 10.0464 20.9811 10.1783 21.1891 10.3691Z" stroke="#8344D6" stroke-width="1.78846"/>
</svg>
