<svg width="145" height="83" viewBox="0 0 145 83" fill="none" xmlns="http://www.w3.org/2000/svg">
<path d="M83.3758 73.5076C83.3074 78.2693 87.4809 82.265 92.4413 82.1652C95.7254 82.1652 98.3253 80.6001 99.7963 78.0695L96.5806 75.672C95.4859 77.1704 94.2544 78.0362 92.5097 78.0362C89.9098 78.0362 88.0625 76.1382 88.0625 73.5076C88.0625 70.9437 89.9098 69.0124 92.5097 69.0124C94.2886 69.0124 95.5201 69.9114 96.5806 71.4099L99.7963 68.9791C98.3253 66.4484 95.7596 64.9167 92.4413 64.9167C87.4125 64.9167 83.3758 68.6794 83.3758 73.5076Z" fill="#8344D6"/>
<path d="M101.498 81.7656H106.117V56.792H101.498V81.7656Z" fill="#8344D6"/>
<path d="M108.804 74.5066C108.804 79.1017 112.122 82.1652 116.638 82.1652C121.051 82.1652 124.403 79.1017 124.403 74.5066V65.283H119.785V74.8729C119.785 76.7709 118.417 78.0362 116.638 78.0362C114.756 78.0362 113.422 76.7709 113.422 74.8729V65.283H108.804V74.5066Z" fill="#8344D6"/>
<path d="M145 73.5409C145 68.5795 141.511 64.9167 136.79 64.9167C134.635 64.9167 132.958 65.5827 131.727 66.8813V56.792H127.109V81.7656H131.351V79.7344C132.548 81.2994 134.464 82.1652 136.79 82.1652C141.511 82.1652 145 78.5024 145 73.5409ZM140.313 73.5076C140.313 76.2714 138.432 78.0695 135.935 78.0695C133.608 78.0695 131.658 76.5045 131.658 73.5409C131.658 70.6107 133.574 68.9791 135.935 68.9791C138.398 68.9791 140.313 70.8105 140.313 73.5076Z" fill="#8344D6"/>
<path d="M34.6613 25.0712C34.6613 15.1629 27.9014 7.79858 18.7556 7.79858C14.2489 7.79858 10.405 9.53923 8.21799 12.6858V8.53501H0V53.7249H8.947V38.4607C11.3329 41.0717 14.7791 42.4776 18.7556 42.4776C27.9014 42.4776 34.6613 34.9794 34.6613 25.0712ZM25.5818 25.1381C25.5818 30.5609 21.8704 34.243 17.0987 34.243C12.5258 34.243 8.81445 30.9626 8.81445 25.0712C8.81445 19.1128 12.5921 15.9662 17.0987 15.9662C21.9367 15.9662 25.5818 19.5814 25.5818 25.1381Z" fill="#8344D6"/>
<path d="M65.1628 21.8464C65.1628 12.6653 59.6006 7.63916 50.9556 7.63916C45.1252 7.63916 40.3001 9.91769 36.4802 14.4747L41.1713 20.037C44.12 16.8873 46.5325 15.48 49.9503 15.48C53.9713 15.48 56.1157 17.6245 56.1157 21.3103V22.7847H47.8058C40.099 22.7847 35.2739 26.4705 35.2739 32.4349C35.2739 38.2652 39.6969 42.3532 46.7336 42.3532C50.9556 42.3532 54.4404 40.8118 56.8529 38.3323V41.549H65.1628V21.8464ZM56.1157 29.1511C56.1157 32.971 53.1 35.7187 49.1461 35.7187C46.2645 35.7187 44.388 34.3113 44.388 32.0998C44.388 29.8883 46.0634 28.749 49.0121 28.749H56.1157V29.1511Z" fill="#8344D6"/>
<path d="M87.986 8.37719C87.1148 8.10913 86.1766 7.9751 85.0373 7.9751C81.3515 7.9751 78.1347 9.58347 75.9232 12.3311V8.37719H67.6133V41.5499H76.6604V24.997C76.6604 19.3007 80.1452 16.352 85.5734 16.352H87.986V8.37719Z" fill="#8344D6"/>
<path d="M109.969 33.9769C107.624 34.1779 106.216 34.2449 105.68 34.2449C101.391 34.2449 99.5148 32.8376 99.5148 29.0847V16.0167H108.897V8.37694H99.5148V0H90.4677V8.37694H85.2405V16.3258H87.8541L90.4677 16.6349V29.8889C90.4677 38.1988 95.3598 42.3538 103.737 42.3538C105.747 42.3538 107.825 42.0857 109.969 41.5496V33.9769Z" fill="#8344D6"/>
<path d="M135.361 8.37622L126.716 30.1563L118.607 8.37622H109.024L121.757 39.5384L120.752 41.817C119.21 45.3018 117.066 46.307 113.849 46.307C113.313 46.307 112.04 46.24 109.962 46.0389V53.6117C111.973 54.1478 113.916 54.4159 115.792 54.4159C121.958 54.4159 125.979 51.3332 128.995 44.4306L144.877 8.37622H135.361Z" fill="#8344D6"/>
</svg>
