<svg width="209" height="55" viewBox="0 0 209 55" fill="none" xmlns="http://www.w3.org/2000/svg">
<path d="M147.001 33.7157C146.932 38.4773 151.106 42.4731 156.066 42.3732C159.35 42.3732 161.95 40.8082 163.421 38.2775L160.206 35.88C159.111 37.3784 157.879 38.2442 156.135 38.2442C153.535 38.2442 151.687 36.3462 151.687 33.7157C151.687 31.1517 153.535 29.2204 156.135 29.2204C157.914 29.2204 159.145 30.1195 160.206 31.6179L163.421 29.1871C161.95 26.6565 159.385 25.1247 156.066 25.1247C151.038 25.1247 147.001 28.8874 147.001 33.7157Z" fill="#8344D6"/>
<path d="M165.123 41.9736H169.742V17H165.123V41.9736Z" fill="#8344D6"/>
<path d="M172.429 34.7146C172.429 39.3097 175.747 42.3732 180.263 42.3732C184.676 42.3732 188.028 39.3097 188.028 34.7146V25.491H183.41V35.0809C183.41 36.9789 182.042 38.2442 180.263 38.2442C178.381 38.2442 177.047 36.9789 177.047 35.0809V25.491H172.429V34.7146Z" fill="#8344D6"/>
<path d="M208.625 33.749C208.625 28.7875 205.136 25.1247 200.415 25.1247C198.26 25.1247 196.583 25.7907 195.352 27.0893V17H190.734V41.9736H194.976V39.9424C196.173 41.5074 198.089 42.3732 200.415 42.3732C205.136 42.3732 208.625 38.7104 208.625 33.749ZM203.938 33.7157C203.938 36.4794 202.057 38.2775 199.56 38.2775C197.233 38.2775 195.283 36.7125 195.283 33.749C195.283 30.8187 197.199 29.1871 199.56 29.1871C202.023 29.1871 203.938 31.0185 203.938 33.7157Z" fill="#8344D6"/>
<path d="M34.6613 25.0714C34.6613 15.1631 27.9014 7.79883 18.7556 7.79883C14.2489 7.79883 10.405 9.53948 8.21799 12.686V8.53526H0V53.7251H8.947V38.461C11.3329 41.072 14.7791 42.4779 18.7556 42.4779C27.9014 42.4779 34.6613 34.9797 34.6613 25.0714ZM25.5818 25.1383C25.5818 30.5611 21.8704 34.2433 17.0987 34.2433C12.5258 34.2433 8.81445 30.9628 8.81445 25.0714C8.81445 19.113 12.5921 15.9665 17.0987 15.9665C21.9367 15.9665 25.5818 19.5817 25.5818 25.1383Z" fill="#8344D6"/>
<path d="M65.1628 21.8464C65.1628 12.6653 59.6006 7.63916 50.9556 7.63916C45.1252 7.63916 40.3001 9.91769 36.4802 14.4747L41.1713 20.037C44.12 16.8873 46.5325 15.48 49.9503 15.48C53.9713 15.48 56.1157 17.6245 56.1157 21.3103V22.7847H47.8058C40.099 22.7847 35.2739 26.4705 35.2739 32.4349C35.2739 38.2652 39.6969 42.3532 46.7336 42.3532C50.9556 42.3532 54.4404 40.8118 56.8529 38.3323V41.549H65.1628V21.8464ZM56.1157 29.1511C56.1157 32.971 53.1 35.7187 49.1461 35.7187C46.2645 35.7187 44.388 34.3113 44.388 32.0998C44.388 29.8883 46.0634 28.749 49.0121 28.749H56.1157V29.1511Z" fill="#8344D6"/>
<path d="M87.986 8.37719C87.1148 8.10913 86.1766 7.9751 85.0373 7.9751C81.3515 7.9751 78.1347 9.58347 75.9232 12.3311V8.37719H67.6133V41.5499H76.6604V24.997C76.6604 19.3007 80.1452 16.352 85.5734 16.352H87.986V8.37719Z" fill="#8344D6"/>
<path d="M109.969 33.9769C107.624 34.1779 106.216 34.2449 105.68 34.2449C101.391 34.2449 99.5148 32.8376 99.5148 29.0847V16.0167H108.897V8.37694H99.5148V0H90.4677V8.37694H85.2405V16.3258H87.8541L90.4677 16.6349V29.8889C90.4677 38.1988 95.3598 42.3538 103.737 42.3538C105.747 42.3538 107.825 42.0857 109.969 41.5496V33.9769Z" fill="#8344D6"/>
<path d="M135.361 8.37646L126.716 30.1565L118.607 8.37646H109.024L121.757 39.5387L120.752 41.8172C119.21 45.302 117.066 46.3072 113.849 46.3072C113.313 46.3072 112.04 46.2402 109.962 46.0392V53.6119C111.973 54.1481 113.916 54.4161 115.792 54.4161C121.958 54.4161 125.979 51.3334 128.995 44.4308L144.877 8.37646H135.361Z" fill="#8344D6"/>
</svg>
