<svg width="63" height="36" viewBox="0 0 63 36" fill="none" xmlns="http://www.w3.org/2000/svg">
<path d="M36.2255 31.9652C36.1957 34.0359 38.0091 35.7735 40.1642 35.73C41.5911 35.73 42.7207 35.0495 43.3598 33.949L41.9627 32.9064C41.4871 33.558 40.952 33.9345 40.194 33.9345C39.0643 33.9345 38.2617 33.1091 38.2617 31.9652C38.2617 30.8503 39.0643 30.0104 40.194 30.0104C40.9668 30.0104 41.5019 30.4014 41.9627 31.053L43.3598 29.996C42.7207 28.8955 41.606 28.2294 40.1642 28.2294C37.9793 28.2294 36.2255 29.8656 36.2255 31.9652Z" fill="#8344D6"/>
<path d="M44.0994 35.5563H46.1059V24.6963H44.0994V35.5563Z" fill="#8344D6"/>
<path d="M47.2735 32.3996C47.2735 34.3979 48.7153 35.73 50.6772 35.73C52.5946 35.73 54.0512 34.3979 54.0512 32.3996V28.3887H52.0446V32.5589C52.0446 33.3843 51.4501 33.9345 50.6772 33.9345C49.8597 33.9345 49.2801 33.3843 49.2801 32.5589V28.3887H47.2735V32.3996Z" fill="#8344D6"/>
<path d="M63 31.9797C63 29.8222 61.484 28.2294 59.4328 28.2294C58.4965 28.2294 57.7682 28.519 57.2331 29.0837V24.6963H55.2265V35.5563H57.0696V34.673C57.5898 35.3535 58.4221 35.73 59.4328 35.73C61.484 35.73 63 34.1372 63 31.9797ZM60.9638 31.9652C60.9638 33.1671 60.1463 33.949 59.0613 33.949C58.0506 33.949 57.2034 33.2684 57.2034 31.9797C57.2034 30.7055 58.0357 29.996 59.0613 29.996C60.1314 29.996 60.9638 30.7923 60.9638 31.9652Z" fill="#8344D6"/>
<path d="M15.0597 10.9025C15.0597 6.59377 12.1227 3.39136 8.14895 3.39136C6.1909 3.39136 4.5208 4.14829 3.57057 5.5166V3.7116H0V23.3628H3.88731V16.725C4.92393 17.8604 6.42126 18.4718 8.14895 18.4718C12.1227 18.4718 15.0597 15.2112 15.0597 10.9025ZM11.1148 10.9316C11.1148 13.2897 9.50231 14.8909 7.42908 14.8909C5.44223 14.8909 3.82972 13.4644 3.82972 10.9025C3.82972 8.31143 5.47103 6.94313 7.42908 6.94313C9.53111 6.94313 11.1148 8.51522 11.1148 10.9316Z" fill="#8344D6"/>
<path d="M28.3124 9.50042C28.3124 5.50793 25.8956 3.32227 22.1396 3.32227C19.6064 3.32227 17.5099 4.3131 15.8503 6.29477L17.8885 8.71358C19.1696 7.34389 20.2178 6.73191 21.7028 6.73191C23.4498 6.73191 24.3816 7.66446 24.3816 9.26728V9.90841H20.7711C17.4226 9.90841 15.3262 11.5112 15.3262 14.1049C15.3262 16.6403 17.2479 18.4179 20.3052 18.4179C22.1396 18.4179 23.6536 17.7477 24.7019 16.6694V18.0682H28.3124V9.50042ZM24.3816 12.6769C24.3816 14.338 23.0713 15.5329 21.3534 15.5329C20.1014 15.5329 19.2861 14.9209 19.2861 13.9592C19.2861 12.9975 20.014 12.5021 21.2952 12.5021H24.3816V12.6769Z" fill="#8344D6"/>
<path d="M38.2285 3.64287C37.85 3.5263 37.4424 3.46802 36.9474 3.46802C35.3459 3.46802 33.9483 4.16743 32.9875 5.36226V3.64287H29.377V18.0683H33.3078V10.8701C33.3078 8.39306 34.8218 7.1108 37.1803 7.1108H38.2285V3.64287Z" fill="#8344D6"/>
<path d="M47.7793 14.7751C46.7602 14.8625 46.1488 14.8917 45.9158 14.8917C44.0524 14.8917 43.2371 14.2797 43.2371 12.6477V6.96499H47.3135V3.64278H43.2371V0H39.3063V3.64278H37.0352V7.09941H38.1707L39.3063 7.23382V12.9974C39.3063 16.6111 41.4318 18.4179 45.0715 18.4179C45.945 18.4179 46.8476 18.3013 47.7793 18.0682V14.7751Z" fill="#8344D6"/>
<path d="M58.8131 3.64258L55.057 13.1138L51.5339 3.64258H47.3701L52.9024 17.1937L52.4656 18.1846C51.7959 19.7 50.8642 20.1371 49.4665 20.1371C49.2336 20.1371 48.6804 20.1079 47.7778 20.0205V23.3136C48.6513 23.5467 49.4957 23.6633 50.3109 23.6633C52.9897 23.6633 54.7367 22.3228 56.047 19.3211L62.9477 3.64258H58.8131Z" fill="#8344D6"/>
</svg>
