<svg width="160" height="119" viewBox="0 0 160 119" fill="none" xmlns="http://www.w3.org/2000/svg">
<path d="M0 0V63.6851H15.0887L14.8597 61.0883L14.6168 58.2911L17.4277 58.0494L136.971 47.6413L139.782 47.3926L140.025 50.1898L141.212 63.6851H160V0H0Z" fill="#F4146F"/>
<path d="M21.3141 22.3703L21.5154 24.9327H21.5917C22.6745 22.9298 24.2083 21.9974 26.1517 21.9974C28.6156 21.9974 29.9273 22.9988 30.7879 24.9327H30.8573C32.3912 22.5913 34.1888 21.9974 35.7574 21.9974C40.4283 21.9974 41.3098 25.1951 41.3098 28.5033V39.8508H35.334V29.8846C35.334 28.2823 35.4034 26.7214 33.6891 26.7214C31.9748 26.7214 31.6069 28.1373 31.6069 29.7672V39.8508H25.6172V29.8846C25.6172 28.2823 25.6867 26.7214 23.9723 26.7214C22.258 26.7214 21.8902 28.1373 21.8902 29.7672V39.8508H15.963V29.3597C15.5528 29.399 15.1389 29.3469 14.7514 29.2072C14.364 29.0675 14.0126 28.8437 13.7229 28.5521C13.4332 28.2605 13.2123 27.9083 13.0764 27.5212C12.9404 27.1341 12.8928 26.7217 12.9369 26.314C11.2573 26.1966 10.1607 25.0501 10.1607 22.8607V22.3427L21.3141 22.3703Z" fill="white"/>
<path d="M48.9727 40.1477C46.134 40.1477 43.3647 38.8839 43.3647 35.0162C43.3647 28.0613 53.8311 31.4041 53.8311 27.6884C53.8311 26.8319 53.3105 26.3071 51.9641 26.3071C50.6176 26.3071 49.7223 27.0875 49.4238 28.7243L44.0727 27.8748C45.0097 23.7309 48.1884 21.9974 52.1862 21.9974C56.7808 21.9974 59.8207 23.4823 59.8207 28.4688V33.4898C59.8207 34.0493 59.9318 38.4764 60.0428 39.8508H54.6917L54.4696 37.9169H54.3932C53.1231 39.4778 51.2145 40.1477 48.9727 40.1477ZM49.4932 34.4222C49.4893 34.6497 49.5347 34.8754 49.6263 35.0838C49.718 35.2923 49.8538 35.4786 50.0245 35.63C50.1951 35.7815 50.3966 35.8945 50.6151 35.9614C50.8337 36.0283 51.0641 36.0475 51.2908 36.0176C52.9704 36.0176 53.9074 34.9402 53.9074 33.255V31.853C52.3388 33.0824 49.4932 32.371 49.4932 34.4222Z" fill="white"/>
<path d="M70.6891 42.1299C72.5908 42.1299 73.5625 41.3495 73.5625 39.1187V37.0951H73.4861C72.9367 37.7803 72.2371 38.3313 71.4407 38.706C70.6443 39.0807 69.7723 39.2691 68.8915 39.2568C64.2969 39.2568 62.1245 35.6102 62.1245 30.6651C62.1245 25.72 64.5953 21.9974 69.1553 21.9974C70.032 22.03 70.8909 22.2534 71.6716 22.652C72.4522 23.0505 73.1356 23.6145 73.6735 24.3042H73.7499L73.8609 22.3703H79.5452V37.247C79.5452 43.7944 76.4775 46.4327 70.6128 46.4327C67.3993 46.4327 64.2969 45.3138 62.7977 41.5981L67.8435 40.3342C68.0429 40.9103 68.4332 41.4018 68.9502 41.728C69.4673 42.0543 70.0805 42.196 70.6891 42.1299ZM73.7499 30.7134C73.7499 27.9508 72.8546 26.5695 71.0223 26.5695C69.19 26.5695 68.2461 27.9508 68.2461 30.7134C68.2461 33.5796 69.183 34.954 71.0223 34.954C72.8615 34.954 73.7499 33.5658 73.7499 30.6996V30.7134Z" fill="white"/>
<path d="M93.7802 21.9972C97.9445 21.9972 98.9023 25.119 98.9023 28.7657V39.8506H92.9265V29.919C92.9265 28.3167 92.8502 26.7213 90.8444 26.7213C88.9357 26.7213 88.5262 28.3167 88.5262 29.9536V39.8506H82.5435V22.3702H88.2278L88.3805 24.822H88.4499C89.0292 23.9443 89.821 23.2256 90.7524 22.732C91.6838 22.2384 92.725 21.9858 93.7802 21.9972Z" fill="white"/>
<path d="M106.939 40.2236C102.865 40.2236 101.894 37.0949 101.894 33.4552V22.4047H107.869V32.3018C107.869 33.8972 107.946 35.4995 109.889 35.4995C111.721 35.4995 112.131 33.8972 112.131 32.2603V22.3702H118.114V39.8506H112.436L112.291 37.3919H112.214C111.649 38.2706 110.868 38.9916 109.945 39.487C109.022 39.9824 107.988 40.2359 106.939 40.2236Z" fill="white"/>
<path d="M126.485 22.3703L126.672 24.9326H126.748C127.153 24.0509 127.805 23.3046 128.627 22.7838C129.448 22.2629 130.404 21.9898 131.378 21.9974C133.883 21.9974 135.195 22.9988 136.056 24.9326H136.125C137.659 22.5913 139.491 21.9974 141.06 21.9974C145.772 21.9974 146.668 25.1951 146.668 28.5033V39.8508H140.685V29.8846C140.685 28.2823 140.761 26.7214 139.005 26.7214C137.249 26.7214 136.874 28.1373 136.874 29.7672V39.8508H130.892V29.8846C130.892 28.2823 130.968 26.7214 129.212 26.7214C127.456 26.7214 127.081 28.1373 127.081 29.7672V39.8508H121.099V22.3703H126.485Z" fill="white"/>
<path d="M137.221 50.4336L17.676 60.8412L22.7893 119L142.334 108.592L137.221 50.4336Z" fill="#F4146F"/>
<path d="M53.7614 92.8722C52.2206 95.3516 50.1315 96.726 47.5496 96.9539C46.4854 97.0647 45.4096 96.9517 44.3921 96.6221C43.3745 96.2925 42.438 95.7538 41.6432 95.0408C40.0118 93.5757 38.9988 91.5499 38.8082 89.3714C38.6176 87.1928 39.2635 85.0233 40.616 83.2997C41.2741 82.4596 42.1022 81.7667 43.0468 81.2657C43.9914 80.7648 45.0313 80.4672 46.099 80.392C48.7087 80.171 51.0199 81.1725 52.9771 83.3826L53.0812 83.5069L55.6631 81.0551L55.5729 80.9446C54.4128 79.5172 52.9218 78.3914 51.2281 77.664C49.4991 76.9347 47.6142 76.6474 45.7451 76.8283H45.4952C42.3804 77.1395 39.5153 78.6626 37.5238 81.0661C35.5323 83.4695 34.5757 86.5586 34.8623 89.6606C34.9898 91.223 35.427 92.7449 36.1486 94.1383C36.8702 95.5317 37.862 96.7691 39.0667 97.7792C40.2714 98.7892 41.6651 99.5518 43.1676 100.023C44.67 100.494 46.2513 100.665 47.8203 100.525C49.6789 100.414 51.4771 99.827 53.0399 98.8201C54.6028 97.8131 55.8771 96.4207 56.7389 94.7784L56.8083 94.654L53.8447 92.734L53.7614 92.8722Z" fill="white"/>
<path d="M75.8325 76.7179C74.9678 75.9602 73.9494 75.3967 72.8464 75.0654C71.7435 74.7341 70.5818 74.6428 69.4403 74.7978C68.2028 74.8538 66.993 75.1812 65.8976 75.7567C64.8021 76.3322 63.848 77.1415 63.1036 78.1268L61.9515 65.0044L58.0856 65.3428L61.0353 98.8947L64.9012 98.5563L63.6935 84.8192C63.5994 84.0493 63.6608 83.2684 63.8741 82.5224C64.0875 81.7763 64.4484 81.0803 64.9359 80.475C65.4247 79.883 66.0319 79.3985 66.7189 79.0525C67.4059 78.7065 68.1578 78.5065 68.9267 78.4652C69.659 78.3656 70.4043 78.4239 71.112 78.636C71.8197 78.8481 72.4733 79.2091 73.0285 79.6946C74.1492 80.792 74.8049 82.2749 74.8608 83.8385L76.0685 97.5756L79.9344 97.2441L78.6851 83.0442C78.5926 80.6476 77.5701 78.38 75.8325 76.7179Z" fill="white"/>
<path d="M100.957 74.9635C99.893 74.0981 98.6655 73.4536 97.3471 73.068C96.0287 72.6825 94.646 72.5638 93.2807 72.7189C91.7428 72.8346 90.2458 73.2663 88.8839 73.9866C87.5221 74.707 86.3252 75.7004 85.3685 76.9042C84.3681 78.1026 83.6188 79.4881 83.1647 80.979C82.7105 82.47 82.5608 84.0363 82.7242 85.5857C82.8292 87.1507 83.2575 88.6773 83.9824 90.0701C84.7073 91.4629 85.7132 92.6919 86.9371 93.6802C88.1562 94.6918 89.567 95.4496 91.0858 95.9087C92.6047 96.3679 94.2007 96.5189 95.7793 96.353C97.4898 96.2124 99.1519 95.7177 100.659 94.9007C102.166 94.0836 103.485 92.9621 104.531 91.6082L104.622 91.4977L102.116 89.0943L102.005 89.2255C101.223 90.2292 100.244 91.0636 99.1269 91.6776C98.0099 92.2916 96.7786 92.6722 95.5086 92.7962C93.4897 93.0253 91.4581 92.4903 89.8174 91.2974C88.2247 90.1336 87.1474 88.4007 86.8121 86.4629L104.517 84.9227V84.7984C104.621 83.8949 104.635 82.9834 104.559 82.0772C104.485 80.7083 104.126 79.3695 103.506 78.1452C102.886 76.9209 102.018 75.8376 100.957 74.9635ZM86.6664 83.0027C86.8704 81.2681 87.6437 79.6488 88.8665 78.396C90.0935 77.1404 91.7406 76.3762 93.4959 76.2481C95.2031 76.047 96.9222 76.5124 98.2918 77.5465C98.9406 78.0636 99.4766 78.707 99.8668 79.4373C100.257 80.1677 100.493 80.9696 100.561 81.794L86.6664 83.0027Z" fill="white"/>
<path d="M123.541 62.4627C122.627 62.2845 121.692 62.2379 120.765 62.3245C116.205 62.7251 113.824 65.4394 113.602 70.3914L113.422 75.5436L108.515 75.9718L108.82 79.4251L113.318 79.0383L112.832 92.7685C112.857 93.9753 112.462 95.1536 111.715 96.1044C110.838 96.8977 109.7 97.3447 108.515 97.3614C107.841 97.4127 107.164 97.4243 106.488 97.3959H106.315L106.599 100.677H106.717C107.636 100.814 108.568 100.842 109.494 100.759C114.081 100.359 116.497 97.6653 116.663 92.7409L117.128 78.6861L122.354 78.2372L122.049 74.7839L117.274 75.1983L117.427 70.3223C117.401 69.1292 117.788 67.9636 118.523 67.021C119.399 66.2384 120.532 65.799 121.709 65.7847H122.833C123.159 65.7847 123.465 65.7847 123.742 65.7294H123.895L123.618 62.5248L123.541 62.4627Z" fill="white"/>
</svg>
