<svg width="416" height="151" viewBox="0 0 416 151" fill="none" xmlns="http://www.w3.org/2000/svg">
<path d="M34.0834 1.1797L34.6543 9.04437H34.8655C38.1659 2.86274 42.8349 0 48.7553 0C56.2712 0 60.2598 3.09081 62.8798 9.04437H63.1066C67.7991 1.83247 73.2738 0 78.0288 0C92.2628 0 94.9923 9.84657 94.9923 20.0392V54.974H76.754V24.3018C76.754 19.3785 76.9809 14.5654 71.7409 14.5654C66.2663 14.5654 65.359 18.9224 65.359 23.9558V54.9977H47.1364V24.3018C47.1364 19.3785 47.371 14.5654 42.131 14.5654C36.6564 14.5654 35.7492 18.9224 35.7492 23.9558V54.9977H17.7612V22.7289C13.2095 22.8469 8.31362 20.2122 8.54043 13.3385C3.40993 12.9924 0 9.40614 0 2.79982V1.22689L34.0834 1.1797Z" fill="white"/>
<path d="M118.312 55.9263C109.654 55.9263 101.223 51.994 101.223 40.1262C101.223 18.7028 133.117 29.0134 133.117 17.5625C133.117 14.9278 131.553 13.3234 127.423 13.3234C123.294 13.3234 120.588 15.73 119.681 20.7713L103.39 18.1366C106.237 5.4194 115.903 0.0478516 128.104 0.0478516C142.111 0.0478516 151.34 4.62509 151.34 19.9769V35.4388C151.34 37.1533 151.684 50.7828 152.02 55.0219H135.753L135.064 49.0683H134.838C130.966 53.8736 125.163 55.9342 118.328 55.9342L118.312 55.9263ZM119.892 38.3016C119.892 41.5025 122.168 43.2249 125.366 43.2249C130.489 43.2249 133.336 39.906 133.336 34.7468V30.3976C128.55 34.1726 119.9 31.9705 119.9 38.2623" fill="white"/>
<path d="M184.482 61.9979C190.293 61.9979 193.249 59.5913 193.249 52.7176V46.536H193.022C190.293 50.3189 184.935 53.1816 179.015 53.1816C165.008 53.1816 158.399 41.9587 158.399 26.7249C158.399 11.7191 165.915 0.0400391 179.813 0.0400391C185.96 0.0400391 190.973 3.81508 193.593 7.11824H193.82L194.164 1.15683H211.472V46.9685C211.472 67.1257 202.133 75.2813 184.255 75.2813C174.455 75.2813 165.008 71.8445 160.448 60.3935L175.824 56.5005C177.388 60.2834 179.922 62.0058 184.482 62.0058V61.9979ZM193.82 26.8428C193.82 18.3726 191.083 14.1335 185.506 14.1335C179.93 14.1335 176.966 18.3726 176.966 26.8428C176.966 35.667 179.813 39.8982 185.506 39.8982C191.2 39.8982 193.82 35.667 193.82 26.8428Z" fill="white"/>
<path d="M254.859 0.0400391C267.498 0.0400391 270.501 9.65855 270.501 20.8814V55.0141H252.278V24.4362C252.278 19.5051 252.052 14.5818 245.897 14.5818C240.094 14.5818 238.858 19.5051 238.858 24.5464V55.0141H220.635V1.18043H237.943L238.396 8.74623H238.623C243.066 2.78481 248.196 0.0400391 254.914 0.0400391" fill="white"/>
<path d="M294.94 56.1537C282.528 56.1537 279.564 46.5352 279.564 35.3123V1.17969H297.787V31.7654C297.787 36.6887 298.013 41.612 303.942 41.612C309.518 41.612 310.769 36.6887 310.769 31.6474V1.17969H328.992V55.0133H311.723L311.262 47.4554H311.035C306.71 53.409 301.588 56.1537 294.979 56.1537" fill="white"/>
<path d="M354.494 1.1797L355.065 9.04437H355.292C358.6 2.86274 363.496 0 369.416 0C377.05 0 381.03 3.09081 383.65 9.04437H383.877C388.57 1.83247 394.13 0 398.917 0C413.268 0 415.997 9.84657 415.997 20.0392V54.974H397.751V24.3018C397.751 19.3785 397.978 14.5654 392.629 14.5654C387.045 14.5654 386.137 18.9224 386.137 23.9558V54.9977H367.915V24.3018C367.915 19.3785 368.142 14.5654 362.784 14.5654C357.208 14.5654 356.293 18.9224 356.293 23.9558V54.9977H338.07V1.1797H354.494Z" fill="white"/>
<path d="M326.812 80.0694C329.674 80.0694 332.459 77.6471 332.459 74.8394C332.465 74.3282 332.367 73.8212 332.17 73.3496C331.974 72.878 331.683 72.4519 331.317 72.0975C330.951 71.743 330.516 71.4678 330.04 71.2888C329.564 71.1097 329.056 71.0307 328.548 71.0565C325.686 71.0565 322.902 73.5575 322.902 76.3573C322.902 78.5594 324.466 80.0694 326.812 80.0694Z" fill="white"/>
<path d="M414.665 115.909C408.229 117.168 402.277 118.622 396.677 120.258C401.714 106.542 405.335 91.7647 407.705 84.3876C407.709 84.3467 407.703 84.3055 407.689 84.267C407.675 84.2284 407.653 84.1935 407.623 84.1649C407.594 84.1362 407.559 84.1146 407.52 84.1014C407.481 84.0882 407.44 84.0839 407.4 84.0887H401.98C401.824 84.0887 401.753 84.1595 401.675 84.3168C399.9 90.2861 397.475 99.3147 394.566 108.595C389.998 111.741 385.791 113.314 382.052 113.314C378.314 113.314 376.179 112.032 376.101 107.714C376.023 101.344 380.848 88.4615 382.357 84.3719C382.428 84.2224 382.357 84.073 382.131 84.073H376.703C376.554 84.073 376.476 84.1438 376.406 84.3011C374.568 88.7997 371.346 98.0249 370.603 105.536C364.588 110.954 358.91 114.785 353.796 114.785C349.885 114.785 347.476 112.582 346.968 107.109C354.945 99.181 363.736 87.6121 365.48 78.9452C365.801 77.3736 365.976 75.7755 366.004 74.1714C366.004 69.6964 364.346 65.9842 359.145 66.3067C352.74 66.6842 345.959 78.0486 342.573 93.0466C341.581 97.3264 341.046 101.7 340.977 106.094C340.977 106.369 340.977 106.621 340.977 106.881C336.191 111.599 329.95 114.871 325.734 114.871C322.606 114.871 321.511 112.976 321.511 110.254C321.608 108.246 321.963 106.258 322.567 104.34L328.37 84.5606C328.448 84.3404 328.37 84.1123 328.065 84.1123H322.794C322.645 84.1123 322.496 84.1123 322.418 84.3404L317.593 101.006C316.772 103.753 316.157 106.558 315.755 109.397C311.32 112.85 307.035 115.178 303.805 115.178C300.942 115.178 300.113 113.054 300.113 111.08C300.106 110.444 300.182 109.809 300.34 109.193L303.468 96.3104C303.486 96.2709 303.494 96.2276 303.492 96.1842C303.489 96.1409 303.476 96.0988 303.454 96.0616C303.431 96.0244 303.4 95.9933 303.363 95.9709C303.326 95.9484 303.285 95.9354 303.241 95.9329H297.814C297.665 95.9329 297.587 95.9329 297.517 96.3104L294.951 107.156C291.041 112.897 286.27 115.178 282.219 115.178C278.168 115.178 274.985 112.748 274.985 106.92C274.985 97.4823 282.297 88.7289 290.579 88.7289C293.183 88.7259 295.7 89.67 297.665 91.3871C297.892 91.6073 298.041 91.686 298.189 91.4579L300.903 87.3683C300.948 87.2964 300.965 87.2108 300.952 87.1271C300.939 87.0434 300.897 86.9671 300.833 86.9121C298.116 84.6003 294.67 83.3373 291.111 83.3495C279.278 83.3495 269.26 95.0206 269.26 107.824C269.247 109.268 269.41 110.707 269.745 112.111C266.217 113.982 262.596 115.178 260.36 115.178C257.231 115.178 255.667 112.221 255.667 107.069C255.778 103.565 256.218 100.078 256.981 96.6565L264.2 65.1978C264.27 64.8911 264.121 64.8203 263.973 64.8203H258.85C258.545 64.8203 258.467 64.8911 258.397 65.1978L251.358 95.5082C248.229 108.988 240.354 115.131 234.402 115.131C230.335 115.131 227.246 112.63 227.246 106.479C227.246 98.6148 232.447 88.8311 241.558 88.8311C243.786 88.8646 245.987 89.3265 248.042 90.1917C248.722 90.4985 248.871 90.4984 248.941 90.2704L250.153 85.7954C250.224 85.5673 250.224 85.4179 249.848 85.2684C247.24 84.0912 244.417 83.4725 241.558 83.4517C229.131 83.4517 221.365 95.5712 221.365 107.046C221.365 115.988 226.941 120.416 233.8 120.416C239.149 120.416 245.257 117.427 249.833 110.412H250.083C250.928 117.907 255.213 120.416 259.867 120.416C264.286 120.416 268.243 118.158 271.52 116.019C273.718 119.165 277.292 120.416 281.046 120.416C283.589 120.365 286.098 119.811 288.427 118.784C290.757 117.757 292.863 116.277 294.623 114.431H294.818C295.554 117.576 297.532 120.416 301.857 120.416C306.018 120.416 311.485 117.734 315.536 115.115H315.849C316.537 118.316 318.617 120.416 323.106 120.416C328.675 120.416 335.362 117.097 341.509 112.079H341.642C343.206 118.064 347.117 120.416 352.036 120.416C358.66 120.416 365.097 116.177 370.806 111.324C371.776 116.145 375.264 118.52 380.848 118.52C384.735 118.518 388.545 117.428 391.852 115.374H392.399C391.617 117.734 390.773 120.022 389.92 122.264C378.549 126.196 364.424 132.645 364.424 142.948C364.424 147.572 367.967 150.529 372.636 150.529C374.703 150.513 376.739 150.021 378.588 149.09C384.844 145.763 390.084 136.696 394.425 126.173C401.034 124.146 407.777 122.588 414.603 121.509C414.83 121.43 414.908 121.359 414.908 121.131L415.135 116.208C415.135 115.823 414.986 115.823 414.681 115.901L414.665 115.909ZM356.963 73.5501C357.948 72.5591 358.699 72.1816 359.309 72.1816C360.216 72.1816 360.514 73.322 360.514 74.7612C360.494 75.8199 360.368 76.8738 360.138 77.9071C358.574 85.2055 352.763 93.6915 347.414 100.259H347.242C347.53 97.9424 347.937 95.6429 348.462 93.369C351.473 79.9991 355.915 74.5725 356.971 73.5186L356.963 73.5501ZM379.198 142.161C376.938 144.434 374.607 145.645 372.792 145.645C370.978 145.645 369.555 144.741 369.555 142.5C369.555 136.546 379.722 131.489 386.831 128.642L387.199 128.878C384.696 134.533 382.013 139.275 379.198 142.122" fill="white"/>
</svg>
