<svg width="416" height="75" viewBox="0 0 416 75" fill="none" xmlns="http://www.w3.org/2000/svg">
<path d="M34.05 1.13998L34.6186 9.01972H34.8492C38.1535 2.85766 42.818 0 48.7427 0C56.2582 0 60.2695 3.08103 62.8668 9.01972H63.0897C67.7619 1.82551 73.2255 0 78.013 0C92.2139 0 94.9803 9.82079 94.9803 19.9728V54.7961H76.7604V24.2015C76.7604 19.295 76.9832 14.4963 71.7501 14.4963C66.2787 14.4963 65.372 18.8328 65.372 23.8549V54.7961H47.1444V24.2015C47.1444 19.295 47.3749 14.4963 42.1341 14.4963C36.6704 14.4963 35.7559 18.8328 35.7559 23.8549V54.7961H17.7665V22.5994C13.2096 22.7149 8.31462 20.0883 8.54516 13.2407C3.4196 12.9018 0 9.35863 0 2.74212V1.13998H34.05Z" fill="white"/>
<path d="M118.341 55.705C109.688 55.705 101.259 51.8537 101.259 39.9533C101.259 18.6094 133.149 28.8847 133.149 17.4694C133.149 14.8429 131.551 13.2407 127.455 13.2407C123.359 13.2407 120.623 15.6362 119.709 20.6583L103.426 18.0394C106.246 5.3918 115.928 0 128.116 0C142.163 0 151.385 4.56763 151.385 19.8649V35.2701C151.385 36.9878 151.73 50.5674 152.068 54.7961H135.747L135.063 48.8574H134.832C130.99 53.6562 125.15 55.705 118.318 55.705H118.341ZM119.917 38.1278C119.917 41.3243 122.222 43.0343 125.38 43.0343C130.506 43.0343 133.349 39.7222 133.349 34.5615V30.248C128.569 34.0146 119.917 31.8502 119.917 38.1278Z" fill="white"/>
<path d="M184.482 61.7593C190.291 61.7593 193.25 59.3638 193.25 52.5162V46.3541H193.027C190.291 50.1207 184.935 52.9783 179.018 52.9783C165.009 52.9783 158.4 41.7865 158.4 26.6047C158.4 11.6463 165.924 0 179.817 0C185.965 0 190.975 3.76656 193.595 7.07867H193.818L194.164 1.13998H211.477V46.8009C211.477 66.8969 202.133 75 184.259 75C174.461 75 165.009 71.5723 160.437 60.1571L175.806 56.3058C177.397 60.0724 179.902 61.7901 184.459 61.7901L184.482 61.7593ZM193.795 26.7433C193.795 18.2705 191.067 14.0726 185.488 14.0726C179.797 14.0726 176.948 18.2962 176.943 26.7433C176.943 35.532 179.794 39.753 185.488 39.753C191.067 39.753 193.795 35.532 193.795 26.7433Z" fill="white"/>
<path d="M254.864 0C267.505 0 270.494 9.58971 270.494 20.797V54.7961H252.243V24.317C252.243 19.4028 252.013 14.4963 245.865 14.4963C240.056 14.4963 238.803 19.4028 238.803 24.4326V54.7961H220.583V1.13998H237.889L238.35 8.6731H238.573C243.014 2.74212 248.14 0 254.864 0Z" fill="white"/>
<path d="M294.946 55.9361C282.528 55.9361 279.577 46.3464 279.577 35.1392V1.13998H297.797V31.6191C297.797 36.5256 298.028 41.4399 303.945 41.4399C309.531 41.4399 310.784 36.5256 310.784 31.5035V1.13998H329.004V54.7961H311.683L311.222 47.263H310.991C306.665 53.194 301.539 55.9361 294.939 55.9361" fill="white"/>
<path d="M354.501 1.13998L355.07 9.01972H355.3C358.597 2.85766 363.477 0 369.417 0C377.047 0 381.036 3.08103 383.656 9.01972H383.879C388.551 1.82551 394.13 0 398.917 0C413.264 0 416 9.82079 416 19.9728V54.7961H397.78V24.2015C397.78 19.295 398.003 14.4963 392.655 14.4963C387.076 14.4963 386.161 18.8328 386.161 23.8549V54.7961H367.941V24.2015C367.941 19.295 368.164 14.4963 362.816 14.4963C357.237 14.4963 356.322 18.8328 356.322 23.8549V54.7961H338.118V1.13998H354.501Z" fill="white"/>
</svg>
