<svg width="24" height="21" viewBox="0 0 24 21" fill="none" xmlns="http://www.w3.org/2000/svg">
<path d="M1.05912 7.88964L1.80538 7.96454L1.81506 7.86803L1.79988 7.77224L1.05912 7.88964ZM6.62051 11.8062L6.88889 11.1059L6.87303 11.0998L6.85691 11.0944L6.62051 11.8062ZM11.96 15.4464L11.5889 16.0982L11.619 16.1153L11.6506 16.1296L11.96 15.4464ZM22.6983 9.84975L21.9807 9.63152L22.6983 9.84975ZM13.8958 1.29745L13.774 2.03749L13.8958 1.29745ZM3.31859 3.09425L2.86593 2.49626L3.31859 3.09425ZM3.81025 7.60593L4.5564 7.6818L4.56634 7.58404L4.55076 7.48702L3.81025 7.60593ZM8.66885 10.2857L8.93419 9.58425L8.91847 9.57831L8.90249 9.57307L8.66885 10.2857ZM12.2156 12.6724L11.8481 13.3263L11.8781 13.3431L11.9095 13.3571L12.2156 12.6724ZM20.1097 9.28607L19.393 9.06523L20.1097 9.28607ZM15.253 3.80057L15.4463 3.07591L15.253 3.80057ZM4.82726 5.23588L5.31992 5.80138L4.82726 5.23588ZM14.0259 9.84102L14.3968 9.18914L14.0259 9.84102ZM17.067 9.01917L16.3495 8.80081L17.067 9.01917ZM14.9984 7.612L15.0346 6.86288L14.9984 7.612ZM1.75 7.60598C1.75 7.19176 1.41421 6.85598 1 6.85598C0.585786 6.85598 0.25 7.19176 0.25 7.60598H1.75ZM0.25 11.5262C0.25 11.9404 0.585786 12.2762 1 12.2762C1.41421 12.2762 1.75 11.9404 1.75 11.5262H0.25ZM23.67 7.60598C23.67 7.19176 23.3342 6.85598 22.92 6.85598C22.5058 6.85598 22.17 7.19176 22.17 7.60598H23.67ZM22.92 13.2063L23.6312 13.4442L23.67 13.3284V13.2063H22.92ZM1.71126 11.5683C1.57984 11.1754 1.15487 10.9635 0.762059 11.0949C0.369244 11.2264 0.157334 11.6513 0.288745 12.0441L1.71126 11.5683ZM4.82183 15.1624L5.08734 14.461L4.82183 15.1624ZM9.65467 17.6995L10.0992 17.0954H10.0992L9.65467 17.6995ZM0.312874 7.81475C0.232334 8.61724 0.6306 9.42805 1.55837 10.1896C2.47422 10.9414 3.9887 11.7224 6.38411 12.518L6.85691 11.0944C4.5311 10.3219 3.21804 9.61133 2.51009 9.0302C1.81405 8.45886 1.79224 8.09543 1.80538 7.96454L0.312874 7.81475ZM6.35213 12.5065C7.71104 13.0273 8.47988 13.6032 9.15611 14.1919C9.82978 14.7785 10.52 15.4896 11.5889 16.0982L12.3311 14.7946C11.4328 14.2832 10.9147 13.7342 10.1411 13.0607C9.37009 12.3894 8.45279 11.7052 6.88889 11.1059L6.35213 12.5065ZM11.6506 16.1296C13.2983 16.8759 15.6209 17.3857 17.8754 16.6591C20.1785 15.9168 22.2378 13.9414 23.4158 10.068L21.9807 9.63152C20.9105 13.1504 19.1463 14.6735 17.4152 15.2314C15.6354 15.805 13.713 15.417 12.2694 14.7632L11.6506 16.1296ZM23.4158 10.068C23.8613 8.6033 23.851 7.28839 23.447 6.12943C23.0447 4.97574 22.2753 4.04238 21.3122 3.29487C19.4083 1.81721 16.6521 0.991008 14.0176 0.557402L13.774 2.03749C16.3265 2.45759 18.7852 3.23238 20.3925 4.47986C21.185 5.09492 21.7454 5.80517 22.0306 6.62324C22.314 7.43604 22.3489 8.42103 21.9807 9.63152L23.4158 10.068ZM2.86593 2.49626C1.2372 3.72915 -0.070085 5.55617 0.318371 8.00705L1.79988 7.77224C1.53135 6.078 2.38368 4.74259 3.77125 3.69225L2.86593 2.49626ZM14.0176 0.557402C10.3013 -0.0542448 6.0527 0.0839818 2.86593 2.49626L3.77125 3.69225C6.46641 1.65211 10.2023 1.44963 13.774 2.03749L14.0176 0.557402ZM3.0641 7.53007C3.01091 8.05315 3.34809 8.45365 3.58231 8.67887C3.85565 8.9417 4.23311 9.19746 4.6738 9.4442C5.5628 9.94194 6.84319 10.4765 8.43521 10.9984L8.90249 9.57307C7.35847 9.06688 6.17844 8.56752 5.4066 8.13538C5.01687 7.91717 4.7638 7.73399 4.62199 7.59763C4.44106 7.42366 4.57848 7.4647 4.5564 7.6818L3.0641 7.53007ZM8.4035 10.9872C9.27247 11.3159 9.7584 11.6758 10.1914 12.0479C10.6221 12.418 11.1096 12.9112 11.8481 13.3263L12.583 12.0186C12.0149 11.6993 11.6997 11.3663 11.1691 10.9103C10.6408 10.4562 10.0067 9.98993 8.93419 9.58425L8.4035 10.9872ZM11.9095 13.3571C13.0363 13.8609 14.8072 14.2747 16.5424 13.8716C18.3427 13.4533 20.0043 12.1754 20.8265 9.5069L19.393 9.06523C18.7218 11.2435 17.463 12.1178 16.2029 12.4105C14.8777 12.7184 13.4482 12.4019 12.5217 11.9877L11.9095 13.3571ZM20.8265 9.5069C21.0947 8.63656 21.111 7.8208 20.8946 7.07322C20.6794 6.32964 20.2486 5.70408 19.701 5.18511C18.6234 4.16384 17.036 3.49994 15.4463 3.07591L15.0597 4.52524C16.5575 4.92474 17.8597 5.5067 18.6692 6.27385C19.0651 6.64908 19.3273 7.05337 19.4538 7.49032C19.5791 7.92325 19.586 8.43868 19.393 9.06523L20.8265 9.5069ZM4.3346 4.67038C3.49522 5.40164 2.86076 6.42344 3.06973 7.72484L4.55076 7.48702C4.45288 6.87745 4.70962 6.33307 5.31992 5.80138L4.3346 4.67038ZM15.4463 3.07591C11.8432 2.11482 7.3659 2.02956 4.3346 4.67038L5.31992 5.80138C7.77963 3.65851 11.6171 3.60697 15.0597 4.52524L15.4463 3.07591ZM13.655 10.4929C14.1872 10.7957 15.0194 10.9397 15.7762 10.829C16.5529 10.7155 17.4644 10.2893 17.7845 9.23753L16.3495 8.80081C16.2629 9.08518 16.0189 9.27759 15.5592 9.34479C15.0797 9.4149 14.5946 9.30173 14.3968 9.18914L13.655 10.4929ZM17.7845 9.23753C17.9018 8.85199 17.8716 8.46301 17.696 8.11643C17.5299 7.78846 17.2616 7.55195 16.9882 7.38491C16.4497 7.05591 15.7308 6.89648 15.0346 6.86288L14.9623 8.36113C15.5171 8.38791 15.9597 8.51432 16.2062 8.66494C16.3253 8.7377 16.3555 8.78944 16.3579 8.7942C16.3579 8.79423 16.3553 8.78825 16.3547 8.78024C16.3541 8.7727 16.3564 8.778 16.3495 8.80081L17.7845 9.23753ZM14.3968 9.18914C14.2451 9.10285 14.2081 9.02168 14.1963 8.98213C14.182 8.9337 14.1803 8.85737 14.2258 8.75849C14.3197 8.55395 14.5805 8.34271 14.9623 8.36113L15.0346 6.86288C14.0357 6.81466 13.21 7.37644 12.8627 8.13232C12.6875 8.51365 12.6266 8.96438 12.7582 9.40833C12.8924 9.86116 13.2065 10.2377 13.655 10.4929L14.3968 9.18914ZM0.25 7.60598V11.5262H1.75V7.60598H0.25ZM22.17 7.60598V13.2063H23.67V7.60598H22.17ZM0.288745 12.0441C0.337879 12.191 0.430937 12.9687 0.991683 13.6769C1.56707 14.4036 2.61079 15.1275 4.55633 15.8639L5.08734 14.461C3.24703 13.7644 2.49778 13.1627 2.16768 12.7458C1.82295 12.3104 1.89802 12.1265 1.71126 11.5683L0.288745 12.0441ZM9.21017 18.3036C10.1247 18.9765 11.0886 19.6303 11.9068 20.0379L12.5757 18.6953C11.8789 18.3482 11.0009 17.7589 10.0992 17.0954L9.21017 18.3036ZM11.9068 20.0379C13.289 20.7265 15.5401 21.1056 17.8023 20.2813C20.1026 19.443 22.3074 17.4013 23.6312 13.4442L22.2087 12.9683C21.0033 16.5716 19.0866 18.2168 17.2887 18.8719C15.4527 19.541 13.629 19.2201 12.5757 18.6953L11.9068 20.0379ZM4.55633 15.8639C6.22523 16.4956 7.80978 17.2731 9.21017 18.3036L10.0992 17.0954C8.55601 15.9599 6.8391 15.1241 5.08734 14.461L4.55633 15.8639Z" fill="white"/>
</svg>
