<svg width="31" height="31" viewBox="0 0 31 31" fill="none" xmlns="http://www.w3.org/2000/svg">
<circle cx="15.5" cy="15.5" r="15.5" fill="#E6DAF6"/>
<path d="M11.8844 15.2382C11.236 15.2382 10.6428 15.0915 10.1047 14.7983C9.56666 14.491 9.13898 14.0721 8.82167 13.5414C8.50436 13.0107 8.3457 12.4241 8.3457 11.7817C8.3457 11.1393 8.50436 10.5597 8.82167 10.043C9.13898 9.51231 9.56666 9.10033 10.1047 8.80705C10.6428 8.49981 11.236 8.34619 11.8844 8.34619C12.519 8.34619 13.1054 8.49981 13.6434 8.80705C14.1815 9.10033 14.6092 9.51231 14.9265 10.043C15.2438 10.5597 15.4024 11.1393 15.4024 11.7817C15.4024 12.4241 15.2438 13.0107 14.9265 13.5414C14.6092 14.0721 14.1815 14.491 13.6434 14.7983C13.1054 15.0915 12.519 15.2382 11.8844 15.2382ZM18.8998 8.59757H21.1554L13.2916 22.4235H11.0567L18.8998 8.59757ZM11.9051 13.29C12.2914 13.29 12.6087 13.1503 12.8571 12.871C13.1192 12.5917 13.2502 12.2286 13.2502 11.7817C13.2502 11.3488 13.1192 10.9927 12.8571 10.7134C12.6087 10.434 12.2914 10.2944 11.9051 10.2944C11.4912 10.2944 11.1532 10.434 10.8911 10.7134C10.6428 10.9927 10.5186 11.3488 10.5186 11.7817C10.5186 12.2286 10.6428 12.5917 10.8911 12.871C11.1394 13.1503 11.4774 13.29 11.9051 13.29ZM20.307 22.6539C19.6724 22.6539 19.086 22.5072 18.548 22.214C18.0099 21.9067 17.5822 21.4878 17.2649 20.9571C16.9476 20.4264 16.789 19.8398 16.789 19.1974C16.789 18.555 16.9476 17.9754 17.2649 17.4587C17.5822 16.928 18.0099 16.516 18.548 16.2228C19.086 15.9155 19.6724 15.7619 20.307 15.7619C20.9416 15.7619 21.5279 15.9155 22.066 16.2228C22.6178 16.516 23.0524 16.928 23.3697 17.4587C23.687 17.9754 23.8457 18.555 23.8457 19.1974C23.8457 19.8398 23.687 20.4264 23.3697 20.9571C23.0524 21.4878 22.6247 21.9067 22.0867 22.214C21.5486 22.5072 20.9554 22.6539 20.307 22.6539ZM20.3277 20.6847C20.714 20.6847 21.0313 20.5451 21.2796 20.2658C21.5417 19.9865 21.6728 19.6303 21.6728 19.1974C21.6728 18.7645 21.5417 18.4084 21.2796 18.1291C21.0313 17.8497 20.714 17.7101 20.3277 17.7101C19.9 17.7101 19.562 17.8497 19.3137 18.1291C19.0653 18.3944 18.9412 18.7505 18.9412 19.1974C18.9412 19.6443 19.0653 20.0074 19.3137 20.2867C19.562 20.5521 19.9 20.6847 20.3277 20.6847Z" fill="#8344D6"/>
</svg>
