<svg width="91" height="91" viewBox="0 0 91 91" fill="none" xmlns="http://www.w3.org/2000/svg">
<path d="M73.1821 25.5622C73.3593 25.3558 73.4735 25.1029 73.5112 24.8336C73.549 24.5642 73.5087 24.2897 73.3951 24.0425C73.2816 23.7954 73.0995 23.586 72.8705 23.4392C72.6415 23.2924 72.3753 23.2144 72.1033 23.2144H36.1405C36.0915 21.3793 35.5026 19.5995 34.4473 18.0975C33.3921 16.5954 31.9174 15.4378 30.2077 14.7695C28.498 14.1012 26.6292 13.9518 24.8351 14.3401C23.0409 14.7283 21.4011 15.6369 20.1206 16.9522C18.8401 18.2675 17.9759 19.9312 17.636 21.7351C17.2961 23.5391 17.4957 25.4032 18.2097 27.0943C18.9237 28.7854 20.1204 30.2285 21.6503 31.243C23.1801 32.2575 24.9751 32.7984 26.8108 32.7981C27.1879 32.7981 27.5496 32.6483 27.8162 32.3817C28.0829 32.115 28.2327 31.7534 28.2327 31.3763C28.2327 30.9991 28.0829 30.6375 27.8162 30.3708C27.5496 30.1042 27.1879 29.9544 26.8108 29.9544C25.5372 29.9547 24.2917 29.5804 23.2292 28.8781C22.1668 28.1759 21.3343 27.1766 20.8355 26.0048C20.3367 24.833 20.1936 23.5403 20.424 22.2877C20.6543 21.0352 21.248 19.878 22.1311 18.9603C23.0142 18.0427 24.1477 17.405 25.3905 17.1267C26.6333 16.8484 27.9305 16.9418 29.1206 17.3952C30.3107 17.8486 31.3412 18.6421 32.0838 19.6768C32.8263 20.7115 33.2482 21.9417 33.2968 23.2144H28.5438C28.2718 23.2144 28.0055 23.2924 27.7765 23.4392C27.5476 23.586 27.3655 23.7954 27.2519 24.0425C27.1384 24.2897 27.0981 24.5642 27.1358 24.8336C27.1736 25.1029 27.2878 25.3558 27.4649 25.5622L48.9016 50.5368V74.0306H40.8013C40.4242 74.0306 40.0626 74.1804 39.7959 74.447C39.5293 74.7137 39.3794 75.0753 39.3794 75.4524C39.3794 75.8296 39.5293 76.1912 39.7959 76.4579C40.0626 76.7245 40.4242 76.8743 40.8013 76.8743H59.8457C60.2228 76.8743 60.5845 76.7245 60.8511 76.4579C61.1178 76.1912 61.2676 75.8296 61.2676 75.4524C61.2676 75.0753 61.1178 74.7137 60.8511 74.447C60.5845 74.1804 60.2228 74.0306 59.8457 74.0306H51.7454V50.5368L73.1821 25.5622ZM47.2313 38.711C46.8542 38.7112 46.4924 38.5617 46.2256 38.2952C45.9588 38.0287 45.8087 37.6671 45.8085 37.29C45.8083 36.9129 45.9578 36.5512 46.2243 36.2843C46.4908 36.0175 46.8524 35.8675 47.2295 35.8673H47.2313C47.6084 35.8673 47.97 36.0171 48.2367 36.2837C48.5033 36.5504 48.6531 36.912 48.6531 37.2891C48.6531 37.6662 48.5033 38.0279 48.2367 38.2946C47.97 38.5612 47.6084 38.711 47.2313 38.711ZM37.7285 33.1536L31.6381 26.0581H69.0089L62.9185 33.1536H37.7285ZM51.3259 40.3621C51.3258 40.1754 51.3625 39.9905 51.4339 39.818C51.5052 39.6456 51.6099 39.4888 51.7418 39.3568C51.8738 39.2247 52.0304 39.12 52.2029 39.0485C52.3753 38.977 52.5602 38.9402 52.7468 38.9402H52.7486C53.0298 38.9404 53.3046 39.0239 53.5383 39.1803C53.772 39.3366 53.9542 39.5587 54.0616 39.8186C54.1691 40.0784 54.1972 40.3642 54.1422 40.64C54.0872 40.9158 53.9517 41.169 53.7529 41.3678C53.554 41.5666 53.3006 41.7019 53.0248 41.7567C52.749 41.8115 52.4632 41.7833 52.2034 41.6756C51.9437 41.568 51.7216 41.3857 51.5654 41.1519C51.4092 40.9181 51.3259 40.6433 51.3259 40.3621H51.3259Z" fill="#8344D6"/>
</svg>
