<svg width="59" height="59" viewBox="0 0 59 59" fill="none" xmlns="http://www.w3.org/2000/svg">
<g clip-path="url(#clip0_510_4562)">
<path d="M53.8043 14.6716C53.6957 14.526 53.5595 14.4032 53.4034 14.3103C53.2473 14.2173 53.0744 14.156 52.8946 14.1299C52.7149 14.1038 52.5317 14.1134 52.3556 14.1581C52.1795 14.2028 52.014 14.2818 51.8684 14.3905L29.5636 31.0395C29.4839 31.0994 29.3868 31.1317 29.2871 31.1317C29.1873 31.1317 29.0903 31.0994 29.0105 31.0395L7.14364 14.3167C6.99927 14.2066 6.83462 14.1259 6.65909 14.0794C6.48355 14.0328 6.30057 14.0213 6.12058 14.0455C5.9406 14.0697 5.76714 14.1291 5.61012 14.2203C5.45309 14.3115 5.31557 14.4328 5.2054 14.5772C5.09523 14.7215 5.01458 14.8862 4.96805 15.0617C4.92151 15.2372 4.91001 15.4202 4.93419 15.6002C4.95837 15.7802 5.01777 15.9537 5.10899 16.1107C5.20021 16.2677 5.32146 16.4052 5.46583 16.5154L22.6588 29.6659L5.65481 42.48C5.50833 42.5893 5.3848 42.7263 5.29127 42.8833C5.19775 43.0403 5.13607 43.2142 5.10974 43.395C5.08342 43.5759 5.09297 43.7601 5.13786 43.9373C5.18274 44.1144 5.26208 44.281 5.37134 44.4275C5.4806 44.574 5.61764 44.6975 5.77464 44.791C5.93164 44.8845 6.10552 44.9462 6.28636 44.9725C6.4672 44.9989 6.65145 44.9893 6.82859 44.9444C7.00574 44.8995 7.17231 44.8202 7.3188 44.7109L24.9404 31.4083L27.3281 33.252C27.8848 33.6782 28.5652 33.9114 29.2663 33.9164C29.9674 33.9214 30.6511 33.6979 31.2138 33.2797L33.7213 31.4083L51.5504 44.7109C51.6959 44.8196 51.8615 44.8985 52.0376 44.9432C52.2136 44.9879 52.3968 44.9974 52.5766 44.9713C52.7563 44.9452 52.9292 44.8839 53.0853 44.791C53.2414 44.6981 53.3776 44.5754 53.4863 44.4298C53.595 44.2842 53.6739 44.1186 53.7185 43.9426C53.7632 43.7665 53.7728 43.5833 53.7467 43.4036C53.7206 43.2238 53.6593 43.0509 53.5664 42.8948C53.4735 42.7388 53.3507 42.6025 53.2051 42.4938L36.0306 29.6613L53.5232 16.5938C53.8133 16.3747 54.0055 16.0501 54.0581 15.6904C54.1107 15.3307 54.0196 14.9647 53.8043 14.6716Z" fill="#8344D6"/>
<path d="M52.0859 8.75781H6.91406C5.08034 8.75781 3.32172 9.48626 2.02508 10.7829C0.728444 12.0795 0 13.8382 0 15.6719L0 43.3281C0 45.1618 0.728444 46.9205 2.02508 48.2171C3.32172 49.5137 5.08034 50.2422 6.91406 50.2422H52.0859C53.9197 50.2422 55.6783 49.5137 56.9749 48.2171C58.2716 46.9205 59 45.1618 59 43.3281V15.6719C59 13.8382 58.2716 12.0795 56.9749 10.7829C55.6783 9.48626 53.9197 8.75781 52.0859 8.75781ZM56.2344 43.3281C56.2344 44.4284 55.7973 45.4835 55.0193 46.2615C54.2413 47.0395 53.1862 47.4766 52.0859 47.4766H6.91406C5.81383 47.4766 4.75866 47.0395 3.98067 46.2615C3.20269 45.4835 2.76562 44.4284 2.76562 43.3281V15.6719C2.76562 14.5716 3.20269 13.5165 3.98067 12.7385C4.75866 11.9605 5.81383 11.5234 6.91406 11.5234H52.0859C53.1862 11.5234 54.2413 11.9605 55.0193 12.7385C55.7973 13.5165 56.2344 14.5716 56.2344 15.6719V43.3281Z" fill="#8344D6"/>
</g>
<defs>
<clipPath id="clip0_510_4562">
<rect width="59" height="59" fill="white"/>
</clipPath>
</defs>
</svg>
