<svg width="71" height="52" viewBox="0 0 71 52" fill="none" xmlns="http://www.w3.org/2000/svg">
<path d="M2.72379 17.9384L61.769 1.85702L63.2612 8.44881L62.706 9.23437C61.2002 11.3646 60.3893 13.9074 60.3933 16.4858C60.3961 18.2792 60.7933 20.0337 61.5556 21.6202C62.6517 23.9012 64.4529 25.7326 66.6922 26.8428L67.518 27.2522L69.0103 33.844L9.9651 49.9254L8.48463 43.3858L8.8396 42.9386C10.7735 40.5021 11.7322 37.4297 11.5131 34.37C11.4272 33.17 11.1618 31.9975 10.7259 30.8928C9.61466 28.0761 7.45709 25.8524 4.70871 24.6912L4.20425 24.4781L2.72379 17.9384Z" stroke="#8344D6" stroke-width="3"/>
<path d="M24.5241 22.8313C25.051 25.1586 27.3652 26.4413 29.6923 25.8075C31.9948 25.1804 33.4931 22.8594 32.9663 20.532C32.4394 18.2046 30.1308 16.947 27.8284 17.574C25.5013 18.2079 23.9972 20.5039 24.5241 22.8313ZM30.6453 34.661L33.3191 33.9328L38.9876 14.8536L36.2891 15.5885L30.6453 34.661ZM30.3915 21.2332C30.6351 22.3093 30.1062 23.2239 29.1902 23.4733C28.1752 23.7498 27.3672 23.1994 27.1236 22.1233C26.8913 21.0972 27.3898 20.1644 28.3801 19.8947C29.2961 19.6452 30.1592 20.2072 30.3915 21.2332ZM36.6305 28.9393C37.1574 31.2667 39.4716 32.5493 41.774 31.9222C44.1012 31.2884 45.5996 28.9674 45.0727 26.64C44.5458 24.3126 42.2125 23.0617 39.9101 23.6888C37.6077 24.3159 36.1037 26.6119 36.6305 28.9393ZM42.4732 27.348C42.7055 28.374 42.1823 29.3136 41.2662 29.5631C40.2512 29.8395 39.4489 29.3141 39.2053 28.238C38.9617 27.1619 39.4467 26.2859 40.4618 26.0094C41.3778 25.76 42.2409 26.3219 42.4732 27.348Z" fill="#8344D6"/>
</svg>
