<svg width="61" height="61" viewBox="0 0 61 61" fill="none" xmlns="http://www.w3.org/2000/svg">
<rect width="61" height="61" rx="12.8873" fill="#B9054B"/>
<path d="M30.5011 17.2189C23.0146 17.2189 16.9455 23.3859 16.9455 30.9931C16.9455 38.6004 23.0146 44.7673 30.5011 44.7673C37.9876 44.7673 44.0566 38.6004 44.0566 30.9931C44.0566 23.3859 37.9876 17.2189 30.5011 17.2189ZM13.5566 30.9931C13.5566 21.484 21.1429 13.7754 30.5011 13.7754C39.8592 13.7754 47.4455 21.484 47.4455 30.9931C47.4455 40.5022 39.8592 48.2109 30.5011 48.2109C21.1429 48.2109 13.5566 40.5022 13.5566 30.9931Z" fill="white"/>
<path d="M23.2451 26.2137V25.3075C23.2451 24.6562 23.3841 24.0638 23.6621 23.5302C23.9401 22.9966 24.3378 22.569 24.8551 22.2473C25.3725 21.9256 25.9864 21.7647 26.6969 21.7647C27.4227 21.7647 28.0405 21.9256 28.5502 22.2473C29.0675 22.569 29.4652 22.9966 29.7432 23.5302C30.0212 24.0638 30.1602 24.6562 30.1602 25.3075V26.2137C30.1602 26.8493 30.0212 27.4339 29.7432 27.9675C29.4729 28.501 29.0791 28.9287 28.5617 29.2504C28.0521 29.5721 27.4382 29.733 26.72 29.733C26.0019 29.733 25.3802 29.5721 24.8551 29.2504C24.3378 28.9287 23.9401 28.501 23.6621 27.9675C23.3841 27.4339 23.2451 26.8493 23.2451 26.2137ZM24.8551 25.3075V26.2137C24.8551 26.5747 24.9208 26.916 25.0521 27.2377C25.1911 27.5594 25.3995 27.8223 25.6775 28.0263C25.9555 28.2225 26.303 28.3206 26.72 28.3206C27.137 28.3206 27.4806 28.2225 27.7509 28.0263C28.0212 27.8223 28.222 27.5594 28.3532 27.2377C28.4845 26.916 28.5502 26.5747 28.5502 26.2137V25.3075C28.5502 24.9387 28.4807 24.5934 28.3417 24.2717C28.2104 23.9421 28.0058 23.6793 27.7278 23.4831C27.4575 23.2791 27.1139 23.1771 26.6969 23.1771C26.2876 23.1771 25.944 23.2791 25.666 23.4831C25.3957 23.6793 25.1911 23.9421 25.0521 24.2717C24.9208 24.5934 24.8551 24.9387 24.8551 25.3075ZM31.4575 35.8651V34.947C31.4575 34.3036 31.5965 33.7151 31.8745 33.1815C32.1525 32.648 32.5502 32.2203 33.0676 31.8986C33.585 31.5769 34.1989 31.4161 34.9093 31.4161C35.6352 31.4161 36.2529 31.5769 36.7626 31.8986C37.28 32.2203 37.6777 32.648 37.9556 33.1815C38.2336 33.7151 38.3726 34.3036 38.3726 34.947V35.8651C38.3726 36.5085 38.2336 37.097 37.9556 37.6306C37.6854 38.1642 37.2915 38.5918 36.7742 38.9135C36.2645 39.2352 35.6506 39.3961 34.9325 39.3961C34.2143 39.3961 33.5965 39.2352 33.0792 38.9135C32.5618 38.5918 32.1602 38.1642 31.8745 37.6306C31.5965 37.097 31.4575 36.5085 31.4575 35.8651ZM33.0676 34.947V35.8651C33.0676 36.226 33.1332 36.5713 33.2645 36.9008C33.4035 37.2226 33.612 37.4854 33.89 37.6894C34.168 37.8856 34.5155 37.9837 34.9325 37.9837C35.3494 37.9837 35.6931 37.8856 35.9634 37.6894C36.2413 37.4854 36.446 37.2226 36.5773 36.9008C36.7085 36.5791 36.7742 36.2339 36.7742 35.8651V34.947C36.7742 34.5782 36.7047 34.233 36.5657 33.9113C36.4344 33.5896 36.2298 33.3306 35.9518 33.1345C35.6815 32.9305 35.334 32.8284 34.9093 32.8284C34.5 32.8284 34.1564 32.9305 33.8784 33.1345C33.6081 33.3306 33.4035 33.5896 33.2645 33.9113C33.1332 34.233 33.0676 34.5782 33.0676 34.947ZM35.4421 24.4482L27.2065 37.8424L26.0019 37.0656L34.2375 23.6714L35.4421 24.4482Z" fill="white"/>
</svg>
