<?xml version="1.0" standalone="no"?>
<!DOCTYPE svg PUBLIC "-//W3C//DTD SVG 20010904//EN"
 "http://www.w3.org/TR/2001/REC-SVG-20010904/DTD/svg10.dtd">
<svg version="1.0" xmlns="http://www.w3.org/2000/svg"
 width="1696.000000pt" height="1696.000000pt" viewBox="0 0 1696.000000 1696.000000"
 preserveAspectRatio="xMidYMid meet">
<metadata>
Created by potrace 1.14, written by Peter Selinger 2001-2017
</metadata>
<g transform="translate(0.000000,1696.000000) scale(0.100000,-0.100000)"
fill="#000000" stroke="none">
<path d="M8498 13195 c-1 -1 -37 -5 -79 -9 -80 -6 -148 -14 -189 -22 -14 -3
-38 -7 -55 -9 -93 -14 -262 -57 -380 -96 -89 -30 -90 -30 -90 -28 0 1 -11 -4
-25 -11 -14 -8 -27 -15 -30 -15 -3 0 -30 -12 -62 -27 -31 -14 -66 -29 -77 -33
-12 -3 -21 -11 -21 -17 0 -6 -3 -9 -6 -5 -7 6 -86 -35 -189 -98 -33 -21 -75
-46 -92 -57 -18 -11 -33 -24 -33 -29 0 -5 -6 -9 -12 -9 -7 0 -25 -10 -40 -23
-15 -12 -41 -33 -59 -47 -18 -14 -38 -31 -46 -38 -7 -7 -13 -10 -13 -7 0 4
-12 -7 -27 -24 -15 -17 -31 -31 -34 -31 -9 0 -200 -190 -254 -252 -106 -123
-160 -192 -246 -314 -32 -47 -59 -89 -59 -94 0 -6 -3 -10 -8 -10 -4 0 -12 -9
-17 -19 -32 -63 -131 -221 -141 -225 -24 -9 -34 13 -39 89 -3 44 -8 112 -11
150 -3 39 -7 95 -9 125 -2 30 -6 87 -9 125 -4 39 -9 106 -11 150 -3 44 -8 100
-10 125 -2 25 -7 74 -10 110 -3 36 -8 106 -10 155 -3 50 -5 90 -6 90 -1 0 -6
63 -12 153 -3 40 -7 76 -11 79 -9 10 -99 11 -118 1 -9 -4 -19 -4 -22 0 -6 10
-106 9 -122 -1 -6 -3 -14 -3 -18 0 -10 10 -457 10 -463 0 -2 -4 -10 -4 -16 0
-16 10 -458 10 -464 0 -2 -4 -10 -4 -16 0 -16 10 -458 10 -464 0 -2 -4 -10 -4
-16 0 -16 10 -458 10 -464 0 -2 -4 -10 -4 -16 0 -16 10 -298 10 -304 0 -2 -4
-10 -4 -16 0 -16 10 -458 10 -464 0 -2 -4 -10 -4 -16 0 -16 10 -458 10 -464 0
-2 -4 -10 -4 -16 0 -16 10 -298 10 -304 0 -2 -4 -10 -4 -16 0 -16 10 -458 10
-464 0 -2 -4 -10 -4 -16 0 -16 10 -458 10 -464 0 -2 -4 -10 -4 -16 0 -16 10
-298 10 -304 0 -2 -4 -10 -4 -16 0 -16 10 -458 10 -464 0 -2 -4 -10 -4 -16 0
-16 10 -458 10 -464 0 -2 -4 -10 -4 -16 0 -39 24 -40 22 -33 -255 3 -147 8
-287 11 -312 13 -112 23 -174 35 -230 5 -25 11 -54 14 -66 45 -214 202 -551
299 -642 9 -9 17 -20 17 -24 0 -4 10 -18 23 -31 12 -14 34 -39 49 -56 15 -17
29 -31 31 -31 2 0 24 -19 48 -42 25 -24 56 -51 69 -61 14 -9 45 -32 69 -49 25
-18 59 -41 75 -50 57 -33 235 -118 253 -121 10 -2 29 -9 43 -17 14 -7 26 -13
28 -12 1 1 3 2 5 1 1 0 9 -2 17 -4 8 -1 35 -8 60 -15 25 -7 54 -14 65 -16 91
-20 127 -26 170 -30 28 -3 59 -6 70 -9 11 -2 32 -4 46 -4 25 -1 25 -1 25 -88
0 -84 9 -225 18 -268 2 -11 7 -40 11 -65 11 -66 12 -71 25 -120 12 -46 45
-146 63 -190 6 -14 11 -27 12 -30 5 -16 59 -122 82 -160 32 -54 91 -135 126
-172 14 -16 24 -28 22 -28 -4 0 92 -91 143 -135 18 -16 59 -46 90 -67 31 -21
62 -41 67 -46 19 -15 191 -99 245 -119 113 -43 95 -37 180 -58 8 -2 17 -4 20
-5 3 -1 8 -2 13 -1 4 0 7 -2 7 -6 0 -5 18 -9 40 -11 22 -1 52 -7 67 -13 16 -6
51 -12 78 -14 28 -2 70 -6 95 -9 25 -3 89 -7 143 -8 97 -2 97 -2 98 -27 0 -14
1 -1261 2 -2771 l2 -2745 1605 -3 1605 -2 1 2742 c0 1509 3 2799 7 2868 7 146
12 191 32 340 15 108 85 362 106 385 5 5 9 17 9 27 0 10 4 18 8 18 4 0 8 10 9
22 1 11 6 24 11 27 5 3 20 26 33 50 35 63 42 76 59 94 8 9 24 28 35 43 11 14
28 34 38 43 11 9 33 30 50 46 50 47 117 91 198 129 82 39 225 84 252 80 9 -1
17 1 17 4 0 4 10 7 23 8 12 0 51 4 87 8 85 9 229 9 305 0 33 -3 69 -8 80 -9
11 -1 27 -5 35 -8 8 -4 26 -8 40 -10 25 -4 41 -9 90 -29 38 -15 114 -52 120
-58 3 -3 23 -19 45 -35 51 -38 135 -126 135 -141 0 -6 6 -17 14 -23 34 -29
104 -197 132 -316 12 -54 35 -191 39 -235 3 -30 8 -80 11 -110 3 -30 7 -382 9
-782 2 -400 6 -731 9 -736 3 -5 3 -12 -1 -15 -8 -9 -8 -451 0 -464 4 -6 4 -13
0 -16 -8 -8 -8 -1091 0 -1104 4 -6 4 -13 0 -16 -8 -9 -8 -451 0 -464 4 -6 4
-13 0 -16 -9 -9 -9 -138 0 -144 4 -2 4 -9 1 -15 -9 -14 -9 -451 -1 -465 4 -6
4 -13 0 -16 -8 -8 -8 -1091 0 -1104 4 -6 4 -13 0 -16 -8 -9 -8 -451 1 -465 3
-6 3 -13 -2 -15 -6 -4 -8 -55 -3 -99 1 -5 732 -8 1626 -8 894 0 1625 3 1626 8
0 4 2 1269 4 2812 2 1543 6 2832 9 2865 3 33 8 85 10 115 2 30 5 55 6 55 3 0
8 39 14 90 5 53 17 118 24 130 3 5 7 19 8 32 1 12 15 62 30 110 16 48 27 91
26 96 -1 4 3 7 8 7 6 0 10 7 10 15 0 9 12 39 27 68 15 29 27 54 28 57 4 27
121 179 169 220 17 14 39 34 50 45 62 60 269 164 329 165 9 0 17 5 17 11 0 5
3 8 8 6 4 -3 39 1 77 8 142 27 291 33 425 19 30 -3 66 -7 80 -8 14 -1 30 -5
35 -8 9 -5 74 -18 85 -18 12 1 157 -74 194 -100 75 -52 133 -117 186 -204 33
-56 77 -154 84 -187 2 -8 6 -21 9 -29 3 -8 9 -28 13 -45 4 -16 8 -32 9 -35 1
-6 13 -67 19 -95 2 -11 7 -40 10 -65 3 -25 8 -54 10 -66 2 -11 7 -74 11 -140
3 -65 8 -120 10 -122 2 -2 0 -15 -5 -28 -5 -13 -6 -25 -2 -28 5 -3 8 -1299 8
-2880 l-1 -2876 1628 0 1628 0 -4 3213 c-2 1766 -6 3241 -10 3277 -7 65 -17
189 -20 245 -1 17 -4 35 -7 40 -3 6 -6 31 -5 57 0 27 -2 48 -5 48 -3 0 -5 12
-5 28 1 15 -1 31 -4 37 -3 5 -7 30 -8 55 -2 25 -6 52 -10 60 -3 8 -7 31 -9 50
-2 19 -12 76 -23 125 -11 50 -25 115 -31 145 -7 30 -15 62 -18 70 -3 8 -6 17
-6 20 -5 20 -29 108 -33 120 -4 8 -8 24 -10 35 -1 11 -7 29 -12 40 -5 11 -20
49 -32 85 -52 155 -179 423 -250 528 -16 24 -29 45 -29 48 0 4 -114 162 -154
212 -29 36 -275 280 -305 302 -19 14 -43 33 -53 43 -10 9 -18 15 -18 12 0 -3
-12 6 -27 20 -16 14 -36 28 -45 31 -10 3 -18 10 -18 15 0 5 -5 9 -11 9 -5 0
-36 17 -67 38 -31 21 -85 53 -120 71 -35 18 -75 39 -90 47 -15 8 -33 14 -39
14 -7 0 -13 5 -13 10 0 6 -3 9 -7 8 -5 -1 -30 8 -57 20 -27 12 -50 22 -52 22
-1 0 -15 5 -31 11 -15 6 -29 10 -31 10 -1 -1 -16 6 -32 14 -16 8 -31 15 -32
14 -2 0 -16 4 -31 10 -16 6 -34 11 -41 11 -7 0 -16 3 -20 7 -3 4 -17 9 -29 11
-28 5 -32 6 -87 22 -25 7 -49 13 -53 12 -4 -1 -16 2 -25 7 -9 5 -33 12 -52 15
-19 3 -45 8 -57 11 -51 11 -69 15 -108 20 -22 4 -53 9 -70 11 -31 6 -60 10
-135 19 -25 3 -61 8 -80 10 -104 13 -261 20 -480 20 -271 0 -366 -7 -535 -37
-33 -6 -71 -12 -85 -13 -14 -2 -65 -13 -115 -24 -110 -26 -120 -29 -120 -31 0
-1 -7 -3 -15 -5 -8 -2 -53 -16 -100 -31 -47 -15 -87 -28 -90 -29 -3 -1 -22 -9
-44 -18 -21 -9 -40 -17 -43 -17 -16 0 -284 -131 -301 -147 -8 -7 -17 -11 -21
-9 -4 3 -20 -6 -36 -20 -15 -13 -31 -24 -36 -24 -7 0 -132 -79 -154 -97 -5 -5
-26 -20 -45 -33 -19 -13 -44 -32 -54 -42 -11 -10 -23 -18 -27 -18 -4 0 -14 -6
-21 -12 -7 -7 -53 -47 -102 -88 -159 -133 -340 -320 -495 -510 -34 -41 -70
-86 -81 -98 -11 -13 -20 -26 -20 -29 0 -2 -16 -24 -35 -47 -19 -24 -35 -48
-35 -54 0 -6 -3 -12 -8 -14 -4 -1 -24 -26 -45 -55 -47 -65 -65 -62 -102 18
-41 90 -146 283 -157 290 -5 3 -8 9 -6 11 5 9 -165 264 -193 288 -3 3 -12 15
-20 27 -35 52 -160 185 -240 258 -87 78 -111 99 -149 125 -19 13 -37 27 -40
30 -9 11 -129 90 -136 90 -4 0 -15 6 -23 14 -16 13 -177 100 -196 105 -5 2
-29 11 -52 22 -66 30 -97 43 -108 44 -11 2 -38 12 -70 25 -24 11 -177 55 -225
66 -19 4 -37 8 -40 9 -3 1 -20 5 -38 9 -19 4 -43 9 -55 11 -21 2 -60 9 -122
21 -36 6 -58 9 -150 19 -38 4 -88 9 -110 12 -48 5 -562 13 -567 8z"/>
</g>
</svg>
