<svg width="153" height="46" viewBox="0 0 153 46" fill="none" xmlns="http://www.w3.org/2000/svg">
<path d="M9.56505 45.0062C9.21997 45.0062 8.88315 45.0018 8.54078 44.994C7.90748 44.9763 7.15633 44.9408 6.42357 44.8089C5.73223 44.6835 5.11781 44.4796 4.54704 44.187C3.95633 43.8867 3.42532 43.4986 2.96462 43.033C2.49555 42.5718 2.11 42.0419 1.80857 41.4476C1.51493 40.8747 1.31413 40.2593 1.19356 39.5664C1.05517 38.8026 1.0199 38.0276 1.00492 37.438C0.997719 37.1986 0.988281 36.4016 0.988281 36.4016V9.58574C0.988281 9.58574 0.998309 8.80091 1.00492 8.57036C1.01978 7.97553 1.05517 7.20122 1.19238 6.44524C1.31354 5.74837 1.51422 5.13368 1.80798 4.55836C2.10894 3.96306 2.49484 3.43042 2.95778 2.97144C3.42626 2.50134 3.9594 2.11224 4.54622 1.81074C5.12819 1.51469 5.74155 1.31251 6.41897 1.19321C7.18169 1.05642 7.95491 1.02201 8.54349 1.00712L9.56564 0.993164H143.428L144.462 1.00759C145.043 1.02201 145.816 1.05642 146.567 1.19227C147.249 1.31192 147.867 1.5154 148.46 1.81417C149.04 2.11236 149.572 2.50134 150.036 2.96706C150.499 3.42829 150.887 3.96377 151.195 4.5612C151.487 5.14148 151.686 5.75618 151.801 6.43306C151.933 7.1492 151.974 7.88473 151.998 8.57544C152.001 8.89692 152.001 9.24228 152.001 9.58586C152.01 10.0116 152.01 10.4167 152.01 10.8253V35.1756C152.01 35.588 152.01 35.9904 152.001 36.3961C152.001 36.7653 152.001 37.1035 151.997 37.4516C151.974 38.1201 151.933 38.8551 151.803 39.5557C151.686 40.2518 151.487 40.8671 151.192 41.4514C150.886 42.0412 150.498 42.5743 150.041 43.0244C149.573 43.4989 149.042 43.8858 148.456 44.1851C147.869 44.4843 147.269 44.6827 146.567 44.8091C145.841 44.9411 145.09 44.9765 144.45 44.9943C144.118 45.0021 143.77 45.0064 143.433 45.0064L142.205 45.0088L9.56493 45.0064L9.56505 45.0062Z" fill="black"/>
<path d="M56.7441 31.0896H51.4348L50.1351 34.6491H47.8008L53.0002 21.3555H55.2066L60.525 34.6491H58.0718L56.7442 31.0896H56.7441ZM52.1034 29.2822H56.0672L54.6478 25.4746C54.4527 24.9487 54.2607 24.3679 54.071 23.7318C53.9 24.2944 53.7141 24.8695 53.5131 25.4566L52.1035 29.2822H52.1034Z" fill="white"/>
<path d="M61.5789 27.1721C61.5789 26.4378 61.554 25.6307 61.5059 24.7498H63.6293C63.7084 25.1598 63.7635 25.5787 63.7942 26.007C64.6731 25.0467 65.6797 24.5664 66.8153 24.5664C67.4743 24.5664 68.0849 24.7332 68.6458 25.0663C69.2075 25.3999 69.6609 25.9258 70.0057 26.6442C70.3507 27.3631 70.523 28.2762 70.523 29.3829C70.523 30.5391 70.3258 31.5269 69.932 32.3464C69.5389 33.166 68.9877 33.7867 68.2799 34.2088C67.5721 34.6306 66.7543 34.8419 65.8266 34.8419C65.155 34.8419 64.4931 34.7283 63.8403 34.5023V38.594L61.5789 38.7869V27.1723V27.1721ZM67.5247 32.2316C67.9855 31.6108 68.2159 30.7042 68.2159 29.5115C68.2159 28.4044 68.0252 27.6019 67.6436 27.103C67.2617 26.6045 66.7542 26.3556 66.1194 26.3556C65.6796 26.3556 65.2738 26.4593 64.9018 26.6673C64.5299 26.8751 64.1752 27.1536 63.8401 27.5022V32.8051C64.0652 32.9153 64.3281 33.0024 64.627 33.0666C64.9259 33.1307 65.2219 33.1628 65.5156 33.1628C66.3943 33.1628 67.0637 32.8523 67.5247 32.2316Z" fill="white"/>
<path d="M71.9696 27.1721C71.9696 26.4378 71.9447 25.6307 71.8965 24.7498H74.0199C74.099 25.1598 74.154 25.5787 74.1849 26.007C75.0636 25.0467 76.0704 24.5664 77.2058 24.5664C77.8648 24.5664 78.4753 24.7332 79.0363 25.0663C79.598 25.3999 80.0514 25.9258 80.3962 26.6442C80.7411 27.3631 80.9135 28.2762 80.9135 29.3829C80.9135 30.5391 80.7163 31.5269 80.3225 32.3464C79.9294 33.166 79.3781 33.7867 78.6705 34.2088C77.9626 34.6306 77.1448 34.8419 76.2173 34.8419C75.5455 34.8419 74.8838 34.7283 74.2308 34.5023V38.594L71.9695 38.7869V27.1723L71.9696 27.1721ZM77.9153 32.2316C78.3761 31.6108 78.6065 30.7042 78.6065 29.5115C78.6065 28.4044 78.4159 27.6019 78.0341 27.103C77.6523 26.6045 77.1448 26.3556 76.5102 26.3556C76.0704 26.3556 75.6645 26.4593 75.2926 26.6673C74.9206 26.8751 74.5659 27.1536 74.2308 27.5022V32.8051C74.4559 32.9153 74.7187 33.0024 75.0177 33.0666C75.3166 33.1307 75.6125 33.1628 75.9063 33.1628C76.785 33.1628 77.4543 32.8523 77.9153 32.2316Z" fill="white"/>
<path d="M85.1798 34.0201C84.2032 33.479 83.4523 32.7036 82.9275 31.6946C82.4027 30.6853 82.1406 29.4927 82.1406 28.1166C82.1406 26.6242 82.4426 25.3564 83.0466 24.3136C83.6512 23.271 84.4735 22.4881 85.5142 21.9651C86.554 21.4422 87.7211 21.1807 89.0156 21.1807C89.7783 21.1807 90.5057 21.2648 91.1985 21.4331C91.8913 21.6013 92.5366 21.8319 93.1352 22.1255L92.5584 23.8687C91.356 23.294 90.2083 23.0065 89.1165 23.0065C88.1948 23.0065 87.3876 23.2034 86.6947 23.5982C86.0021 23.9925 85.4637 24.5721 85.0789 25.3369C84.6948 26.1013 84.5022 27.0247 84.5022 28.1076C84.5022 29.0553 84.6505 29.8964 84.9465 30.6303C85.2423 31.3642 85.7092 31.9457 86.347 32.3735C86.9847 32.8018 87.789 33.0158 88.7589 33.0158C89.1987 33.0158 89.6384 32.9791 90.0774 32.9056C90.5172 32.8324 90.929 32.7253 91.3131 32.5846V29.8966H88.2468V28.1351H93.5102V33.7316C92.7535 34.0863 91.9584 34.3583 91.1256 34.5481C90.2928 34.7375 89.4645 34.8323 88.6398 34.8323C87.3093 34.8323 86.1564 34.5618 85.1799 34.0203L85.1798 34.0201Z" fill="white"/>
<path d="M101.657 34.649C101.578 34.2638 101.526 33.8264 101.502 33.337C101.154 33.7532 100.701 34.1065 100.142 34.3966C99.584 34.6871 98.9537 34.8325 98.2519 34.8325C97.6841 34.8325 97.1669 34.7206 96.6999 34.4977C96.2331 34.2744 95.8625 33.9381 95.5878 33.4885C95.3129 33.0391 95.1758 32.49 95.1758 31.8418C95.1758 30.8815 95.5206 30.1156 96.2104 29.5435C96.9002 28.9715 98.0499 28.6855 99.6615 28.6855C100.266 28.6855 100.864 28.7286 101.456 28.8142V28.6214C101.456 27.7468 101.27 27.1306 100.897 26.773C100.525 26.4152 99.9912 26.236 99.2954 26.236C98.8136 26.236 98.2977 26.3066 97.7481 26.4474C97.1992 26.5881 96.7164 26.756 96.3015 26.9518L95.9446 25.3003C96.3475 25.1169 96.8784 24.9487 97.5379 24.7959C98.1969 24.643 98.8926 24.5664 99.6251 24.5664C100.479 24.5664 101.206 24.6966 101.804 24.9566C102.402 25.2165 102.868 25.663 103.204 26.2957C103.54 26.9288 103.708 27.7809 103.708 28.8509V32.7868C103.708 33.1966 103.732 33.8175 103.781 34.6492H101.657L101.657 34.649ZM100.302 32.8141C100.772 32.588 101.157 32.3066 101.456 31.97V30.1352C100.839 30.068 100.336 30.0344 99.9453 30.0344C99.0117 30.0344 98.3663 30.1858 98.0095 30.4883C97.6526 30.7913 97.4741 31.1995 97.4741 31.7131C97.4741 32.2025 97.6036 32.5651 97.8627 32.8006C98.1225 33.036 98.4749 33.1538 98.9199 33.1538C99.3716 33.1538 99.8325 33.0405 100.302 32.8141H100.302Z" fill="white"/>
<path d="M105.688 32.2721V20.575L107.939 20.3916V31.8687C107.939 32.2906 108.011 32.5886 108.154 32.7629C108.297 32.9372 108.525 33.0244 108.837 33.0244C108.977 33.0244 109.175 32.9909 109.431 32.9237L109.697 34.5476C109.483 34.6332 109.222 34.7019 108.914 34.7541C108.606 34.8057 108.315 34.8317 108.04 34.8317C106.471 34.8317 105.688 33.9785 105.688 32.2719L105.688 32.2721Z" fill="white"/>
<path d="M111.316 32.2721V20.575L113.568 20.3916V31.8687C113.568 32.2906 113.639 32.5886 113.783 32.7629C113.926 32.9372 114.154 33.0244 114.466 33.0244C114.606 33.0244 114.804 32.9909 115.06 32.9237L115.326 34.5476C115.112 34.6332 114.851 34.7019 114.543 34.7541C114.235 34.8057 113.944 34.8317 113.669 34.8317C112.1 34.8317 111.317 33.9785 111.317 32.2719L111.316 32.2721Z" fill="white"/>
<path d="M124.701 29.9886H118.238C118.342 32.0619 119.328 33.0988 121.195 33.0988C121.659 33.0988 122.134 33.0422 122.619 32.929C123.104 32.8158 123.57 32.6645 124.015 32.4747L124.509 34.0254C123.405 34.5635 122.163 34.8326 120.784 34.8326C119.734 34.8326 118.849 34.6339 118.128 34.2363C117.409 33.8387 116.867 33.2671 116.503 32.5206C116.141 31.7747 115.959 30.8757 115.959 29.8233C115.959 28.7287 116.151 27.7868 116.536 26.9979C116.921 26.2085 117.456 25.6063 118.143 25.1904C118.829 24.7743 119.621 24.5664 120.518 24.5664C121.451 24.5664 122.231 24.7853 122.857 25.2226C123.482 25.6598 123.946 26.2424 124.249 26.9703C124.551 27.6982 124.701 28.5023 124.701 29.3829V29.9886H124.701ZM122.495 28.5483C122.453 27.7593 122.254 27.1673 121.9 26.773C121.546 26.3782 121.073 26.1812 120.481 26.1812C119.908 26.1812 119.43 26.3797 119.048 26.7774C118.667 27.1751 118.418 27.7652 118.302 28.5481H122.495L122.495 28.5483Z" fill="white"/>
<path d="M126.524 27.2363C126.524 26.6919 126.499 25.8633 126.451 24.7499H128.566C128.602 25.0253 128.637 25.354 128.671 25.7361C128.704 26.1187 128.727 26.4288 128.739 26.6674C129.002 26.233 129.26 25.8678 129.513 25.5713C129.766 25.2746 130.062 25.0328 130.401 24.8464C130.74 24.6596 131.126 24.5664 131.559 24.5664C131.907 24.5664 132.205 24.6031 132.456 24.6766L132.172 26.6397C131.953 26.5726 131.708 26.539 131.44 26.539C130.909 26.539 130.445 26.6752 130.048 26.9473C129.651 27.2193 129.227 27.6675 128.776 28.2912V34.649H126.524V27.2362L126.524 27.2363Z" fill="white"/>
<path d="M133.811 38.699C133.481 38.6408 133.21 38.5752 132.996 38.5016L133.408 36.8504C133.56 36.8931 133.753 36.9342 133.985 36.9742C134.217 37.0138 134.437 37.0338 134.644 37.0338C135.645 37.0338 136.395 36.3882 136.896 35.0977L137.042 34.731L133.399 24.749H135.824L137.656 30.3273C137.955 31.2814 138.147 32.0123 138.232 32.5198C138.403 31.804 138.604 31.0887 138.836 30.3728L140.695 24.749H142.974L139.34 34.7766C138.999 35.7248 138.629 36.4892 138.233 37.0703C137.836 37.6514 137.367 38.0827 136.827 38.3639C136.287 38.6453 135.635 38.7861 134.873 38.7861C134.494 38.7861 134.141 38.757 133.811 38.6989L133.811 38.699Z" fill="white"/>
<path fill-rule="evenodd" clip-rule="evenodd" d="M31.0079 8.36816H18.2388C12.2237 8.36816 10.0234 10.5731 10.0234 16.6011V29.398C10.0234 35.4261 12.2237 37.631 18.2387 37.631H31.0039C37.0189 37.631 39.2232 35.4261 39.2232 29.398V16.6011C39.2232 10.5731 37.0229 8.36816 31.0078 8.36816H31.0079Z" fill="#C7102D"/>
<path d="M15.807 23.0022H16.5812V26.8281H15.807V25.2743H14.058V26.8281H13.2832V23.0022H14.058V24.5455H15.807V23.0022ZM20.1702 25.1921C20.1702 25.814 19.862 26.1464 19.3024 26.1464C18.7397 26.1464 18.4298 25.8047 18.4298 25.1655V23.0043H17.6551V25.1921C17.6551 26.2681 18.2518 26.8852 19.292 26.8852C20.3422 26.8852 20.9445 26.2566 20.9445 25.1602V23.0021H20.1702V25.1921ZM29.1221 25.633L28.2554 23.002H27.6231L26.7566 25.633L25.9132 23.0038H25.0886L26.4193 26.8277H27.0605L27.9286 24.3159L28.7963 26.8277H29.4431L30.7704 23.0038H29.9673L29.122 25.633H29.1221ZM32.1591 25.1815H33.5678V24.4849H32.1591V23.7018H34.2042V23.0046H31.3949V26.8256H34.2778V26.1287H32.1591V25.1815ZM35.2013 26.8232H35.9655V23.0022H35.2013V26.8232ZM22.4753 26.0293L22.128 26.8258H21.3373L23.019 23.0022H23.7025L25.3776 26.8258H24.5655L24.2227 26.0293H22.4755H22.4753ZM22.7637 25.3395H23.9346L23.3472 23.9704L22.7637 25.3395Z" fill="white"/>
<path d="M24.6241 18.1308C21.944 18.1308 19.7637 15.9458 19.7637 13.2598H20.4504C20.4504 15.5663 22.3227 17.4426 24.6242 17.4426C26.9256 17.4426 28.798 15.5663 28.798 13.2598H29.4847C29.4847 15.9458 27.3043 18.1308 24.6242 18.1308H24.6241Z" fill="white"/>
<path d="M51.0562 15.2072C51.513 15.2072 51.899 15.1003 52.217 14.8879C52.5328 14.6731 52.7718 14.3811 52.9272 14.0078C53.0838 13.6335 53.1629 13.207 53.1629 12.7261C53.1629 12.2525 53.0929 11.8321 52.9551 11.4626C52.8148 11.0936 52.5933 10.8 52.2886 10.5812C51.9838 10.3618 51.5904 10.2521 51.112 10.2521C50.6533 10.2521 50.2632 10.3618 49.9432 10.585C49.6236 10.8068 49.3836 11.1054 49.2244 11.48C49.0636 11.8534 48.9824 12.2659 48.9824 12.7164C48.9824 13.1909 49.0595 13.6154 49.2094 13.9915C49.3607 14.3661 49.5911 14.6621 49.9029 14.8813C50.213 15.0976 50.5978 15.2072 51.0561 15.2072H51.0562ZM102.313 15.1755C102.782 15.1755 103.13 15.0813 103.361 14.8929C103.593 14.7024 103.709 14.4362 103.709 14.0911C103.709 13.7247 103.58 13.446 103.325 13.2568C103.07 13.0647 102.702 12.9702 102.223 12.9702H101.462V15.1756H102.313V15.1755ZM101.462 12.1303H102.169C102.404 12.1303 102.611 12.0828 102.791 11.9912C102.971 11.8964 103.108 11.7692 103.205 11.6108C103.301 11.4528 103.351 11.277 103.351 11.0876C103.351 10.8171 103.253 10.6157 103.06 10.4829C102.864 10.3504 102.582 10.2845 102.215 10.2845H101.462V12.1302L101.462 12.1303ZM103.282 12.4846C103.58 12.5293 103.847 12.624 104.082 12.7686C104.316 12.9118 104.501 13.1012 104.634 13.3352C104.767 13.5688 104.836 13.8448 104.836 14.1588C104.836 14.5253 104.745 14.8485 104.562 15.1283C104.379 15.407 104.112 15.626 103.76 15.7814C103.409 15.9371 102.987 16.0155 102.494 16.0155H100.357V9.44462H102.404C103.099 9.44462 103.619 9.57834 103.966 9.84909C104.313 10.1165 104.487 10.4872 104.487 10.9549C104.487 11.3444 104.375 11.6719 104.154 11.9339C103.933 12.195 103.642 12.379 103.282 12.4846H103.282ZM92.2928 9.44426H96.1545L96.0462 10.3784H93.423V12.1893H95.8968V13.0657H93.423V15.071H96.1869L96.0909 16.0149H92.2927V9.44426H92.2928ZM88.1628 10.3923H86.1309L86.2277 9.44426H91.3326L91.2284 10.3923H89.295V16.0155H88.1627V10.3923H88.1628ZM82.4478 9.06237C82.0982 9.06237 81.8027 9.0003 81.5639 8.87154C81.326 8.74456 81.1444 8.58211 81.0188 8.38194C80.8932 8.18213 80.8135 7.96659 80.7811 7.73828H81.5963C81.6836 8.22114 81.9671 8.46317 82.4478 8.46317C82.9261 8.46317 83.2127 8.22114 83.3027 7.73828H84.1235C84.0896 7.96659 84.0104 8.18213 83.8858 8.38194C83.7602 8.58211 83.5784 8.74456 83.3367 8.87154C83.0979 9.0003 82.7992 9.06237 82.4478 9.06237ZM84.1181 16.016V12.4023C84.1181 11.9496 84.1358 11.4288 84.1683 10.8407L80.8755 16.016H79.6176V9.44379H80.6693V13.1979C80.6693 13.6062 80.6539 14.051 80.627 14.5354L83.87 9.44391H85.169V16.0161H84.118L84.1181 16.016ZM75.0603 15.2072C75.5171 15.2072 75.9042 15.1003 76.2211 14.8879C76.5382 14.6731 76.7759 14.3811 76.9324 14.0078C77.0878 13.6335 77.167 13.207 77.167 12.7261C77.167 12.2525 77.0969 11.8321 76.9591 11.4626C76.8189 11.0936 76.5974 10.8 76.2927 10.5812C75.9878 10.3618 75.5947 10.2521 75.1161 10.2521C74.6569 10.2521 74.2673 10.3618 73.9472 10.585C73.6277 10.8068 73.3874 11.1054 73.2284 11.48C73.0678 11.8534 72.9865 12.2659 72.9865 12.7164C72.9865 13.1909 73.0638 13.6154 73.2136 13.9915C73.3655 14.3661 73.595 14.6621 73.9069 14.8813C74.2168 15.0976 74.6018 15.2072 75.0599 15.2072H75.0603ZM74.9934 16.1065C74.3361 16.1065 73.7666 15.9684 73.2865 15.6929C72.8075 15.418 72.4403 15.0312 72.1868 14.5324C71.9332 14.036 71.8052 13.4572 71.8052 12.7975C71.8052 12.1047 71.9398 11.4989 72.2111 10.9798C72.4809 10.4618 72.8695 10.059 73.3778 9.77756C73.8869 9.49345 74.4874 9.35263 75.1797 9.35263C75.8397 9.35263 76.4102 9.48967 76.8866 9.7642C77.3631 10.0371 77.7268 10.4226 77.9767 10.9189C78.2276 11.414 78.3531 11.9899 78.3531 12.6429C78.3531 13.3475 78.217 13.9601 77.9432 14.481C77.6704 15.0017 77.2818 15.4018 76.7759 15.6845C76.2699 15.9658 75.6745 16.1065 74.9934 16.1065ZM68.5592 12.7074C69.0211 12.7074 69.3725 12.5962 69.6144 12.3786C69.8557 12.1582 69.9761 11.8485 69.9761 11.4498C69.9761 11.0437 69.8532 10.7532 69.6064 10.5734C69.362 10.3963 69.0007 10.3056 68.5228 10.3056H67.9066V12.6387C68.191 12.6842 68.408 12.7074 68.5592 12.7074ZM66.7752 9.44415H68.5414C69.3716 9.44415 70.007 9.61322 70.4466 9.95136C70.8879 10.2906 71.1082 10.7815 71.1082 11.4227C71.1082 11.8579 71.0099 12.238 70.8111 12.5641C70.6126 12.8883 70.3389 13.1388 69.9852 13.312C69.6321 13.4864 69.2274 13.5743 68.7671 13.5743C68.5177 13.5743 68.2301 13.543 67.9066 13.4837V16.0154H66.7752V9.44415ZM65.9099 16.0154H64.6333L62.6806 13.1198H61.9064V16.0154H60.7742V9.4445H61.9064V12.157H62.4997L63.8587 10.1882C64.0569 9.89497 64.257 9.68262 64.4581 9.55008C64.6588 9.41991 64.9128 9.3537 65.2161 9.3537C65.47 9.3537 65.6966 9.39425 65.8962 9.4795L65.6602 10.3642C65.5356 10.3139 65.4199 10.2883 65.3065 10.2883C65.1745 10.2883 65.0612 10.322 64.9652 10.3871C64.8696 10.4548 64.7711 10.5617 64.67 10.7103L63.4686 12.4345L65.9099 16.0155V16.0154ZM56.6447 10.3921H54.6123L54.7113 9.44415H59.8146L59.7104 10.3921H57.7771V16.0154H56.6447V10.3921ZM50.9893 16.1065C50.3307 16.1065 49.7614 15.9684 49.2823 15.6929C48.8032 15.418 48.4362 15.0312 48.1814 14.5324C47.9289 14.036 47.8008 13.4572 47.8008 12.7975C47.8008 12.1047 47.9359 11.4989 48.207 10.9798C48.4765 10.4618 48.8652 10.059 49.3739 9.77756C49.8827 9.49345 50.4831 9.35263 51.1742 9.35263C51.8356 9.35263 52.4061 9.48967 52.8826 9.7642C53.3591 10.0371 53.7233 10.4226 53.9727 10.9189C54.2237 11.414 54.3491 11.9899 54.3491 12.6429C54.3491 13.3475 54.2115 13.9601 53.9391 14.481C53.6663 15.0017 53.2777 15.4018 52.7718 15.6845C52.2657 15.9658 51.6703 16.1065 50.9893 16.1065Z" fill="white"/>
</svg>
