<svg width="25" height="22" viewBox="0 0 25 22" fill="none" xmlns="http://www.w3.org/2000/svg">
<path d="M4.35539 10.7659L6.20864 14.5327C6.57929 13.0259 7.17233 9.93716 6.57929 9.63582M10.2858 8.88246L12.5097 14.5327C13.0039 12.7748 13.844 9.10846 13.251 8.50578M17.6988 9.63582L19.9227 14.5327C20.2933 13.6835 20.9605 11.8168 20.664 11.1425M4.72604 10.0126C6.20864 8.38028 10.434 4.36229 13.9923 4.36229C15.5984 2.60444 19.552 -0.383891 22.5172 1.72552C25.4824 3.83493 22.023 7.6269 19.9227 9.2592M12.5097 5.11572L14.7336 6.99912C14.7336 6.62244 14.6594 5.64307 14.3629 4.73904M1.01973 15.6627C0.337026 8.37949 17.5648 4.28964 22.9043 13.0953C23.8346 14.6296 23.6145 16.6427 22.3108 17.8755C15.923 23.9163 1.01937 20.0986 1.01973 15.6627Z" stroke="white" stroke-width="1.5" stroke-linecap="round"/>
</svg>
