<svg width="422" height="120" viewBox="0 0 422 120" fill="none" xmlns="http://www.w3.org/2000/svg">
<g filter="url(#filter0_d_107_5)">
<path d="M293.614 22.0815C284.01 51.572 301.693 83.725 333.11 93.8973C364.527 104.07 397.781 88.409 407.386 58.9185C416.99 29.428 399.307 -2.72504 367.89 -12.8973C336.473 -23.0695 303.219 -7.40901 293.614 22.0815Z" fill="#FF162C"/>
<path d="M359.001 40.9119C359.001 43.386 361.013 45.3916 363.494 45.3916C365.975 45.3916 367.987 43.386 367.987 40.9119C367.987 38.4379 365.975 36.4323 363.494 36.4323C361.013 36.4323 359.001 38.4379 359.001 40.9119Z" fill="#1D1B1B"/>
<path d="M338.784 29.7127C338.784 32.1868 340.795 34.1924 343.277 34.1924C345.758 34.1924 347.769 32.1868 347.769 29.7127C347.769 27.2387 345.758 25.233 343.277 25.233C340.795 25.233 338.784 27.2387 338.784 29.7127Z" fill="#1D1B1B"/>
<path d="M351.821 15.1539C352.72 13.362 352.196 10.6742 351.821 9.55428L343.959 9.55412L348.452 5.07443C349.872 3.65779 350.698 0.221382 350.698 -1.6451C352.495 -0.749165 355.94 0.221436 357.437 0.594742C359.234 -2.09307 360.432 -3.51164 360.807 -3.88495C360.807 -0.301195 361.555 1.34146 361.93 1.71482C363.802 1.71477 366.423 0.594742 369.792 0.594742C369.792 1.71477 370.466 4.40276 373.162 6.19451C368.669 6.19451 367.546 8.43436 367.546 9.55428L369.792 16.2737L363.053 12.914C363.952 16.4978 363.427 18.887 363.053 19.6336C361.555 17.767 358.336 14.034 357.437 14.034C356.539 14.034 353.319 14.7806 351.821 15.1539Z" fill="#3ACF75"/>
<path d="M357.878 53.2311L336.538 43.1518C334.666 46.8849 332.943 55.2469 341.03 58.8307C349.117 62.4145 355.632 56.5909 357.878 53.2311Z" fill="#1D1B1B"/>
</g>
<g filter="url(#filter1_d_107_5)">
<path d="M80.5847 86.1471C86.0081 102.768 75.3682 121.1 56.8199 127.094C38.2716 133.088 18.8387 124.473 13.4153 107.853C7.99192 91.2323 18.6318 72.8997 37.1801 66.9058C55.7284 60.912 75.1613 69.5266 80.5847 86.1471Z" fill="#FE7B21"/>
<path d="M43.3873 91.6922C43.3873 93.0044 42.3183 94.0681 40.9998 94.0681C39.6812 94.0681 38.6122 93.0044 38.6122 91.6922C38.6122 90.38 39.6812 89.3162 40.9998 89.3162C42.3183 89.3162 43.3873 90.38 43.3873 91.6922Z" fill="#1D1B1B"/>
<path d="M60.8957 83.7724C60.8957 85.0846 59.8268 86.1483 58.5082 86.1483C57.1896 86.1483 56.1207 85.0846 56.1207 83.7724C56.1207 82.4602 57.1896 81.3965 58.5082 81.3965C59.8268 81.3965 60.8957 82.4602 60.8957 83.7724Z" fill="#1D1B1B"/>
<path d="M62.4874 98.028C62.4874 101.965 59.2806 105.156 55.3248 105.156C51.3691 105.156 48.1623 101.965 48.1623 98.028C48.1623 94.0914 51.3691 90.9002 55.3248 90.9002C59.2806 90.9002 62.4874 94.0914 62.4874 98.028Z" fill="#1D1B1B"/>
<path d="M34.6331 75.8526C37.8164 73.4767 37.0206 72.6847 37.8164 70.3088C41.7956 71.1008 43.9178 69.5168 44.9789 68.7248C46.5706 71.1008 48.9581 70.8368 49.754 71.1008C49.754 73.4767 49.754 73.4767 52.1415 75.8526C48.1623 77.4366 47.3665 78.2286 45.7748 80.6045C41.7956 79.0205 39.6734 79.5485 37.8164 80.6045C37.8164 77.4366 35.9594 76.6446 34.6331 75.8526Z" fill="#3ACE76"/>
</g>
<defs>
<filter id="filter0_d_107_5" x="279" y="-24" width="143" height="137" filterUnits="userSpaceOnUse" color-interpolation-filters="sRGB">
<feFlood flood-opacity="0" result="BackgroundImageFix"/>
<feColorMatrix in="SourceAlpha" type="matrix" values="0 0 0 0 0 0 0 0 0 0 0 0 0 0 0 0 0 0 127 0" result="hardAlpha"/>
<feOffset dy="4"/>
<feGaussianBlur stdDeviation="6"/>
<feComposite in2="hardAlpha" operator="out"/>
<feColorMatrix type="matrix" values="0 0 0 0 0 0 0 0 0 0 0 0 0 0 0 0 0 0 0.15 0"/>
<feBlend mode="normal" in2="BackgroundImageFix" result="effect1_dropShadow_107_5"/>
<feBlend mode="normal" in="SourceGraphic" in2="effect1_dropShadow_107_5" result="shape"/>
</filter>
<filter id="filter1_d_107_5" x="0" y="57" width="94" height="88" filterUnits="userSpaceOnUse" color-interpolation-filters="sRGB">
<feFlood flood-opacity="0" result="BackgroundImageFix"/>
<feColorMatrix in="SourceAlpha" type="matrix" values="0 0 0 0 0 0 0 0 0 0 0 0 0 0 0 0 0 0 127 0" result="hardAlpha"/>
<feOffset dy="4"/>
<feGaussianBlur stdDeviation="6"/>
<feComposite in2="hardAlpha" operator="out"/>
<feColorMatrix type="matrix" values="0 0 0 0 0 0 0 0 0 0 0 0 0 0 0 0 0 0 0.1 0"/>
<feBlend mode="normal" in2="BackgroundImageFix" result="effect1_dropShadow_107_5"/>
<feBlend mode="normal" in="SourceGraphic" in2="effect1_dropShadow_107_5" result="shape"/>
</filter>
</defs>
</svg>
