<svg width="17" height="11" viewBox="0 0 17 11" fill="none" xmlns="http://www.w3.org/2000/svg">
<path d="M0 5.5C0 6.10751 0.492487 6.6 1.1 6.6H15.2333C15.8408 6.6 16.3333 6.10751 16.3333 5.5C16.3333 4.89249 15.8408 4.4 15.2333 4.4H1.1C0.492487 4.4 0 4.89249 0 5.5ZM0 9.9C0 10.5075 0.492487 11 1.1 11H15.2333C15.8408 11 16.3333 10.5075 16.3333 9.9C16.3333 9.29249 15.8408 8.8 15.2333 8.8H1.1C0.492487 8.8 0 9.29249 0 9.9ZM1.1 0C0.492487 0 0 0.492487 0 1.1C0 1.70751 0.492487 2.2 1.1 2.2H15.2333C15.8408 2.2 16.3333 1.70751 16.3333 1.1C16.3333 0.492487 15.8408 0 15.2333 0H1.1ZM0 5.5C0 6.10751 0.492487 6.6 1.1 6.6H15.2333C15.8408 6.6 16.3333 6.10751 16.3333 5.5C16.3333 4.89249 15.8408 4.4 15.2333 4.4H1.1C0.492487 4.4 0 4.89249 0 5.5ZM0 9.9C0 10.5075 0.492487 11 1.1 11H15.2333C15.8408 11 16.3333 10.5075 16.3333 9.9C16.3333 9.29249 15.8408 8.8 15.2333 8.8H1.1C0.492487 8.8 0 9.29249 0 9.9ZM1.1 0C0.492487 0 0 0.492487 0 1.1C0 1.70751 0.492487 2.2 1.1 2.2H15.2333C15.8408 2.2 16.3333 1.70751 16.3333 1.1C16.3333 0.492487 15.8408 0 15.2333 0H1.1Z" fill="white"/>
</svg>
