<svg width="11" height="8" viewBox="0 0 11 8" fill="none" xmlns="http://www.w3.org/2000/svg">
<path fill-rule="evenodd" clip-rule="evenodd" d="M10.3878 0.313719C10.5887 0.514654 10.7015 0.787143 10.7015 1.07127C10.7015 1.35539 10.5887 1.62788 10.3878 1.82881L5.03036 7.18628C4.82942 7.38716 4.55693 7.5 4.27281 7.5C3.98869 7.5 3.7162 7.38716 3.51526 7.18628L0.300781 3.9718C0.1056 3.76971 -0.00240081 3.49905 4.05053e-05 3.21811C0.00248182 2.93717 0.11517 2.66842 0.313833 2.46976C0.512497 2.2711 0.781241 2.15841 1.06218 2.15597C1.34313 2.15353 1.61379 2.26153 1.81587 2.45671L4.27281 4.91364L8.87273 0.313719C9.07367 0.112845 9.34616 0 9.63028 0C9.9144 0 10.1869 0.112845 10.3878 0.313719Z" fill="white"/>
</svg>
