<svg width="23" height="23" viewBox="0 0 23 23" fill="none" xmlns="http://www.w3.org/2000/svg">
<path d="M21.2739 11.5C22.2272 11.5 23.0133 12.2771 22.8707 13.2196C22.6259 14.8382 22.0373 16.3927 21.1368 17.7755C19.9209 19.6427 18.1887 21.1164 16.1509 22.0176C14.1131 22.9187 11.8573 23.2084 9.65792 22.8515C7.45852 22.4946 5.41016 21.5064 3.76186 20.0071C2.11357 18.5078 0.936328 16.562 0.373254 14.4061C-0.18982 12.2503 -0.114475 9.97725 0.59013 7.86342C1.29473 5.74958 2.59825 3.88596 4.34222 2.4991C5.6338 1.472 7.12577 0.739157 8.71396 0.342575C9.63884 0.111624 10.4867 0.820757 10.5767 1.76978C10.6668 2.71881 9.96008 3.54354 9.05197 3.83352C8.12692 4.1289 7.25836 4.59075 6.49089 5.20106C5.27044 6.1716 4.35823 7.47578 3.86513 8.95507C3.37204 10.4344 3.31932 12.025 3.71336 13.5337C4.10741 15.0424 4.93126 16.4042 6.08475 17.4534C7.23825 18.5026 8.67172 19.1942 10.2109 19.4439C11.7501 19.6937 13.3286 19.491 14.7547 18.8603C16.1808 18.2297 17.393 17.1984 18.2439 15.8917C18.779 15.07 19.1568 14.1617 19.3634 13.2129C19.5664 12.2815 20.3206 11.5 21.2739 11.5Z" fill="#F50F64"/>
</svg>
