<svg width="62" height="62" viewBox="0 0 62 62" fill="none" xmlns="http://www.w3.org/2000/svg">
<path d="M62 31C62 48.1208 48.1208 62 31 62C13.8792 62 0 48.1208 0 31C0 13.8792 13.8792 0 31 0C48.1208 0 62 13.8792 62 31ZM0.929998 31C0.929998 47.6072 14.3928 61.07 31 61.07C47.6072 61.07 61.07 47.6072 61.07 31C61.07 14.3928 47.6072 0.929998 31 0.929998C14.3928 0.929998 0.929998 14.3928 0.929998 31Z" fill="white"/>
<path d="M41.46 23.0606L39.3994 21L31.23 29.1694L23.0606 21L21 23.0606L29.1694 31.23L21 39.3994L23.0606 41.46L31.23 33.2906L39.3994 41.46L41.46 39.3994L33.2906 31.23L41.46 23.0606Z" fill="white"/>
</svg>
