<svg width="19" height="19" viewBox="0 0 19 19" fill="none" xmlns="http://www.w3.org/2000/svg">
<path d="M18.2929 2.62068C18.6834 2.23015 18.6834 1.59699 18.2929 1.20646L17.7935 0.707106C17.403 0.316582 16.7698 0.316583 16.3793 0.707107L10.2071 6.87932C9.81658 7.26985 9.18342 7.26985 8.79289 6.87932L2.62068 0.707107C2.23015 0.316583 1.59699 0.316583 1.20646 0.707107L0.707106 1.20646C0.316582 1.59699 0.316583 2.23015 0.707107 2.62068L6.87932 8.79289C7.26985 9.18342 7.26985 9.81658 6.87932 10.2071L0.707107 16.3793C0.316583 16.7698 0.316583 17.403 0.707107 17.7935L1.20646 18.2929C1.59699 18.6834 2.23015 18.6834 2.62068 18.2929L8.79289 12.1207C9.18342 11.7302 9.81658 11.7302 10.2071 12.1207L16.3793 18.2929C16.7698 18.6834 17.403 18.6834 17.7935 18.2929L18.2929 17.7935C18.6834 17.403 18.6834 16.7698 18.2929 16.3793L12.1207 10.2071C11.7302 9.81658 11.7302 9.18342 12.1207 8.79289L18.2929 2.62068Z" fill="#F50F64"/>
</svg>
