<svg width="24" height="23" viewBox="0 0 24 23" fill="none" xmlns="http://www.w3.org/2000/svg">
<path d="M1 9.87321V8.99821H0.087917L0.125753 9.90951L1 9.87321ZM18.6835 9.87321H19.5585V8.99821H18.6835V9.87321ZM1 21.125C0.516751 21.125 0.125 21.5168 0.125 22C0.125 22.4832 0.516751 22.875 1 22.875V21.125ZM18.9782 22.875C19.4615 22.875 19.8532 22.4832 19.8532 22C19.8532 21.5168 19.4615 21.125 18.9782 21.125V22.875ZM18.6632 10.2401C18.2123 10.4141 17.9879 10.9206 18.1619 11.3715C18.336 11.8223 18.8425 12.0467 19.2933 11.8727L18.6632 10.2401ZM17.9342 16.7031C17.4591 16.7914 17.1455 17.2481 17.2338 17.7232C17.3221 18.1983 17.7788 18.5119 18.2539 18.4236L17.9342 16.7031ZM6.01157 0.193013C5.56588 0.00621569 5.05315 0.216087 4.86635 0.661773C4.67956 1.10746 4.88943 1.62019 5.33511 1.80699L6.01157 0.193013ZM5.97145 4.25351L5.44448 3.555L5.97145 4.25351ZM6.7129 8.36824C7.18854 8.45368 7.64338 8.13735 7.72881 7.66172C7.81425 7.18608 7.49793 6.73124 7.02229 6.64581L6.7129 8.36824ZM9.54827 0.193013C9.10258 0.00621569 8.58985 0.216087 8.40306 0.661773C8.21626 1.10746 8.42613 1.62019 8.87182 1.80699L9.54827 0.193013ZM9.50816 4.25351L8.98118 3.555L9.50816 4.25351ZM10.2496 8.36824C10.7252 8.45368 11.1801 8.13735 11.2655 7.66172C11.351 7.18608 11.0346 6.73124 10.559 6.64581L10.2496 8.36824ZM13.085 0.193013C12.6393 0.00621569 12.1266 0.216087 11.9398 0.661773C11.753 1.10746 11.9628 1.62019 12.4085 1.80699L13.085 0.193013ZM13.0449 4.25351L12.5179 3.555L13.0449 4.25351ZM13.7863 8.36824C14.2619 8.45368 14.7168 8.13735 14.8022 7.66172C14.8877 7.18608 14.5713 6.73124 14.0957 6.64581L13.7863 8.36824ZM1 10.7482H18.6835V8.99821H1V10.7482ZM17.8085 9.87321C17.8085 11.6442 17.7711 13.2036 17.5948 14.5573C17.4184 15.9112 17.1096 17.0013 16.6038 17.8579C15.6499 19.4733 13.8197 20.5334 9.84176 20.5334V22.2834C14.1161 22.2834 16.7068 21.1252 18.1107 18.7477C18.7838 17.6077 19.1381 16.2577 19.3301 14.7833C19.5222 13.3086 19.5585 11.6516 19.5585 9.87321H17.8085ZM9.84176 20.5334C6.25225 20.5334 4.46261 19.4945 3.44562 17.8438C2.35238 16.0693 2.02275 13.4136 1.87425 9.83691L0.125753 9.90951C0.271977 13.4314 0.588895 16.5432 1.95569 18.7617C3.39874 21.104 5.88261 22.2834 9.84176 22.2834V20.5334ZM1 22.875H18.9782V21.125H1V22.875ZM19.2933 11.8727C20.6581 11.3459 21.8917 12.2289 22.0961 13.3567C22.1919 13.8858 22.0637 14.5122 21.4938 15.1121C20.9069 15.7297 19.8118 16.3541 17.9342 16.7031L18.2539 18.4236C20.3551 18.0331 21.8389 17.2895 22.7625 16.3174C23.703 15.3275 24.0169 14.1423 23.818 13.0447C23.4329 10.919 21.1298 9.28795 18.6632 10.2401L19.2933 11.8727ZM5.33511 1.80699C5.55218 1.89796 5.78171 2.01255 5.97213 2.14654C6.17081 2.28633 6.26394 2.40323 6.29757 2.47572C6.31222 2.50729 6.33456 2.55213 6.27552 2.68239C6.19854 2.85224 5.98343 3.1484 5.44448 3.555L6.49843 4.95203C7.15374 4.45765 7.6229 3.94877 7.86944 3.40484C8.13393 2.8213 8.11906 2.2436 7.88502 1.73917C7.66996 1.27566 7.30292 0.943123 6.97919 0.715332C6.64721 0.481738 6.29211 0.310594 6.01157 0.193013L5.33511 1.80699ZM5.44448 3.555C4.78131 4.0553 4.30578 4.59233 4.08721 5.18339C3.8511 5.82186 3.94982 6.43123 4.25959 6.92628C4.54596 7.38395 4.98465 7.70511 5.39787 7.92157C5.8203 8.14285 6.28577 8.29152 6.7129 8.36824L7.02229 6.64581C6.75278 6.59739 6.45934 6.50204 6.20992 6.37138C5.95128 6.2359 5.80516 6.09719 5.7431 5.99801C5.70443 5.93621 5.69108 5.89174 5.72857 5.79036C5.7836 5.64155 5.96734 5.35269 6.49843 4.95203L5.44448 3.555ZM8.87182 1.80699C9.08888 1.89796 9.31841 2.01255 9.50884 2.14654C9.70751 2.28633 9.80064 2.40323 9.83427 2.47572C9.84892 2.50729 9.87127 2.55213 9.81223 2.68239C9.73524 2.85224 9.52013 3.1484 8.98118 3.555L10.0351 4.95203C10.6904 4.45765 11.1596 3.94877 11.4061 3.40484C11.6706 2.8213 11.6558 2.2436 11.4217 1.73917C11.2067 1.27566 10.8396 0.943123 10.5159 0.715332C10.1839 0.481738 9.82881 0.310594 9.54827 0.193013L8.87182 1.80699ZM8.98118 3.555C8.31802 4.0553 7.84248 4.59233 7.62391 5.18339C7.3878 5.82186 7.48653 6.43123 7.79629 6.92628C8.08267 7.38395 8.52135 7.70511 8.93457 7.92157C9.357 8.14285 9.82247 8.29152 10.2496 8.36824L10.559 6.64581C10.2895 6.59739 9.99604 6.50204 9.74662 6.37138C9.48799 6.2359 9.34187 6.09719 9.27981 5.99801C9.24113 5.93621 9.22779 5.89174 9.26528 5.79036C9.3203 5.64155 9.50404 5.35269 10.0351 4.95203L8.98118 3.555ZM12.4085 1.80699C12.6256 1.89796 12.8551 2.01255 13.0455 2.14654C13.2442 2.28633 13.3373 2.40323 13.371 2.47572C13.3856 2.50729 13.408 2.55213 13.3489 2.68239C13.2719 2.85224 13.0568 3.1484 12.5179 3.555L13.5718 4.95203C14.2271 4.45765 14.6963 3.94877 14.9428 3.40484C15.2073 2.8213 15.1925 2.2436 14.9584 1.73917C14.7434 1.27566 14.3763 0.943123 14.0526 0.715332C13.7206 0.481738 13.3655 0.310594 13.085 0.193013L12.4085 1.80699ZM12.5179 3.555C11.8547 4.0553 11.3792 4.59233 11.1606 5.18339C10.9245 5.82186 11.0232 6.43123 11.333 6.92628C11.6194 7.38395 12.0581 7.70511 12.4713 7.92157C12.8937 8.14285 13.3592 8.29152 13.7863 8.36824L14.0957 6.64581C13.8262 6.59739 13.5327 6.50204 13.2833 6.37138C13.0247 6.2359 12.8786 6.09719 12.8165 5.99801C12.7778 5.93621 12.7645 5.89174 12.802 5.79036C12.857 5.64155 13.0407 5.35269 13.5718 4.95203L12.5179 3.555Z" fill="white"/>
</svg>
