<svg width="24" height="24" viewBox="0 0 24 24" fill="none" xmlns="http://www.w3.org/2000/svg">
<path d="M18.5011 19.2H5.37951C4.82723 19.2 4.37951 18.7523 4.37951 18.2V16.4864C4.37951 16.0717 4.11981 15.7039 3.74252 15.5318C-2.63293 12.6241 0.184075 5.98438 4.44539 5.16719C4.9363 5.07305 5.35322 4.7095 5.50905 4.23456C7.05297 -0.471175 15.5904 -2.36455 18.5092 4.453C18.6698 4.82788 19.025 5.09092 19.4298 5.14036C26.3359 5.98373 24.31 14.5238 20.579 15.6791C20.0187 15.8526 19.5011 16.3021 19.5011 16.8885V18.2C19.5011 18.7523 19.0534 19.2 18.5011 19.2Z" fill="#F50F64"/>
<path d="M18.5011 20.8H5.37951C4.82723 20.8 4.37951 21.2477 4.37951 21.8V23C4.37951 23.5523 4.82723 24 5.37951 24H18.5011C19.0534 24 19.5011 23.5523 19.5011 23V21.8C19.5011 21.2477 19.0534 20.8 18.5011 20.8Z" fill="#F50F64"/>
</svg>
