<svg width="424" height="236" viewBox="0 0 424 236" fill="none" xmlns="http://www.w3.org/2000/svg">
<path d="M152.002 4.90976L154.54 38.8468H155.57C170.32 12.3076 191.143 0 217.592 0C251.141 0 269.048 13.2696 280.643 38.8468H281.638C302.495 7.86224 326.885 0 348.256 0C411.65 0 424 42.2969 424 86.0202V236H342.665V104.233C342.665 83.1009 343.66 62.4335 320.298 62.4335C295.874 62.4335 291.826 81.1105 291.826 102.74V236H210.456V104.233C210.456 83.1009 211.485 62.4335 188.09 62.4335C163.7 62.4335 159.617 81.1105 159.617 102.74V236H79.3113V97.3326C58.9689 97.8302 37.1172 86.5179 38.1463 57.0261C15.2654 55.5665 0 40.3064 0 11.81V4.90976H152.002Z" fill="#F50F64"/>
</svg>
