<svg width="21" height="14" viewBox="0 0 21 14" fill="none" xmlns="http://www.w3.org/2000/svg">
<path d="M0 2.79992H5.6V4.19994H0V2.79992Z" fill="#F21066"/>
<path d="M21 9.80027H15.4V11.2003H21V9.80027Z" fill="#F21066"/>
<path d="M9.79958 2.79992H20.9996V4.19994H9.79958V2.79992Z" fill="#F21066"/>
<path d="M11.2004 9.80027H0.000420565V11.2003H11.2004V9.80027Z" fill="#F21066"/>
<path d="M11.2 3.50005C11.2 5.43307 9.63304 7.00009 7.70004 7.00009C5.76705 7.00009 4.20004 5.43307 4.20004 3.50005C4.20004 1.56702 5.76705 0 7.70004 0C9.63304 0 11.2 1.56702 11.2 3.50005ZM5.70504 3.50005C5.70504 4.60187 6.59824 5.49507 7.70004 5.49507C8.80185 5.49507 9.69504 4.60187 9.69504 3.50005C9.69504 2.39822 8.80185 1.50502 7.70004 1.50502C6.59824 1.50502 5.70504 2.39822 5.70504 3.50005Z" fill="#F21066"/>
<path d="M9.79996 10.5C9.79996 12.433 11.367 14 13.3 14C15.233 14 16.8 12.433 16.8 10.5C16.8 8.56693 15.233 6.99991 13.3 6.99991C11.367 6.99991 9.79996 8.56693 9.79996 10.5ZM15.295 10.5C15.295 11.6018 14.4018 12.495 13.3 12.495C12.1981 12.495 11.305 11.6018 11.305 10.5C11.305 9.39813 12.1981 8.50493 13.3 8.50493C14.4018 8.50493 15.295 9.39813 15.295 10.5Z" fill="#F21066"/>
</svg>
