<svg width="21" height="21" viewBox="0 0 21 21" fill="none" xmlns="http://www.w3.org/2000/svg">
<path d="M5.47957 2.14932L5.8019 1.47211V1.47211L5.47957 2.14932ZM8.07922 4.06014L8.73068 3.68853L8.07922 4.06014ZM8.07922 4.3092L7.9183 3.57667L7.88711 3.58352L7.85661 3.593L8.07922 4.3092ZM1.02139 12.0569L1.76781 12.1301L1.02139 12.0569ZM2.00085 15.7615L1.3509 16.1358L2.00085 15.7615ZM5.82531 20V20.75H5.95677L6.08039 20.7053L5.82531 20ZM7.70241 16.4579L8.43425 16.2939L7.70241 16.4579ZM7.12736 16.1121L7.26599 16.8492H7.26599L7.12736 16.1121ZM1.81869 14.2716L2.54994 14.1049L1.81869 14.2716ZM8.07922 11.781L8.3477 11.0807L8.07922 11.781ZM19.3477 12.7773L19.8765 13.309L19.3477 12.7773ZM12.8231 4.38326L12.6847 5.12037H12.6847L12.8231 4.38326ZM14.3393 5.52189C14.7102 5.33745 14.8613 4.88727 14.6769 4.51639C14.4924 4.1455 14.0423 3.99436 13.6714 4.1788L14.3393 5.52189ZM11.7227 13.2089C11.9611 13.5477 12.429 13.629 12.7677 13.3906C13.1065 13.1522 13.1878 12.6843 12.9494 12.3456L11.7227 13.2089ZM15.4586 8.82358L15.2549 9.54537L15.4586 8.82358ZM15.5078 8.8353L15.3615 9.57089H15.3615L15.5078 8.8353ZM16.6408 8.8353L16.0857 8.33097L16.0857 8.33098L16.6408 8.8353ZM11.8885 3.66363L12.5416 3.29502L11.8885 3.66363ZM5.15724 2.82652C5.64226 3.05737 6.15737 3.34527 6.58863 3.6477C7.04101 3.96493 7.31972 4.24236 7.42775 4.43175L8.73068 3.68853C8.45189 3.19978 7.94399 2.76608 7.44986 2.41957C6.93461 2.05825 6.34331 1.72981 5.8019 1.47211L5.15724 2.82652ZM7.42775 4.43175C7.4731 4.51125 7.49457 4.54922 7.50628 4.57195C7.51202 4.58308 7.50565 4.57201 7.49655 4.54841C7.49336 4.54011 7.45417 4.44493 7.45417 4.31032C7.45417 4.23359 7.46668 4.11609 7.52935 3.9888C7.59638 3.85266 7.70032 3.74731 7.81871 3.67832C8.01813 3.5621 8.20432 3.57983 8.22623 3.58139C8.29139 3.58604 8.34403 3.60297 8.26667 3.583L7.89177 5.0354C7.8977 5.03693 8.01282 5.06999 8.11962 5.0776C8.16236 5.08065 8.36417 5.09657 8.574 4.97429C8.86999 4.80179 8.95417 4.50703 8.95417 4.31032C8.95417 4.16014 8.90977 4.04416 8.89616 4.00886C8.87665 3.95824 8.85466 3.91395 8.83957 3.88468C8.80964 3.82661 8.76863 3.75506 8.73068 3.68853L7.42775 4.43175ZM7.85661 3.593C6.59126 3.98628 4.83822 4.84167 3.33211 6.20386C1.8194 7.57202 0.519683 9.48712 0.274963 11.9837L1.76781 12.1301C1.96664 10.1016 3.02058 8.50813 4.33828 7.31634C5.66257 6.1186 7.21667 5.36268 8.30182 5.0254L7.85661 3.593ZM1.3509 16.1358C2.33528 17.8453 3.20407 18.9653 3.91917 19.6689C4.27657 20.0205 4.60673 20.2792 4.90515 20.4545C5.18674 20.6199 5.50569 20.75 5.82531 20.75V19.25C5.89204 19.25 5.84707 19.2681 5.66489 19.1611C5.49954 19.064 5.26608 18.8898 4.97117 18.5996C4.38167 18.0196 3.59113 17.0203 2.6508 15.3873L1.3509 16.1358ZM6.08039 20.7053C6.62901 20.5068 7.34911 20.0648 7.87151 19.3404C8.41256 18.59 8.71896 17.5642 8.43425 16.2939L6.97056 16.6219C7.15763 17.4566 6.95535 18.0463 6.65484 18.463C6.33569 18.9056 5.88135 19.1822 5.57023 19.2947L6.08039 20.7053ZM6.98874 15.3751C6.14121 15.5344 5.04994 15.6075 4.14648 15.4093C3.25157 15.2129 2.70899 14.8027 2.54994 14.1049L1.08745 14.4383C1.42868 15.9353 2.6406 16.6146 3.82505 16.8744C5.00092 17.1324 6.31385 17.0283 7.26599 16.8492L6.98874 15.3751ZM2.54994 14.1049C2.43369 13.5949 2.56184 13.2819 2.79223 13.042C3.06215 12.7608 3.53466 12.5238 4.17786 12.3712C5.47402 12.0637 7.05323 12.1909 7.81073 12.4813L8.3477 11.0807C7.26849 10.6669 5.37682 10.5451 3.83158 10.9117C3.05409 11.0962 2.26326 11.4271 1.71019 12.0031C1.11759 12.6204 0.863072 13.4539 1.08745 14.4383L2.54994 14.1049ZM7.81073 12.4813C8.68564 12.8167 11.0324 13.5943 13.4373 14.0295C14.6383 14.2469 15.8883 14.3855 16.9918 14.3278C18.0651 14.2718 19.1586 14.0231 19.8765 13.309L18.8188 12.2455C18.5042 12.5583 17.8835 12.7792 16.9136 12.8299C15.974 12.8789 14.8519 12.7612 13.7044 12.5535C11.4125 12.1387 9.15757 11.3912 8.3477 11.0807L7.81073 12.4813ZM19.8765 13.309C20.673 12.5168 20.8694 11.4861 20.686 10.4711C20.5068 9.47919 19.966 8.46926 19.2384 7.55829C17.7869 5.74094 15.422 4.10817 12.9615 3.64614L12.6847 5.12037C14.7332 5.50505 16.7988 6.90739 18.0664 8.49442C18.6984 9.28564 19.0893 10.0702 19.2099 10.7377C19.3263 11.3822 19.1905 11.8758 18.8188 12.2455L19.8765 13.309ZM12.5416 3.29502C11.6754 1.7601 10.4679 0.898711 9.15399 0.509421C7.8629 0.126887 6.51584 0.212598 5.34819 0.475158L5.67726 1.93862C6.68986 1.71092 7.76099 1.66115 8.72787 1.94762C9.67195 2.22734 10.5622 2.83945 11.2353 4.03224L12.5416 3.29502ZM13.6714 4.1788C12.6924 4.66566 11.4336 5.7803 10.7978 7.34906C10.1399 8.9726 10.1784 11.0147 11.7227 13.2089L12.9494 12.3456C11.6891 10.5549 11.7276 9.0486 12.188 7.91247C12.6707 6.72156 13.6489 5.86523 14.3393 5.52189L13.6714 4.1788ZM15.2549 9.54537C15.2907 9.55549 15.3264 9.5639 15.3615 9.57089L15.6541 8.09971C15.6543 8.09974 15.6572 8.10032 15.6624 8.10179L15.2549 9.54537ZM15.3615 9.57089C15.6176 9.62184 15.9171 9.65876 16.1821 9.66426C16.3125 9.66697 16.4598 9.66274 16.5999 9.63976C16.6701 9.62825 16.758 9.60897 16.8495 9.57344C16.9341 9.54062 17.0737 9.4742 17.196 9.33962L16.0857 8.33098C16.18 8.22722 16.277 8.18665 16.3066 8.17514C16.3433 8.16092 16.3641 8.1584 16.3572 8.15953C16.3433 8.16181 16.297 8.16632 16.2133 8.16458C16.05 8.16119 15.839 8.13648 15.6541 8.09971L15.3615 9.57089ZM15.6624 8.10179C15.611 8.08728 15.5918 8.07891 15.5934 8.07964C15.5948 8.08028 15.6087 8.08645 15.63 8.09966C15.6496 8.11187 15.6903 8.13913 15.736 8.1858C15.7809 8.23177 15.8499 8.31648 15.8931 8.4441C15.9402 8.58312 15.9441 8.73842 15.8974 8.88625C15.8542 9.02314 15.7799 9.11519 15.728 9.16722C15.6761 9.21924 15.6282 9.24986 15.6022 9.26495C15.5526 9.29375 15.5207 9.30146 15.5306 9.29855C15.5346 9.29736 15.5507 9.29313 15.5811 9.28784C15.642 9.27726 15.7279 9.26801 15.8277 9.26376C15.9265 9.25956 16.0269 9.26076 16.1156 9.2673C16.2092 9.27421 16.2662 9.28539 16.2883 9.29165C16.2991 9.29473 16.2814 9.29107 16.2483 9.27297C16.2204 9.25775 16.1315 9.20552 16.0546 9.09059C16.0134 9.02916 15.9768 8.95114 15.9579 8.85849C15.9387 8.76516 15.9412 8.67507 15.9578 8.595C15.989 8.44336 16.0637 8.35522 16.0857 8.33097L17.196 9.33963C17.2766 9.25083 17.3844 9.10358 17.4268 8.89802C17.4749 8.66506 17.4221 8.43696 17.3009 8.25592C17.1946 8.09715 17.0579 8.00599 16.9672 7.95648C16.8713 7.90409 16.7758 7.87076 16.6975 7.84855C16.4058 7.76583 16.0428 7.75325 15.7639 7.76512C15.615 7.77146 15.4628 7.78592 15.3242 7.81001C15.212 7.82952 15.0187 7.86927 14.8493 7.96761C14.7791 8.00837 14.5585 8.14505 14.4671 8.43426C14.3489 8.8084 14.5336 9.10161 14.6632 9.2342C14.7785 9.35223 14.909 9.41687 14.9829 9.44979C15.0697 9.48847 15.163 9.51943 15.2549 9.54537L15.6624 8.10179ZM12.9615 3.64614C12.8857 3.6319 12.7966 3.59388 12.7006 3.52256L11.8057 4.72636C12.0491 4.90727 12.3453 5.05664 12.6847 5.12037L12.9615 3.64614ZM0.274963 11.9837C0.126249 13.5009 0.66068 14.9371 1.3509 16.1358L2.6508 15.3873C2.03765 14.3225 1.66205 13.209 1.76781 12.1301L0.274963 11.9837ZM8.43425 16.2939C8.27262 15.5727 7.56411 15.2668 6.98874 15.3751L7.26599 16.8492C7.22105 16.8577 7.16717 16.8518 7.11292 16.8203C7.05373 16.7859 6.99195 16.7173 6.97056 16.6219L8.43425 16.2939ZM5.8019 1.47211C5.69595 1.42168 5.57673 1.38211 5.48798 1.35406C5.39745 1.32544 5.28292 1.29196 5.20016 1.26682C5.10664 1.23841 5.02959 1.21361 4.96776 1.19028C4.89769 1.16385 4.887 1.15383 4.90548 1.16624C4.91578 1.17316 4.96179 1.20459 5.01151 1.2676C5.06419 1.33435 5.13882 1.46053 5.14687 1.63778C5.15518 1.82079 5.08829 1.96234 5.02785 2.04609C4.97356 2.1213 4.92114 2.15637 4.91369 2.16135C4.90134 2.16961 4.9394 2.14364 5.08369 2.09579C5.21766 2.05137 5.40989 1.99874 5.67726 1.93862L5.34819 0.475158C4.79959 0.598516 4.35516 0.730406 4.08 0.914373C3.96049 0.994274 3.62759 1.24751 3.64841 1.70584C3.66776 2.13177 3.98386 2.35417 4.06909 2.41142C4.28956 2.55951 4.60152 2.65265 4.76415 2.70205C4.87466 2.73562 4.9536 2.75829 5.03585 2.78429C5.07359 2.79622 5.10327 2.80617 5.12637 2.81456C5.15073 2.82341 5.15922 2.82746 5.15724 2.82652L5.8019 1.47211ZM8.24014 5.04173C8.98446 4.87822 9.95172 4.85968 10.8339 4.90667C11.7165 4.95369 12.4318 5.06123 12.6499 5.11299L12.9962 3.65352C12.6563 3.57285 11.8423 3.45826 10.9137 3.4088C9.98486 3.35932 8.85924 3.36996 7.9183 3.57667L8.24014 5.04173ZM11.2353 4.03224C11.3369 4.21226 11.5099 4.50644 11.8057 4.72636L12.7006 3.52256C12.6787 3.50623 12.6347 3.45986 12.5416 3.29502L11.2353 4.03224Z" fill="#F21066"/>
</svg>
