<svg width="23" height="23" viewBox="0 0 23 23" fill="none" xmlns="http://www.w3.org/2000/svg">
<path d="M5.95111 2.2703L6.27344 1.59309L5.95111 2.2703ZM8.8244 4.38226L9.47586 4.01066L8.8244 4.38226ZM8.8244 4.65754L8.66348 3.92501L8.63229 3.93186L8.60179 3.94134L8.8244 4.65754ZM1.02364 13.2208L1.77006 13.294L1.02364 13.2208ZM2.1062 17.3154L1.45625 17.6897H1.45625L2.1062 17.3154ZM6.33324 22V22.75H6.4647L6.58832 22.7053L6.33324 22ZM8.40793 18.0851L9.13977 17.921V17.921L8.40793 18.0851ZM7.77235 17.7029L7.91097 18.44H7.91097L7.77235 17.7029ZM1.90487 15.6686L2.63611 15.5019L1.90487 15.6686ZM8.8244 12.9158L9.09288 12.2156L8.8244 12.9158ZM21.279 14.017L21.8079 14.5488L21.279 14.017ZM14.0676 4.73939L13.9292 5.47651H13.9292L14.0676 4.73939ZM15.7083 5.92719C16.0792 5.74275 16.2303 5.29257 16.0459 4.92169C15.8614 4.55081 15.4112 4.39966 15.0404 4.5841L15.7083 5.92719ZM12.916 14.4486C13.1544 14.7874 13.6223 14.8687 13.961 14.6303C14.2997 14.3919 14.3811 13.9241 14.1427 13.5853L12.916 14.4486ZM16.9806 9.64713L16.7768 10.3689L16.9806 9.64713ZM17.035 9.66008L16.8886 10.3957L17.035 9.66008ZM18.2872 9.66008L17.7321 9.15576L17.7321 9.15576L18.2872 9.66008ZM13.0498 3.97103L13.7045 3.60516L13.0498 3.97103ZM5.62878 2.9475C6.16781 3.20407 6.74116 3.52441 7.22224 3.86176C7.72443 4.21393 8.04454 4.5288 8.17293 4.75387L9.47586 4.01066C9.17671 3.48622 8.62741 3.01508 8.08346 2.63364C7.5184 2.23739 6.86886 1.8765 6.27344 1.59309L5.62878 2.9475ZM8.17293 4.75387C8.22267 4.84106 8.24742 4.8848 8.26133 4.91178C8.26816 4.92503 8.26262 4.91571 8.25407 4.89353C8.25141 4.88665 8.2125 4.79257 8.2125 4.65878C8.2125 4.58246 8.22494 4.4653 8.28748 4.33829C8.35437 4.20242 8.45811 4.0973 8.57622 4.02846C8.77509 3.91256 8.96046 3.93039 8.98128 3.93187C9.04424 3.93636 9.0936 3.95245 9.01185 3.93134L8.63695 5.38374C8.64727 5.3864 8.76567 5.42031 8.87467 5.42808C8.9185 5.4312 9.12113 5.44704 9.33151 5.32443C9.62805 5.15161 9.7125 4.8563 9.7125 4.65878C9.7125 4.50778 9.66783 4.39071 9.65367 4.35398C9.63361 4.30195 9.6108 4.25591 9.59462 4.22451C9.56249 4.16219 9.51819 4.08487 9.47586 4.01066L8.17293 4.75387ZM8.60179 3.94134C7.21273 4.37307 5.28563 5.31327 3.63055 6.8102C1.96888 8.31309 0.545279 10.4129 0.277214 13.1476L1.77006 13.294C1.99224 11.0273 3.17006 9.2492 4.63672 7.92268C6.10998 6.5902 7.83814 5.74947 9.047 5.37374L8.60179 3.94134ZM1.45625 17.6897C2.54193 19.5751 3.49806 20.8066 4.28182 21.5777C4.67355 21.9632 5.03337 22.2446 5.3562 22.4342C5.6622 22.614 6.0003 22.75 6.33324 22.75V21.25C6.38666 21.25 6.32254 21.2622 6.11595 21.1409C5.92619 21.0294 5.66306 20.8324 5.33383 20.5085C4.67566 19.8609 3.79778 18.7501 2.75615 16.9412L1.45625 17.6897ZM6.58832 22.7053C7.18219 22.4905 7.9641 22.0107 8.5308 21.2248C9.11614 20.413 9.4493 19.3021 9.13977 17.921L7.67608 18.2491C7.88798 19.1945 7.65892 19.8693 7.31412 20.3474C6.95068 20.8515 6.43453 21.1658 6.07816 21.2947L6.58832 22.7053ZM7.63373 16.9658C6.69147 17.143 5.47367 17.2254 4.46077 17.0032C3.45642 16.7828 2.8215 16.3153 2.63611 15.5019L1.17362 15.8353C1.54119 17.4478 2.84545 18.1845 4.13934 18.4683C5.42465 18.7503 6.86412 18.6369 7.91097 18.44L7.63373 16.9658ZM2.63611 15.5019C2.50194 14.9133 2.65023 14.54 2.92393 14.2549C3.23717 13.9286 3.77617 13.6617 4.49415 13.4914C5.93985 13.1484 7.70174 13.2887 8.55591 13.6161L9.09288 12.2156C7.917 11.7647 5.84265 11.6298 4.14786 12.0319C3.2956 12.2341 2.43829 12.5949 1.8419 13.216C1.20598 13.8784 0.931322 14.7723 1.17362 15.8353L2.63611 15.5019ZM8.55591 13.6161C9.51949 13.9856 12.1085 14.8434 14.7605 15.3234C16.0851 15.5631 17.46 15.7152 18.6711 15.652C19.8519 15.5903 21.0356 15.3168 21.8079 14.5488L20.7501 13.4852C20.3812 13.8521 19.6703 14.0977 18.5929 14.154C17.5457 14.2087 16.2987 14.0774 15.0277 13.8474C12.4886 13.3878 9.99142 12.56 9.09288 12.2156L8.55591 13.6161ZM21.8079 14.5488C22.6659 13.6954 22.8797 12.5844 22.6805 11.4821C22.4856 10.4029 21.8958 9.29848 21.0966 8.29792C19.5019 6.30139 16.9038 4.50888 14.206 4.00228L13.9292 5.47651C16.2151 5.90575 18.5139 7.46784 19.9246 9.23404C20.6281 10.1149 21.0681 10.9939 21.2044 11.7488C21.3366 12.4805 21.1833 13.0544 20.7501 13.4852L21.8079 14.5488ZM13.7045 3.60516C12.7591 1.91346 11.4393 0.966183 10.0025 0.537234C8.58873 0.115164 7.10938 0.207726 5.82321 0.496936L6.15228 1.96039C7.28305 1.70613 8.48518 1.64967 9.57342 1.97455C10.6386 2.29255 11.6414 2.9882 12.3951 4.33691L13.7045 3.60516ZM15.0404 4.5841C13.9735 5.11466 12.597 6.33304 11.9024 8.04705C11.1855 9.81583 11.2241 12.0447 12.916 14.4486L14.1427 13.5853C12.7347 11.5849 12.7732 9.89183 13.2925 8.61045C13.834 7.2743 14.93 6.31423 15.7083 5.92719L15.0404 4.5841ZM16.7768 10.3689C16.8143 10.3795 16.8517 10.3883 16.8886 10.3957L17.1813 8.92449C17.1796 8.92416 17.1808 8.92432 17.1843 8.92534L16.7768 10.3689ZM16.8886 10.3957C17.168 10.4512 17.4943 10.4914 17.7819 10.4974C17.9235 10.5003 18.081 10.4956 18.2293 10.4713C18.3035 10.4591 18.395 10.439 18.4893 10.4023C18.5768 10.3684 18.7186 10.3006 18.8424 10.1644L17.7321 9.15576C17.8249 9.05362 17.9197 9.01441 17.9464 9.00403C17.9802 8.99093 17.9974 8.98929 17.9865 8.99108C17.9645 8.9947 17.908 8.99967 17.813 8.99769C17.6272 8.99384 17.3893 8.96587 17.1813 8.92449L16.8886 10.3957ZM17.1843 8.92534C17.1562 8.91741 17.1351 8.91068 17.1198 8.9054C17.1123 8.90279 17.1067 8.9007 17.1028 8.89919C17.0989 8.89767 17.0972 8.8969 17.0974 8.89699C17.0976 8.89705 17.1003 8.89827 17.1052 8.9008C17.11 8.9033 17.118 8.90764 17.1283 8.91407C17.1464 8.92532 17.1859 8.95164 17.2307 8.99739C17.2747 9.04245 17.3432 9.12625 17.386 9.253C17.4328 9.39115 17.4368 9.54559 17.3903 9.6926C17.3473 9.82867 17.2736 9.91992 17.2225 9.97118C17.1713 10.0224 17.1244 10.0523 17.0997 10.0667C17.0525 10.094 17.024 10.1004 17.0379 10.0963C17.046 10.094 17.0668 10.0887 17.1025 10.0825C17.1738 10.0701 17.2722 10.0596 17.3852 10.0548C17.4971 10.05 17.6111 10.0513 17.7125 10.0588C17.8189 10.0667 17.8876 10.0796 17.9191 10.0885C17.9346 10.0929 17.921 10.0908 17.8912 10.0745C17.8666 10.0611 17.7803 10.0109 17.7049 9.89831C17.6645 9.83804 17.6284 9.76123 17.6097 9.66986C17.5909 9.57783 17.5933 9.48909 17.6096 9.41043C17.6403 9.26163 17.7132 9.17661 17.7321 9.15576L18.8424 10.1644C18.9261 10.0722 19.0357 9.92186 19.0786 9.71346C19.1273 9.47765 19.074 9.24699 18.9512 9.06365C18.8433 8.90257 18.7041 8.80936 18.6101 8.75805C18.5109 8.70385 18.4113 8.66896 18.3283 8.64542C18.0178 8.55737 17.6265 8.54314 17.3214 8.55613C17.1594 8.56302 16.9946 8.57873 16.8455 8.60465C16.7229 8.62598 16.5211 8.66814 16.3467 8.76934C16.274 8.81153 16.0519 8.94976 15.96 9.24061C15.8413 9.61641 16.0265 9.91136 16.1579 10.0458C16.275 10.1657 16.4086 10.2322 16.4869 10.2671C16.5782 10.3078 16.6774 10.3409 16.7768 10.3689L17.1843 8.92534ZM14.206 4.00228C14.1039 3.9831 13.989 3.93159 13.8701 3.84006L12.9552 5.02873C13.2233 5.23507 13.5518 5.40565 13.9292 5.47651L14.206 4.00228ZM0.277214 13.1476C0.115106 14.8015 0.697434 16.3719 1.45625 17.6897L2.75615 16.9412C2.0744 15.7572 1.65091 14.5096 1.77006 13.294L0.277214 13.1476ZM9.13977 17.921C8.97216 17.1732 8.2361 16.8525 7.63372 16.9658L7.91097 18.44C7.87953 18.4459 7.83929 18.4425 7.79605 18.4174C7.74788 18.3894 7.69448 18.3312 7.67608 18.2491L9.13977 17.921ZM6.27344 1.59309C6.16167 1.5399 6.03445 1.49753 5.9366 1.4666C5.83698 1.43511 5.71227 1.39868 5.61934 1.37044C5.51565 1.33894 5.42843 1.31092 5.35755 1.28418C5.27843 1.25434 5.25981 1.24071 5.27256 1.24928C5.28 1.25428 5.3237 1.28372 5.3718 1.34468C5.42286 1.40938 5.49656 1.53344 5.50451 1.70849C5.51273 1.88931 5.44657 2.0286 5.38782 2.11C5.33523 2.18286 5.28546 2.2155 5.28178 2.21797C5.27448 2.22285 5.28436 2.21538 5.32278 2.19841C5.35964 2.18213 5.41346 2.16116 5.48871 2.13621C5.64013 2.08599 5.85533 2.02717 6.15228 1.96039L5.82321 0.496936C5.21544 0.633599 4.7383 0.776959 4.44808 0.970991C4.32105 1.05592 3.98504 1.31385 4.00606 1.77656C4.02561 2.20688 4.34521 2.43336 4.43617 2.49445C4.66809 2.65023 5.00035 2.75009 5.18333 2.80568C5.304 2.84234 5.39313 2.86797 5.48447 2.89684C5.52676 2.91021 5.56072 2.92157 5.58767 2.93137C5.6009 2.93617 5.61101 2.94008 5.61846 2.94311C5.62606 2.94621 5.62918 2.94769 5.62878 2.9475L6.27344 1.59309ZM8.98532 5.39007C9.81834 5.20708 10.8957 5.187 11.8733 5.23907C12.8512 5.29116 13.6469 5.4104 13.8944 5.46913L14.2408 4.00966C13.8714 3.92202 12.9769 3.79574 11.9531 3.7412C10.9289 3.68664 9.69312 3.69882 8.66348 3.92501L8.98532 5.39007ZM12.3951 4.33691C12.4996 4.52392 12.6701 4.80928 12.9552 5.02873L13.8701 3.84006C13.8414 3.81797 13.7932 3.76382 13.7045 3.60516L12.3951 4.33691Z" fill="white"/>
</svg>
