<svg width="19" height="24" viewBox="0 0 19 24" fill="none" xmlns="http://www.w3.org/2000/svg">
<path d="M6.27811 10.5445L6.00993 5.79955L9.89888 5.79954M6.27811 10.5445C7.26518 9.35826 9.78875 8.02249 13.4632 10.5445C14.7594 11.4342 17.8287 10.3468 17.8994 8.46858M6.27811 10.5445L6.86477 20.9241M17.8994 8.46858L18 5.79955L9.89888 5.79954M17.8994 8.46858L17.4301 20.9241M6.86477 20.9241L6.9821 23H17.3519L17.4301 20.9241M6.86477 20.9241H17.4301M6.21345 9.40046L2.76937 12.0273C1.36513 10.3468 -0.536002 6.15542 3.09342 2.83395C6.72285 -0.487513 11.087 1.45001 12.8154 2.83395L9.89888 5.79954M11.5192 4.02019C10.331 3.03165 6.631 1.54373 4.06587 4.02019C1.97217 6.04151 2.76965 9.35826 4.06587 10.5445M3.09342 7.5789H5.68587M4.38993 4.31675L6.27811 6.0961M7.95454 2.83395V5.50298" stroke="white" stroke-width="1.2"/>
</svg>
