<svg width="18" height="23" viewBox="0 0 18 23" fill="none" xmlns="http://www.w3.org/2000/svg">
<path d="M5.96764 10.1107L5.71523 5.58139L9.37542 5.58138M5.96764 10.1107C6.89664 8.97834 9.27177 7.70328 12.7301 10.1107C13.9501 10.9599 16.8387 9.92194 16.9053 8.1291M5.96764 10.1107L6.51978 20.0184M16.9053 8.1291L17 5.58139L9.37542 5.58138M16.9053 8.1291L16.4636 20.0184M6.51978 20.0184L6.63021 22H16.39L16.4636 20.0184M6.51978 20.0184H16.4636M5.90678 9.01863L2.66529 11.5261C1.34365 9.92194 -0.445649 5.92108 2.97028 2.75059C6.38621 -0.419899 10.4936 1.42955 12.1204 2.75059L9.37542 5.58138M10.9004 3.88291C9.78208 2.93931 6.29977 1.51902 3.88553 3.88291C1.91498 5.81235 2.66555 8.97834 3.88553 10.1107M2.97028 7.27986H5.41023M4.19052 4.16598L5.96764 5.86446M7.54545 2.75059V5.2983" stroke="#F21066" stroke-width="1.2"/>
</svg>
