<svg width="51" height="51" viewBox="0 0 51 51" fill="none" xmlns="http://www.w3.org/2000/svg">
<circle cx="25.5" cy="25.5" r="25.5" fill="#8344D6"/>
<path d="M20.38 30.16V32H10.92V31.52L15.62 26.46C16.3533 25.6867 16.8867 25.0333 17.22 24.5C17.5533 23.9533 17.72 23.4 17.72 22.84C17.72 22.1733 17.52 21.62 17.12 21.18C16.72 20.74 16.1867 20.52 15.52 20.52C14.8533 20.52 14.3133 20.7533 13.9 21.22C13.4867 21.6733 13.28 22.24 13.28 22.92C13.28 23.2 13.3133 23.54 13.38 23.94H11.24C11.1467 23.58 11.1 23.2 11.1 22.8C11.1 22.08 11.28 21.4 11.64 20.76C12 20.1067 12.5133 19.58 13.18 19.18C13.86 18.78 14.6467 18.58 15.54 18.58C16.38 18.58 17.1267 18.76 17.78 19.12C18.4467 19.48 18.9667 19.9733 19.34 20.6C19.7267 21.2133 19.92 21.9067 19.92 22.68C19.92 23.5733 19.68 24.3933 19.2 25.14C18.7333 25.8733 18.04 26.7267 17.12 27.7L14.8 30.16H20.38ZM27.2453 18.8V32H25.1253V21.3L22.4453 22.16L21.9253 20.3L26.5053 18.8H27.2453ZM33.8583 26.56H30.2583V24.74H33.8583V21.08H35.8983V24.74H39.4183V26.56H35.8983V30.26H33.8583V26.56Z" fill="white"/>
</svg>
