<svg width="425" height="238" viewBox="0 0 425 238" fill="none" xmlns="http://www.w3.org/2000/svg">
<path d="M152.491 5.18868L155.045 39.7799H155.99C170.756 12.5912 191.645 0 218.134 0C251.76 0 269.605 13.5943 281.327 39.7799H282.342C303.336 8.05975 327.83 0 349.105 0C412.788 0 425 43.3081 425 88.1383V241.792H343.401V106.887C343.401 85.2328 344.416 64.0629 320.972 64.0629C296.478 64.0629 292.419 83.2265 292.419 105.365V241.896H210.89V106.991C210.89 85.3364 211.94 64.1666 188.496 64.1666C164.003 64.1666 159.944 83.3301 159.944 105.468V242H79.4645V99.8994C59.0998 100.418 37.1955 88.8302 38.2103 58.5975C15.2562 57.0755 0 41.3018 0 12.2452V5.32697L152.491 5.18868Z" fill="white" fill-opacity="0.15"/>
</svg>
