<svg width="416" height="130" viewBox="0 0 416 130" fill="none" xmlns="http://www.w3.org/2000/svg">
<path d="M34.0725 1.16702L34.6432 8.94715H34.8543C38.1537 2.83197 42.8212 0 48.7398 0C56.2532 0 60.2406 3.05759 62.8597 8.94715H63.0864C67.7775 1.81277 73.2503 0 78.0039 0C92.2334 0 94.962 9.74072 94.962 19.8238V54.3831H76.7295V24.0406C76.7295 19.1702 76.9563 14.4088 71.718 14.4088C66.2451 14.4088 65.3381 18.719 65.3381 23.7061V54.4065H47.1213V24.0639C47.1213 19.1936 47.3559 14.4321 42.1176 14.4321C36.6447 14.4321 35.7378 18.7423 35.7378 23.7294V54.4298H17.7555V22.4612C13.2052 22.5779 8.31096 19.9716 8.5377 13.1718C3.40884 12.8372 0 9.32059 0 2.75416V1.19814L34.0725 1.16702Z" fill="white"/>
<path d="M118.276 55.3169C109.621 55.3169 101.193 51.4268 101.193 39.6866C101.193 18.5013 133.076 28.6933 133.076 17.3654C133.076 14.7591 131.513 13.1719 127.385 13.1719C123.257 13.1719 120.551 15.5526 119.645 20.5397L103.359 17.9334C106.205 5.35289 115.868 0.0390625 128.065 0.0390625C142.068 0.0390625 151.293 4.5671 151.293 19.7539V35.0497C151.293 36.7457 151.637 50.2287 151.973 54.4222H135.711L135.023 48.5326H134.797C130.926 53.2863 125.125 55.3247 118.292 55.3247L118.276 55.3169ZM119.856 37.8816C119.856 41.0481 122.131 42.752 125.328 42.752C130.449 42.752 133.295 39.4688 133.295 34.365V30.0548C128.511 33.797 119.863 31.6108 119.863 37.8349" fill="white"/>
<path d="M184.418 61.3231C190.228 61.3231 193.183 58.9424 193.183 52.1503V46.0274H192.956C190.228 49.7696 184.872 52.6016 178.953 52.6016C164.951 52.6016 158.344 41.4994 158.344 26.4292C158.344 11.5848 165.858 0.03125 179.751 0.03125C185.896 0.03125 190.908 3.77349 193.527 7.03337H193.754L194.098 1.14381H211.4V46.4631C211.4 66.3958 202.065 74.4715 184.192 74.4715C174.395 74.4715 164.951 71.0794 160.393 59.7438L175.764 55.8537C177.327 59.5959 179.86 61.2998 184.418 61.2998V61.3231ZM193.754 26.5226C193.754 18.1356 191.017 13.9421 185.443 13.9421C179.868 13.9421 176.905 18.1356 176.905 26.5226C176.905 35.2441 179.751 39.4376 185.443 39.4376C191.134 39.4376 193.754 35.2441 193.754 26.5226Z" fill="white"/>
<path d="M254.776 0.03125C267.411 0.03125 270.413 9.54635 270.413 20.6486V54.4144H252.196V24.1652C252.196 19.2949 251.97 14.4167 245.817 14.4167C240.015 14.4167 238.78 19.2949 238.78 24.2741V54.4144H220.563V1.16715H237.865L238.319 8.64386H238.545C242.986 2.7543 248.115 0.03125 254.831 0.03125" fill="white"/>
<path d="M294.845 55.5423C282.438 55.5423 279.474 46.0272 279.474 34.925V1.16699H297.691V31.4161C297.691 36.2865 297.918 41.1569 303.844 41.1569C309.419 41.1569 310.67 36.2865 310.67 31.2994V1.16699H328.886V54.4142H311.624L311.162 46.9375H310.935C306.612 52.8271 301.491 55.5423 294.884 55.5423" fill="white"/>
<path d="M354.386 1.16702L354.957 8.94715H355.184C358.491 2.83197 363.385 0 369.304 0C376.935 0 380.914 3.05759 383.533 8.94715H383.76C388.451 1.81277 394.01 0 398.795 0C413.141 0 415.87 9.74072 415.87 19.8238V54.3831H397.63V24.0406C397.63 19.1702 397.857 14.4088 392.509 14.4088C386.926 14.4088 386.02 18.719 386.02 23.7061V54.4065H367.803V24.0639C367.803 19.1936 368.029 14.4321 362.674 14.4321C357.099 14.4321 356.185 18.7423 356.185 23.7294V54.4298H337.968V1.16702H354.386Z" fill="white"/>
<path d="M219.102 107.857L218.797 106.511H225.349L225.654 107.335C227.006 111.008 232.69 113.108 238.609 113.108C244.027 113.108 250.133 111.381 250.133 107.258C250.133 105.313 249.828 104.262 245.309 103.663L230.923 101.858C221.963 100.738 220.149 97.6647 220.149 93.2378C220.149 85.5977 228.359 81.8477 237.178 81.8477C245.778 81.8477 253.823 85.2943 255.856 92.7943L256.153 93.9146H249.601L249.375 92.9421C248.475 89.1921 242.979 87.3171 237.1 87.3171C231.001 87.3171 226.256 89.2699 226.256 93.0199C226.256 94.2881 226.404 95.6418 231.001 96.2409L245.168 98.0381C255.332 99.314 256.317 102.838 256.317 106.884C256.317 115.442 246.826 118.554 238.241 118.554C229.273 118.554 220.759 115.108 219.11 107.833L219.102 107.857ZM262.009 100.411V82.5945H268.186V99.9909C268.186 109.654 271.125 112.805 278.052 112.805C282.911 112.831 287.646 111.279 291.539 108.386V82.5945H297.715V117.823H291.836L291.617 114.081H291.297C285.042 117.302 282.11 118.5 277.224 118.5C266.528 118.5 262.009 112.727 262.009 100.434V100.411ZM306.23 82.5945H312.179L312.328 86.8736H312.477C318.653 82.4467 322.57 81.9255 325.815 81.9255C337.488 81.9255 344.336 88.9276 344.336 100.139C344.336 111.607 337.183 118.5 326.034 118.5C321.061 118.5 317.433 117.154 312.555 114.532H312.398V129.898H306.23V82.5945ZM337.941 99.9131C337.941 92.0396 333.492 87.6905 325.51 87.6905C320.678 87.617 315.996 89.3589 312.398 92.5687V108.323C316.256 111.062 320.844 112.6 325.58 112.743C332.812 112.743 337.941 108.471 337.941 99.9287V99.9131ZM349.669 100.224C349.669 88.8342 357.057 81.8632 368.808 81.8632C380.559 81.8632 387.572 88.912 387.572 100.536V102.255H353.453V98.1393L381.098 97.0889C380.496 90.8648 376.274 87.5661 368.972 87.5661C360.536 87.5661 356.017 91.9151 356.017 100.232C356.017 108.549 360.458 112.906 369.426 112.906C375.219 112.906 379.136 111.031 380.371 107.46L380.668 106.565H387.447L387.072 107.763C384.961 114.509 378.112 118.655 368.917 118.655C357.018 118.655 349.708 111.653 349.708 100.287L349.669 100.224ZM394.828 82.6723H400.707L400.934 88.2196H401.082C405.977 83.2714 407.556 82.6723 413.287 82.6723H416V88.8186H412.231C406.352 88.8186 403.193 89.799 401.004 92.7943V117.901H394.828V82.6723Z" fill="white"/>
</svg>
