<svg width="332" height="60" viewBox="0 0 332 60" fill="none" xmlns="http://www.w3.org/2000/svg">
<path d="M27.1745 0.911985L27.6283 7.21577H27.8123C30.4494 2.28613 34.1721 0 38.9005 0C44.8983 0 48.0997 2.46482 50.1726 7.21577H50.3504C54.0792 1.46041 58.4396 0 62.2603 0C73.5938 0 75.8016 7.85663 75.8016 15.9782V43.8369H61.2607V19.3612C61.2607 15.436 61.4386 11.597 57.2621 11.597C52.8955 11.597 52.1719 15.0662 52.1719 19.0839V43.8369H37.6248V19.3612C37.6248 15.436 37.8088 11.597 33.6262 11.597C29.2658 11.597 28.536 15.0662 28.536 19.0839V43.8369H14.1791V18.0795C10.5423 18.1719 6.63571 16.0707 6.81969 10.5926C2.7291 10.3215 0 7.48691 0 2.19369V0.911985H27.1745Z" fill="#F50F64"/>
<path d="M94.4454 44.564C87.5398 44.564 80.8121 41.483 80.8121 31.9626C80.8121 14.8875 106.263 23.1077 106.263 13.9756C106.263 11.8743 104.988 10.5926 101.719 10.5926C98.4501 10.5926 96.2668 12.509 95.537 16.5266L82.5416 14.4315C84.7923 4.31344 92.5197 0 102.246 0C113.457 0 120.816 3.6541 120.816 15.892V28.2161C120.816 29.5902 121.092 40.4539 121.362 43.8369H108.336L107.79 39.086H107.606C104.54 42.9249 99.8791 44.564 94.427 44.564H94.4454ZM95.7026 30.5022C95.7026 33.0595 97.5424 34.4274 100.063 34.4274C104.154 34.4274 106.423 31.7778 106.423 27.6492V24.1984C102.608 27.2117 95.7026 25.4801 95.7026 30.5022Z" fill="#F50F64"/>
<path d="M147.231 49.4074C151.867 49.4074 154.228 47.491 154.228 42.0129V37.0833H154.05C151.867 40.0965 147.592 42.3827 142.87 42.3827C131.69 42.3827 126.416 33.4292 126.416 21.2838C126.416 9.31704 132.42 0 143.508 0C148.414 0 152.413 3.01325 154.504 5.66293H154.682L154.958 0.911985H168.775V37.4407C168.775 53.5175 161.318 60 147.053 60C139.233 60 131.69 57.2579 128.041 48.1257L140.307 45.0447C141.576 48.0579 143.575 49.4321 147.212 49.4321L147.231 49.4074ZM154.663 21.3947C154.663 14.6164 152.486 11.2581 148.034 11.2581C143.492 11.2581 141.218 14.637 141.214 21.3947C141.214 28.4256 143.49 31.8024 148.034 31.8024C152.486 31.8024 154.663 28.4256 154.663 21.3947Z" fill="#F50F64"/>
<path d="M203.401 0C213.489 0 215.875 7.67177 215.875 16.6376V43.8369H201.31V19.4536C201.31 15.5222 201.126 11.597 196.219 11.597C191.583 11.597 190.583 15.5222 190.583 19.5461V43.8369H176.042V0.911985H189.854L190.222 6.93848H190.399C193.944 2.19369 198.035 0 203.401 0Z" fill="#F50F64"/>
<path d="M235.39 44.7489C225.479 44.7489 223.124 37.0771 223.124 28.1113V0.911985H237.665V25.2953C237.665 29.2205 237.849 33.1519 242.571 33.1519C247.03 33.1519 248.03 29.2205 248.03 25.2028V0.911985H262.57V43.8369H248.747L248.379 37.8104H248.195C244.742 42.5552 240.652 44.7489 235.384 44.7489" fill="#F50F64"/>
<path d="M282.919 0.911985L283.373 7.21577H283.557C286.188 2.28613 290.082 0 294.823 0C300.913 0 304.096 2.46482 306.187 7.21577H306.365C310.094 1.46041 314.546 0 318.367 0C329.817 0 332 7.85663 332 15.9782V43.8369H317.459V19.3612C317.459 15.436 317.637 11.597 313.369 11.597C308.916 11.597 308.186 15.0662 308.186 19.0839V43.8369H293.645V19.3612C293.645 15.436 293.823 11.597 289.555 11.597C285.102 11.597 284.373 15.0662 284.373 19.0839V43.8369H269.844V0.911985H282.919Z" fill="#F50F64"/>
</svg>
