<svg width="416" height="130" viewBox="0 0 416 130" fill="none" xmlns="http://www.w3.org/2000/svg">
<path d="M34.0605 1.16307L34.6311 8.91685H34.8421C38.1403 2.82238 42.8062 0 48.7227 0C56.2335 0 60.2195 3.04724 62.8377 8.91685H63.0643C67.7537 1.80663 73.2247 0 77.9766 0C92.201 0 94.9287 9.70772 94.9287 19.7566V54.199H76.7026V23.9592C76.7026 19.1053 76.9293 14.36 71.6928 14.36C66.2219 14.36 65.3152 18.6556 65.3152 23.618V54.2222H47.1048V23.9824C47.1048 19.1286 47.3393 14.3833 42.1028 14.3833C36.6319 14.3833 35.7253 18.6789 35.7253 23.6413V54.2455H17.7493V22.3929C13.2006 22.5092 8.30805 19.9117 8.5347 13.1349C3.40765 12.7937 0 9.258 0 2.74482V1.19407L34.0605 1.16307Z" fill="white"/>
<path d="M118.239 55.1375C109.587 55.1375 101.162 51.2994 101.162 39.5602C101.162 18.4389 133.034 28.6041 133.034 17.3146C133.034 14.717 131.471 13.1353 127.344 13.1353C123.218 13.1353 120.514 15.5079 119.607 20.4781L103.327 17.8806C106.172 5.34271 115.832 0.046875 128.024 0.046875C142.022 0.046875 151.245 4.5596 151.245 19.695V34.9311C151.245 36.6292 151.589 50.0665 151.925 54.2458H135.668L134.98 48.3684H134.754C130.885 53.1138 125.086 55.1452 118.255 55.1452L118.239 55.1375ZM119.818 37.7613C119.818 40.9171 122.092 42.6152 125.289 42.6152C130.408 42.6152 133.253 39.3353 133.253 34.2566V29.9687C128.47 33.6906 119.826 31.5195 119.826 37.7225" fill="white"/>
<path d="M184.356 61.1234C190.163 61.1234 193.117 58.7507 193.117 51.9739V45.8794H192.891C190.163 49.609 184.809 52.4314 178.893 52.4314C164.895 52.4314 158.291 41.3667 158.291 26.3476C158.291 11.5534 165.802 0.0390625 179.69 0.0390625C185.833 0.0390625 190.843 3.76088 193.461 7.01747H193.688L194.032 1.14009H211.328V46.3059C211.328 66.1788 201.996 74.2195 184.129 74.2195C174.337 74.2195 164.895 70.8311 160.339 59.5416L175.704 55.6647C177.267 59.3942 179.8 61.0923 184.356 61.0923V61.1234ZM193.688 26.4252C193.688 18.0744 190.953 13.8951 185.38 13.8951C179.807 13.8951 176.845 18.0744 176.845 26.4252C176.845 35.1249 179.69 39.2965 185.38 39.2965C191.07 39.2965 193.688 35.1249 193.688 26.4252Z" fill="white"/>
<path d="M254.681 0.0390625C267.311 0.0390625 270.312 9.52194 270.312 20.5866V54.238H252.102V24.0913C252.102 19.2297 251.875 14.3758 245.724 14.3758C239.925 14.3758 238.69 19.2297 238.69 24.1999V54.238H220.48V1.16337H237.776L238.229 8.6225H238.456C242.895 2.74514 248.022 0.0390625 254.736 0.0390625" fill="white"/>
<path d="M294.742 55.3615C282.339 55.3615 279.377 45.8787 279.377 34.814V1.1626H297.587V31.3171C297.587 36.1709 297.814 41.0248 303.738 41.0248C309.311 41.0248 310.561 36.1709 310.561 31.2007V1.1626H328.771V54.2372H311.515L311.053 46.7859H310.827C306.505 52.6555 301.385 55.3615 294.781 55.3615" fill="white"/>
<path d="M354.255 1.16307L354.825 8.91685H355.052C358.358 2.82238 363.251 0 369.167 0C376.795 0 380.773 3.04724 383.392 8.91685H383.618C388.308 1.80663 393.865 0 398.648 0C412.989 0 415.717 9.70772 415.717 19.7566V54.199H397.483V23.9592C397.483 19.1053 397.71 14.36 392.364 14.36C386.784 14.36 385.877 18.6556 385.877 23.618V54.2222H367.667V23.9824C367.667 19.1286 367.893 14.3833 362.54 14.3833C356.967 14.3833 356.052 18.6789 356.052 23.6413V54.2455H337.842V1.16307H354.255Z" fill="white"/>
<path d="M238.829 106.149L238.532 107.351C237.25 111.305 234.835 112.949 231.451 112.949C227.457 112.949 224.971 111.01 226.027 106.374L227.207 101.07H245.863L246.84 96.1387C248.497 88.3849 245.409 81.5771 236.75 81.5771C228.543 81.5771 224.854 86.2294 223.275 93.3784L220.563 105.552C218.758 113.771 223.424 118.183 231.107 118.183C238.258 118.183 242.776 113.918 244.393 107.327L244.768 106.126L238.829 106.149ZM236.117 86.7644C241.009 86.7644 242.518 89.9745 241.462 94.7586L241.064 96.5109L228.043 97.2863L229.043 92.8124C229.942 88.8502 232.052 86.7567 236.077 86.7567" fill="white"/>
<path d="M297.399 81.5771C294.273 81.5771 291.756 83.2209 288.739 85.6866H288.591L289.044 82.3215H284.222L273.608 129.387H279.47L282.714 114.965H282.94C285.801 116.981 287.63 118.183 291.147 118.183C296.79 118.183 301.158 114.143 302.511 108.018L305.754 93.2311C307.184 86.5783 303.566 81.6004 297.391 81.6004L297.399 81.5771ZM299.877 94.0762L297.094 106.482C296.117 110.886 293.851 112.53 290.06 112.53C287.724 112.589 285.438 111.853 283.581 110.444L288.177 90.0443C289.529 88.8502 292.014 86.9893 294.875 86.9893C299.775 86.9893 300.604 90.7189 299.845 94.084" fill="white"/>
<path d="M278.875 82.3989V82.3213H272.474L262.985 95.022H262.759L258.39 82.3213H252.52V82.3989L258.773 99.4261L244.462 117.361V117.43H251.387L261.329 104.513H261.555L266.073 117.43H271.723V117.361L265.619 99.7285L278.875 82.3989Z" fill="white"/>
<path d="M405.297 81.5771C399.349 81.5771 394.23 84.8648 393.253 90.6878C392.471 95.0997 393.175 98.8293 398.146 100.845L402.288 102.489C406.501 104.133 406.977 105.257 406.501 108.095C406.024 110.933 403.492 112.949 399.951 112.949C396.043 112.949 393.925 111.452 394.605 107.126L394.832 106.149H388.962L388.806 107.498C387.68 114.368 392.573 118.183 399.349 118.183C406.125 118.183 411.174 114.895 412.229 108.242C413.128 102.714 411.245 100.248 405.672 98.0074L402.288 96.666C398.443 95.1695 398.38 94.2778 398.826 91.2848C399.349 87.9972 402.132 86.8032 404.922 86.8032C408.759 86.8032 410.643 88.8192 410.119 92.1843L409.892 93.076H415.762L415.84 92.1843C416.895 86.0588 412.605 81.5771 405.297 81.5771Z" fill="white"/>
<path d="M376.467 81.5771C370.519 81.5771 365.4 84.8648 364.423 90.6878C363.641 95.0997 364.345 98.8293 369.315 100.845L373.458 102.489C377.678 104.133 378.147 105.257 377.678 108.095C377.209 110.933 374.661 112.949 371.121 112.949C367.213 112.949 365.103 111.452 365.775 107.126L366.001 106.149H360.132L359.976 107.498C358.85 114.368 363.743 118.183 370.519 118.183C377.295 118.183 382.344 114.895 383.399 108.242C384.298 102.714 382.414 100.248 376.842 98.0074L373.458 96.666C369.62 95.1695 369.55 94.2778 369.995 91.2848C370.519 87.9972 373.309 86.8032 376.091 86.8032C379.937 86.8032 381.813 88.8192 381.289 92.1843L381.062 93.076H386.932L387.01 92.1843C388.065 86.0588 383.774 81.5771 376.467 81.5771Z" fill="white"/>
<path d="M347.019 81.5775C338.812 81.5775 335.123 86.2297 333.545 93.3787L330.833 105.552C329.027 113.771 333.693 118.183 341.376 118.183C348.527 118.183 353.045 113.918 354.662 107.328L355.038 106.126H349.09L348.793 107.328C347.511 111.282 345.104 112.926 341.712 112.926C337.718 112.926 335.233 110.988 336.288 106.351L337.468 101.047H356.093L357.07 96.1235C358.727 88.3698 355.639 81.5542 346.98 81.5542L347.019 81.5775ZM339.305 92.8359C340.204 88.8738 342.314 86.7802 346.378 86.7802C351.278 86.7802 352.779 89.9903 351.724 94.7744L351.372 96.581L338.351 97.3564L339.305 92.8359Z" fill="white"/>
<path d="M331.74 82.3213H328.044C325.699 82.3213 324.355 83.5929 320.439 86.7254H320.212L320.892 82.3213H315.546L307.645 117.43H313.514L319.087 92.409C320.822 89.6409 324.206 88.1521 327.747 88.1521H330.459L331.74 82.3213Z" fill="white"/>
</svg>
