<svg width="311" height="126" viewBox="0 0 311 126" fill="none" xmlns="http://www.w3.org/2000/svg">
<path d="M83.3552 39.9583V0.0693069C70.3773 0.0693069 38.6945 -0.301323 33.8912 0.67158C12.1659 4.60025 3.34458 21.5844 1.65421 29.5807C-0.313261 35.4181 -2.14218 50.7344 6.31888 65.3001C14.7799 79.8659 31.582 83.9057 38.9254 84.1096H83.3552V44.2669H59.8748C58.8311 44.2669 57.9443 44.9989 57.5563 45.9625C56.2724 49.1407 53.0302 53.5326 46.823 54.0886C33.845 53.6253 33.4294 43.7573 33.8912 39.9583C34.3531 36.1594 37.9555 29.627 46.823 30.1366C52.7069 30.4702 56.0322 34.8714 57.4547 38.133C57.9074 39.18 58.8865 39.9583 60.0226 39.9583H83.3552Z" fill="#F50F64"/>
<path d="M122.243 0.0692827H87.9275V84.1096H141.687V55.6637H122.243V0.0692827Z" fill="#F50F64"/>
<path d="M146.397 84.1096V0.0692827H179.789C179.697 17.3036 179.567 52.3188 179.789 54.5055C180.066 57.2389 181.636 60.9452 186.948 60.8062C189.488 60.7414 191.15 59.231 192.139 57.591C193.284 55.7008 193.321 53.3936 193.321 51.1791V0.0692827H226.528V84.1096H146.397Z" fill="#F50F64"/>
<path fill-rule="evenodd" clip-rule="evenodd" d="M231.054 84.1189V0.0692827C246.018 0.0878142 276.99 0.115611 281.165 0.115611C285.266 0.375053 288.757 1.61666 289.986 2.20041C293.034 3.34009 299.389 7.49115 300.424 14.9408C301.458 22.3905 297.865 27.8943 295.944 29.7197C300.959 31.8971 311 39.9028 311 54.5056C310.852 77.0399 293.912 83.6278 285.46 84.1097H231.054V84.1189ZM275.807 29.1267V29.4047C275.807 33.8337 272.232 37.4195 267.817 37.4195C263.402 37.4195 259.827 33.8337 259.827 29.4047V29.1267C259.827 24.6977 263.402 21.1118 267.817 21.1118C272.232 21.1118 275.807 24.6977 275.807 29.1267ZM259.827 55.7843C259.827 60.1948 263.42 63.7806 267.817 63.7806C272.214 63.7806 275.807 60.204 275.807 55.7843C275.807 51.3645 272.214 47.7879 267.817 47.7879C263.42 47.7972 259.827 51.3738 259.827 55.7843Z" fill="#F50F64"/>
<path d="M95.1785 100.084L95.3724 102.845H95.4556C96.6102 100.686 98.2359 99.676 100.296 99.676C102.91 99.676 104.314 100.76 105.219 102.845H105.293C106.919 100.315 108.821 99.676 110.493 99.676C115.444 99.676 116.405 103.123 116.405 106.681V118.902H110.059V108.173C110.059 106.449 110.133 104.763 108.313 104.763C106.411 104.763 106.087 106.283 106.087 108.043V118.902H99.7323V108.173C99.7323 106.449 99.8154 104.763 97.9865 104.763C96.0837 104.763 95.7604 106.283 95.7604 108.043V118.902H89.507V107.607C87.9182 107.645 86.2186 106.727 86.2925 104.327C84.5098 104.207 83.3182 102.965 83.3182 100.64V100.074H95.1785V100.084Z" fill="#F50F64"/>
<path d="M124.543 119.227C121.531 119.227 118.594 117.874 118.594 113.704C118.594 106.218 129.706 109.822 129.706 105.819C129.706 104.902 129.152 104.337 127.72 104.337C126.298 104.337 125.337 105.18 125.023 106.94L119.352 106.023C120.331 101.585 123.711 99.6945 127.951 99.6945C132.847 99.6945 136.061 101.297 136.061 106.662V112.064C136.061 112.667 136.181 117.429 136.301 118.912H130.611L130.371 116.827H130.288C128.958 118.504 126.917 119.227 124.543 119.227ZM125.097 113.056C125.097 114.177 125.901 114.779 127 114.779C128.783 114.779 129.771 113.621 129.771 111.805V110.295C128.108 111.62 125.097 110.86 125.097 113.056Z" fill="#F50F64"/>
<path d="M147.589 121.349C149.612 121.349 150.646 120.505 150.646 118.106V115.947H150.573C149.621 117.272 147.755 118.272 145.695 118.272C140.818 118.272 138.509 114.344 138.509 109.016C138.509 103.762 141.132 99.676 145.973 99.676C148.116 99.676 149.861 101.001 150.776 102.159H150.85L150.97 100.074H157.001V116.104C157.001 123.155 153.75 126 147.515 126C144.097 126 140.809 124.795 139.22 120.793L144.578 119.44C145.132 120.765 146 121.367 147.589 121.367V121.349ZM150.831 109.062C150.831 106.088 149.88 104.615 147.94 104.615C145.954 104.615 144.966 106.097 144.966 109.062C144.966 112.148 145.963 113.63 147.94 113.63C149.88 113.63 150.831 112.148 150.831 109.062Z" fill="#F50F64"/>
<path d="M172.113 99.6852C176.519 99.6852 177.563 103.049 177.563 106.987V118.921H171.208V108.228C171.208 106.505 171.125 104.781 168.982 104.781C166.959 104.781 166.525 106.505 166.525 108.265V118.921H160.17V100.093H166.202L166.359 102.734H166.433C167.984 100.64 169.767 99.6852 172.113 99.6852Z" fill="#F50F64"/>
<path d="M186.07 119.31C181.747 119.31 180.713 115.947 180.713 112.009V100.084H187.058V110.776C187.058 112.5 187.142 114.223 189.201 114.223C191.15 114.223 191.585 112.5 191.585 110.739V100.084H197.93V118.912H191.899L191.742 116.271H191.658C190.153 118.347 188.37 119.31 186.07 119.31Z" fill="#F50F64"/>
<path d="M206.826 100.084L207.02 102.845H207.103C208.248 100.686 209.948 99.676 212.017 99.676C214.677 99.676 216.063 100.76 216.977 102.845H217.051C218.677 100.315 220.626 99.676 222.288 99.676C227.285 99.676 228.237 103.123 228.237 106.681V118.902H221.891V108.173C221.891 106.449 221.965 104.763 220.108 104.763C218.169 104.763 217.845 106.283 217.845 108.043V118.902H211.499V108.173C211.499 106.449 211.573 104.763 209.717 104.763C207.777 104.763 207.454 106.283 207.454 108.043V118.902H201.108V100.074H206.826V100.084Z" fill="#F50F64"/>
</svg>
