<svg width="21" height="18" viewBox="0 0 21 18" fill="none" xmlns="http://www.w3.org/2000/svg">
<path d="M1.05106 6.80181L1.79712 6.87859L1.8073 6.77965L1.79135 6.68147L1.05106 6.80181ZM5.85408 10.1L6.11659 9.3974L6.101 9.39157L6.08515 9.38644L5.85408 10.1ZM10.4655 13.1654L10.1014 13.8211L10.1313 13.8377L10.1625 13.8515L10.4655 13.1654ZM19.7394 8.45242L19.0234 8.2291V8.2291L19.7394 8.45242ZM12.1373 1.25048L12.0184 1.99101L12.1373 1.25048ZM3.00242 2.76358L2.55703 2.16015L3.00242 2.76358ZM3.42703 6.56289L4.17299 6.64068L4.18344 6.54045L4.16707 6.44102L3.42703 6.56289ZM7.6231 8.81958L7.88263 8.11591L7.86716 8.11021L7.85146 8.10519L7.6231 8.81958ZM10.6862 10.8294L10.3258 11.4871L10.3554 11.5034L10.3865 11.5169L10.6862 10.8294ZM17.5039 7.97774L16.7887 7.75176L17.5039 7.97774ZM13.3094 3.35838L13.4982 2.63252L13.3094 3.35838ZM4.30536 4.56706L4.79092 5.13866L4.30536 4.56706ZM12.2496 8.44507L12.6135 7.78923L12.2496 8.44507ZM14.876 7.75299L14.1601 7.52953L14.876 7.75299ZM13.0896 6.568L13.1248 5.81883L13.0896 6.568ZM1.75 6.56293C1.75 6.14871 1.41421 5.81293 1 5.81293C0.585786 5.81293 0.25 6.14871 0.25 6.56293H1.75ZM0.25 9.86415C0.25 10.2784 0.585786 10.6142 1 10.6142C1.41421 10.6142 1.75 10.2784 1.75 9.86415H0.25ZM20.6809 6.56293C20.6809 6.14871 20.3451 5.81293 19.9309 5.81293C19.5167 5.81293 19.1809 6.14871 19.1809 6.56293H20.6809ZM19.9309 11.279L20.6403 11.5224L20.6809 11.404V11.279H19.9309ZM1.70941 9.85656C1.57499 9.46477 1.1484 9.25612 0.756609 9.39055C0.364813 9.52497 0.15617 9.95155 0.290591 10.3433L1.70941 9.85656ZM4.30068 12.9263L4.56036 12.2227L4.30068 12.9263ZM8.47449 15.0627L8.91169 14.4533L8.47449 15.0627ZM0.305004 6.72502C0.229013 7.46332 0.609005 8.18324 1.42454 8.83599C2.22967 9.48041 3.55062 10.1423 5.623 10.8135L6.08515 9.38644C4.08011 8.7371 2.9591 8.14294 2.36186 7.66491C1.77501 7.1952 1.79221 6.9263 1.79712 6.87859L0.305004 6.72502ZM5.59156 10.8025C6.75262 11.2364 7.40682 11.7145 7.98386 12.2044C8.55884 12.6926 9.16686 13.3023 10.1014 13.8211L10.8295 12.5096C10.0651 12.0853 9.62955 11.6339 8.95464 11.0609C8.28179 10.4897 7.47978 9.90676 6.11659 9.3974L5.59156 10.8025ZM10.1625 13.8515C11.5982 14.4855 13.6265 14.9213 15.6003 14.301C17.6239 13.665 19.4274 11.9715 20.4554 8.67573L19.0234 8.2291C18.1098 11.1585 16.6112 12.411 15.1506 12.87C13.6403 13.3446 12.0025 13.0243 10.7684 12.4793L10.1625 13.8515ZM20.4554 8.67573C20.8472 7.41945 20.8407 6.28192 20.4806 5.27492C20.1229 4.27441 19.4409 3.47142 18.5978 2.83341C16.9339 1.5742 14.5352 0.875702 12.2561 0.509956L12.0184 1.99101C14.2191 2.34417 16.3241 2.99387 17.6926 4.02952C18.3658 4.53894 18.8322 5.12004 19.0682 5.77995C19.3018 6.43339 19.3342 7.23261 19.0234 8.2291L20.4554 8.67573ZM2.55703 2.16015C1.13672 3.20847 -0.0361726 4.7877 0.310779 6.92214L1.79135 6.68147C1.5709 5.32528 2.26314 4.24141 3.44781 3.36701L2.55703 2.16015ZM12.2561 0.509956C9.03973 -0.00621903 5.34059 0.105622 2.55703 2.16015L3.44781 3.36701C5.74409 1.67214 8.94064 1.49707 12.0184 1.99101L12.2561 0.509956ZM2.68108 6.48511C2.62809 6.99324 2.9632 7.368 3.16614 7.55828C3.41167 7.78849 3.74625 8.00867 4.12988 8.21811C4.90509 8.64132 6.01707 9.09358 7.39473 9.53396L7.85146 8.10519C6.52072 7.6798 5.5078 7.26138 4.84864 6.90153C4.5151 6.71944 4.30512 6.56999 4.19211 6.46403C4.03652 6.31815 4.19911 6.39021 4.17299 6.64068L2.68108 6.48511ZM7.36357 9.52324C8.10162 9.79545 8.51153 10.0918 8.87849 10.3994C9.24366 10.7054 9.67655 11.1314 10.3258 11.4871L11.0466 10.1717C10.5673 9.90904 10.307 9.63936 9.84192 9.24965C9.37865 8.86144 8.82128 8.46211 7.88263 8.11591L7.36357 9.52324ZM10.3865 11.5169C11.372 11.9465 12.9207 12.3001 14.4421 11.9555C16.0267 11.5965 17.4948 10.4956 18.219 8.20372L16.7887 7.75176C16.2232 9.54141 15.1692 10.2528 14.1107 10.4926C12.989 10.7466 11.7737 10.4853 10.9859 10.1419L10.3865 11.5169ZM18.219 8.20372C18.4575 7.44894 18.4739 6.73445 18.2785 6.07645C18.0846 5.42327 17.698 4.87887 17.2143 4.43189C16.2649 3.55458 14.8755 2.99074 13.4982 2.63252L13.1207 4.08423C14.4098 4.41952 15.5159 4.90482 16.1963 5.53354C16.5275 5.83959 16.7393 6.16242 16.8405 6.50336C16.9403 6.83949 16.9485 7.246 16.7887 7.75176L18.219 8.20372ZM3.8198 3.99546C3.08047 4.6235 2.4959 5.52434 2.687 6.68476L4.16707 6.44102C4.09315 5.9922 4.27826 5.57415 4.79092 5.13866L3.8198 3.99546ZM13.4982 2.63252C10.3788 1.8212 6.47475 1.74016 3.8198 3.99546L4.79092 5.13866C6.87821 3.36558 10.1551 3.31294 13.1207 4.08423L13.4982 2.63252ZM11.8858 9.1009C12.3662 9.36744 13.1048 9.48993 13.7734 9.39462C14.4563 9.29728 15.2953 8.92681 15.592 7.97644L14.1601 7.52953C14.1055 7.7043 13.9466 7.85477 13.5617 7.90963C13.1625 7.96654 12.7635 7.8725 12.6135 7.78923L11.8858 9.1009ZM15.592 7.97644C15.7033 7.61954 15.6748 7.25542 15.507 6.93244C15.3499 6.62987 15.0996 6.41757 14.8541 6.27138C14.3706 5.98335 13.7334 5.84748 13.1248 5.81883L13.0543 7.31717C13.5261 7.33938 13.892 7.44421 14.0865 7.56006C14.1801 7.61581 14.1875 7.64625 14.1759 7.62389C14.1687 7.60994 14.1611 7.58812 14.1591 7.56258C14.157 7.53752 14.1615 7.52482 14.1601 7.52953L15.592 7.97644ZM12.6135 7.78923C12.5542 7.75638 12.5245 7.72763 12.5108 7.71153C12.4977 7.69607 12.4945 7.68667 12.4934 7.68315C12.492 7.6784 12.4844 7.64833 12.5121 7.58946C12.5711 7.46437 12.7554 7.30311 13.0543 7.31717L13.1248 5.81883C12.2313 5.77678 11.4773 6.26648 11.1552 6.95016C10.9924 7.29568 10.9336 7.70946 11.0582 8.11934C11.1853 8.53731 11.48 8.87577 11.8858 9.1009L12.6135 7.78923ZM0.25 6.56293V9.86415H1.75V6.56293H0.25ZM19.1809 6.56293V11.279H20.6809V6.56293H19.1809ZM0.290591 10.3433C0.321007 10.432 0.416246 11.1376 0.918416 11.756C1.43375 12.3907 2.35565 13.0079 4.04099 13.6299L4.56036 12.2227C2.9761 11.638 2.34952 11.1389 2.08286 10.8105C1.80302 10.4659 1.88272 10.3617 1.70941 9.85656L0.290591 10.3433ZM8.03728 15.6721C8.82812 16.2395 9.66621 16.7942 10.3806 17.1412L11.0361 15.792C10.4421 15.5035 9.6895 15.0114 8.91169 14.4533L8.03728 15.6721ZM10.3806 17.1412C11.5944 17.7308 13.5625 18.053 15.5404 17.3502C17.5575 16.6334 19.4858 14.8875 20.6403 11.5224L19.2215 11.0356C18.1917 14.037 16.5604 15.3959 15.0382 15.9367C13.4768 16.4915 11.9257 16.2242 11.0361 15.792L10.3806 17.1412ZM4.04099 13.6299C5.4775 14.1601 6.83746 14.8113 8.03728 15.6721L8.91169 14.4533C7.56935 13.4902 6.07805 12.7828 4.56036 12.2227L4.04099 13.6299Z" fill="#F21066"/>
</svg>
