<svg width="35" height="35" viewBox="0 0 35 35" fill="none" xmlns="http://www.w3.org/2000/svg">
<rect x="0.344727" y="0.509766" width="34.1379" height="34.1176" rx="17.0588" fill="#E7E7E7"/>
<path d="M22.7371 19.9508C23.1849 19.5032 23.2489 18.8638 22.865 18.2244C22.5452 17.7129 21.9694 17.4572 21.3296 17.5851C21.0737 17.649 20.8178 17.7769 20.5619 17.9687C18.5787 19.3114 15.8917 19.2474 13.9085 17.9048C13.7806 17.8408 13.6526 17.7769 13.5246 17.7129C12.8209 17.3933 12.1172 17.5211 11.7333 18.1605C11.2855 18.7999 11.3495 19.5032 11.9253 20.0786C12.0532 20.2065 12.1812 20.2704 12.2451 20.3983L12.3091 20.4623C13.2048 21.1656 14.2924 21.6131 15.6998 21.8049L14.8681 22.6361C14.1644 23.3394 13.3967 24.1067 12.693 24.81C12.501 25.0018 12.2451 25.3215 12.2451 25.7691C12.2451 26.3445 12.565 26.9199 13.1408 27.1757C13.3327 27.3035 13.5246 27.3035 13.7166 27.3035C14.0364 27.3035 14.4203 27.1757 14.6762 26.856C15.6358 25.8969 16.4035 25.1297 17.1712 24.3624C17.2352 24.2985 17.2352 24.2985 17.2352 24.2985C17.2352 24.2985 17.2992 24.2985 17.2992 24.3624C17.811 24.9379 18.3868 25.4494 18.8986 26.0248C19.1545 26.2805 19.4104 26.5363 19.6663 26.7921C19.9862 27.1117 20.2421 27.2396 20.6259 27.2396C21.2017 27.3035 21.8414 26.9199 22.0973 26.3445C22.3532 25.833 22.2253 25.1936 21.7775 24.81C21.1377 24.1706 20.498 23.4673 19.7942 22.8279L18.7067 21.741C19.2824 21.6771 19.9222 21.5492 20.498 21.2934C21.4576 20.9738 22.1613 20.5262 22.7371 19.9508Z" fill="#2D2F32"/>
<path d="M17.2352 18.1605C19.9862 18.1605 22.2253 15.9866 22.2253 13.2373C22.2253 11.8946 21.7135 10.6159 20.7539 9.65684C19.7942 8.69778 18.5787 8.18628 17.2992 8.18628C14.5483 8.18628 12.3731 10.4241 12.3091 13.1095C12.3091 14.4521 12.8209 15.6669 13.7806 16.626C14.6762 17.649 15.8917 18.1605 17.2352 18.1605ZM15.8278 11.7668C16.2116 11.3831 16.7234 11.1913 17.2352 11.1913C18.3868 11.1913 19.2185 12.0865 19.2185 13.1734C19.2185 14.3243 18.3228 15.1554 17.2352 15.1554C16.0837 15.1554 15.252 14.2603 15.252 13.1734C15.252 12.6619 15.4439 12.1504 15.8278 11.7668Z" fill="#2D2F32"/>
<path d="M22.7371 19.9508C23.1849 19.5032 23.2489 18.8638 22.865 18.2244C22.5452 17.7129 21.9694 17.4572 21.3296 17.5851C21.0737 17.649 20.8178 17.7769 20.5619 17.9687C18.5787 19.3114 15.8917 19.2474 13.9085 17.9048C13.7806 17.8408 13.6526 17.7769 13.5246 17.7129C12.8209 17.3933 12.1172 17.5211 11.7333 18.1605C11.2855 18.7999 11.3495 19.5032 11.9253 20.0786C12.0532 20.2065 12.1812 20.2704 12.2451 20.3983L12.3091 20.4623C13.2048 21.1656 14.2924 21.6131 15.6998 21.8049L14.8681 22.6361C14.1644 23.3394 13.3967 24.1067 12.693 24.81C12.501 25.0018 12.2451 25.3215 12.2451 25.7691C12.2451 26.3445 12.565 26.9199 13.1408 27.1757C13.3327 27.3035 13.5246 27.3035 13.7166 27.3035C14.0364 27.3035 14.4203 27.1757 14.6762 26.856C15.6358 25.8969 16.4035 25.1297 17.1712 24.3624C17.2352 24.2985 17.2352 24.2985 17.2352 24.2985C17.2352 24.2985 17.2992 24.2985 17.2992 24.3624C17.811 24.9379 18.3868 25.4494 18.8986 26.0248C19.1545 26.2805 19.4104 26.5363 19.6663 26.7921C19.9862 27.1117 20.2421 27.2396 20.6259 27.2396C21.2017 27.3035 21.8414 26.9199 22.0973 26.3445C22.3532 25.833 22.2253 25.1936 21.7775 24.81C21.1377 24.1706 20.498 23.4673 19.7942 22.8279L18.7067 21.741C19.2824 21.6771 19.9222 21.5492 20.498 21.2934C21.4576 20.9738 22.1613 20.5262 22.7371 19.9508Z" fill="#2D2F32"/>
</svg>
