<svg width="31" height="31" viewBox="0 0 31 31" fill="none" xmlns="http://www.w3.org/2000/svg">
<circle cx="15.5" cy="15.5" r="15.5" fill="#E6DAF6"/>
<path d="M10.8812 15.7072C10.17 15.7072 9.51936 15.5432 8.92924 15.2152C8.33912 14.8716 7.87005 14.4031 7.52203 13.8097C7.17401 13.2162 7 12.5603 7 11.8419C7 11.1235 7.17401 10.4754 7.52203 9.89751C7.87005 9.30405 8.33912 8.84334 8.92924 8.51537C9.51936 8.17179 10.17 8 10.8812 8C11.5772 8 12.2203 8.17179 12.8104 8.51537C13.4005 8.84334 13.8696 9.30405 14.2176 9.89751C14.5656 10.4754 14.7397 11.1235 14.7397 11.8419C14.7397 12.5603 14.5656 13.2162 14.2176 13.8097C13.8696 14.4031 13.4005 14.8716 12.8104 15.2152C12.2203 15.5432 11.5772 15.7072 10.8812 15.7072ZM18.5754 8.28111H21.0494L12.4246 23.7423H9.9733L18.5754 8.28111ZM10.9039 13.5286C11.3275 13.5286 11.6756 13.3724 11.9479 13.06C12.2354 12.7477 12.3792 12.3416 12.3792 11.8419C12.3792 11.3577 12.2354 10.9595 11.9479 10.6471C11.6756 10.3348 11.3275 10.1786 10.9039 10.1786C10.4499 10.1786 10.0792 10.3348 9.79172 10.6471C9.51936 10.9595 9.38318 11.3577 9.38318 11.8419C9.38318 12.3416 9.51936 12.7477 9.79172 13.06C10.0641 13.3724 10.4348 13.5286 10.9039 13.5286ZM20.1188 24C19.4228 24 18.7797 23.836 18.1896 23.5081C17.5995 23.1645 17.1304 22.6959 16.7824 22.1025C16.4344 21.509 16.2603 20.8531 16.2603 20.1347C16.2603 19.4163 16.4344 18.7682 16.7824 18.1903C17.1304 17.5969 17.5995 17.1362 18.1896 16.8082C18.7797 16.4646 19.4228 16.2928 20.1188 16.2928C20.8149 16.2928 21.4579 16.4646 22.0481 16.8082C22.6533 17.1362 23.1299 17.5969 23.478 18.1903C23.826 18.7682 24 19.4163 24 20.1347C24 20.8531 23.826 21.509 23.478 22.1025C23.1299 22.6959 22.6609 23.1645 22.0708 23.5081C21.4806 23.836 20.83 24 20.1188 24ZM20.1415 21.7979C20.5652 21.7979 20.9132 21.6418 21.1856 21.3294C21.4731 21.0171 21.6168 20.6188 21.6168 20.1347C21.6168 19.6506 21.4731 19.2523 21.1856 18.94C20.9132 18.6276 20.5652 18.4714 20.1415 18.4714C19.6725 18.4714 19.3017 18.6276 19.0294 18.94C18.757 19.2367 18.6208 19.6349 18.6208 20.1347C18.6208 20.6345 18.757 21.0405 19.0294 21.3529C19.3017 21.6496 19.6725 21.7979 20.1415 21.7979Z" fill="#8344D6"/>
</svg>
