<svg width="419" height="572" viewBox="0 0 419 572" fill="none" xmlns="http://www.w3.org/2000/svg">
<path fill-rule="evenodd" clip-rule="evenodd" d="M393.255 457.082C401.758 441.872 405.545 437.287 410.115 418.414C399.206 414.448 399.206 400.567 414.893 400.707C428.539 336.796 407.611 259.411 280.195 209.206C243.698 194.136 247.798 168.555 254.409 157.648C251.4 157.471 246.382 158.337 241.516 161.614C237.294 164.457 233.187 169.117 230.607 176.487C223.665 196.317 226.64 154.675 230.607 148.724C233.003 145.131 223.9 143.378 214.739 148.285C207.882 151.958 200.994 159.363 198.871 172.52C196.809 169.247 193.67 165.092 190.052 161.614C186.339 158.044 182.121 155.186 178.044 154.723C175.265 154.408 172.552 155.206 170.109 157.648C187.588 166.529 200.994 191.896 137.612 228.972C115.151 242.11 91.7985 254.845 74.6632 274.426C-14.3274 376.113 53.2401 474.297 102.67 513.322C131.13 527.198 158.456 535.08 182.011 539.151C193.205 541.085 203.548 542.159 212.755 542.606C225.938 543.246 236.794 542.601 244.492 541.36C246.659 541.031 248.98 540.636 251.434 540.175C290.895 532.746 364.871 507.862 393.255 457.082ZM142.367 370.291C139.112 362.599 143.916 353.305 151.084 349.017C156.672 345.673 163.162 346.018 167.135 357.933C173.579 377.262 147.959 383.507 142.367 370.291ZM307.938 372.274C311.193 364.582 306.389 355.288 299.221 351C293.633 347.656 287.143 348.001 283.17 359.916C276.725 379.245 302.346 385.49 307.938 372.274ZM138.701 394.938C144.181 387.143 110.009 386.104 113.92 394.792C114.182 395.373 115 395.98 116.555 396.601C122.866 399.125 136.806 397.634 138.701 394.938ZM349.946 397.913C355.425 390.118 321.254 389.079 325.165 397.767C325.426 398.348 326.245 398.954 327.799 399.576C334.11 402.099 348.051 400.608 349.946 397.913ZM180.027 393.627C170.11 405.525 156.127 433.291 180.027 432.295C203.83 431.304 189.945 407.508 180.027 393.627Z" fill="#E9E9E9"/>
<path d="M170.109 157.648C183.994 169.216 196.887 195.722 137.381 209.206C77.8757 222.691 35.2301 271.671 21.3455 294.476C-0.473206 333.475 -24.4738 425.949 54.0735 483.853C70.3183 495.828 86.6734 505.522 102.67 513.322C53.2401 474.297 -14.3274 376.113 74.6632 274.426C91.7985 254.845 115.151 242.11 137.612 228.972C200.994 191.896 187.588 166.529 170.109 157.648Z" fill="#C8C8C8"/>
<path d="M142.367 370.291C139.112 362.599 143.916 353.305 151.084 349.017C156.672 345.673 163.162 346.018 167.135 357.933C173.579 377.262 147.959 383.507 142.367 370.291Z" fill="#C8C8C8"/>
<path d="M307.938 372.274C311.193 364.582 306.389 355.288 299.221 351C293.633 347.656 287.143 348.001 283.17 359.916C276.725 379.245 302.346 385.49 307.938 372.274Z" fill="#C8C8C8"/>
<path d="M180.027 393.627C170.11 405.525 156.127 433.291 180.027 432.295C203.83 431.304 189.945 407.508 180.027 393.627Z" fill="url(#paint0_linear_467_954)"/>
<path d="M138.701 394.938C144.181 387.143 110.009 386.104 113.92 394.792C114.182 395.373 115 395.98 116.555 396.601C122.866 399.125 136.806 397.634 138.701 394.938Z" fill="#C8C8C8"/>
<path d="M349.946 397.913C355.425 390.118 321.254 389.079 325.165 397.767C325.426 398.348 326.245 398.954 327.799 399.576C334.11 402.099 348.051 400.608 349.946 397.913Z" fill="#C8C8C8"/>
<path d="M212.755 542.606C203.548 542.159 193.205 541.085 182.011 539.151C175.956 546.368 170.359 558.907 186.97 560.614C178.242 548.255 200.524 543.459 212.755 542.606Z" fill="#C8C8C8"/>
<path d="M199.863 560.199C205.813 570.114 220.491 583.004 231.599 555.242C241.186 562.713 258.575 570.161 251.434 540.175C248.98 540.636 246.659 541.031 244.492 541.36C236.794 542.601 225.938 543.246 212.755 542.606C200.524 543.459 178.242 548.255 186.97 560.614C190.31 560.958 194.549 560.863 199.863 560.199Z" fill="#EAEAEA"/>
<path d="M230.607 148.724C226.64 154.675 223.665 196.317 230.607 176.487C233.187 169.117 237.294 164.457 241.516 161.614C245.483 132.859 293.088 92.2097 267.302 85.2692C265.661 84.8276 264.006 84.6131 262.343 84.6002C250.112 92.4615 223.466 116.204 214.739 148.285C223.9 143.378 233.003 145.131 230.607 148.724Z" fill="#D9D9D9"/>
<path d="M214.739 125.921C219.439 117.568 228.042 105.203 238.147 96.1758C222.653 61.4487 248.743 5.59464 224.657 0.391622C213.417 8.43685 192.92 37.8394 200.854 91.0878C207.596 101.883 213.265 114.13 214.739 125.921Z" fill="#E8E8E8"/>
<path d="M198.871 172.52C196.491 155.069 208.458 134.183 214.739 125.921C213.265 114.13 207.596 101.883 200.854 91.0878C197.515 85.7402 193.912 80.7489 190.425 76.3457C189.03 74.5833 187.653 72.915 186.319 71.3559C181.081 65.235 174.502 60.285 166.848 57.7698C159.465 55.3437 151.739 54.221 147.299 57.1361C165.553 73.4535 199.659 117.193 190.052 161.614C193.67 165.092 196.809 169.247 198.871 172.52Z" fill="#DEDEDE"/>
<path d="M220.69 0C196.094 0 190.265 50.8971 190.425 76.3457C193.912 80.7489 197.515 85.7402 200.854 91.0878C192.92 37.8394 213.417 8.43685 224.657 0.391622C223.461 0.133463 222.143 0 220.69 0Z" fill="#D1D1D1"/>
<path d="M214.739 125.921C208.458 134.183 196.491 155.069 198.871 172.52C200.994 159.363 207.882 151.958 214.739 148.285C223.466 116.204 250.112 92.4615 262.343 84.6002C254.108 84.5365 245.707 89.4215 238.147 96.1758C228.042 105.203 219.439 117.568 214.739 125.921Z" fill="#CBCBCB"/>
<path d="M147.299 57.1361C138.833 62.6955 148.608 74.8578 154.474 83.1133C171.237 106.704 177.204 139.308 178.044 154.723C182.121 155.186 186.339 158.044 190.052 161.614C199.659 117.193 165.553 73.4535 147.299 57.1361Z" fill="#CCCCCC"/>
<path d="M243.763 398.584C245.261 398.584 246.496 399.805 246.269 401.286C246.053 402.7 245.666 404.086 245.116 405.414C244.219 407.579 242.904 409.547 241.247 411.204C239.589 412.861 237.621 414.176 235.455 415.073C233.289 415.969 230.968 416.431 228.624 416.431C226.279 416.431 223.958 415.969 221.792 415.073C219.626 414.176 217.658 412.861 216.001 411.204C214.343 409.547 213.028 407.579 212.131 405.414C211.606 404.146 211.229 402.825 211.008 401.477C210.748 399.894 212.073 398.584 213.678 398.584C215.069 398.584 216.171 399.723 216.451 401.085C216.609 401.855 216.84 402.609 217.142 403.339C217.767 404.846 218.682 406.216 219.836 407.369C220.99 408.523 222.36 409.438 223.868 410.062C225.376 410.687 226.992 411.008 228.624 411.008C230.256 411.008 231.872 410.687 233.379 410.062C234.887 409.438 236.257 408.523 237.411 407.369C238.565 406.216 239.48 404.846 240.105 403.339C240.382 402.669 240.6 401.979 240.756 401.275C241.08 399.812 242.265 398.584 243.763 398.584Z" fill="#C8C8C8"/>
<defs>
<linearGradient id="paint0_linear_467_954" x1="183.003" y1="398.584" x2="186.968" y2="432.295" gradientUnits="userSpaceOnUse">
<stop stop-color="#D9D9D9"/>
<stop offset="1" stop-color="#C6C6C6"/>
</linearGradient>
</defs>
</svg>
