<svg width="420" height="385" viewBox="0 0 420 385" fill="none" xmlns="http://www.w3.org/2000/svg">
<path d="M349.501 113.01C349.375 113.011 349.25 112.995 349.128 112.963C348.743 112.864 348.413 112.616 348.21 112.274C348.007 111.932 347.948 111.523 348.047 111.138C348.258 110.317 353.383 90.8721 369.627 79.8741C369.955 79.6854 370.342 79.6277 370.71 79.7124C371.079 79.7972 371.402 80.0182 371.614 80.3312C371.827 80.6442 371.914 81.026 371.857 81.4002C371.8 81.7744 371.604 82.1134 371.308 82.3491C356 92.7171 351.005 111.682 350.955 111.874C350.875 112.198 350.687 112.487 350.424 112.693C350.16 112.899 349.835 113.01 349.501 113.01Z" fill="#4C331E"/>
<path d="M353.602 118.288C353.324 118.288 353.052 118.211 352.816 118.066C352.579 117.92 352.388 117.712 352.263 117.464C352.138 117.216 352.084 116.939 352.107 116.662C352.13 116.385 352.23 116.12 352.394 115.897C353.069 114.983 369.016 93.4866 380.854 91.1467C381.237 91.0846 381.63 91.1741 381.949 91.3963C382.268 91.6186 382.489 91.9561 382.564 92.3378C382.639 92.7195 382.563 93.1155 382.352 93.4423C382.142 93.7691 381.812 94.0012 381.434 94.0896C370.727 96.2091 354.966 117.467 354.809 117.681C354.669 117.87 354.487 118.023 354.277 118.128C354.068 118.234 353.836 118.289 353.602 118.288Z" fill="#4C331E"/>
<path d="M394.918 88.0529C394.918 88.0529 412.376 96.2249 413.464 78.5264C413.464 78.5264 426.747 71.7877 412.502 58.9785C412.502 58.9785 404.027 43.4738 391.876 53.214C391.876 53.214 375.392 53.727 376.88 68.253C376.88 68.253 376.399 89.2612 394.918 88.0529Z" fill="#FAEFC8"/>
<path d="M396.96 64.2794C396.96 64.2794 398.309 53.7224 403.54 55.1151C412.52 57.5024 402.387 65.1479 402.387 65.1479C402.387 65.1479 410.704 59.9729 412.003 65.7689C413.303 71.5648 404.608 74.3188 401.98 72.5886C401.98 72.5886 402.782 83.2063 396.989 81.4198C391.196 79.6333 388.896 73.5448 393.136 69.4611C393.136 69.4611 382.571 66.3111 385.122 61.9574C388.811 55.6731 395.607 60.9516 396.96 64.2794Z" fill="#DD9839"/>
<path d="M397.714 65.5035C397.714 65.5035 397.265 61.8427 399.962 61.6335C403.66 61.3455 400.861 65.9782 400.861 65.9782C400.861 65.9782 404.627 65.3212 404.575 68.1472C404.514 71.3917 401.439 70.7865 400.036 70.1295C400.036 70.1295 400.751 73.0342 398.609 73.5045C395.999 74.0715 394.673 71.043 395.846 68.7907C395.846 68.7907 392.27 67.5375 392.807 65.571C393.421 63.4042 396.865 64.0185 397.714 65.5035Z" fill="#AB651E"/>
<path d="M118.627 96.3923C118.303 96.3924 117.987 96.2869 117.727 96.0917C117.468 95.8965 117.279 95.6222 117.189 95.31C112.14 77.8793 97.5795 72.3084 97.4334 72.2544C97.0643 72.1133 96.7658 71.8323 96.6026 71.4722C96.4395 71.1122 96.4249 70.7022 96.562 70.3314C96.6991 69.9606 96.9768 69.659 97.3349 69.492C97.6929 69.325 98.1023 69.3062 98.4742 69.4396C99.1306 69.6826 114.601 75.6046 120.068 94.4753C120.133 94.6989 120.145 94.9345 120.103 95.1635C120.061 95.3925 119.967 95.6086 119.827 95.7947C119.687 95.9807 119.506 96.1316 119.298 96.2354C119.089 96.3391 118.86 96.3928 118.627 96.3923Z" fill="#4C331E"/>
<path d="M114.089 98.7503C113.832 98.7504 113.579 98.6842 113.354 98.5581C113.13 98.432 112.942 98.2502 112.808 98.0303C106.64 87.9053 94.3274 86.9175 94.2038 86.9085C93.8177 86.8679 93.4625 86.6789 93.2128 86.3815C92.9631 86.084 92.8383 85.7012 92.8648 85.3136C92.8913 84.926 93.067 84.5637 93.3549 84.3031C93.6427 84.0424 94.0204 83.9037 94.4084 83.916C94.9748 83.9543 108.375 84.987 115.368 96.4688C115.507 96.6962 115.582 96.9564 115.587 97.2227C115.592 97.4889 115.526 97.7517 115.396 97.9839C115.265 98.2162 115.076 98.4095 114.846 98.5442C114.617 98.6789 114.355 98.75 114.089 98.7503Z" fill="#4C331E"/>
<path d="M86.005 81.0471C86.005 81.0471 98.2587 72.7222 87.0189 65.0497C87.0189 65.0497 87.8012 53.6265 73.7559 57.996C73.7559 57.996 60.2006 57.4942 61.8416 69.3494C61.8416 69.3494 55.6957 80.4397 65.8587 85.1714C65.861 85.1714 79.5219 93.7529 86.005 81.0471Z" fill="#FAEFC8"/>
<path d="M67.2733 68.6384C67.2733 68.6384 64.3779 64.9259 67.6847 62.3947C71.214 59.6947 73.7879 64.7909 73.7879 64.7909C73.7879 64.7909 73.6261 60.3764 77.9601 61.8074C82.2942 63.2384 80.1362 67.9702 77.9601 69.0232C77.9601 69.0232 83.0316 72.7289 79.5742 75.8519C76.1168 78.9749 72.9179 79.4069 71.8861 75.0059C71.8861 75.0059 67.4014 80.2259 64.3892 77.7756C60.6575 74.7291 64.551 68.2222 67.2733 68.6384Z" fill="#DD9839"/>
<path d="M70.095 69.1739C70.095 69.1739 67.5076 68.0264 68.4293 66.1612C69.6949 63.6052 71.6528 67.2704 71.6528 67.2704C71.6528 67.2704 72.7004 64.5254 74.5437 65.6707C76.6591 66.9869 75.0495 68.7802 74.0672 69.4462C74.0672 69.4462 76.2612 70.1212 75.7262 71.7164C75.0742 73.6626 72.5565 73.3476 71.5337 71.6872C71.5337 71.6872 69.2992 73.5569 68.2134 72.4274C67.022 71.1854 68.7822 69.1514 70.095 69.1739Z" fill="#AB651E"/>
<path d="M8.76773 230.586C8.76773 230.586 23.2919 245.886 32.7266 230.872C32.7266 230.872 47.6104 231.322 41.2441 213.257C41.2441 213.257 42.4693 196.258 22.822 196.553C22.822 196.553 7.45267 191.972 4.50783 206.241C4.51007 206.241 -8.05832 222.759 8.76773 230.586Z" fill="#FAEFC8"/>
<path d="M17.8158 212.715C17.6776 213.165 17.4091 213.564 17.0444 213.861C16.6796 214.158 16.2349 214.341 15.7666 214.385C15.2982 214.43 14.8272 214.334 14.4132 214.11C13.9992 213.887 13.6607 213.545 13.4405 213.129C13.2204 212.713 13.1285 212.241 13.1765 211.773C13.2244 211.304 13.4101 210.86 13.71 210.498C14.0099 210.135 14.4106 209.869 14.8613 209.734C15.312 209.6 15.7926 209.602 16.2422 209.74C16.8445 209.926 17.3485 210.344 17.6435 210.902C17.9385 211.459 18.0004 212.111 17.8158 212.715Z" fill="#231D18"/>
<path d="M28.8041 221.224C28.6659 221.674 28.3974 222.073 28.0326 222.371C27.6679 222.668 27.2232 222.85 26.7548 222.895C26.2865 222.939 25.8155 222.843 25.4015 222.62C24.9875 222.396 24.649 222.055 24.4288 221.639C24.2087 221.223 24.1168 220.75 24.1647 220.282C24.2127 219.814 24.3984 219.37 24.6983 219.007C24.9982 218.644 25.3989 218.379 25.8496 218.244C26.3003 218.109 26.7809 218.111 27.2305 218.25C27.8332 218.435 28.3375 218.853 28.6326 219.411C28.9277 219.969 28.9894 220.621 28.8041 221.224Z" fill="#231D18"/>
<path d="M11.93 216.576C11.1567 217.476 9.35385 217.203 7.90391 215.959C6.45397 214.715 5.90546 212.973 6.67876 212.071C7.45206 211.169 9.25494 211.443 10.7049 212.688C12.1548 213.932 12.7033 215.673 11.93 216.576Z" fill="#FFA6AB"/>
<path d="M27.166 229.16C26.3904 230.06 24.5875 229.788 23.1376 228.543C21.6877 227.299 21.1302 225.558 21.9147 224.653C22.6993 223.749 24.4909 224.028 25.9408 225.272C27.3908 226.516 27.9393 228.255 27.166 229.16Z" fill="#FFA6AB"/>
<path d="M14.4922 216.902C14.4922 216.902 11.7137 220.137 14.4742 222.606C17.2347 225.074 21.063 221.778 21.063 221.778C21.063 221.778 15.6499 219.735 14.4922 216.902Z" fill="#231D18"/>
<path d="M29.7363 202.961C29.7363 202.961 32.6811 199.752 35.6282 202.448C39.4678 205.958 34.3491 208.329 34.3491 208.329C34.3491 208.329 39.5981 210.163 37.2153 212.339C34.475 214.843 30.1387 212.895 29.0619 211.059C29.0619 211.059 26.2452 212.319 23.3903 210.669C19.9172 208.662 18.973 204.369 22.9564 204.414C22.9564 204.414 18.955 199.557 21.9808 198.789C26.3419 197.689 29.9768 200.99 29.7363 202.961Z" fill="#DD9839"/>
<path d="M29.8178 204.932C29.8178 204.932 31.4656 203.112 32.7065 204.743C34.3205 206.865 32.4165 207.522 32.4165 207.522C32.4165 207.522 34.815 209.52 33.1943 210.33C31.3329 211.261 29.2581 209.533 28.9231 208.53C28.9231 208.53 27.1247 209.821 25.7962 208.712C24.1709 207.362 24.4025 205.587 26.2593 205.6C26.2593 205.6 24.7644 204.012 25.9401 203.071C27.0213 202.203 30.2292 203.994 29.8178 204.932Z" fill="#AB651E"/>
<path d="M236.692 62.6848C236.331 62.6846 235.982 62.5541 235.71 62.3173C235.437 62.0805 235.259 61.7532 235.208 61.3956C235.107 60.6733 232.861 43.5419 245.888 28.3612C246.154 28.0867 246.515 27.9243 246.897 27.9073C247.279 27.8902 247.653 28.0197 247.943 28.2694C248.232 28.519 248.416 28.8699 248.455 29.2504C248.495 29.6309 248.388 30.0122 248.156 30.3164C235.999 44.4779 238.144 60.8106 238.166 60.9726C238.194 61.1676 238.183 61.3662 238.134 61.5569C238.085 61.7477 237.999 61.9268 237.88 62.0842C237.762 62.2416 237.614 62.374 237.444 62.474C237.274 62.5739 237.087 62.6395 236.892 62.6668C236.826 62.6778 236.759 62.6838 236.692 62.6848Z" fill="#4C331E"/>
<path d="M243.056 66.3727C242.929 66.3725 242.802 66.3567 242.678 66.3255C242.294 66.2249 241.965 65.976 241.763 65.6332C241.561 65.2904 241.503 64.8817 241.602 64.4962C241.768 63.855 245.76 48.6698 254.797 38.8125C254.927 38.6575 255.087 38.5303 255.268 38.4388C255.448 38.3473 255.645 38.2933 255.847 38.2801C256.049 38.2668 256.252 38.2946 256.443 38.3617C256.633 38.4289 256.809 38.534 256.958 38.6707C257.107 38.8075 257.227 38.973 257.311 39.1574C257.394 39.3418 257.44 39.5412 257.444 39.7437C257.449 39.9461 257.413 40.1474 257.337 40.3354C257.262 40.5234 257.15 40.6942 257.007 40.8375C248.465 50.148 244.544 65.0947 244.506 65.2455C244.423 65.5674 244.236 65.8527 243.973 66.0567C243.711 66.2607 243.388 66.3718 243.056 66.3727Z" fill="#4C331E"/>
<path d="M270.636 1.81357C270.636 1.81357 255.534 -5.38641 253.925 8.90555C253.925 8.90555 241.959 13.9163 254.06 24.7725C254.06 24.7725 260.968 37.6155 272.044 30.1365C272.044 30.1365 290.747 26.712 286.948 19.0935C286.941 19.0935 287.011 1.46032 270.636 1.81357Z" fill="#FAEFC8"/>
<path d="M263.716 13.8554C263.716 13.8554 260.538 6.52269 265.557 6.67344C271.935 6.87368 269.329 13.1039 269.329 13.1039C269.329 13.1039 277.37 6.42144 279.133 13.1354C280.088 16.7804 273.493 19.2532 270.366 17.9032C270.366 17.9032 273.67 25.9244 266.875 24.5474C260.823 23.3211 262.666 18.6524 262.666 18.6524C262.666 18.6524 256.509 21.4109 256.066 16.2832C255.624 11.1554 263.716 13.8554 263.716 13.8554Z" fill="#DD9839"/>
<path d="M77.7764 332.814C77.7764 332.814 64.5134 319.912 55.1551 335.775C55.1551 335.775 39.6441 341.13 51.4055 356.324C51.4055 356.324 52.3654 364.26 58.8822 366.769C70.5717 371.269 74.6405 366.424 74.6405 366.424C74.6405 366.424 91.0979 367.795 88.0541 351.291C88.0541 351.3 95.378 337.858 77.7764 332.814Z" fill="#FAEFC8"/>
<path d="M65.0456 331.437C65.0456 331.437 67.2688 324.872 71.0971 327.713C75.9572 331.313 69.9192 334.013 69.9192 334.013C69.9192 334.013 80.5003 334 77.5623 339.38C75.9707 342.305 69.2223 340.331 67.6397 337.735C67.6397 337.735 65.0748 344.818 60.6418 340.21C56.6944 336.104 61.1341 334.036 61.1341 334.036C61.1341 334.036 54.5453 332.492 57.4901 328.874C60.435 325.256 65.0456 331.437 65.0456 331.437Z" fill="#DD9839"/>
<path d="M65.0583 332.589C65.0583 332.589 63.0352 329.624 61.2143 330.339C59.3934 331.055 60.8209 333.264 62.7227 334.25C62.7227 334.25 59.4047 337.262 63.1948 338.196C65.962 338.871 66.7915 336.23 66.7915 336.23C66.7915 336.23 69.1766 338.583 71.0154 337.411C73.2634 335.975 68.5854 334.486 68.1358 334.209C68.1358 334.209 71.9731 331.734 69.0934 330.443C66.9196 329.464 65.0583 332.589 65.0583 332.589Z" fill="#AB651E"/>
<path d="M65.8535 348.998C66.0742 349.353 66.185 349.765 66.1718 350.183C66.1586 350.6 66.0219 351.004 65.7792 351.344C65.5364 351.684 65.1984 351.944 64.8079 352.092C64.4174 352.24 63.9919 352.268 63.5853 352.174C63.1786 352.079 62.8091 351.867 62.5233 351.562C62.2376 351.257 62.0484 350.875 61.9799 350.463C61.9113 350.051 61.9663 349.627 62.138 349.247C62.3098 348.866 62.5904 348.544 62.9446 348.323C63.1798 348.176 63.4417 348.077 63.7153 348.032C63.9888 347.986 64.2686 347.995 64.5387 348.058C64.8089 348.12 65.064 348.236 65.2896 348.397C65.5152 348.558 65.7068 348.763 65.8535 348.998Z" fill="#231D18"/>
<path d="M77.7942 346.75C78.0153 347.105 78.1263 347.517 78.1132 347.935C78.1002 348.353 77.9636 348.757 77.7208 349.097C77.4781 349.437 77.14 349.698 76.7493 349.845C76.3587 349.993 75.9331 350.021 75.5263 349.927C75.1196 349.832 74.7499 349.619 74.4642 349.315C74.1785 349.01 73.9894 348.627 73.9211 348.215C73.8527 347.803 73.908 347.379 74.0801 346.998C74.2521 346.618 74.5332 346.296 74.8876 346.075C75.3625 345.779 75.9355 345.684 76.4805 345.811C77.0255 345.937 77.498 346.275 77.7942 346.75Z" fill="#231D18"/>
<path d="M65.0127 355.19C65.1678 356.236 63.9336 357.285 62.2566 357.532C60.5797 357.78 59.096 357.136 58.9409 356.09C58.7858 355.044 60.0199 353.998 61.6969 353.75C63.3739 353.503 64.8598 354.146 65.0127 355.19Z" fill="#FFA6AB"/>
<path d="M83.1354 351.836C83.2905 352.88 82.0563 353.928 80.3794 354.178C78.7024 354.428 77.2165 353.78 77.0636 352.736C76.9107 351.692 78.1426 350.641 79.8196 350.393C81.4966 350.146 82.9803 350.789 83.1354 351.836Z" fill="#FFA6AB"/>
<path d="M66.832 355.089C66.832 355.089 71.328 355.681 74.9427 353.23C74.9427 353.23 76.2106 356.664 72.5059 358.095C68.9541 359.458 66.832 355.089 66.832 355.089Z" fill="#231D18"/>
<path d="M104.619 160.558L144.671 359.907C146.672 369.861 185.966 384.011 232.522 384.011C279.077 384.011 318.372 369.861 320.372 359.907L360.413 160.558H104.619Z" fill="#F2F2F2"/>
<path d="M110.549 190.069C123.423 196.594 148.87 203.834 187.313 209.135C248.037 217.505 281.676 229.806 286.628 249.131C289.807 261.533 285.504 328.614 278.358 379.406C302.434 374.411 319.089 366.293 320.372 359.903L360.413 160.558H104.619L110.549 190.069Z" fill="#D9D9D9"/>
<path d="M262.296 382.085L277.391 160.558H308.413L283.324 378.299C276.383 379.918 269.365 381.182 262.296 382.085ZM320.224 360.438C320.28 360.254 320.337 360.065 320.372 359.896L340.397 260.221L360.422 160.546H337.779L303.567 372.046C312.981 368.259 319.015 364.097 320.224 360.438ZM202.745 382.085L187.65 160.558H156.628L181.7 378.299C188.646 379.918 195.67 381.182 202.745 382.085ZM232.522 384C235.984 384 239.402 383.925 242.777 383.775L248.037 160.562H217.015L222.276 383.775C225.64 383.924 229.055 383.999 232.522 384ZM144.671 359.896C144.716 360.095 144.771 360.292 144.838 360.485C146.094 364.173 152.233 368.36 161.798 372.185L127.265 160.558H104.619L124.646 260.232L144.671 359.896Z" fill="#D83621"/>
<path d="M108.495 179.842C127.173 195.806 175.432 204.563 232.522 204.563C288.188 204.563 337.259 195.689 356.284 181.163L360.413 160.558H104.619L108.495 179.842Z" fill="#B3B3B3"/>
<path d="M305.259 371.355C305.893 371.083 306.372 370.874 306.833 370.662L307.123 370.529C307.536 370.34 307.945 370.149 308.343 369.958L308.669 369.8C309.051 369.616 309.426 369.43 309.793 369.242C309.899 369.191 310.002 369.137 310.106 369.083C310.474 368.891 310.832 368.7 311.185 368.509L311.439 368.369C311.821 368.158 312.192 367.949 312.552 367.735C313.728 367.051 314.863 366.3 315.953 365.485L316.09 365.377C316.348 365.177 316.596 364.979 316.832 364.781L317.023 364.616C317.232 364.436 317.434 364.256 317.625 364.076L317.816 363.894C317.996 363.719 318.167 363.543 318.331 363.37C318.387 363.309 318.443 363.251 318.497 363.19C318.659 363.01 318.808 362.832 318.947 362.654C318.99 362.603 319.035 362.551 319.075 362.497C319.226 362.299 319.365 362.101 319.493 361.905C319.795 361.451 320.038 360.96 320.217 360.445C320.267 360.294 320.307 360.146 320.341 359.995C320.368 359.898 340.393 260.228 340.393 260.228L360.418 160.553H337.778L303.566 372.053C304.148 371.823 304.712 371.591 305.259 371.355Z" fill="#BD291A"/>
<path d="M246.61 221.127L248.038 160.558H217.016L218.27 214.224C228.943 216.312 238.39 218.613 246.61 221.127Z" fill="#BD291A"/>
<path d="M286.628 249.131C289.807 261.533 285.504 328.614 278.358 379.406C279.181 379.235 279.995 379.06 280.801 378.881L281.3 378.769C281.919 378.632 282.532 378.493 283.139 378.35L283.335 378.303L308.424 160.564H277.402L272.518 232.26C280.262 237.201 285.003 242.786 286.628 249.131Z" fill="#BD291A"/>
<path d="M187.32 209.135C188.566 209.306 189.782 209.481 191.005 209.657L187.651 160.558H156.629L161.741 205C169.514 206.465 178.041 207.843 187.32 209.135Z" fill="#BD291A"/>
<path d="M133.452 198.475L127.265 160.558H104.619L110.549 190.069C115.953 192.807 123.583 195.671 133.452 198.475Z" fill="#BD291A"/>
<path d="M190.532 202.846C180.054 201.946 170.172 200.691 161.061 199.1L156.619 160.558H187.641L190.532 202.846ZM132.415 192.114L127.265 160.558H104.619L108.495 179.842C114.036 184.583 122.194 188.687 132.415 192.114ZM247.006 204.358L248.037 160.558H217.015L218.047 204.367C222.802 204.495 227.63 204.56 232.531 204.563C237.431 204.566 242.256 204.498 247.006 204.358ZM308.425 160.558H277.403L274.525 202.792C284.96 201.879 294.854 200.623 303.998 199.053L308.425 160.558ZM360.422 160.558H337.779L332.64 192.325C342.681 189.137 350.749 185.389 356.284 181.163L360.422 160.558Z" fill="#992215"/>
<path d="M364.684 160.333C364.781 169.558 361.353 171.463 352.482 177.172C331.561 190.638 284.796 197.973 232.529 197.973C182.055 197.973 138.514 191.065 116.149 178.51C104.626 172.044 101.807 172.24 100.276 159.212C98.3945 143.248 160.438 134.125 232.522 134.125C304.605 134.125 364.509 144.25 364.684 160.333Z" fill="#D4D4D4"/>
<path d="M364.775 159.212C364.775 175.615 306.076 191.162 232.522 191.162C158.969 191.162 100.27 175.626 100.27 159.212C100.27 142.798 158.966 129.512 232.522 129.512C306.078 129.512 364.775 142.81 364.775 159.212Z" fill="#E6E6E6"/>
<path d="M250.622 190.928C203.455 194.1 132.851 187.159 107.066 169.02L107.174 168.867C142.692 189.675 218.768 189.688 250.617 190.741L250.622 190.928Z" fill="white"/>
<path d="M232.522 184.014C198.623 184.014 166.79 181.078 142.891 175.747C115.61 169.675 108.338 162.493 108.338 159.212C108.338 155.932 115.61 148.75 142.891 142.675C166.79 137.347 198.623 134.41 232.522 134.41C266.422 134.41 298.253 137.347 322.154 142.675C349.428 148.75 356.707 155.932 356.707 159.212C356.707 162.493 349.428 169.675 322.154 175.75C298.253 181.078 266.422 184.014 232.522 184.014Z" fill="#D1D1D1"/>
<path d="M108.689 160.585C110.423 164.234 118.956 170.41 142.89 175.747C166.788 181.077 198.622 184.014 232.521 184.014C266.42 184.014 298.252 181.077 322.152 175.747C343.957 170.887 352.97 165.33 355.717 161.62C354.465 158.586 352.408 155.954 349.768 154.008C342.831 148.806 244.143 142.112 222.612 142.733C201.081 143.354 160.46 156.348 129.362 154.208C114.139 153.144 109.481 156.69 108.689 160.585Z" fill="#D4B889"/>
<path d="M322.501 139.685C322.501 139.685 320.952 147.58 316.744 149.11C312.536 150.64 308.179 152.982 305.054 150.093C301.93 147.204 296.571 142.675 296.393 137.887C296.215 133.099 294.628 126.691 297.517 123.937C300.406 121.183 305.992 117.664 308.429 119.063C310.865 120.463 316.141 121.619 317.98 124.913C319.819 128.207 324.407 132.174 322.501 139.685Z" fill="#FFFCD6"/>
<path d="M308.417 119.061C309.26 119.547 310.441 120.001 311.708 120.526C310.987 123.165 302.694 123.127 304.74 125.647C307.188 128.666 303.616 133.103 307.729 135.772C311.843 138.44 308.426 141.028 308.505 144.967C308.584 148.907 313.001 146.722 317.841 145.982C318.985 145.807 320.111 145.012 321.161 143.901C320.246 146.043 318.819 148.347 316.744 149.101C312.538 150.628 308.179 152.973 305.054 150.084C301.93 147.195 296.571 142.675 296.393 137.887C296.215 133.099 294.628 126.691 297.517 123.937C300.406 121.183 305.981 117.661 308.417 119.061Z" fill="#FAEDC5"/>
<path d="M296.394 137.887C295.764 133.571 294.418 128.756 295.607 125.327C296.45 122.564 304.711 115.706 309.338 118.114C311.136 119.11 315.632 120.139 318.199 123.048C318.476 123.359 318.723 123.696 318.936 124.054C322.025 129.17 326.4 133.22 322.212 142.996C321.124 145.471 319.364 148.396 316.745 149.11C318.993 147.964 320.312 144.99 321.002 142.555C323.7 133.544 320.2 130.63 317.322 126.279C314.917 122.393 311.99 122.436 307.908 120.226C305.66 119.018 298.131 123.781 297.196 125.962C295.897 128.666 296.646 134.001 296.394 137.887Z" fill="#F2D9AE"/>
<path d="M277.671 112.653C277.671 112.653 275.853 104.814 271.602 103.428C267.351 102.042 262.909 99.8505 259.881 102.845C256.853 105.84 251.649 110.542 251.646 115.342C251.644 120.141 250.264 126.592 253.234 129.249C256.203 131.906 261.92 135.227 264.307 133.749C266.694 132.271 271.928 130.932 273.654 127.582C275.381 124.231 279.834 120.094 277.671 112.653Z" fill="#FFFCD6"/>
<path d="M264.303 133.747C265.13 133.234 266.297 132.736 267.542 132.172C266.73 129.559 258.442 129.883 260.4 127.291C262.745 124.193 259.024 119.88 263.044 117.063C267.063 114.246 263.559 111.787 263.493 107.838C263.428 103.889 267.917 105.932 272.787 106.506C273.937 106.641 275.091 107.406 276.179 108.47C275.192 106.362 273.686 104.11 271.586 103.426C267.328 102.042 262.893 99.8482 259.865 102.843C256.837 105.838 251.633 110.54 251.631 115.339C251.629 120.139 250.248 126.589 253.218 129.247C256.188 131.904 261.915 135.229 264.303 133.747Z" fill="#FAEDC5"/>
<path d="M283.142 109.269C278.752 111.294 276.832 112.327 273.671 116.66C270.511 120.994 270.074 123.358 272.098 127.343C274.121 131.328 280.853 139.374 284.826 138.017C288.798 136.66 294.717 136.892 297.156 134.291C299.595 131.69 303.749 124.517 301.955 121.241C300.161 117.965 294.647 114.505 294.366 112.45C294.085 110.396 287.532 107.242 283.142 109.269Z" fill="#FFFCD6"/>
<path d="M294.24 112.471C293.215 111.053 289.126 110.149 287.721 109.753C286.597 109.429 285.331 109.046 284.108 109.327C279.444 110.599 272.127 120.055 271.036 122.404L270.791 122.377C270.072 118.741 274.258 111.577 280.132 109.973C284.877 108.376 287.602 106.321 292.003 109.021C293.147 109.721 294.638 111.098 294.489 112.437L294.24 112.471Z" fill="#F2D9AE"/>
<path d="M284.942 113.17C284.942 113.17 279.605 115.828 278.223 118.426C276.84 121.025 277.787 122.656 278.713 126.052C279.639 129.447 285.182 131.326 288.154 131.609C291.126 131.893 297.58 130.313 294.97 127.784C292.36 125.255 289.66 125.944 290.186 121.081C290.712 116.219 289.105 113.107 284.942 113.17Z" fill="#DD9839"/>
<path d="M285.024 116.618C285.024 116.618 280.564 120.238 281.369 122.218C282.173 124.198 285.019 127.843 286.827 127.915C288.634 127.987 289.538 127.726 288.364 126.169C287.191 124.612 286.46 124.317 286.328 121.824C286.195 119.331 287.712 114.932 285.024 116.618Z" fill="#B36A1F"/>
<path d="M208.248 104.962C208.875 109.762 209.291 111.901 212.483 116.212C215.675 120.523 217.806 121.633 222.203 120.899C226.6 120.166 236.284 116.111 236.17 111.899C236.055 107.687 238.033 102.107 236.282 99.0111C234.531 95.9151 228.92 89.8019 225.267 90.5444C221.614 91.2869 216.669 95.5304 214.625 95.1996C212.582 94.8689 207.621 100.163 208.248 104.962Z" fill="#FFFCD6"/>
<path d="M212.496 104.402C214.245 115.263 218.384 114.026 222.931 114.185C226.447 114.307 229.886 109.573 231.042 106.814C232.197 104.056 232.615 97.4206 229.423 99.1643C226.231 100.908 226.087 103.691 221.605 101.741C217.122 99.7898 213.685 100.404 212.496 104.402Z" fill="#DD9839"/>
<path d="M215.817 105.349C215.817 105.349 217.946 110.689 220.074 110.509C222.203 110.329 226.515 108.691 227.133 106.987C227.751 105.284 227.758 104.339 225.921 104.998C224.085 105.658 223.59 106.267 221.174 105.653C218.757 105.039 215.01 102.278 215.817 105.349Z" fill="#B36A1F"/>
<path d="M237.572 103.372C237.572 103.372 230.356 100.611 227.301 105.559C224.246 110.506 221.334 108.709 220.725 113.222C220.116 117.736 215.31 118.847 222.494 123.723C229.679 128.599 230.05 132.669 236.573 132.973C243.097 133.276 244.599 134.968 248.892 129.742C253.186 124.515 260.004 124.272 257.578 119.061C255.153 113.85 249.63 101.558 237.572 103.372Z" fill="#FFFCD6"/>
<path d="M222.042 110.313C221.228 111.51 221.368 112.563 221.296 113.843C220.99 118.152 217.488 118.485 222.663 122.125C229.924 127.399 229.901 130.241 233.592 132.475C231.054 132.282 228.889 130.45 226.896 128.783C221.051 124.096 219.554 123.802 218.021 121.419C215.997 117.837 219.052 116.545 220.269 112.689C220.603 111.706 221.125 110.794 222.042 110.313Z" fill="#F2D9AE"/>
<path d="M244.888 110.682C244.888 110.682 243.481 107.181 239.171 108.007C234.862 108.832 231.463 108.085 228.575 111.629C225.686 115.173 230.162 118.773 232.203 122.159C234.244 125.545 237.625 130.187 238.722 125.777C239.819 121.367 235.8 121.444 243.164 118.786C250.528 116.129 245.466 111.625 244.888 110.682Z" fill="#DD9839"/>
<path d="M243.153 118.786C250.248 116.226 245.817 111.955 244.967 110.801C244.365 110.808 243.764 110.86 243.169 110.956C238.738 111.658 237.198 109.433 237.879 112.142C238.561 114.851 237.275 113.803 235.265 115.245C233.255 116.687 238.878 123.952 236.164 124.02C235.351 124.09 234.553 124.278 233.795 124.58C235.69 127.204 237.879 129.159 238.713 125.77C239.799 121.367 235.791 121.444 243.153 118.786Z" fill="#B36A1F"/>
<path d="M266.72 141.181C266.72 141.181 271.855 134.989 270.38 130.759C268.905 126.529 267.968 121.666 263.751 121.075C259.534 120.483 252.646 119.171 248.827 122.071C245.007 124.972 239.039 127.777 238.724 131.746C238.41 135.715 239.223 142.283 241.847 143.289C244.47 144.295 248.698 147.656 252.412 147.006C256.126 146.356 262.11 147.4 266.72 141.181Z" fill="#FFFCD6"/>
<path d="M241.851 143.287C242.75 143.635 243.86 144.265 245.065 144.916C246.652 142.686 241.381 136.278 244.616 136.271C248.5 136.271 249.68 130.691 254.352 132.19C259.023 133.688 258.872 129.4 261.974 126.979C265.077 124.558 266.167 129.352 268.658 133.58C269.247 134.577 269.332 135.954 269.148 137.47C270.227 135.407 271.108 132.844 270.38 130.759C268.905 126.529 267.967 121.666 263.755 121.066C259.542 120.465 252.65 119.162 248.831 122.062C245.011 124.963 239.043 127.768 238.728 131.737C238.413 135.706 239.227 142.281 241.851 143.287Z" fill="#FAEDC5"/>
<path d="M208.82 104.317C208.82 104.317 202.917 99.8168 198.839 104.519C194.761 109.222 192.545 106.673 190.829 111.425C189.114 116.177 184.414 116.361 189.741 123.161C195.069 129.96 194.356 134.431 200.26 136.134C206.163 137.837 207.105 139.986 212.399 135.234C217.693 130.482 224 131.659 223.122 125.509C222.243 119.36 220.345 104.897 208.82 104.317Z" fill="#FFFCD6"/>
<path d="M213.641 113.769C213.641 113.769 213.255 109.685 209.091 109.67C204.928 109.654 202.004 108.131 198.438 111.355C194.873 114.579 198.049 119.419 199.045 123.505C200.041 127.591 201.943 133.335 204.078 128.792C206.214 124.249 202.521 123.487 209.957 122.164C217.393 120.841 213.927 114.917 213.641 113.769Z" fill="#DD9839"/>
<path d="M209.957 122.173C217.124 120.897 214.165 115.342 213.684 113.915C213.128 113.794 212.562 113.724 211.994 113.704C207.747 113.528 206.911 110.797 206.837 113.87C206.763 116.944 205.852 115.54 203.636 116.676C201.419 117.812 204.699 126.859 202.193 126.369C201.42 126.272 200.636 126.308 199.875 126.475C200.936 129.715 202.44 132.291 204.079 128.801C206.214 124.258 202.521 123.496 209.957 122.173Z" fill="#B36A1F"/>
<path d="M301.804 130.3C301.804 130.3 292.535 127.962 288.765 131.713C284.996 135.463 280.259 138.964 281.774 143.797C283.289 148.63 285.427 156.694 290.496 159.309C295.565 161.923 301.628 166.889 306.048 165.19C310.467 163.491 317.088 159.252 316.82 155.918C316.553 152.584 317.987 146.324 315.388 142.675C312.789 139.025 310.838 132.059 301.804 130.3Z" fill="#FAEDC5"/>
<path d="M316.815 155.92C316.722 154.766 316.833 153.261 316.911 151.645C313.708 151.083 309.545 160.029 307.872 156.548C305.871 152.381 299.294 153.972 298.505 148.187C297.716 142.402 293.211 144.774 289.018 142.688C284.826 140.602 289.412 136.969 292.665 132.129C293.433 130.984 294.859 130.176 296.585 129.609C293.82 129.505 290.621 129.874 288.76 131.724C284.981 135.477 280.254 138.976 281.769 143.809C283.284 148.642 285.422 156.706 290.491 159.32C295.56 161.935 301.623 166.9 306.042 165.202C310.462 163.503 317.082 159.255 316.815 155.92Z" fill="#E8CA97"/>
<path d="M202.268 123.748C202.268 123.748 198.762 130.273 200.866 133.823C202.97 137.374 204.703 141.588 208.617 141.361C212.53 141.133 218.984 141.048 221.904 137.731C224.825 134.415 229.696 130.792 229.255 127.156C228.815 123.52 226.884 117.727 224.33 117.297C221.776 116.867 217.348 114.608 214.117 115.875C210.887 117.142 205.303 117.286 202.268 123.748Z" fill="#FFFCD6"/>
<path d="M224.33 117.297C223.444 117.148 222.336 116.782 221.131 116.417C220.106 118.717 226.032 123.538 223.105 124.137C219.6 124.855 219.553 130.102 215.062 129.602C210.57 129.103 211.499 132.939 209.143 135.7C206.787 138.46 204.926 134.325 201.904 130.975C201.192 130.18 200.855 128.95 200.753 127.55C200.156 129.609 199.827 132.084 200.866 133.834C202.968 137.383 204.703 141.599 208.617 141.372C212.531 141.145 218.985 141.059 221.905 137.743C224.825 134.426 229.696 130.804 229.255 127.168C228.815 123.532 226.884 117.727 224.33 117.297Z" fill="#FAEDC5"/>
<path d="M302.786 160.294C302.786 160.294 307.157 165.064 311.374 161.644C315.591 158.224 317.09 160.76 319.293 156.953C321.496 153.146 325.549 153.704 322.022 147.053C318.495 140.402 319.79 136.685 314.991 134.32C310.191 131.956 309.712 129.971 304.457 133.234C299.201 136.496 293.965 134.521 293.779 139.925C293.592 145.33 292.997 158.031 302.786 160.294Z" fill="#FFFCD6"/>
<path d="M316.861 135.738C316.027 135.304 313.869 134.676 311.967 133.762C308.805 132.268 309.074 132.039 302.976 134.462C294.101 138.096 295.051 135.99 295.013 143.966C294.957 147.4 294.998 150.732 295.688 154.222L295.463 154.325C293.316 151.535 292.516 147.517 292.383 144C292.084 132.178 297.407 136.456 302.659 133.735C304.477 132.858 306.111 130.54 308.8 130.43C311.516 130.43 316.385 134.5 317.025 135.558L316.861 135.738Z" fill="#F2D9AE"/>
<path d="M300.101 151.45C300.101 151.45 299.807 155.011 303.374 155.662C306.942 156.312 309.219 158.069 312.762 155.851C316.304 153.632 314.335 148.999 314.11 145.336C313.886 141.673 313.13 136.467 310.606 140.033C308.081 143.599 311.13 144.819 304.554 144.814C297.979 144.81 300.031 150.426 300.101 151.45Z" fill="#DD9839"/>
<path d="M304.544 144.817C298.204 144.817 299.89 150.025 300.084 151.324C300.543 151.511 301.018 151.658 301.502 151.762C305.115 152.563 305.411 155.034 305.947 152.41C306.482 149.787 307.046 151.13 309.118 150.496C311.191 149.861 309.766 141.604 311.841 142.409C312.488 142.61 313.164 142.699 313.841 142.672C313.428 139.734 312.535 137.295 310.595 140.036C308.069 143.602 311.119 144.821 304.544 144.817Z" fill="#B36A1F"/>
<path d="M282.62 133.432C282.62 133.432 280.757 125.928 274.953 126.25C269.148 126.572 268.957 123.156 264.911 125.235C260.865 127.314 257.212 124 257.317 132.694C257.423 141.388 254.309 144.025 257.789 149.542C261.269 155.059 260.745 157.273 267.483 157.808C274.22 158.344 278.32 163.804 281.195 158.832C284.07 153.859 291.003 142.297 282.62 133.432Z" fill="#FFFCD6"/>
<path d="M268.05 124.652C265.596 124.682 266.126 126.198 260.958 127.276C260.5 127.367 260.063 127.541 259.668 127.789C258.357 128.799 258.89 132.998 258.544 135.74C257.973 140.814 256.266 143.309 256.5 146.803C254.808 143.932 255.79 140.278 255.907 135.554C256.109 130.91 255.192 125.53 260.655 125.136C262.79 125.017 262.72 125.181 264.618 124.706C265.674 124.369 266.897 124.049 268.05 124.652Z" fill="#F2D9AE"/>
<path d="M280.813 143.622C280.813 143.622 282.877 140.472 279.736 137.398C276.596 134.325 275.265 131.114 270.709 130.768C266.152 130.421 265.763 136.156 264.151 139.768C262.539 143.379 260.674 148.81 264.909 147.181C269.144 145.552 266.79 142.303 273.179 146.828C279.568 151.353 280.368 144.639 280.813 143.622Z" fill="#DD9839"/>
<path d="M273.178 146.83C279.333 151.191 280.302 145.111 280.763 143.755C280.412 143.263 280.024 142.799 279.603 142.366C276.494 139.129 277.438 136.591 275.608 138.699C273.778 140.807 273.899 139.149 271.562 138.325C269.224 137.502 266.497 146.275 264.885 144.088C264.362 143.461 263.751 142.914 263.071 142.463C262.003 145.519 261.653 148.435 264.908 147.188C269.145 145.552 266.789 142.306 273.178 146.83Z" fill="#B36A1F"/>
<path d="M217.686 154.615C217.686 154.615 215.822 147.112 210.018 147.436C204.214 147.76 204.023 144.34 199.976 146.419C195.93 148.498 192.277 145.186 192.383 153.88C192.488 162.574 189.373 165.197 192.855 170.728C196.337 176.258 195.809 178.459 202.548 178.992C209.287 179.525 213.385 184.988 216.261 180.016C219.136 175.043 226.069 163.48 217.686 154.615Z" fill="#FFFCD6"/>
<path d="M215.869 164.806C215.869 164.806 217.933 161.656 214.792 158.584C211.652 155.513 210.321 152.298 205.762 151.954C201.203 151.61 200.817 157.354 199.207 160.954C197.598 164.554 195.73 169.999 199.965 168.379C204.2 166.759 201.846 163.503 208.235 168.028C214.624 172.552 215.433 165.823 215.869 164.806Z" fill="#DD9839"/>
<path d="M208.243 168.016C214.398 172.374 215.365 166.3 215.826 164.95C215.476 164.458 215.089 163.993 214.668 163.561C211.559 160.324 212.503 157.788 210.673 159.896C208.843 162.004 208.965 160.346 206.627 159.523C204.289 158.699 201.556 167.47 199.941 165.285C199.42 164.657 198.81 164.108 198.13 163.658C197.062 166.716 196.711 169.632 199.966 168.383C204.208 166.75 201.855 163.492 208.243 168.016Z" fill="#B36A1F"/>
<path d="M236.473 100.224C236.473 100.224 233.375 105.478 237.727 108.313C242.079 111.148 240.2 113.2 244.327 114.12C248.455 115.04 249.12 118.831 254.18 113.814C259.24 108.796 263.028 108.922 263.797 103.955C264.566 98.9865 266.247 98.0033 261.731 94.1918C257.215 90.3803 257.503 85.1288 252.497 86.4653C247.49 87.8018 235.7 90.8033 236.473 100.224Z" fill="#FFFCD6"/>
<path d="M236.473 100.224C235.639 102.699 235.504 105.482 237.597 107.066C238.892 107.919 240.537 108.68 241.89 110.858C243.637 113.558 243.464 111.668 248.288 114.352C251.244 116.066 251.885 113.612 256.001 110.779C259.038 108.529 262.81 107.757 263.801 103.955C263.765 108.302 260.758 109.445 257.336 112.505C253.694 115.792 251.656 119.466 246.917 116.78C242.74 114.305 241.953 115.958 239.804 112.118C237.853 108.626 235.533 109.044 234.931 105.633C234.607 103.561 235.367 101.671 236.473 100.224Z" fill="#E8CDA0"/>
<path d="M243.79 95.3506C243.79 95.3506 240.443 96.0774 240.884 99.4613C241.324 102.845 240.378 105.377 243.442 107.946C246.506 110.516 250.172 107.444 253.461 106.22C256.75 104.996 261.3 102.87 257.298 101.594C253.297 100.319 253.068 103.394 251.159 97.4926C249.251 91.5909 244.71 95.0019 243.79 95.3506Z" fill="#DD9839"/>
<path d="M251.163 97.4926C249.326 91.7979 245.039 94.7656 243.909 95.3011C243.866 95.7651 243.866 96.2321 243.909 96.6961C244.226 100.161 242.05 101.117 244.608 100.868C247.166 100.618 246.1 101.498 247.285 103.183C248.47 104.868 255.616 101.288 255.481 103.374C255.486 104.013 255.601 104.646 255.821 105.246C258.392 104.056 260.368 102.573 257.293 101.594C253.298 100.321 253.069 103.399 251.163 97.4926Z" fill="#B36A1F"/>
<path d="M152.596 119.473C152.596 119.473 149.498 124.724 153.85 127.561C158.203 130.399 156.323 132.448 160.451 133.366C164.578 134.284 165.243 138.091 170.303 133.063C175.364 128.034 179.149 128.169 179.92 123.203C180.691 118.237 182.375 117.25 177.854 113.438C173.334 109.627 173.624 104.377 168.62 105.714C163.616 107.05 151.821 110.05 152.596 119.473Z" fill="#FFFCD6"/>
<path d="M159.909 114.597C159.909 114.597 156.564 115.326 157.005 118.71C157.445 122.094 156.499 124.623 159.563 127.192C162.627 129.762 166.293 126.693 169.582 125.467C172.871 124.24 177.428 122.116 173.42 120.85C169.411 119.583 169.187 122.65 167.28 116.746C165.374 110.842 160.831 114.248 159.909 114.597Z" fill="#DD9839"/>
<path d="M167.28 116.739C165.444 111.047 161.157 114.012 160.024 114.548C159.981 115.012 159.981 115.478 160.024 115.943C160.341 119.41 158.165 120.366 160.723 120.116C163.281 119.867 162.216 120.746 163.4 122.432C164.585 124.117 171.731 120.535 171.596 122.621C171.601 123.259 171.716 123.893 171.936 124.493C174.508 123.305 176.481 121.822 173.408 120.843C169.418 119.567 169.187 122.65 167.28 116.739Z" fill="#B36A1F"/>
<path d="M239.231 159.293C239.231 159.293 232.195 162.475 233.56 168.138C234.924 173.801 231.6 174.6 234.374 178.206C237.148 181.813 234.549 186.009 243.073 184.335C251.598 182.661 254.74 185.258 259.544 180.832C264.348 176.407 266.61 176.528 265.917 169.796C265.225 163.064 269.856 158.044 264.447 156.105C259.038 154.165 246.441 149.443 239.231 159.293Z" fill="#FFFCD6"/>
<path d="M249.572 159.235C249.572 159.235 246.094 157.772 243.651 161.417C241.207 165.062 238.28 166.954 238.764 171.504C239.247 176.053 244.952 175.401 248.794 176.332C252.636 177.264 258.308 178.132 255.943 174.249C253.578 170.365 250.808 173.275 254.104 166.171C257.399 159.068 250.651 159.489 249.572 159.235Z" fill="#DD9839"/>
<path d="M254.105 166.171C257.28 159.325 251.129 159.469 249.713 159.259C249.293 159.693 248.906 160.159 248.557 160.652C245.936 164.297 243.272 163.825 245.676 165.247C248.079 166.669 246.429 166.846 246.037 169.296C245.646 171.747 254.762 172.856 252.905 174.838C252.383 175.466 251.955 176.166 251.635 176.917C254.834 177.414 257.763 177.232 255.944 174.255C253.577 170.372 250.81 173.274 254.105 166.171Z" fill="#B36A1F"/>
<path d="M203.659 147.55C203.659 147.55 207.088 138.618 203.819 134.417C200.551 130.216 197.642 125.098 192.667 126.025C187.692 126.952 179.438 128.111 176.239 132.835C173.04 137.56 167.388 142.99 168.544 147.586C169.699 152.183 173.114 159.266 176.452 159.399C179.791 159.532 185.831 161.705 189.763 159.559C193.694 157.412 200.836 156.319 203.659 147.55Z" fill="#FFFCD6"/>
<path d="M176.453 159.401C177.611 159.446 179.09 159.736 180.693 160.009C181.633 156.895 173.259 151.684 176.912 150.442C181.282 148.952 180.491 142.225 186.324 142.132C192.158 142.04 190.344 137.279 192.913 133.357C195.483 129.436 198.533 134.431 202.953 138.242C203.996 139.142 204.627 140.654 204.976 142.438C205.405 139.705 205.425 136.483 203.811 134.41C200.54 130.207 197.634 125.091 192.659 126.02C187.684 126.949 179.43 128.106 176.231 132.831C173.032 137.556 167.381 142.985 168.536 147.582C169.692 152.179 173.115 159.268 176.453 159.401Z" fill="#FAEDC5"/>
<path d="M195.332 122.85C195.332 122.85 193.513 115.011 189.263 113.625C185.012 112.239 180.576 110.05 177.537 113.044C174.498 116.039 169.305 120.742 169.301 125.541C169.296 130.34 167.92 136.791 170.89 139.448C173.859 142.105 179.574 145.426 181.963 143.948C184.353 142.47 189.582 141.131 191.308 137.781C193.035 134.431 197.495 130.3 195.332 122.85Z" fill="#FFFCD6"/>
<path d="M181.962 143.944C182.787 143.431 183.956 142.936 185.202 142.369C184.397 139.75 176.102 140.078 178.06 137.5C180.402 134.399 176.684 130.075 180.703 127.269C184.723 124.463 181.218 121.993 181.153 118.044C181.088 114.095 185.588 116.125 190.466 116.708C191.617 116.843 192.768 117.608 193.858 118.672C192.869 116.564 191.363 114.311 189.264 113.627C185.008 112.244 180.573 110.05 177.545 113.045C174.517 116.039 169.313 120.742 169.308 125.541C169.304 130.34 167.928 136.791 170.898 139.448C173.867 142.106 179.573 145.427 181.962 143.944Z" fill="#FAEDC5"/>
<path d="M169.3 125.541C170.242 135.007 167.443 137.493 176.494 141.896C180.635 143.856 181.008 142.927 183.125 141.896C190.348 138.521 188.903 138.784 191.757 134.653C195.217 129.742 195.804 126.151 193.733 120.028C192.965 117.63 191.546 114.696 189.253 113.625C192.965 114.496 195.354 119.833 196.379 123.525C197.71 128.272 196.422 131.922 193.844 136.003C190.308 141.734 191.398 140.672 182.435 145.109C180.295 146.207 177.575 145.035 175.448 143.93C166.09 138.976 168.273 134.811 169.3 125.541Z" fill="#F2D9AE"/>
<path d="M156.437 142.112C156.437 142.112 160 134.899 157.586 131.126C155.172 127.352 153.135 122.841 148.895 123.235C144.656 123.629 137.655 123.957 134.609 127.665C131.564 131.373 126.411 135.486 127.025 139.423C127.639 143.361 129.947 149.56 132.735 149.931C135.522 150.302 140.412 152.59 143.869 151.096C147.326 149.602 153.394 149.238 156.437 142.112Z" fill="#FFFCD6"/>
<path d="M132.735 149.931C133.699 150.059 134.915 150.417 136.237 150.768C137.267 148.232 130.655 143.221 133.809 142.461C137.586 141.561 137.444 135.857 142.336 136.233C147.227 136.609 146.079 132.48 148.533 129.398C150.988 126.315 153.162 130.734 156.563 134.269C157.368 135.103 157.779 136.42 157.941 137.941C158.512 135.691 158.777 132.991 157.586 131.126C155.172 127.352 153.135 122.841 148.895 123.235C144.656 123.629 137.655 123.957 134.609 127.665C131.564 131.373 126.411 135.486 127.025 139.423C127.639 143.361 129.949 149.56 132.735 149.931Z" fill="#FAEDC5"/>
<path d="M134.609 127.665C131.826 131.843 127.472 135.54 127.955 139.284C129.99 148.862 133.146 148.662 134.924 149.092C137.574 149.767 141.072 150.833 143.199 149.992C150.826 147.719 154.131 146.5 156.986 138.931C157.916 136.577 158.672 133.414 157.581 131.137C159.894 134.161 158.364 139.806 156.813 143.318C154.834 147.832 151.525 149.843 146.944 151.353C140.508 153.562 142.223 153.443 132.355 151.148C130.003 150.64 128.643 147.998 127.701 145.802C123.617 136.022 127.946 134.172 134.609 127.665Z" fill="#F2D9AE"/>
<path d="M150.336 127.692C150.336 127.692 142.917 129.55 143.25 135.299C143.583 141.048 140.2 141.244 142.263 145.249C144.327 149.254 141.058 152.878 149.652 152.755C158.246 152.631 160.849 155.718 166.31 152.257C171.77 148.797 173.953 149.317 174.465 142.641C174.978 135.965 180.375 131.895 175.452 129.049C170.529 126.202 159.085 119.372 150.336 127.692Z" fill="#FFFCD6"/>
<path d="M157.18 153.443C160.448 153.358 162.35 153.776 165.722 151.351C170.395 147.805 172.493 148.689 173.082 143.026C173.687 137.747 175.845 135.544 176.744 132.838C176.988 132.2 177.014 131.5 176.818 130.846C176.618 130.171 176.029 129.611 175.469 129.046C176.189 129.359 177 129.699 177.508 130.473C178.016 131.247 178.169 132.214 178.102 133.087C177.877 134.836 177.279 136.339 176.825 137.812C174.802 144.562 176.91 147.964 171.074 151.049C164.704 154.251 163.368 155.74 157.18 153.443Z" fill="#F2D9AE"/>
<path d="M160.413 129.463C160.413 129.463 157.288 127.424 154.262 130.54C151.237 133.657 148.056 134.982 147.723 139.498C147.39 144.013 153.06 144.387 156.636 145.973C160.213 147.559 165.585 149.402 163.965 145.21C162.344 141.019 159.138 143.354 163.6 137.018C168.063 130.682 161.42 129.901 160.413 129.463Z" fill="#DD9839"/>
<path d="M163.602 137.018C167.904 130.914 161.889 129.967 160.547 129.512C160.062 129.861 159.604 130.246 159.176 130.662C155.979 133.749 153.47 132.817 155.559 134.626C157.647 136.435 156.008 136.318 155.197 138.629C154.385 140.94 163.065 143.638 160.907 145.24C160.286 145.758 159.746 146.364 159.301 147.04C162.327 148.09 165.211 148.432 163.966 145.21C162.347 141.016 159.14 143.35 163.602 137.018Z" fill="#B36A1F"/>
<path d="M333.384 135.281C333.384 135.281 327.48 130.781 323.4 135.484C319.32 140.186 317.106 137.637 315.393 142.389C313.68 147.141 308.975 147.325 314.303 154.125C319.63 160.924 318.92 165.395 324.823 167.098C330.726 168.802 331.666 170.948 336.962 166.198C342.259 161.449 348.564 162.623 347.685 156.474C346.806 150.325 344.902 135.862 333.384 135.281Z" fill="#FFFCD6"/>
<path d="M338.203 144.733C338.203 144.733 337.816 140.65 333.662 140.634C329.508 140.618 326.572 139.095 323.007 142.319C319.441 145.543 322.618 150.383 323.616 154.469C324.614 158.555 326.513 164.299 328.649 159.757C330.785 155.214 327.091 154.449 334.525 153.128C341.959 151.807 338.488 145.881 338.203 144.733Z" fill="#DD9839"/>
<path d="M334.519 153.137C341.686 151.861 338.728 146.306 338.249 144.877C337.692 144.758 337.125 144.688 336.556 144.668C332.312 144.493 331.476 141.761 331.401 144.835C331.327 147.908 330.415 146.504 328.2 147.64C325.986 148.777 329.264 157.824 326.757 157.333C325.984 157.237 325.2 157.273 324.439 157.439C325.5 160.677 327.002 163.255 328.643 159.766C330.779 155.223 327.085 154.458 334.519 153.137Z" fill="#B36A1F"/>
<path d="M295.683 163.919C295.683 163.919 292.587 169.173 296.939 172.019C301.291 174.865 299.412 176.908 303.539 177.826C307.667 178.744 308.332 182.538 313.392 177.52C318.452 172.503 322.238 172.629 323.009 167.661C323.78 162.693 325.457 161.712 320.941 157.898C316.425 154.084 316.712 148.835 311.706 150.172C306.7 151.508 294.909 154.498 295.683 163.919Z" fill="#FFFCD6"/>
<path d="M303.001 159.046C303.001 159.046 299.656 159.775 300.097 163.15C300.537 166.525 299.591 169.065 302.653 171.634C305.714 174.204 309.396 171.133 312.674 169.909C315.952 168.685 320.51 166.558 316.511 165.283C312.512 164.007 312.278 167.083 310.372 161.181C308.466 155.279 303.92 158.697 303.001 159.046Z" fill="#DD9839"/>
<path d="M310.371 161.188C308.534 155.495 304.247 158.461 303.114 158.996C303.075 159.46 303.079 159.927 303.125 160.391C303.442 163.856 301.266 164.812 303.825 164.563C306.383 164.313 305.317 165.195 306.5 166.878C307.682 168.561 314.833 164.983 314.698 167.069C314.703 167.708 314.818 168.341 315.037 168.941C317.609 167.751 319.583 166.27 316.51 165.289C312.508 164.016 312.277 167.094 310.371 161.188Z" fill="#B36A1F"/>
<path d="M314.746 150.325C315.499 151.484 316.395 152.542 317.415 153.475C319.067 154.946 324.242 157.525 324.415 161.642C324.445 162.449 324.226 163.246 323.788 163.924C323.562 162.625 322.912 161.438 321.94 160.549C319.512 158.137 313.775 155.468 314.746 150.325Z" fill="#F2D9AE"/>
<path d="M317.702 140.596C316.994 142.371 316.697 143.375 314.607 145.051C313.548 145.908 312.529 146.88 312.282 148.253C311.734 151.493 316.185 149.281 304.925 153.731C303.801 154.163 302.641 154.568 301.541 155.081C300.392 155.589 299.281 156.182 298.219 156.854C298.186 156.877 298.145 156.885 298.106 156.877C298.067 156.87 298.032 156.847 298.01 156.814C298.43 155.365 299.343 154.244 300.35 153.297C301.374 152.382 302.522 151.617 303.76 151.025C305.714 150.044 309.355 149.245 311.563 149.288L310.85 150.413C310.486 147.542 312.873 146.345 314.326 142.367C315.423 139.185 316.367 137.736 318.745 137.43C319.527 137.327 321.712 137.412 321.054 137.801C318.068 139.55 318.172 139.448 317.702 140.596Z" fill="#F2D9AE"/>
<path d="M132.038 166.646C132.038 166.646 140.167 166.327 141.075 160.27C141.983 154.213 145.544 154.746 144.27 150.127C142.995 145.507 147.192 142.443 138.2 140.695C129.208 138.946 127.185 135.169 120.745 137.578C114.304 139.988 112.151 138.973 110.159 145.813C108.167 152.653 101.673 155.725 106.169 159.752C110.665 163.78 121.115 173.401 132.038 166.646Z" fill="#FFFCD6"/>
<path d="M121.928 162.603C121.928 162.603 124.74 165.409 128.569 162.828C132.397 160.247 135.998 159.556 137.336 154.928C138.673 150.3 132.84 148.671 129.468 146.236C126.096 143.802 120.896 140.715 121.67 145.433C122.443 150.151 126.292 148.419 120.263 154.044C114.233 159.669 120.975 161.926 121.928 162.603Z" fill="#DD9839"/>
<path d="M120.253 154.039C114.446 159.457 120.502 161.757 121.802 162.522C122.383 162.265 122.943 161.964 123.479 161.622C127.48 159.104 129.89 160.623 128.109 158.283C126.329 155.943 128.008 156.422 129.357 154.195C130.706 151.967 122.258 147.262 124.861 146.065C125.62 145.661 126.315 145.147 126.925 144.54C124.002 142.787 121.08 141.802 121.669 145.426C122.431 150.149 126.282 148.414 120.253 154.039Z" fill="#B36A1F"/>
<path d="M249.648 137.565C247.454 132.55 246.327 130.363 241.496 126.7C236.666 123.037 234.011 122.501 229.47 124.686C224.929 126.871 215.701 134.332 217.151 138.861C218.601 143.39 218.216 150.077 221.092 152.883C223.967 155.689 231.985 160.549 235.715 158.589C239.444 156.629 243.477 150.471 245.801 150.196C248.126 149.922 251.837 142.576 249.648 137.565Z" fill="#FFFCD6"/>
<path d="M245.792 150.048C247.422 148.923 248.546 144.232 249.002 142.726C249.737 140.326 251.026 137.945 244.866 131.584C244.329 131.013 244.916 131.573 238.59 126.007C237.527 125.054 236.346 124.242 235.076 123.59L235.112 123.313C236.686 123.032 238.327 123.514 239.743 124.135C248.011 127.818 248.825 134.242 249.6 136.285C250.724 139.592 252.727 142.839 249.74 147.584C248.906 148.862 247.346 150.509 245.826 150.32L245.792 150.048Z" fill="#F2D9AE"/>
<path d="M245.203 139.525C239.873 128.275 235.761 130.948 230.795 132.205C226.942 133.184 224.703 139.405 224.319 142.767C223.935 146.128 225.58 153.454 228.489 150.556C231.398 147.658 230.681 144.589 236.157 145.289C241.633 145.989 245.185 144.227 245.203 139.525Z" fill="#DD9839"/>
<path d="M241.309 139.536C241.309 139.536 237.319 134.415 235.065 135.284C232.81 136.152 228.649 139.3 228.516 141.325C228.384 143.35 228.674 144.396 230.456 143.1C232.239 141.804 232.587 140.987 235.402 140.89C238.216 140.794 243.155 142.614 241.309 139.536Z" fill="#B36A1F"/>
<path d="M168.07 152.59C163.677 154.615 161.758 155.65 158.599 159.982C155.441 164.313 155.014 166.682 157.026 170.665C159.038 174.647 165.779 182.698 169.754 181.339C173.728 179.98 179.645 180.214 182.082 177.613C184.518 175.012 188.668 167.839 186.87 164.567C185.071 161.296 179.562 157.831 179.283 155.776C179.004 153.722 172.46 150.563 168.07 152.59Z" fill="#FFFCD6"/>
<path d="M179.167 155.794C178.153 154.388 174.159 153.501 172.648 153.074C170.351 152.417 168.509 151.458 162.867 156.924C162.37 157.41 158.549 161.975 158.043 162.573C157.219 163.53 156.521 164.589 155.966 165.723L155.721 165.694C155.001 162.054 159.205 154.894 165.061 153.292C169.843 151.681 172.538 149.643 176.933 152.338C178.077 153.038 179.567 154.417 179.417 155.756L179.167 155.794Z" fill="#F2D9AE"/>
<path d="M169.871 156.492C160.029 161.395 162.453 164.981 163.642 169.373C164.57 172.768 170.109 174.647 173.083 174.933C176.057 175.219 182.509 173.635 179.899 171.108C177.289 168.581 174.587 169.265 175.115 164.403C175.644 159.541 174.032 156.429 169.871 156.492Z" fill="#DD9839"/>
<path d="M169.952 159.939C169.952 159.939 165.49 163.559 166.297 165.539C167.104 167.519 169.945 171.164 171.755 171.238C173.565 171.312 174.466 171.047 173.29 169.49C172.115 167.933 171.388 167.64 171.254 165.147C171.119 162.654 172.641 158.253 169.952 159.939Z" fill="#B36A1F"/>
<path d="M293.941 174.465C296.174 170.509 297.048 168.664 296.639 163.568C296.23 158.472 294.935 156.386 290.479 154.343C286.024 152.3 274.791 149.638 272.439 152.845C270.088 156.051 265.021 159.068 264.796 162.412C264.572 165.755 266.145 173.623 269.928 175.218C273.712 176.814 280.719 176.555 282.382 178.013C284.046 179.471 291.711 178.42 293.941 174.465Z" fill="#FFFCD6"/>
<path d="M285.711 152.689C284.459 152.622 274.408 151.789 273.648 153.535C273.606 153.567 273.318 153.945 273.095 154.244C266.801 161.986 264.976 158.15 265.767 169.126C265.089 167.88 264.576 166.552 264.241 165.175C263.033 160.101 264.791 158.776 269.649 153.902C271.657 151.969 272.147 149.805 277.602 150.302C280.43 150.586 283.18 151.396 285.711 152.689Z" fill="#F2D9AE"/>
<path d="M289.716 172.375C289.716 172.375 292.292 167.425 291.625 164.632C290.957 161.84 289.031 161.084 285.886 158.926C282.741 156.769 276.822 158.281 274.151 159.662C271.481 161.044 267.225 165.76 271.159 166.331C275.093 166.903 276.862 164.911 279.823 169.004C282.783 173.097 286.302 174.672 289.716 172.375Z" fill="#DD9839"/>
<path d="M287.24 169.722C287.24 169.722 288.416 164.482 286.361 163.363C284.307 162.245 279.393 160.933 277.841 161.842C276.29 162.751 275.719 163.453 277.787 164.041C279.856 164.628 280.66 164.464 282.508 166.345C284.356 168.226 286.184 172.494 287.24 169.722Z" fill="#B36A1F"/>
<path d="M215.283 148.75C217.448 144.913 218.295 143.125 217.902 138.175C217.508 133.225 216.249 131.2 211.931 129.235C207.613 127.271 196.721 124.675 194.44 127.784C192.158 130.894 187.246 133.816 187.035 137.059C186.824 140.301 188.348 147.931 192.01 149.474C195.672 151.017 202.465 150.772 204.083 152.174C205.702 153.576 213.12 152.574 215.283 148.75Z" fill="#FFFCD6"/>
<path d="M207.305 127.631C205.956 127.557 196.35 126.731 195.615 128.453C195.575 128.482 195.296 128.846 195.08 129.128C189.64 135.828 187.212 132.991 187.972 143.554C186.981 141.722 186.358 139.713 186.138 137.641C185.616 134.228 189.485 131.051 191.737 128.79C193.417 127.172 193.664 126.315 194.952 125.8C195.689 125.478 196.478 125.292 197.281 125.251C198.003 125.195 198.73 125.207 199.45 125.287C202.191 125.572 204.855 126.367 207.305 127.631Z" fill="#F2D9AE"/>
<path d="M211.186 146.725C211.186 146.725 213.683 141.914 213.036 139.219C212.388 136.523 210.52 135.774 207.472 133.675C204.424 131.575 198.685 133.049 196.095 134.39C193.505 135.731 189.38 140.301 193.195 140.854C197.01 141.408 198.723 139.477 201.594 143.446C204.464 147.415 207.874 148.943 211.186 146.725Z" fill="#DD9839"/>
<path d="M208.786 144.144C208.786 144.144 209.926 139.063 207.934 137.979C205.942 136.894 201.19 135.623 199.673 136.505C198.155 137.387 197.616 138.067 199.619 138.636C201.622 139.205 202.406 139.048 204.205 140.87C206.003 142.693 207.761 146.83 208.786 144.144Z" fill="#B36A1F"/>
<path d="M137.945 149.31C137.945 149.31 130.418 152.707 129.877 157.275C129.335 161.842 128.013 166.752 131.63 169.2C135.247 171.648 141.011 175.975 145.848 175.014C150.686 174.053 157.446 174.159 159.525 170.635C161.604 167.112 163.796 160.686 161.838 158.575C159.88 156.465 157.482 151.456 153.766 150.385C150.05 149.314 145.001 145.642 137.945 149.31Z" fill="#FFFCD6"/>
<path d="M161.838 158.575C161.164 157.844 160.424 156.775 159.606 155.626C157.133 156.976 159.118 165.253 156.122 163.798C152.525 162.054 148.928 166.664 145.3 163.174C141.672 159.685 139.887 163.71 135.933 164.551C131.978 165.393 133.143 160.472 132.736 155.45C132.642 154.262 133.172 152.95 134.035 151.639C132.111 153.054 130.144 155.014 129.877 157.264C129.335 161.831 128.013 166.741 131.63 169.189C135.247 171.637 141.011 175.975 145.848 175.014C150.686 174.053 157.446 174.159 159.525 170.635C161.604 167.112 163.807 160.686 161.838 158.575Z" fill="#FAEDC5"/>
<path d="M148.88 174.535C152.227 173.657 156.851 172.942 158.492 170.615C159.805 168.502 162.244 161.955 161.043 159.633C158.503 157.059 157.332 153.047 152.726 151.355C151.492 150.892 150.401 150.37 149.293 149.935C145.676 148.529 140.888 147.06 132.703 152.719C134.36 150.867 136.459 149.429 138.687 148.255C144.307 145.298 148.99 147.332 154.403 149.274C155.428 149.628 156.377 150.174 157.197 150.885C158.196 151.756 159.1 152.73 159.895 153.792C163.386 158.44 164.782 159.156 163.226 164.718C160.765 173.342 157.844 174.321 148.88 174.535Z" fill="#F2D9AE"/>
<path d="M226.568 154.116C226.568 154.116 218.28 152.026 214.904 155.38C211.527 158.735 207.299 161.865 208.654 166.18C210.01 170.496 211.921 177.711 216.452 180.051C220.984 182.391 226.406 186.828 230.358 185.31C234.31 183.791 240.229 180 239.989 177.018C239.748 174.037 241.045 168.444 238.71 165.175C236.374 161.905 234.648 155.689 226.568 154.116Z" fill="#FFFCD6"/>
<path d="M239.99 177.023C239.907 175.99 240.008 174.645 240.078 173.198C237.214 172.696 233.489 180.695 231.985 177.583C230.187 173.857 224.315 175.279 223.609 170.106C222.904 164.934 218.887 167.046 215.137 165.174C211.387 163.302 215.49 160.062 218.396 155.724C219.084 154.701 220.359 153.978 221.903 153.474C219.431 153.384 216.571 153.713 214.905 155.369C211.533 158.724 207.3 161.853 208.656 166.169C210.012 170.484 211.922 177.7 216.454 180.04C220.986 182.38 226.408 186.817 230.36 185.298C234.312 183.78 240.231 180.004 239.99 177.023Z" fill="#FAEDC5"/>
<path d="M204.087 161.635C204.087 161.635 202.269 153.796 198.018 152.41C193.767 151.024 189.325 148.833 186.297 151.828C183.269 154.822 178.065 159.525 178.06 164.324C178.056 169.123 176.68 175.574 179.65 178.231C182.619 180.889 188.334 184.21 190.723 182.731C193.113 181.253 198.335 179.912 200.063 176.562C201.792 173.212 206.25 169.076 204.087 161.635Z" fill="#FFFCD6"/>
<path d="M190.719 182.725C191.547 182.212 192.713 181.717 193.959 181.15C193.145 178.537 184.859 178.861 186.817 176.272C189.159 173.171 185.441 168.847 189.46 166.041C193.48 163.235 189.975 160.765 189.921 156.816C189.867 152.867 194.345 154.91 199.214 155.484C200.365 155.619 201.516 156.384 202.607 157.448C201.617 155.34 200.114 153.088 198.014 152.404C193.756 151.02 189.321 148.826 186.293 151.821C183.265 154.816 178.061 159.518 178.056 164.317C178.052 169.117 176.676 175.567 179.646 178.225C182.615 180.882 188.33 184.212 190.719 182.725Z" fill="#FAEDC5"/>
<path d="M202.605 157.457C199.932 153.486 198.527 153.321 197.118 152.957C189.117 150.828 189.117 150.347 183.702 156.431C178.642 161.842 179.393 163.982 179.073 166.479C178.613 171.252 177.534 175.572 179.644 178.233C176.589 176.208 176.884 170.282 176.902 166.365C176.945 163.566 176.034 160.852 181.647 154.545C187.634 148.106 188.679 147.661 198.343 151.746C199.818 152.37 201.499 153.949 202.605 157.457Z" fill="#E8CDA0"/>
<path d="M186.137 278.705C192.843 278.705 198.279 272.209 198.279 264.197C198.279 256.184 192.843 249.689 186.137 249.689C179.432 249.689 173.996 256.184 173.996 264.197C173.996 272.209 179.432 278.705 186.137 278.705Z" fill="#231D18"/>
<path d="M264.674 264.197C264.674 272.209 270.109 278.705 276.813 278.705C283.516 278.705 288.952 272.209 288.952 264.197C288.952 256.185 283.516 249.689 276.813 249.689C270.109 249.689 264.674 256.185 264.674 264.197Z" fill="#231D18"/>
<path d="M169.811 301.466C177.74 301.466 184.169 297.46 184.169 292.52C184.169 287.579 177.74 283.574 169.811 283.574C161.881 283.574 155.453 287.579 155.453 292.52C155.453 297.46 161.881 301.466 169.811 301.466Z" fill="#FFA6AB"/>
<path d="M295.186 301.466C303.115 301.466 309.544 297.46 309.544 292.52C309.544 287.579 303.115 283.574 295.186 283.574C287.256 283.574 280.828 287.579 280.828 292.52C280.828 297.46 287.256 301.466 295.186 301.466Z" fill="#FFA6AB"/>
<path d="M213.532 293.386C213.532 293.386 235.232 295.789 256.693 293.386C262.695 292.711 256.713 303.995 249.203 308.094C239.986 313.127 229.884 314.552 218.134 306.629C212.253 302.66 206.537 293.039 213.532 293.386Z" fill="#231D18"/>
</svg>
