<svg width="62" height="62" viewBox="0 0 62 62" fill="none" xmlns="http://www.w3.org/2000/svg">
<path d="M0 31C0 48.1208 13.8792 62 31 62C48.1208 62 62 48.1208 62 31C62 13.8792 48.1208 0 31 0C13.8792 0 0 13.8792 0 31ZM61.07 31C61.07 47.6072 47.6072 61.07 31 61.07C14.3928 61.07 0.929998 47.6072 0.929998 31C0.929998 14.3928 14.3928 0.929998 31 0.929998C47.6072 0.929998 61.07 14.3928 61.07 31Z" fill="white"/>
<path d="M49 30C49.5523 30 50 30.4477 50 31C50 31.5523 49.5523 32 49 32V30ZM14 31L24 25.2265V36.7735L14 31ZM49 32L23 32V30L49 30V32Z" fill="white"/>
</svg>
