<svg width="18" height="18" viewBox="0 0 18 18" fill="none" xmlns="http://www.w3.org/2000/svg">
<circle cx="9" cy="9" r="9" fill="#ECECEC"/>
<path d="M8.52053 9.70425C8.52053 9.89208 8.57062 10.0799 8.65827 10.2803H9.78523C9.74766 10.1425 9.73514 10.0298 9.73514 9.94216C9.73514 9.57903 9.96053 9.35364 10.6242 8.76512C11.3755 8.10147 11.7386 7.56303 11.7386 6.82425C11.7386 5.5846 10.6868 4.69556 9.40958 4.69556C8.25758 4.69556 7.39358 5.34669 7.04297 6.51121L8.14488 6.98703C8.38279 6.28582 8.80853 5.91017 9.35949 5.91017C9.92297 5.91017 10.3738 6.3359 10.3738 6.92443C10.3738 7.38773 10.1609 7.63816 9.50975 8.22669C8.85862 8.77764 8.52053 9.19086 8.52053 9.70425ZM8.29514 12.2712C8.29514 12.8222 8.72088 13.2354 9.27184 13.2354C9.82279 13.2354 10.2485 12.8222 10.2485 12.2712C10.2485 11.7077 9.82279 11.2945 9.27184 11.2945C8.72088 11.2945 8.29514 11.7203 8.29514 12.2712Z" fill="#2D2F32"/>
</svg>
