<svg width="52" height="52" viewBox="0 0 52 52" fill="none" xmlns="http://www.w3.org/2000/svg">
<path d="M52 26C52 11.6406 40.3594 0 26 0C11.6406 0 0 11.6406 0 26C0 40.3594 11.6406 52 26 52C40.3594 52 52 40.3594 52 26Z" fill="#2D2F32"/>
<path d="M37.0512 37V35.6063C35.1163 34.8857 33.6 33.748 32.5023 32.1931C31.4047 30.6572 30.8558 29.0549 30.8558 27.3862C30.8558 27.0259 30.9116 26.7605 31.0233 26.5898C31.0977 26.476 31.1814 26.4192 31.2744 26.4192C31.3674 26.4192 31.507 26.4855 31.693 26.6183C32.2884 27.0544 33.0419 27.2725 33.9535 27.2725C35.014 27.2725 35.9535 26.8268 36.7721 25.9356C37.5907 25.0634 38 24.0205 38 22.8069C38 21.5364 37.5256 20.4177 36.5767 19.4506C35.6465 18.4835 34.5116 18 33.1721 18C31.6093 18 30.2605 18.6542 29.1256 19.9626C27.9907 21.271 27.4233 23.025 27.4233 25.2246C27.4233 27.7844 28.1953 30.0788 29.7395 32.1078C31.2837 34.1367 33.7209 35.7675 37.0512 37ZM23.6279 37V35.6063C21.693 34.8857 20.1767 33.748 19.0791 32.1931C17.9814 30.6572 17.4326 29.0549 17.4326 27.3862C17.4326 27.0259 17.4884 26.7605 17.6 26.5898C17.6744 26.476 17.7581 26.4192 17.8512 26.4192C17.9442 26.4192 18.0837 26.4855 18.2698 26.6183C18.8651 27.0544 19.6186 27.2725 20.5302 27.2725C21.5907 27.2725 22.5302 26.8268 23.3488 25.9356C24.1674 25.0634 24.5767 24.0205 24.5767 22.8069C24.5767 21.5364 24.1023 20.4177 23.1535 19.4506C22.2233 18.4835 21.0884 18 19.7488 18C18.186 18 16.8372 18.6542 15.7023 19.9626C14.5674 21.271 14 23.025 14 25.2246C14 27.7844 14.7721 30.0788 16.3163 32.1078C17.8605 34.1367 20.2977 35.7675 23.6279 37Z" fill="white"/>
</svg>
