<svg width="67" height="67" viewBox="0 0 67 67" fill="none" xmlns="http://www.w3.org/2000/svg">
<path d="M64.6705 59.4214L61.8367 49.7621L59.0793 40.3609C59.0787 40.3589 59.0777 40.3573 59.077 40.3549L55.3454 27.6346L54.7538 25.6169C54.7535 25.6159 54.7531 25.6153 54.7528 25.6142L53.8436 22.5155C53.7502 22.1966 53.5321 21.9497 53.259 21.8073C53.1606 21.6629 53.0534 21.5242 52.9271 21.3979C51.0561 19.5273 47.1644 20.7604 42.8553 23.5533C40.9441 21.4401 39.8979 18.7313 39.8979 15.8614C39.8979 12.7945 41.0922 9.91112 43.261 7.74267C43.7189 7.28472 43.7189 6.54236 43.261 6.08442C42.803 5.62681 42.0607 5.62681 41.6027 6.08442C36.4528 11.2347 36.2263 19.4677 40.916 24.894C38.7077 26.5124 36.4538 28.4651 34.3573 30.5619C34.3563 30.5629 34.355 30.5642 34.354 30.5652C30.1832 28.0333 25.376 26.7335 20.3564 26.8511C19.7091 26.8658 19.1963 27.4028 19.2113 28.0504C19.2264 28.6976 19.7584 29.2118 20.4106 29.1954C24.7914 29.0915 28.997 30.1773 32.683 32.3015C31.13 33.9772 29.727 35.6743 28.5317 37.3238C23.6008 35.4606 17.8124 36.5064 13.8493 40.4695C13.3914 40.9274 13.3914 41.6698 13.8493 42.1277C14.3073 42.5853 15.0496 42.5853 15.5076 42.1277C17.6764 39.9589 20.5597 38.7647 23.6266 38.7647C24.8487 38.7647 26.0403 38.9573 27.1706 39.3228C26.7669 39.9573 26.3988 40.5797 26.0705 41.1857C23.508 45.9156 24.179 48.1172 25.1931 49.1316C25.3214 49.2596 25.4611 49.3698 25.6075 49.4696C25.7502 49.7393 25.9961 49.9537 26.312 50.0465L29.4094 50.9567C29.4097 50.9567 29.4097 50.957 29.4101 50.957L35.8334 52.8424C35.8337 52.8424 35.8344 52.8424 35.8347 52.8427L49.4156 56.8275L50.3315 57.0965C50.3325 57.0969 50.3332 57.0969 50.3342 57.0972L63.2156 60.877C63.3245 60.9088 63.4353 60.9246 63.5456 60.9246C63.8524 60.9246 64.1519 60.8043 64.3747 60.5812C64.6775 60.2774 64.7911 59.8328 64.6705 59.4214ZM59.622 50.5436C57.197 50.4907 55.2402 48.5014 55.2402 46.0637C55.2402 44.5394 56.0004 43.1585 57.2161 42.3425L59.4736 50.0381L59.622 50.5436ZM54.2533 32.2449C52.6091 35.3383 49.7295 39.0457 46.2857 42.4919C42.8462 45.9317 39.1398 48.8113 36.0417 50.4592L31.3892 49.0934C35.1382 47.4904 39.7401 43.9913 43.7635 39.968C47.7878 35.9436 51.2862 31.3411 52.8889 27.5918L53.3468 29.1522L54.2533 32.2449ZM28.132 42.3026C28.4858 41.65 28.8918 40.9747 29.3404 40.2852C30.2087 40.7851 31.0181 41.4001 31.7454 42.1277C31.9745 42.3565 32.2747 42.4711 32.5745 42.4711C32.8743 42.4711 33.1748 42.3565 33.4036 42.1277C33.8615 41.6698 33.8615 40.9274 33.4036 40.4695C32.5695 39.6353 31.6542 38.9312 30.6834 38.3553C31.8391 36.7925 33.1882 35.1842 34.683 33.5939C35.7185 34.34 36.7044 35.1718 37.6269 36.0944C37.8561 36.3232 38.1562 36.4378 38.4561 36.4378C38.7559 36.4378 39.0564 36.3232 39.2852 36.0944C39.7431 35.6364 39.7431 34.8941 39.2852 34.4361C38.3579 33.5089 37.3734 32.6626 36.3415 31.8972C42.9276 25.4035 48.3684 22.8234 50.4765 22.8234C50.8477 22.8234 51.1161 22.9034 51.2685 23.0562C52.302 24.0897 50.0049 30.4108 42.1052 38.3101C34.2066 46.2094 27.8855 48.5081 26.8513 47.4733C26.51 47.1323 26.3388 45.6127 28.132 42.3026ZM45.0951 52.7513L46.6951 52.8142C47.079 52.825 47.4491 52.6538 47.6803 52.3442L48.6397 51.0598L49.0749 52.6005C49.1798 52.9717 49.4605 53.2675 49.826 53.3918L51.3462 53.9083L50.2638 54.6326L45.419 53.2099L45.0951 52.7513ZM53.1947 55.4926L54.6232 54.5365C54.994 54.2882 55.192 53.8514 55.1337 53.4089C55.0754 52.9663 54.7709 52.5955 54.3485 52.4518L51.164 51.3694L50.2501 48.1353C50.1288 47.7058 49.774 47.3822 49.3352 47.3011C48.8957 47.2191 48.4495 47.3949 48.1825 47.7524L46.1704 50.4465L42.8131 50.3148C42.3652 50.2997 41.9498 50.5346 41.7367 50.9268C41.5263 51.3144 41.5521 51.7868 41.8014 52.1496L39.1274 51.365C41.9484 49.5731 45.0469 47.0475 47.9443 44.1498C50.8437 41.248 53.3693 38.1489 55.1592 35.3309L56.5357 40.0236C54.3203 41.1867 52.8952 43.4909 52.8952 46.0637C52.8952 49.8274 55.9575 52.8896 59.7212 52.8896C59.9152 52.8896 60.1088 52.8782 60.3021 52.8621L61.816 58.0221L53.1947 55.4926Z" fill="#8344D6"/>
<path d="M10.4834 29.0496C7.5545 30.3374 4.91168 32.1497 2.62799 34.4368C2.17038 34.8951 2.17105 35.6374 2.62899 36.095C2.85813 36.3238 3.15762 36.4377 3.45745 36.4377C3.75761 36.4377 4.0581 36.3232 4.28724 36.0937C6.36391 34.014 8.76619 32.3661 11.4271 31.1963C12.02 30.9357 12.2891 30.2439 12.0284 29.651C11.7678 29.0584 11.076 28.789 10.4834 29.0496Z" fill="#8344D6"/>
<path d="M19.5169 16.7927L22.5315 18.2804L23.0153 21.6076C23.0793 22.0492 23.3888 22.4163 23.8132 22.554C23.9322 22.5925 24.0544 22.6113 24.1754 22.6113C24.4866 22.6113 24.7908 22.4874 25.0152 22.2572L27.3619 19.8496L30.6757 20.4181C31.1156 20.4924 31.5605 20.3125 31.8224 19.9514C32.0847 19.5903 32.1192 19.1116 31.9119 18.7166L30.3474 15.7408L31.9119 12.765C32.1196 12.37 32.0851 11.8913 31.8224 11.5302C31.5601 11.169 31.1159 10.9892 30.6757 11.0635L27.3619 11.6317L25.0152 9.22437C24.7037 8.90478 24.2377 8.78954 23.8132 8.92756C23.3888 9.06558 23.0796 9.43241 23.0153 9.87394L22.5315 13.2012L19.5169 14.6889C19.1165 14.8865 18.8633 15.2942 18.8633 15.7405C18.8633 16.1867 19.1169 16.595 19.5169 16.7927ZM24.1221 15.0319C24.4682 14.8611 24.708 14.5311 24.7636 14.1492L24.9941 12.563L26.1127 13.7107C26.382 13.9871 26.7696 14.113 27.1505 14.048L28.73 13.777L27.984 15.1954C27.8044 15.5371 27.8044 15.9451 27.984 16.2868L28.73 17.7052L27.1505 17.4342C26.77 17.3692 26.382 17.4952 26.1127 17.7716L24.9941 18.9193L24.7636 17.3334C24.708 16.9515 24.4685 16.6215 24.1221 16.4507L22.685 15.7415L24.1221 15.0319Z" fill="#8344D6"/>
<path d="M17.7967 45.4175C15.9154 45.4175 14.3848 46.9481 14.3848 48.8295C14.3848 50.7108 15.9154 52.2414 17.7967 52.2414C19.6781 52.2414 21.2087 50.7108 21.2087 48.8295C21.2087 46.9481 19.6781 45.4175 17.7967 45.4175ZM17.7967 49.8964C17.2085 49.8964 16.7298 49.4177 16.7298 48.8295C16.7298 48.2412 17.2085 47.7625 17.7967 47.7625C18.385 47.7625 18.8637 48.2412 18.8637 48.8295C18.8637 49.4177 18.385 49.8964 17.7967 49.8964Z" fill="#8344D6"/>
<path d="M10.5465 22.6117C12.9749 22.6117 14.9504 20.6362 14.9504 18.2078C14.9504 15.7794 12.9749 13.8032 10.5465 13.8032C8.11807 13.8032 6.14258 15.7791 6.14258 18.2075C6.14258 20.6359 8.11807 22.6117 10.5465 22.6117ZM10.5465 16.1482C11.6818 16.1482 12.6054 17.0718 12.6054 18.2075C12.6054 19.3428 11.6818 20.2664 10.5465 20.2664C9.41117 20.2664 8.48758 19.3428 8.48758 18.2075C8.48758 17.0718 9.41117 16.1482 10.5465 16.1482Z" fill="#8344D6"/>
</svg>
