<svg width="77" height="44" viewBox="0 0 77 44" fill="none" xmlns="http://www.w3.org/2000/svg">
<path d="M44.2758 39.0353C44.2395 41.5639 46.4558 43.6858 49.0899 43.6327C50.8339 43.6327 52.2145 42.8016 52.9956 41.4578L51.288 40.1846C50.7067 40.9803 50.0527 41.4401 49.1262 41.4401C47.7456 41.4401 46.7646 40.4322 46.7646 39.0353C46.7646 37.6737 47.7456 36.6481 49.1262 36.6481C50.0709 36.6481 50.7249 37.1256 51.288 37.9213L52.9956 36.6305C52.2145 35.2866 50.852 34.4732 49.0899 34.4732C46.4194 34.4732 44.2758 36.4713 44.2758 39.0353Z" fill="#8344D6"/>
<path d="M53.8995 43.4205H56.352V30.1587H53.8995V43.4205Z" fill="#8344D6"/>
<path d="M57.779 39.5657C57.779 42.0059 59.5412 43.6327 61.9391 43.6327C64.2826 43.6327 66.0629 42.0059 66.0629 39.5657V34.6677H63.6104V39.7603C63.6104 40.7682 62.8838 41.4401 61.9391 41.4401C60.94 41.4401 60.2315 40.7682 60.2315 39.7603V34.6677H57.779V39.5657Z" fill="#8344D6"/>
<path d="M77.0004 39.053C77.0004 36.4183 75.1474 34.4732 72.6405 34.4732C71.496 34.4732 70.6058 34.8269 69.9519 35.5165V30.1587H67.4994V43.4205H69.752V42.3419C70.3878 43.173 71.4052 43.6327 72.6405 43.6327C75.1474 43.6327 77.0004 41.6876 77.0004 39.053ZM74.5116 39.0353C74.5116 40.5029 73.5124 41.4578 72.1863 41.4578C70.951 41.4578 69.9155 40.6267 69.9155 39.053C69.9155 37.4969 70.9328 36.6305 72.1863 36.6305C73.4943 36.6305 74.5116 37.603 74.5116 39.0353Z" fill="#8344D6"/>
<path d="M18.4064 13.3134C18.4064 8.05179 14.8166 4.14111 9.95985 4.14111C7.56667 4.14111 5.52543 5.06546 4.36403 6.73638V4.53218H0V28.5295H4.75116V20.4238C6.01814 21.8103 7.84822 22.5569 9.95985 22.5569C14.8166 22.5569 18.4064 18.5751 18.4064 13.3134ZM13.5848 13.349C13.5848 16.2287 11.614 18.184 9.08 18.184C6.65163 18.184 4.68078 16.442 4.68078 13.3134C4.68078 10.1493 6.68682 8.47842 9.08 8.47842C11.6491 8.47842 13.5848 10.3982 13.5848 13.349Z" fill="#8344D6"/>
<path d="M34.6025 11.6012C34.6025 6.7257 31.6487 4.05664 27.0579 4.05664C23.9618 4.05664 21.3995 5.26662 19.371 7.68657L21.8622 10.6403C23.428 8.96772 24.7092 8.22038 26.5241 8.22038C28.6594 8.22038 29.7982 9.35918 29.7982 11.3165V12.0994H25.3853C21.2928 12.0994 18.7305 14.0567 18.7305 17.224C18.7305 20.3201 21.0792 22.491 24.8159 22.491C27.0579 22.491 28.9085 21.6725 30.1896 20.3557V22.0639H34.6025V11.6012ZM29.7982 15.4802C29.7982 17.5087 28.1967 18.9678 26.0971 18.9678C24.5668 18.9678 23.5704 18.2205 23.5704 17.0461C23.5704 15.8717 24.4601 15.2667 26.0259 15.2667H29.7982V15.4802Z" fill="#8344D6"/>
<path d="M46.7229 4.44839C46.2603 4.30604 45.762 4.23486 45.1571 4.23486C43.1997 4.23486 41.4915 5.08896 40.3172 6.54805V4.44839H35.9043V22.0642H40.7086V13.2741C40.7086 10.2492 42.5592 8.6833 45.4418 8.6833H46.7229V4.44839Z" fill="#8344D6"/>
<path d="M58.3974 18.0429C57.1519 18.1496 56.4045 18.1852 56.1198 18.1852C53.8422 18.1852 52.8458 17.4379 52.8458 15.445V8.50542H57.828V4.44844H52.8458V0H48.0415V4.44844H45.2656V8.66956H46.6535L48.0415 8.8337V15.872C48.0415 20.2849 50.6393 22.4913 55.0878 22.4913C56.1554 22.4913 57.2586 22.349 58.3974 22.0643V18.0429Z" fill="#8344D6"/>
<path d="M71.8804 4.44824L67.2896 16.0142L62.9835 4.44824H57.8945L64.6562 20.9964L64.1223 22.2064C63.3038 24.057 62.165 24.5908 60.4568 24.5908C60.1721 24.5908 59.496 24.5552 58.3928 24.4484V28.4698C59.4604 28.7545 60.4924 28.8969 61.4889 28.8969C64.7629 28.8969 66.8982 27.2598 68.4996 23.5943L76.9339 4.44824H71.8804Z" fill="#8344D6"/>
</svg>

