<svg width="59" height="59" viewBox="0 0 59 59" fill="none" xmlns="http://www.w3.org/2000/svg">
<g clip-path="url(#clip0_510_4559)">
<path d="M55.4719 11.9324H44.283C44.6158 11.6984 44.9286 11.4338 45.2155 11.1362C46.394 9.91897 47.0419 8.31725 47.0419 6.62257C47.0419 3.04511 44.1335 0.134277 40.5549 0.134277C39.3307 0.134277 38.2781 0.529354 37.7617 0.765778L37.7524 0.769255C36.2071 1.48438 32.212 4.94784 29.5001 7.38107C26.7882 4.94784 22.7931 1.48438 21.2465 0.769255L21.2383 0.765778C20.7208 0.530635 19.6695 0.134277 18.4451 0.134277C14.8663 0.134277 11.9568 3.04492 11.9568 6.62257C11.9568 8.31615 12.6048 9.91897 13.7832 11.1362C14.0714 11.4327 14.3842 11.6984 14.7157 11.9324H3.52824C1.58305 11.9324 0 13.5153 0 15.4605V23.734C0 25.6792 1.58305 27.2623 3.52824 27.2623H5.39932V54.2797C5.39932 56.8083 7.45741 58.8664 9.98598 58.8664H23.8645H26.2167H32.7826H35.1347H49.0157C51.5442 58.8664 53.6 56.8083 53.6 54.2797V27.2621H55.4723C57.4175 27.2621 59.0004 25.679 59.0004 23.7338V15.4605C59 13.5153 57.4171 11.9324 55.4719 11.9324ZM39.1519 3.80342C39.6046 3.59756 40.128 3.47532 40.5549 3.47532C42.2897 3.47532 43.702 4.88782 43.702 6.62239C43.702 8.32182 42.3766 9.70011 40.6819 9.76708H31.8497C34.8476 7.08353 38.1804 4.25632 39.1519 3.80342ZM18.4464 3.47532C18.8722 3.47532 19.3966 3.59756 19.8483 3.80342C20.8198 4.25614 24.1526 7.08334 27.1516 9.76708H18.3183C16.6247 9.70011 15.2993 8.32164 15.2993 6.62239C15.2993 4.88782 16.7105 3.47532 18.4464 3.47532ZM3.52824 24.9101C2.87899 24.9101 2.35216 24.382 2.35216 23.734V15.4605C2.35216 14.8125 2.87899 14.2844 3.52824 14.2844H23.8645V24.9099H5.39932H3.52824V24.9101ZM23.8643 56.514H9.98708C8.75463 56.514 7.75258 55.5109 7.75258 54.2795V27.2621H23.8656V56.514H23.8643ZM32.7824 56.514H26.2165V27.2621V24.9099V14.2844H32.7824V24.9099V27.2621V56.514ZM51.2476 54.2784C51.2476 55.5109 50.2455 56.5129 49.0155 56.5129H35.1346V27.2621H51.2476V54.2784ZM56.648 23.734C56.648 24.382 56.1199 24.9101 55.4719 24.9101H53.5996H35.1346V14.2844H55.4719C56.1199 14.2844 56.648 14.8125 56.648 15.4605V23.734Z" fill="#8344D6"/>
</g>
<defs>
<clipPath id="clip0_510_4559">
<rect width="59" height="59" fill="white"/>
</clipPath>
</defs>
</svg>
