<svg width="31" height="31" viewBox="0 0 31 31" fill="none" xmlns="http://www.w3.org/2000/svg">
<circle cx="15.5" cy="15.5" r="15.5" fill="#E6DAF6"/>
<path d="M11.9805 16.1448C11.5484 16.2084 11.1397 16.1759 10.7543 16.0472C10.3678 15.9099 10.0446 15.6926 9.78473 15.3953C9.5249 15.098 9.36571 14.7506 9.30718 14.353C9.24864 13.9555 9.30157 13.5812 9.46596 13.2303C9.62908 12.8707 9.87658 12.5738 10.2084 12.3395C10.539 12.0966 10.9204 11.9433 11.3525 11.8797C11.7755 11.8174 12.1803 11.8549 12.5668 11.9923C12.9522 12.121 13.2747 12.334 13.5346 12.6313C13.7931 12.9199 13.9517 13.263 14.0102 13.6606C14.0687 14.0581 14.0164 14.4367 13.8533 14.7962C13.6902 15.1558 13.4433 15.457 13.1128 15.7C12.7809 15.9343 12.4035 16.0825 11.9805 16.1448ZM16.0509 11.3469L17.5542 11.1255L13.5731 20.4534L12.0836 20.6727L16.0509 11.3469ZM11.8168 14.9371C12.0743 14.8992 12.273 14.7817 12.4131 14.5845C12.5623 14.3859 12.6166 14.1483 12.5758 13.8717C12.5364 13.6038 12.4166 13.3963 12.2165 13.2492C12.0255 13.1007 11.8013 13.0454 11.5439 13.0833C11.268 13.1239 11.0555 13.2435 10.9062 13.4421C10.7662 13.6393 10.7159 13.8719 10.7553 14.1398C10.796 14.4164 10.9119 14.6289 11.1028 14.7774C11.2938 14.9259 11.5318 14.9791 11.8168 14.9371ZM18.2695 19.9076C17.8466 19.9698 17.4424 19.9366 17.0571 19.8079C16.6705 19.6706 16.3473 19.4533 16.0875 19.156C15.8277 18.8587 15.6685 18.5113 15.61 18.1137C15.5514 17.7162 15.6044 17.3419 15.7687 16.991C15.9319 16.6315 16.1794 16.3345 16.5112 16.1003C16.8418 15.8573 17.2186 15.7047 17.6415 15.6424C18.0645 15.5802 18.4693 15.6177 18.8558 15.755C19.2503 15.8824 19.5775 16.0947 19.8373 16.392C20.0959 16.6806 20.2544 17.0237 20.313 17.4213C20.3715 17.8188 20.3192 18.1974 20.1561 18.557C19.993 18.9165 19.7461 19.2178 19.4155 19.4607C19.0837 19.695 18.7017 19.8439 18.2695 19.9076ZM18.1039 18.6869C18.3613 18.649 18.5601 18.5315 18.7001 18.3342C18.8494 18.1357 18.9043 17.9024 18.8648 17.6345C18.8254 17.3666 18.7056 17.1591 18.5054 17.0119C18.3145 16.8634 18.0903 16.8081 17.8328 16.8461C17.5478 16.888 17.3353 17.0076 17.1952 17.2048C17.0539 17.3934 17.0036 17.626 17.0443 17.9025C17.085 18.1791 17.2009 18.3916 17.3918 18.5401C17.5815 18.68 17.8189 18.7289 18.1039 18.6869Z" fill="#8344D6"/>
<path d="M21.7101 8.36539L21.7117 8.36686L27.5819 13.724L23.5048 20.5457L23.5037 20.5476C23.286 20.9138 22.8387 21.2378 22.2507 21.3246C22.2507 21.3246 22.2507 21.3246 22.2506 21.3246C22.2504 21.3246 22.2502 21.3246 22.25 21.3247L8.57925 23.3265L8.57855 23.3266C7.5729 23.4747 6.87728 22.8795 6.7918 22.299L5.20254 11.5051C5.11707 10.9246 5.61163 10.1542 6.61729 10.0061L6.61798 10.006L20.2856 7.98259C20.2857 7.98258 20.2858 7.98256 20.2859 7.98255C20.8741 7.89603 21.396 8.07735 21.7101 8.36539Z" stroke="#8344D6" stroke-width="1.78846"/>
</svg>
