<svg width="16" height="17" viewBox="0 0 16 17" fill="none" xmlns="http://www.w3.org/2000/svg">
<path d="M9.64014 4.92614C9.32888 4.59923 8.77802 4.81952 8.77802 5.27092V16.3052C8.77802 16.5813 8.55416 16.8052 8.27802 16.8052H7.27801C7.00187 16.8052 6.77801 16.5813 6.77801 16.3052V5.27092C6.77801 4.81952 6.22715 4.59923 5.91589 4.92614L1.77612 9.27423C1.57907 9.4812 1.24894 9.4812 1.05188 9.27423L0.328254 8.51419C0.144416 8.3211 0.144416 8.01773 0.328254 7.82464L7.41589 0.380344C7.61295 0.173374 7.94308 0.173374 8.14014 0.380344L15.2278 7.82464C15.4116 8.01773 15.4116 8.3211 15.2278 8.51419L14.5041 9.27423C14.3071 9.4812 13.977 9.4812 13.7799 9.27423L9.64014 4.92614Z" fill="#5C5C5C"/>
</svg>
