<svg width="61" height="61" viewBox="0 0 61 61" fill="none" xmlns="http://www.w3.org/2000/svg">
<rect width="61" height="61" rx="12.6761" fill="#B9054B"/>
<path d="M30.5003 47.6904C27.9988 45.633 25.6801 43.3774 23.5685 40.9472C20.3997 37.2978 16.6367 31.8628 16.6367 26.6836C16.6339 21.2745 20.012 16.3968 25.1946 14.3267C30.3773 12.2566 36.3429 13.4021 40.3078 17.2287C42.915 19.7316 44.3756 23.1361 44.3639 26.6836C44.3639 31.8628 40.6009 37.2978 37.4321 40.9472C35.3205 43.3774 33.0018 45.633 30.5003 47.6904ZM30.5003 17.1351C25.034 17.1414 20.6043 21.4127 20.5977 26.6836C20.5977 28.9104 21.6415 32.7661 26.6086 38.4971C27.8328 39.9065 29.1318 41.2541 30.5003 42.5342C31.8689 41.2556 33.1685 39.91 34.394 38.5028C39.3591 32.7641 40.4028 28.9084 40.4028 26.6836C40.3963 21.4127 35.9666 17.1414 30.5003 17.1351ZM30.5003 32.4128C27.2189 32.4128 24.5588 29.8477 24.5588 26.6836C24.5588 23.5195 27.2189 20.9545 30.5003 20.9545C33.7817 20.9545 36.4418 23.5195 36.4418 26.6836C36.4418 28.2031 35.8158 29.6603 34.7016 30.7347C33.5873 31.8092 32.0761 32.4128 30.5003 32.4128Z" fill="white"/>
</svg>
