<svg width="177" height="133" viewBox="0 0 177 133" fill="none" xmlns="http://www.w3.org/2000/svg">
<g filter="url(#filter0_d_218_1170)">
<g clip-path="url(#clip0_218_1170)">
<rect x="7" y="34.2456" width="149.412" height="93.9029" rx="4.62576" transform="rotate(-11.6791 7 34.2456)" fill="#F50F64"/>
<g filter="url(#filter1_f_218_1170)">
<path d="M121.658 10.5445L153.735 3.9139L172.78 96.0497L95.8295 111.956L121.658 10.5445Z" fill="#43325F"/>
</g>
<path d="M122.128 10.4478L153.735 3.91417L172.781 96.0499L96.5981 111.798L122.128 10.4478Z" fill="#6E2DC3"/>
<path d="M28.8262 99.1658L31.5702 98.5986L31.7561 99.4978L30.0099 99.8588L30.1262 100.421L30.9152 100.258C31.1627 100.207 31.3927 100.208 31.6053 100.261C31.8217 100.313 32.004 100.414 32.1521 100.565C32.3003 100.716 32.3991 100.911 32.4487 101.151C32.4982 101.391 32.4857 101.613 32.4111 101.818C32.3366 102.023 32.211 102.196 32.0346 102.338C31.8581 102.479 31.6481 102.575 31.4044 102.625L29.6177 102.995L28.8262 99.1658ZM31.1667 101.797C31.2866 101.772 31.3731 101.722 31.426 101.647C31.4828 101.571 31.4989 101.473 31.4741 101.353C31.4493 101.233 31.3961 101.151 31.3145 101.107C31.236 101.059 31.1367 101.047 31.0169 101.072L30.2917 101.222L30.4416 101.947L31.1667 101.797ZM35.6784 100.592L33.8221 100.976C33.9759 101.174 34.2153 101.24 34.5401 101.173C34.7992 101.119 35.037 100.991 35.2533 100.789L35.7533 101.394C35.4626 101.724 35.1046 101.933 34.6792 102.021C34.3659 102.086 34.072 102.078 33.7973 101.998C33.5218 101.913 33.2908 101.772 33.1044 101.572C32.9172 101.369 32.7941 101.124 32.7349 100.838C32.6765 100.556 32.6911 100.284 32.7785 100.024C32.8697 99.7636 33.0197 99.5431 33.2284 99.3628C33.4364 99.1787 33.6834 99.0571 33.9696 98.9979C34.2481 98.9403 34.5045 98.9519 34.7389 99.0324C34.9734 99.113 35.1686 99.2481 35.3248 99.4376C35.484 99.6225 35.5891 99.8387 35.6403 100.086C35.6763 100.26 35.689 100.429 35.6784 100.592ZM34.0909 99.7894C33.9671 99.815 33.8649 99.8765 33.7842 99.9738C33.7066 100.066 33.6628 100.186 33.6529 100.334L34.6623 100.125C34.6313 99.9943 34.5614 99.8999 34.4526 99.8417C34.3429 99.7797 34.2224 99.7623 34.0909 99.7894ZM38.7287 98.0142L39.3426 100.984L38.3448 101.191L38.075 99.8853L36.8335 101.576L36.5144 101.642L35.9005 98.6714L36.8983 98.4651L37.1681 99.7704L38.4096 98.0801L38.7287 98.0142ZM37.297 97.9653C37.0882 98.0085 36.8914 98.0028 36.7067 97.9482C36.5251 97.8889 36.3711 97.7877 36.2447 97.6445C36.1214 97.4965 36.0381 97.3182 35.995 97.1093L35.965 96.9643L36.7482 96.8024L36.7781 96.9474C36.8301 97.1988 36.9547 97.3041 37.1519 97.2634C37.3492 97.2226 37.4218 97.0765 37.3698 96.8251L37.3399 96.6801L38.123 96.5182L38.153 96.6632C38.1962 96.8721 38.1885 97.0692 38.1301 97.2547C38.0747 97.4356 37.9735 97.5896 37.8264 97.7168C37.6823 97.8393 37.5059 97.9221 37.297 97.9653ZM39.82 97.4014C39.6498 97.4366 39.4932 97.4105 39.3501 97.3231C39.2109 97.235 39.1241 97.1077 39.0897 96.9414C39.0554 96.7751 39.0846 96.6239 39.1774 96.4878C39.2733 96.347 39.4064 96.259 39.5765 96.2238C39.7467 96.1886 39.9037 96.2167 40.0476 96.3079C40.1907 96.3953 40.2794 96.5221 40.3138 96.6884C40.3474 96.8508 40.3162 97.0025 40.2203 97.1433C40.1236 97.2802 39.9901 97.3663 39.82 97.4014ZM39.418 97.9443L40.4158 97.738L41.0154 100.639L40.0176 100.845L39.418 97.9443ZM43.8627 97.0255L44.4623 99.9261L43.4703 100.131L43.0434 98.0659L42.4459 98.1894L42.4723 98.317C42.5661 98.8098 42.6062 99.2088 42.5927 99.5141C42.583 99.8185 42.5168 100.054 42.3939 100.221C42.2703 100.383 42.0828 100.491 41.8314 100.542C41.7618 100.557 41.6886 100.564 41.6119 100.564C41.5391 100.563 41.4779 100.559 41.4283 100.553L41.2592 99.7353C41.284 99.7382 41.3216 99.7345 41.3718 99.7241C41.4724 99.7033 41.5429 99.6444 41.5833 99.5473C41.6237 99.4502 41.6359 99.2944 41.6198 99.08C41.6037 98.8656 41.5569 98.5708 41.4793 98.1956L41.345 97.5459L43.8627 97.0255ZM48.3716 98.2469L48.7134 99.9002L47.7736 100.094L47.6045 99.2765L45.8062 99.6483L45.9753 100.466L45.0355 100.66L44.6937 99.0072L45.0012 98.9436C45.0848 98.8215 45.1294 98.6469 45.1349 98.4199C45.1404 98.193 45.1105 97.8725 45.045 97.4586L44.9397 96.8029L47.4632 96.2812L47.8901 98.3464L48.3716 98.2469ZM46.8981 98.5515L46.6439 97.3216L45.9826 97.4583L45.985 97.4699C46.0751 97.9836 46.0855 98.4049 46.0164 98.7338L46.8981 98.5515ZM48.8446 95.536C48.6744 95.5711 48.5178 95.545 48.3747 95.4577C48.2355 95.3695 48.1487 95.2423 48.1144 95.076C48.08 94.9097 48.1092 94.7584 48.2021 94.6223C48.298 94.4815 48.431 94.3935 48.6012 94.3583C48.7713 94.3232 48.9284 94.3512 49.0722 94.4424C49.2153 94.5298 49.304 94.6566 49.3384 94.8229C49.372 94.9854 49.3408 95.137 49.2449 95.2778C49.1482 95.4147 49.0148 95.5008 48.8446 95.536ZM48.4426 96.0788L49.4404 95.8725L50.04 98.7731L49.0422 98.9793L48.4426 96.0788ZM52.8874 95.16L53.4869 98.0606L52.4949 98.2656L52.068 96.2004L51.4705 96.3239L51.4969 96.4516C51.5907 96.9443 51.6308 97.3433 51.6173 97.6486C51.6077 97.953 51.5414 98.1885 51.4186 98.3551C51.2949 98.5177 51.1074 98.625 50.856 98.677C50.7864 98.6914 50.7132 98.6984 50.6366 98.6982C50.5638 98.6971 50.5025 98.6936 50.4529 98.6877L50.2839 97.8698C50.3087 97.8727 50.3462 97.869 50.3965 97.8586C50.497 97.8378 50.5675 97.7789 50.6079 97.6818C50.6484 97.5847 50.6605 97.429 50.6444 97.2145C50.6283 97.0001 50.5815 96.7053 50.504 96.3302L50.3697 95.6804L52.8874 95.16ZM53.9603 94.4785C53.7901 94.5137 53.6335 94.4876 53.4904 94.4002C53.3512 94.312 53.2644 94.1848 53.23 94.0185C53.1956 93.8522 53.2249 93.701 53.3177 93.5648C53.4136 93.424 53.5467 93.336 53.7168 93.3009C53.887 93.2657 54.044 93.2937 54.1879 93.385C54.331 93.4723 54.4197 93.5992 54.4541 93.7655C54.4876 93.9279 54.4565 94.0795 54.3606 94.2203C54.2639 94.3573 54.1304 94.4433 53.9603 94.4785ZM53.5583 95.0213L54.5561 94.8151L55.1557 97.7156L54.1579 97.9219L53.5583 95.0213ZM57.8136 97.1662L56.5277 95.9198L56.8274 97.3701L55.8296 97.5763L55.2301 94.6757L56.2279 94.4695L56.5001 95.7863L57.2025 94.268L58.3105 94.039L57.5641 95.5785L58.9797 96.9252L57.8136 97.1662ZM62.935 96.1076L61.649 94.8611L61.9488 96.3114L60.951 96.5177L60.3514 93.6171L61.3492 93.4109L61.6214 94.7277L62.3238 93.2094L63.4318 92.9804L62.6854 94.5199L64.101 95.8665L62.935 96.1076ZM65.0571 92.5718C65.4632 92.4879 65.807 92.5317 66.0885 92.7034C66.37 92.8751 66.5539 93.1698 66.6402 93.5875L66.988 95.2698L66.0772 95.458L66.028 95.2202C65.8538 95.4699 65.5965 95.63 65.2562 95.7003C65.0474 95.7435 64.8591 95.7401 64.6915 95.69C64.5239 95.64 64.3874 95.5553 64.2821 95.4359C64.176 95.3127 64.1061 95.1698 64.0725 95.0074C64.0166 94.7367 64.0736 94.5051 64.2435 94.3127C64.4165 94.1157 64.679 93.9808 65.0309 93.908L65.64 93.7821L65.6304 93.7357C65.6072 93.6235 65.5521 93.5422 65.465 93.4916C65.381 93.4364 65.2636 93.4244 65.1128 93.4556C64.9813 93.4827 64.8674 93.5365 64.7711 93.6169C64.6779 93.6926 64.5744 93.8068 64.4608 93.9593L63.866 93.4229C64.0186 93.1857 64.1897 92.9991 64.3794 92.8631C64.5682 92.7233 64.7941 92.6262 65.0571 92.5718ZM65.4174 94.929C65.545 94.9027 65.6418 94.8443 65.7078 94.7541C65.7769 94.6591 65.7979 94.5459 65.7707 94.4144L65.7659 94.3912L65.296 94.4884C65.2109 94.5059 65.1492 94.5389 65.1108 94.5871C65.0724 94.6354 65.0604 94.6943 65.0747 94.764C65.0891 94.8336 65.1259 94.8845 65.1849 94.9166C65.2471 94.9441 65.3246 94.9482 65.4174 94.929ZM68.739 91.8107C69.0059 91.7556 69.2593 91.7717 69.4992 91.8593C69.7382 91.9429 69.9394 92.0868 70.1026 92.291C70.2696 92.4944 70.3835 92.7431 70.4443 93.037C70.5051 93.3309 70.4995 93.6063 70.4275 93.8631C70.3548 94.1161 70.2257 94.3303 70.0402 94.5058C69.8585 94.6804 69.6343 94.7954 69.3674 94.8505C69.0619 94.9137 68.796 94.8759 68.5697 94.7372L68.8263 95.9786L67.8285 96.1849L67.0131 92.2401L67.9239 92.0518L67.9862 92.3535C68.1168 92.0684 68.3678 91.8875 68.739 91.8107ZM68.9831 93.9863C69.1378 93.9543 69.26 93.8726 69.3498 93.7411C69.4396 93.6097 69.4645 93.4472 69.4245 93.2539C69.3845 93.0605 69.2973 92.9213 69.1627 92.8362C69.0321 92.7503 68.8874 92.7237 68.7289 92.7565C68.5742 92.7884 68.4515 92.8682 68.361 92.9958C68.2743 93.1226 68.2513 93.2847 68.2921 93.4819C68.3328 93.6791 68.4186 93.8207 68.5492 93.9066C68.6838 93.9917 68.8284 94.0183 68.9831 93.9863ZM71.3405 92.2166L70.4993 92.3905L70.3266 91.5551L73.0126 90.9999L73.1852 91.8353L72.3383 92.0104L72.7652 94.0756L71.7674 94.2818L71.3405 92.2166ZM74.6596 90.5869C75.0657 90.5029 75.4095 90.5468 75.691 90.7185C75.9724 90.8902 76.1563 91.1848 76.2427 91.6025L76.5904 93.2849L75.6797 93.4731L75.6305 93.2353C75.4563 93.485 75.199 93.6451 74.8587 93.7154C74.6498 93.7586 74.4616 93.7552 74.294 93.7051C74.1264 93.6551 73.9899 93.5704 73.8846 93.451C73.7784 93.3278 73.7086 93.1849 73.675 93.0225C73.6191 92.7518 73.676 92.5202 73.846 92.3278C74.019 92.1307 74.2814 91.9958 74.6334 91.9231L75.2425 91.7972L75.2329 91.7508C75.2097 91.6386 75.1546 91.5573 75.0675 91.5067C74.9835 91.4515 74.8661 91.4395 74.7153 91.4706C74.5838 91.4978 74.4699 91.5516 74.3736 91.632C74.2803 91.7077 74.1769 91.8219 74.0633 91.9744L73.4685 91.438C73.6211 91.2008 73.7922 91.0142 73.9818 90.8782C74.1707 90.7383 74.3966 90.6412 74.6596 90.5869ZM75.0198 92.9441C75.1475 92.9177 75.2443 92.8594 75.3103 92.7691C75.3794 92.6742 75.4004 92.561 75.3732 92.4295L75.3684 92.4063L74.8985 92.5034C74.8134 92.521 74.7517 92.5539 74.7133 92.6022C74.6748 92.6505 74.6628 92.7094 74.6772 92.779C74.6916 92.8486 74.7283 92.8995 74.7874 92.9317C74.8495 92.9592 74.927 92.9633 75.0198 92.9441ZM78.6682 92.9279C78.3782 92.9879 78.0977 92.9773 77.8269 92.8962C77.5591 92.8104 77.3297 92.6663 77.1387 92.4638C76.9515 92.2605 76.8287 92.0177 76.7703 91.7354C76.712 91.4531 76.7284 91.1815 76.8197 90.9207C76.9148 90.6591 77.0687 90.4377 77.2813 90.2567C77.4969 90.0709 77.7498 89.9481 78.0399 89.8881C78.3377 89.8266 78.6131 89.8422 78.8662 89.9351C79.1193 90.028 79.3305 90.1819 79.5 90.3969L78.9188 91.0675C78.8159 90.9597 78.7093 90.883 78.599 90.8372C78.4918 90.7868 78.3724 90.7751 78.2409 90.8023C78.0669 90.8383 77.9393 90.9232 77.858 91.0569C77.7768 91.1906 77.7546 91.3465 77.7913 91.5244C77.8281 91.7023 77.9103 91.8365 78.0379 91.9271C78.1655 92.0176 78.3163 92.0449 78.4904 92.009C78.6218 91.9818 78.7272 91.9257 78.8064 91.8408C78.8887 91.7512 78.9562 91.6385 79.0087 91.5026L79.807 91.882C79.7367 92.1465 79.6037 92.3716 79.4082 92.5572C79.2127 92.7428 78.966 92.8664 78.6682 92.9279ZM79.8453 89.5875L80.8431 89.3813L80.9942 90.1122L81.4118 90.0259C81.6516 89.9763 81.877 89.9741 82.0879 90.0192C82.302 90.0597 82.4823 90.1514 82.6288 90.2946C82.7784 90.433 82.8768 90.6163 82.9239 90.8445C82.9711 91.0727 82.9539 91.2819 82.8722 91.4722C82.7936 91.6578 82.6645 91.8135 82.4849 91.9394C82.3083 92.0606 82.1001 92.146 81.8603 92.1955L80.4448 92.4881L79.8453 89.5875ZM82.8212 88.9724L83.819 88.7661L84.4186 91.6667L83.4208 91.8729L82.8212 88.9724ZM81.6702 91.3638C81.8636 91.3238 81.9439 91.2245 81.9111 91.0659C81.8935 90.9809 81.8533 90.9226 81.7903 90.8913C81.7305 90.8553 81.6561 90.8465 81.5671 90.8649L81.1668 90.9476L81.27 91.4465L81.6702 91.3638Z" fill="white"/>
<path d="M28.6949 84.1919L32.0311 83.5022L31.3159 80.0425L34.6521 79.3529L34.0391 76.3874L30.7029 77.0771L29.9878 73.6173L26.6516 74.307L27.3668 77.7667L24.01 78.4605L24.623 81.426L27.9798 80.7321L28.6949 84.1919ZM51.9395 76.4666C51.5266 74.469 49.9845 73.2417 48.1844 72.9481L50.0521 68.3747L49.8605 67.448L40.6964 69.3423L41.3562 72.5343L45.2278 71.734L43.5591 75.8153L43.7464 76.7215L45.6822 76.3213C47.2679 75.9935 48.1192 76.2685 48.3193 77.2364C48.5194 78.2043 47.8681 78.8972 46.7972 79.1186C45.7469 79.3357 44.9198 78.9698 43.8654 77.9208L41.7724 80.1573C43.112 81.9633 45.2457 82.8321 47.614 82.3426C50.6 81.7253 52.5057 79.2055 51.9395 76.4666ZM59.0678 72.5236C59.9064 76.5806 62.5013 79.2652 66.1876 78.5032C69.8738 77.7412 71.1917 74.2478 70.3531 70.1909C69.523 66.1751 66.9827 63.651 63.2759 64.4172C59.569 65.1835 58.2377 68.5079 59.0678 72.5236ZM66.7329 70.9607C67.265 73.5349 66.8536 74.9727 65.515 75.2494C64.1764 75.5261 63.2286 74.3692 62.6965 71.795C62.1687 69.2414 62.5687 67.9562 63.9485 67.671C65.3282 67.3858 66.205 68.4071 66.7329 70.9607ZM72.4214 69.7633C73.26 73.8202 75.855 76.5049 79.5412 75.7429C83.2274 74.9809 84.5453 71.4875 83.7067 67.4305C82.8766 63.4148 80.3363 60.8907 76.6295 61.6569C72.9227 62.4231 71.5913 65.7476 72.4214 69.7633ZM80.0865 68.2003C80.6186 70.7745 80.2072 72.2124 78.8686 72.4891C77.53 72.7658 76.5823 71.6089 76.0502 69.0347C75.5223 66.4811 75.9223 65.1959 77.3021 64.9107C78.6818 64.6255 79.5586 65.6467 80.0865 68.2003ZM85.7751 67.003C86.6137 71.0599 89.2086 73.7445 92.8948 72.9826C96.5811 72.2206 97.8989 68.7271 97.0603 64.6702C96.2302 60.6545 93.69 58.1303 89.9831 58.8966C86.2763 59.6628 84.945 62.9872 85.7751 67.003ZM93.4401 65.44C93.9722 68.0142 93.5608 69.4521 92.2222 69.7288C90.8837 70.0055 89.9359 68.8486 89.4038 66.2744C88.8759 63.7208 89.2759 62.4356 90.6557 62.1503C92.0355 61.8651 92.9123 62.8864 93.4401 65.44Z" fill="white"/>
<path d="M33.9046 111.36L32.054 109.752L32.4485 111.661L31.4507 111.867L30.6592 108.038L31.657 107.832L32.0156 109.566L32.9217 107.57L34.0819 107.331L33.1416 109.424L35.088 111.115L33.9046 111.36ZM36.0036 107.829C36.4097 107.745 36.7535 107.789 37.0349 107.96C37.3164 108.132 37.5003 108.427 37.5867 108.844L37.9344 110.527L37.0236 110.715L36.9745 110.477C36.8003 110.727 36.543 110.887 36.2027 110.957C35.9938 111 35.8056 110.997 35.638 110.947C35.4704 110.897 35.3339 110.812 35.2286 110.693C35.1224 110.57 35.0526 110.427 35.019 110.264C34.963 109.994 35.02 109.762 35.19 109.57C35.3629 109.373 35.6254 109.238 35.9773 109.165L36.5865 109.039L36.5769 108.993C36.5537 108.88 36.4986 108.799 36.4115 108.748C36.3275 108.693 36.2101 108.681 36.0592 108.712C35.9278 108.74 35.8139 108.793 35.7176 108.874C35.6243 108.95 35.5209 109.064 35.4072 109.216L34.8125 108.68C34.9651 108.443 35.1362 108.256 35.3258 108.12C35.5147 107.98 35.7406 107.883 36.0036 107.829ZM36.3638 110.186C36.4915 110.16 36.5883 110.101 36.6543 110.011C36.7234 109.916 36.7444 109.803 36.7172 109.671L36.7124 109.648L36.2425 109.745C36.1574 109.763 36.0957 109.796 36.0572 109.844C36.0188 109.892 36.0068 109.951 36.0212 110.021C36.0356 110.09 36.0723 110.141 36.1314 110.173C36.1935 110.201 36.271 110.205 36.3638 110.186ZM39.6855 107.068C39.9524 107.012 40.2057 107.029 40.4456 107.116C40.6847 107.2 40.8858 107.344 41.049 107.548C41.2161 107.751 41.33 108 41.3908 108.294C41.4515 108.588 41.4459 108.863 41.374 109.12C41.3013 109.373 41.1722 109.587 40.9866 109.763C40.805 109.937 40.5807 110.052 40.3139 110.107C40.0083 110.171 39.7424 110.133 39.5162 109.994L39.7728 111.235L38.775 111.442L37.9596 107.497L38.8703 107.309L38.9327 107.61C39.0633 107.325 39.3142 107.144 39.6855 107.068ZM39.9296 109.243C40.0843 109.211 40.2065 109.129 40.2963 108.998C40.386 108.867 40.4109 108.704 40.371 108.511C40.331 108.317 40.2437 108.178 40.1092 108.093C39.9785 108.007 39.8339 107.981 39.6753 108.013C39.5206 108.045 39.398 108.125 39.3074 108.253C39.2207 108.38 39.1978 108.542 39.2385 108.739C39.2793 108.936 39.365 109.078 39.4957 109.163C39.6302 109.249 39.7749 109.275 39.9296 109.243ZM42.2869 107.473L41.4458 107.647L41.2731 106.812L43.959 106.257L44.1317 107.092L43.2847 107.267L43.7116 109.332L42.7138 109.539L42.2869 107.473ZM45.6061 105.844C46.0121 105.76 46.3559 105.804 46.6374 105.975C46.9189 106.147 47.1028 106.442 47.1891 106.859L47.5369 108.542L46.6261 108.73L46.577 108.492C46.4027 108.742 46.1455 108.902 45.8051 108.972C45.5963 109.015 45.4081 109.012 45.2405 108.962C45.0728 108.912 44.9364 108.827 44.831 108.708C44.7249 108.585 44.6551 108.442 44.6215 108.279C44.5655 108.009 44.6225 107.777 44.7924 107.585C44.9654 107.388 45.2279 107.253 45.5798 107.18L46.1889 107.054L46.1794 107.008C46.1562 106.895 46.101 106.814 46.014 106.764C45.93 106.708 45.8125 106.696 45.6617 106.727C45.5302 106.755 45.4163 106.808 45.32 106.889C45.2268 106.965 45.1234 107.079 45.0097 107.231L44.4149 106.695C44.5675 106.458 44.7387 106.271 44.9283 106.135C45.1172 105.995 45.3431 105.898 45.6061 105.844ZM45.9663 108.201C46.0939 108.175 46.1908 108.116 46.2568 108.026C46.3259 107.931 46.3468 107.818 46.3197 107.686L46.3149 107.663L45.845 107.76C45.7599 107.778 45.6981 107.811 45.6597 107.859C45.6213 107.907 45.6093 107.966 45.6237 108.036C45.6381 108.106 45.6748 108.156 45.7339 108.189C45.796 108.216 45.8735 108.22 45.9663 108.201ZM51.9841 104.598L52.5837 107.499L51.5917 107.704L51.1648 105.638L50.5672 105.762L50.5936 105.889C50.6874 106.382 50.7276 106.781 50.714 107.087C50.7044 107.391 50.6381 107.626 50.5153 107.793C50.3916 107.956 50.2041 108.063 49.9527 108.115C49.8831 108.129 49.81 108.136 49.7333 108.136C49.6605 108.135 49.5993 108.132 49.5497 108.126L49.3806 107.308C49.4054 107.311 49.4429 107.307 49.4932 107.297C49.5938 107.276 49.6642 107.217 49.7047 107.12C49.7451 107.023 49.7573 106.867 49.7412 106.652C49.7251 106.438 49.6782 106.143 49.6007 105.768L49.4664 105.118L51.9841 104.598ZM54.7019 107.133C54.4118 107.193 54.131 107.181 53.8593 107.096C53.5916 107.01 53.3641 106.865 53.1769 106.662C52.9897 106.459 52.8673 106.218 52.8098 105.94C52.7522 105.661 52.7691 105.391 52.8603 105.131C52.9516 104.87 53.1031 104.647 53.3149 104.462C53.5306 104.276 53.7835 104.153 54.0735 104.093C54.3636 104.033 54.6425 104.046 54.9102 104.132C55.1819 104.217 55.4113 104.361 55.5985 104.565C55.7895 104.767 55.9138 105.008 55.9714 105.286C56.029 105.564 56.0102 105.834 55.9151 106.096C55.8238 106.357 55.6703 106.58 55.4547 106.766C55.2429 106.951 54.9919 107.073 54.7019 107.133ZM54.5182 106.215C54.6806 106.182 54.8025 106.098 54.8837 105.964C54.9641 105.827 54.9864 105.671 54.9504 105.497C54.9144 105.323 54.8307 105.191 54.6992 105.101C54.5708 105.007 54.4273 104.976 54.2688 105.009C54.1025 105.043 53.9787 105.127 53.8975 105.261C53.8162 105.395 53.794 105.551 53.8308 105.728C53.8684 105.91 53.9509 106.046 54.0786 106.137C54.2054 106.224 54.3519 106.25 54.5182 106.215ZM58.7565 103.198L59.3561 106.099L58.3583 106.305L58.1952 105.516L58.0386 105.548L57.5345 106.475L56.4265 106.704L57.027 105.6C56.8268 105.549 56.6605 105.456 56.528 105.322C56.3985 105.184 56.3122 105.01 56.269 104.801C56.2035 104.484 56.2671 104.207 56.46 103.969C56.6567 103.731 56.9504 103.571 57.341 103.491L58.7565 103.198ZM57.5427 104.32C57.4499 104.339 57.3808 104.376 57.3355 104.429C57.2901 104.483 57.275 104.547 57.2902 104.62C57.3062 104.698 57.3465 104.756 57.411 104.795C57.4786 104.829 57.5569 104.837 57.6458 104.819L58.0345 104.739L57.9314 104.24L57.5427 104.32ZM62.2267 102.481L62.8263 105.381L61.8343 105.586L61.4074 103.521L60.8099 103.645L60.8363 103.772C60.9301 104.265 60.9702 104.664 60.9567 104.969C60.947 105.274 60.8808 105.509 60.7579 105.676C60.6343 105.838 60.4468 105.946 60.1954 105.998C60.1258 106.012 60.0526 106.019 59.9759 106.019C59.9031 106.018 59.8419 106.014 59.7923 106.008L59.6232 105.19C59.648 105.193 59.6856 105.19 59.7358 105.179C59.8364 105.158 59.9069 105.1 59.9473 105.002C59.9877 104.905 59.9999 104.75 59.9838 104.535C59.9677 104.321 59.9209 104.026 59.8433 103.651L59.709 103.001L62.2267 102.481ZM62.9209 102.337L63.9187 102.131L64.0698 102.862L64.4874 102.776C64.7272 102.726 64.9526 102.724 65.1635 102.769C65.3776 102.809 65.5579 102.901 65.7044 103.044C65.854 103.183 65.9524 103.366 65.9995 103.594C66.0467 103.822 66.0295 104.032 65.9478 104.222C65.8692 104.407 65.7401 104.563 65.5605 104.689C65.3839 104.81 65.1757 104.896 64.9359 104.945L63.5204 105.238L62.9209 102.337ZM64.7458 104.113C64.9392 104.073 65.0195 103.974 64.9867 103.816C64.9691 103.731 64.9289 103.672 64.8659 103.641C64.8061 103.605 64.7317 103.596 64.6427 103.615L64.2424 103.697L64.3456 104.196L64.7458 104.113ZM66.15 101.67L67.1478 101.463L67.3553 102.467L68.2022 102.292L67.9948 101.288L68.9926 101.082L69.5922 103.983L68.5944 104.189L68.3749 103.127L67.5279 103.302L67.7474 104.364L66.7496 104.57L66.15 101.67ZM71.7144 103.617C71.4243 103.677 71.1435 103.664 70.8719 103.579C70.6041 103.493 70.3766 103.349 70.1894 103.145C70.0022 102.942 69.8799 102.701 69.8223 102.423C69.7648 102.144 69.7816 101.875 69.8729 101.614C69.9641 101.353 70.1157 101.13 70.3275 100.945C70.5431 100.76 70.796 100.637 71.086 100.577C71.3761 100.517 71.655 100.53 71.9228 100.616C72.1944 100.701 72.4238 100.845 72.611 101.048C72.8021 101.25 72.9264 101.491 72.9839 101.769C73.0415 102.048 73.0227 102.318 72.9276 102.579C72.8363 102.84 72.6829 103.064 72.4672 103.249C72.2554 103.434 72.0045 103.557 71.7144 103.617ZM71.5307 102.699C71.6932 102.665 71.815 102.582 71.8962 102.448C71.9767 102.31 71.9989 102.154 71.9629 101.98C71.927 101.806 71.8432 101.674 71.7118 101.585C71.5834 101.49 71.4399 101.459 71.2813 101.492C71.115 101.527 70.9912 101.611 70.91 101.744C70.8288 101.878 70.8065 102.034 70.8433 102.212C70.8809 102.394 70.9635 102.53 71.0911 102.62C71.2179 102.707 71.3644 102.733 71.5307 102.699ZM75.2439 102.887C74.9539 102.947 74.6734 102.936 74.4026 102.855C74.1349 102.769 73.9054 102.625 73.7144 102.423C73.5272 102.22 73.4044 101.977 73.3461 101.694C73.2877 101.412 73.3041 101.141 73.3954 100.88C73.4905 100.618 73.6444 100.397 73.857 100.216C74.0727 100.03 74.3255 99.9072 74.6156 99.8472C74.9134 99.7856 75.1888 99.8013 75.4419 99.8941C75.695 99.987 75.9063 100.141 76.0757 100.356L75.4945 101.027C75.3916 100.919 75.285 100.842 75.1747 100.796C75.0675 100.746 74.9481 100.734 74.8167 100.761C74.6426 100.797 74.515 100.882 74.4337 101.016C74.3525 101.15 74.3303 101.306 74.3671 101.483C74.4038 101.661 74.486 101.796 74.6136 101.886C74.7412 101.977 74.892 102.004 75.0661 101.968C75.1976 101.941 75.3029 101.885 75.3822 101.8C75.4645 101.71 75.5319 101.598 75.5845 101.462L76.3827 101.841C76.3124 102.106 76.1795 102.331 75.9839 102.516C75.7884 102.702 75.5417 102.825 75.2439 102.887ZM77.1448 100.268L76.3036 100.442L76.1309 99.6065L78.8169 99.0513L78.9895 99.8867L78.1426 100.062L78.5695 102.127L77.5717 102.333L77.1448 100.268ZM82.0534 98.3097L82.6674 101.28L81.6696 101.486L81.3998 100.181L80.1583 101.871L79.8392 101.937L79.2253 98.9669L80.223 98.7607L80.4929 100.066L81.7344 98.3757L82.0534 98.3097Z" fill="white"/>
<path d="M152.57 60.6069L153.371 59.0948L153.866 59.3574L153.357 60.3196L153.667 60.4839L153.897 60.0492C153.969 59.9128 154.059 59.8048 154.167 59.7254C154.276 59.6438 154.394 59.5975 154.523 59.5865C154.652 59.5755 154.782 59.605 154.914 59.675C155.046 59.7451 155.146 59.8375 155.214 59.9524C155.281 60.0673 155.314 60.1937 155.311 60.3318C155.309 60.4699 155.273 60.606 155.201 60.7403L154.68 61.7249L152.57 60.6069ZM154.719 60.5298C154.754 60.4638 154.764 60.4036 154.749 60.3493C154.736 60.2928 154.696 60.2471 154.63 60.2121C154.564 60.1771 154.504 60.1703 154.452 60.1917C154.399 60.2099 154.355 60.252 154.32 60.3181L154.108 60.7177L154.507 60.9294L154.719 60.5298ZM156.319 58.7242C156.209 58.9309 156.06 59.0962 155.872 59.2202C155.684 59.342 155.48 59.41 155.26 59.4242C155.041 59.4363 154.829 59.3881 154.624 59.2797C154.422 59.1724 154.264 59.0246 154.151 58.8364C154.037 58.6449 153.977 58.4374 153.973 58.214C153.97 57.9884 154.023 57.7722 154.132 57.5655C154.242 57.3588 154.391 57.1934 154.579 57.0695C154.768 56.9456 154.973 56.877 155.196 56.864C155.416 56.8497 155.628 56.8963 155.83 57.0036C156.035 57.112 156.193 57.2614 156.305 57.4518C156.417 57.6421 156.475 57.8501 156.478 58.0757C156.481 58.3013 156.428 58.5174 156.319 58.7242ZM155.815 58.4533C155.873 58.3446 155.9 58.2336 155.898 58.1202C155.895 58.0069 155.863 57.9026 155.802 57.8072C155.739 57.7087 155.649 57.6283 155.532 57.5662C155.417 57.5052 155.301 57.4766 155.185 57.4803C155.069 57.4819 154.964 57.5134 154.868 57.5748C154.773 57.6362 154.697 57.7213 154.639 57.8299C154.579 57.9429 154.551 58.0561 154.553 58.1694C154.557 58.2806 154.591 58.3845 154.654 58.4809C154.718 58.5774 154.807 58.6561 154.922 58.7171C155.099 58.8108 155.27 58.8332 155.435 58.7842C155.598 58.7341 155.725 58.6238 155.815 58.4533ZM154.942 56.1301L155.233 55.5803L156.004 55.9885L156.412 55.2181L155.642 54.8098L155.933 54.26L158.043 55.378L157.751 55.9278L156.907 55.4806L156.499 56.2511L157.343 56.6982L157.052 57.2481L154.942 56.1301ZM157.123 52.0133L158.316 53.5336C158.418 53.6644 158.496 53.7817 158.547 53.8854C158.598 53.9859 158.621 54.0954 158.619 54.214C158.617 54.3305 158.579 54.4591 158.504 54.5997C158.455 54.6935 158.391 54.7826 158.313 54.8671L157.847 54.6198C157.889 54.5496 157.922 54.4932 157.945 54.4506C158.004 54.3376 158.025 54.2297 158.006 54.1267L156.048 54.0432L156.373 53.4294L157.581 53.5211L156.808 52.6079L157.123 52.0133ZM159.899 51.9683C159.788 52.1772 159.638 52.3436 159.45 52.4675C159.262 52.5893 159.059 52.6573 158.838 52.6715C158.619 52.6836 158.407 52.6355 158.202 52.527C158 52.4198 157.842 52.272 157.729 52.0837C157.615 51.8922 157.555 51.6848 157.551 51.4613C157.548 51.2357 157.602 51.0174 157.714 50.8065C157.825 50.5955 157.976 50.4323 158.165 50.317C158.353 50.2006 158.561 50.1419 158.791 50.1408L158.854 50.7104C158.551 50.7248 158.339 50.8471 158.217 51.0773C158.158 51.1881 158.13 51.3002 158.133 51.4136C158.136 51.5269 158.169 51.6318 158.232 51.7283C158.296 51.8247 158.386 51.904 158.504 51.9661C158.678 52.0587 158.848 52.0805 159.013 52.0316C159.178 51.9793 159.304 51.869 159.394 51.7007C159.515 51.4705 159.498 51.2262 159.34 50.9679L159.846 50.6998C159.974 50.8906 160.044 51.0967 160.055 51.3182C160.064 51.5385 160.012 51.7552 159.899 51.9683ZM158.429 49.5492L158.72 48.9993L159.376 49.3466L159.552 49.0141C159.633 48.8606 159.738 48.7385 159.865 48.6476C159.99 48.5556 160.127 48.5038 160.275 48.4922C160.424 48.4785 160.57 48.5095 160.713 48.5851C160.858 48.6619 160.967 48.7648 161.04 48.8939C161.112 49.0218 161.145 49.1634 161.139 49.3186C161.133 49.4738 161.089 49.6293 161.006 49.7848L160.539 50.6672L158.429 49.5492ZM160.529 49.5275C160.569 49.4508 160.579 49.3782 160.558 49.3098C160.538 49.2391 160.491 49.1841 160.416 49.1446C160.342 49.105 160.27 49.0969 160.2 49.12C160.129 49.1399 160.074 49.1883 160.033 49.265L159.855 49.6006L160.351 49.8632L160.529 49.5275ZM159.476 47.5735L159.767 47.0237L161.877 48.1417L161.586 48.6915L159.476 47.5735Z" fill="white"/>
<path d="M112.711 90.4728L113.804 91.7892L113.373 92.1475L112.677 91.3098L112.407 91.534L112.722 91.9125C112.82 92.0312 112.886 92.1555 112.918 92.2853C112.952 92.4169 112.95 92.5442 112.911 92.6674C112.872 92.7906 112.795 92.8999 112.68 92.9954C112.565 93.091 112.442 93.1481 112.31 93.1667C112.178 93.1853 112.049 93.1674 111.922 93.1128C111.795 93.0582 111.683 92.9725 111.586 92.8556L110.874 91.9984L112.711 90.4728ZM111.964 92.4898C112.012 92.5473 112.064 92.5795 112.12 92.5864C112.177 92.5952 112.235 92.5757 112.292 92.5279C112.35 92.4801 112.378 92.428 112.378 92.3715C112.382 92.3153 112.36 92.2584 112.312 92.2009L112.023 91.853L111.675 92.1419L111.964 92.4898ZM113.025 94.6563C112.876 94.4763 112.779 94.2756 112.737 94.0541C112.695 93.8344 112.71 93.62 112.781 93.4107C112.853 93.2033 112.978 93.0256 113.156 92.8777C113.333 92.7313 113.529 92.6416 113.746 92.6086C113.967 92.5759 114.181 92.6001 114.39 92.681C114.6 92.7638 114.779 92.8952 114.929 93.0752C115.078 93.2551 115.174 93.4559 115.217 93.6773C115.26 93.8988 115.245 94.115 115.173 94.3258C115.102 94.535 114.978 94.7129 114.802 94.8593C114.624 95.0072 114.426 95.0968 114.207 95.1279C113.988 95.159 113.774 95.1332 113.564 95.0504C113.354 94.9676 113.175 94.8362 113.025 94.6563ZM113.467 94.2938C113.546 94.3884 113.638 94.4561 113.744 94.4967C113.85 94.5373 113.958 94.5474 114.07 94.5269C114.185 94.5067 114.293 94.4542 114.395 94.3695C114.496 94.2862 114.566 94.19 114.607 94.0807C114.65 93.9733 114.661 93.8639 114.64 93.7524C114.62 93.6409 114.57 93.5378 114.491 93.4432C114.41 93.3448 114.316 93.2753 114.21 93.2347C114.106 93.1959 113.997 93.1876 113.884 93.2096C113.77 93.2317 113.663 93.2843 113.563 93.3675C113.409 93.4954 113.323 93.6451 113.306 93.8164C113.29 93.9863 113.344 94.1454 113.467 94.2938ZM115.948 94.3702L116.346 94.8489L115.675 95.406L116.232 96.0767L116.903 95.5197L117.3 95.9983L115.463 97.524L115.066 97.0453L115.801 96.435L115.243 95.7643L114.509 96.3746L114.111 95.8959L115.948 94.3702ZM118.925 97.9543L117.065 98.4784C116.905 98.5236 116.767 98.5502 116.652 98.5583C116.54 98.5668 116.429 98.5472 116.321 98.4994C116.214 98.4536 116.109 98.3694 116.007 98.2469C115.94 98.1653 115.881 98.0726 115.833 97.9687L116.239 97.6312C116.288 97.6974 116.328 97.749 116.358 97.7861C116.44 97.8845 116.532 97.9444 116.635 97.9659L117.457 96.187L117.901 96.7214L117.356 97.804L118.495 97.4367L118.925 97.9543ZM117.91 100.538C117.759 100.356 117.662 100.154 117.619 99.9328C117.578 99.7132 117.593 99.4988 117.663 99.2895C117.736 99.0821 117.861 98.9044 118.039 98.7565C118.215 98.6101 118.412 98.5204 118.629 98.4874C118.85 98.4547 119.064 98.4788 119.273 98.5598C119.482 98.6426 119.664 98.7758 119.816 98.9595C119.969 99.1432 120.062 99.3445 120.097 99.5635C120.133 99.781 120.108 99.9962 120.022 100.209L119.471 100.05C119.573 99.7651 119.541 99.5223 119.374 99.3219C119.294 99.2255 119.201 99.1569 119.095 99.1163C118.989 99.0757 118.88 99.0664 118.766 99.0884C118.653 99.1105 118.545 99.1639 118.443 99.2486C118.291 99.375 118.206 99.5239 118.189 99.6952C118.174 99.8669 118.228 100.026 118.35 100.173C118.516 100.373 118.749 100.449 119.048 100.402L119.103 100.972C118.878 101.018 118.661 101.004 118.452 100.93C118.245 100.854 118.064 100.723 117.91 100.538ZM120.603 100.853L120.146 100.302L120.577 99.9437L121.89 101.524L121.459 101.883L121.001 101.332L119.596 102.499L119.198 102.02L120.603 100.853ZM121.091 103.988L120.543 103.328L120.335 103.389L119.907 102.874L122.471 102.155L122.598 102.309L121.421 104.697L120.993 104.182L121.091 103.988ZM121.628 102.987L121.068 103.179L121.334 103.499L121.628 102.987ZM123.415 103.361L124.014 104.082C124.127 104.217 124.202 104.36 124.239 104.511C124.276 104.662 124.272 104.808 124.227 104.949C124.183 105.089 124.098 105.211 123.972 105.316C123.848 105.419 123.711 105.48 123.562 105.497C123.415 105.516 123.269 105.494 123.126 105.431C122.985 105.366 122.859 105.267 122.748 105.134L122.547 104.891L121.976 105.365L121.579 104.887L123.415 103.361ZM123.168 104.79C123.223 104.856 123.287 104.893 123.358 104.9C123.433 104.907 123.502 104.883 123.567 104.829C123.632 104.775 123.667 104.712 123.672 104.639C123.679 104.567 123.655 104.498 123.599 104.431L123.396 104.186L122.964 104.545L123.168 104.79Z" fill="white"/>
<path d="M132.443 17.4774L133.264 20.3778L133.35 20.36C134.109 17.8023 135.631 16.3743 137.845 15.9167C140.653 15.3362 142.389 16.1776 143.819 18.196L143.902 18.1788C145.092 15.1298 146.993 14.0257 148.781 13.6559C154.087 12.5591 155.88 16.0149 156.664 19.8082L159.353 32.82L152.546 34.2273L150.183 22.7956C149.804 20.9622 149.516 19.152 147.561 19.5562C145.516 19.9788 145.513 21.6692 145.901 23.5457L148.29 35.1069L141.48 36.5147L139.117 25.083C138.738 23.2497 138.453 21.4388 136.495 21.8436C134.453 22.2656 134.447 23.9566 134.835 25.8331L137.224 37.3943L130.503 38.7838L128.016 26.7534C126.322 27.1486 124.29 26.5452 123.847 23.9688C121.906 24.2381 120.355 23.1783 119.844 20.706L119.72 20.1074L132.443 17.4774Z" fill="white"/>
<path d="M127.992 55.723C125.33 57.6779 121.862 58.3915 119.159 54.7114C114.312 48.111 126.456 44.0836 123.864 40.5536C123.268 39.7413 122.412 39.607 121.152 40.5323C119.892 41.4577 119.594 42.8165 120.454 44.5762L114.849 47.4451C112.845 42.8968 114.599 39.0419 118.348 36.2885C122.67 33.1148 126.544 32.444 130.018 37.1745L133.517 41.9384C133.907 42.4696 137.097 46.5908 138.161 47.8221L133.14 51.5097L131.581 49.8277L131.51 49.8798C131.418 52.2318 130.086 54.1848 127.985 55.7282L127.992 55.723ZM124.485 49.9315C125.211 50.92 126.308 50.928 127.28 50.2144C128.857 49.0565 128.979 47.3899 127.807 45.794L126.828 44.4601C126.213 46.7047 123.059 47.9902 124.485 49.9315Z" fill="white"/>
<path d="M141.802 58.0279C143.771 59.0772 145.21 58.7916 146.459 56.4478L147.584 54.3386L147.508 54.2983C145.894 55.0934 143.557 55.1042 141.552 54.0354C136.804 51.5051 136.606 46.4806 139.376 41.284C142.105 36.1639 146.779 33.5363 151.488 36.0458C153.571 37.1562 154.582 39.3504 154.866 40.9574L154.941 40.9976L156.142 39.0273L162.009 42.1545L153.679 57.7838C150.013 64.6624 145.368 65.7483 139.311 62.5198C135.99 60.7502 133.412 57.8697 133.945 53.1365L139.856 54.5942C139.708 56.1708 140.244 57.2112 141.788 58.0343L141.802 58.0279ZM151.346 47.7245C152.892 44.8244 152.733 42.8947 150.842 41.887C148.913 40.859 147.178 41.7902 145.635 44.6807C144.032 47.689 144.228 49.6487 146.158 50.6772C148.048 51.6849 149.743 50.7328 151.346 47.7245Z" fill="white"/>
<path d="M114.092 58.7006C116.779 54.709 120.46 55.8149 124.019 58.2105L134.816 65.4778L130.938 71.2409L121.258 64.7259C119.697 63.6755 118.09 62.6995 116.784 64.6407C115.549 66.4752 116.841 67.9195 118.438 68.9946L128.081 75.4848L124.209 81.2382L107.169 69.7691L110.847 64.3045L113.337 65.7691L113.384 65.6988C112.445 63.0285 112.663 60.8239 114.092 58.7006Z" fill="white"/>
<path d="M147.362 84.2428C142.988 82.4485 143.349 78.6088 144.986 74.6196L149.95 62.5178L156.368 65.1504L151.917 75.9992C151.201 77.7457 150.564 79.5282 152.648 80.3831C154.616 81.1903 155.775 79.6221 156.508 77.8345L160.942 67.0268L167.359 69.6594L159.524 88.758L153.424 86.2553L154.361 83.5073L154.28 83.474C151.89 84.96 149.684 85.1954 147.359 84.2417" fill="white"/>
<path d="M118.144 86.1833L120.187 88.413L120.256 88.3581C119.784 85.7235 120.573 83.7037 122.36 82.2891C124.656 80.4719 126.587 80.4469 128.787 81.6054L128.854 81.5523C128.55 78.2804 129.794 76.4039 131.235 75.2638C135.551 71.8472 138.707 74.1434 141.119 77.1905L149.393 87.6427L143.912 91.9816L136.643 82.7987C135.477 81.326 134.404 79.8326 132.795 81.1063C131.117 82.4348 131.872 83.9542 133.065 85.4616L140.417 94.7486L134.936 99.0875L127.666 89.9045C126.501 88.4318 125.428 86.9384 123.819 88.2121C122.14 89.5407 122.896 91.0601 124.089 92.5675L131.441 101.854L125.964 106.19L113.215 90.0848L118.144 86.1833Z" fill="white"/>
<g clip-path="url(#clip1_218_1170)">
<path d="M30.3253 45.9225L28.9967 39.4954C26.9106 39.9266 21.8055 40.9197 21.0658 41.236C17.7045 42.5909 16.8522 45.6206 16.8468 46.9651C16.725 47.971 16.9411 50.4996 18.7863 52.5654C20.6315 54.6312 23.4668 54.7238 24.654 54.5127L31.7958 53.0364L30.4688 46.6168L26.6945 47.3969C26.5267 47.4316 26.4085 47.579 26.3783 47.7472C26.2777 48.3019 25.9029 49.1173 24.9236 49.4131C22.8221 49.7697 22.4266 48.1935 22.3743 47.5661C22.322 46.9386 22.6835 45.7664 24.1259 45.5539C25.0828 45.4121 25.7639 46.0108 26.1012 46.489C26.2088 46.6427 26.3921 46.7356 26.5747 46.6978L30.3253 45.9225Z" fill="white"/>
<path d="M35.2474 38.2031L29.7314 39.3433L32.5305 52.8842L41.1718 51.098L40.2244 46.5147L37.099 47.1607L35.2474 38.2031Z" fill="white"/>
<path d="M41.9289 50.9416L39.1299 37.4006L44.4973 36.2911C45.0565 39.0711 46.2019 44.7172 46.3104 45.0622C46.446 45.4934 46.8218 46.0384 47.6709 45.8395C48.0771 45.7446 48.294 45.446 48.3983 45.149C48.5194 44.8063 48.4485 44.4334 48.3748 44.0766L46.6725 35.8415L52.0103 34.7381L54.8093 48.2791L41.9289 50.9416Z" fill="white"/>
<path fill-rule="evenodd" clip-rule="evenodd" d="M55.5367 48.1304L52.7373 34.5879C55.1432 34.0937 60.1226 33.0691 60.7937 32.9303C61.4616 32.8359 62.0642 32.9199 62.2811 32.9731C62.809 33.0555 63.9688 33.5132 64.3832 34.6791C64.7976 35.8451 64.4034 36.8513 64.1553 37.2092C65.0341 37.3934 66.9147 38.3497 67.401 40.7026C68.1278 44.3383 65.6242 45.9627 64.2816 46.3211L55.5364 48.1289L55.5367 48.1304ZM60.8988 37.7827L60.9081 37.8275C61.0556 38.5412 60.6004 39.2377 59.8907 39.3844C59.181 39.5311 58.4869 39.0721 58.3394 38.3585L58.3301 38.3137C58.1826 37.6001 58.6378 36.9035 59.3475 36.7568C60.0572 36.6101 60.7513 37.0691 60.8988 37.7827ZM59.218 42.6089C59.3649 43.3195 60.0619 43.7779 60.7687 43.6318C61.4754 43.4857 61.9339 42.7901 61.7867 42.0779C61.6395 41.3658 60.9428 40.9089 60.236 41.055C59.5296 41.2026 59.0711 41.8983 59.218 42.6089Z" fill="white"/>
<path d="M34.2276 55.2173L34.3508 55.6557L34.3641 55.653C34.4778 55.2667 34.7055 55.05 35.0366 54.9815C35.4568 54.8947 35.7186 55.0227 35.9335 55.3285L35.9454 55.3261C36.1225 54.8645 36.4071 54.6983 36.6758 54.6427C37.4716 54.4782 37.7409 55.0017 37.8594 55.5749L38.2664 57.5441L37.2464 57.755L36.889 56.0262C36.8316 55.7485 36.7873 55.4743 36.4948 55.5348C36.189 55.598 36.1876 55.8536 36.2462 56.1372L36.6079 57.887L35.5864 58.0981L35.229 56.3693C35.1716 56.0916 35.1288 55.8171 34.8349 55.8779C34.529 55.9411 34.5276 56.1967 34.5863 56.4804L34.948 58.2301L33.9428 58.4379L33.5666 56.618C33.3124 56.6767 33.0087 56.5854 32.9406 56.1963C32.6501 56.2361 32.4172 56.0756 32.3397 55.7009L32.3209 55.6099L34.2273 55.2158L34.2276 55.2173Z" fill="white"/>
<path d="M39.5852 57.3262C39.1012 57.4262 38.584 57.3059 38.4451 56.634C38.1958 55.4277 40.102 55.6393 39.9687 54.9943C39.9381 54.8465 39.8302 54.7739 39.6001 54.8214C39.3714 54.8687 39.2451 55.0365 39.2532 55.3306L38.311 55.3712C38.3206 54.6236 38.8011 54.2067 39.4826 54.0658C40.2695 53.9031 40.8396 54.0546 41.0183 54.919L41.1982 55.7894C41.2183 55.8864 41.3962 56.6498 41.4649 56.8847L40.5502 57.0738L40.4422 56.7458L40.4288 56.7486C40.2709 57.063 39.9668 57.2473 39.5852 57.3262ZM39.4688 56.3135C39.5061 56.4941 39.6554 56.5644 39.8321 56.5279C40.1186 56.4687 40.2389 56.2492 40.1784 55.9566L40.1281 55.7133C39.905 55.982 39.3957 55.9596 39.4688 56.3135Z" fill="white"/>
<path d="M43.361 56.9022C43.6862 56.835 43.8244 56.6648 43.7445 56.2781L43.6726 55.9302L43.6607 55.9327C43.5519 56.1778 43.2853 56.401 42.9542 56.4695C42.1703 56.6315 41.6682 56.0752 41.4908 55.2168C41.3158 54.3703 41.6014 53.6247 42.3794 53.4639C42.7238 53.3927 43.0486 53.5482 43.2342 53.7044L43.246 53.702L43.1959 53.3621L44.1655 53.1617L44.6994 55.7445C44.9342 56.8806 44.5063 57.4469 43.5041 57.6541C42.9547 57.7677 42.386 57.6829 41.9973 57.0907L42.8134 56.6947C42.9467 56.8898 43.1063 56.958 43.3617 56.9052L43.361 56.9022ZM43.473 54.8148C43.3739 54.3356 43.1719 54.1298 42.8601 54.1943C42.5409 54.2603 42.4314 54.532 42.5302 55.0097C42.6329 55.5069 42.8427 55.7126 43.1604 55.6469C43.4722 55.5825 43.5758 55.312 43.473 54.8148Z" fill="white"/>
<path d="M46.5819 52.5968C47.2901 52.4504 47.5699 52.9577 47.7011 53.5922L48.0986 55.5151L47.0771 55.7262L46.7209 54.0034C46.6635 53.7257 46.5928 53.4508 46.2483 53.522C45.9231 53.5892 45.9108 53.8813 45.9694 54.165L46.3243 55.8818L45.3028 56.093L44.6757 53.0593L45.6452 52.8589L45.7584 53.2792L45.7703 53.2767C45.95 52.8878 46.2048 52.6748 46.5819 52.5968Z" fill="white"/>
<path d="M49.4781 55.2951C48.7832 55.4387 48.5049 54.9312 48.3737 54.2967L47.9766 52.3752L48.9966 52.1644L49.3527 53.8872C49.4101 54.1649 49.4809 54.4399 49.812 54.3714C50.1253 54.3067 50.1377 54.0145 50.0791 53.7309L49.7242 52.014L50.7442 51.8031L51.3713 54.8368L50.4017 55.0372L50.2885 54.617L50.2752 54.6197C50.1023 55.0042 49.8478 55.2187 49.4781 55.2951Z" fill="white"/>
<path d="M52.1739 51.5075L52.297 51.946L52.3104 51.9432C52.4226 51.5573 52.6621 51.3381 52.9947 51.2694C53.4223 51.181 53.6812 51.3096 53.8976 51.6151L53.9095 51.6127C54.0865 51.1511 54.3785 50.9833 54.6458 50.9281C55.449 50.762 55.7168 51.2858 55.8353 51.8591L56.2423 53.8283L55.2223 54.0391L54.8649 52.3103C54.8075 52.0326 54.7632 51.7584 54.4648 51.8201C54.153 51.8846 54.1516 52.1402 54.2103 52.4238L54.572 54.1736L53.5519 54.3844L53.1946 52.6556C53.1372 52.3779 53.0929 52.1037 52.7944 52.1654C52.4826 52.2299 52.4813 52.4855 52.5399 52.7691L52.9016 54.5188L51.8816 54.7297L51.2545 51.696L52.1736 51.5061L52.1739 51.5075Z" fill="white"/>
</g>
</g>
</g>
<defs>
<filter id="filter0_d_218_1170" x="-0.401216" y="0.299392" width="176.429" height="133.306" filterUnits="userSpaceOnUse" color-interpolation-filters="sRGB">
<feFlood flood-opacity="0" result="BackgroundImageFix"/>
<feColorMatrix in="SourceAlpha" type="matrix" values="0 0 0 0 0 0 0 0 0 0 0 0 0 0 0 0 0 0 127 0" result="hardAlpha"/>
<feOffset dx="-1.8503" dy="1.8503"/>
<feGaussianBlur stdDeviation="2.77546"/>
<feComposite in2="hardAlpha" operator="out"/>
<feColorMatrix type="matrix" values="0 0 0 0 0.270833 0 0 0 0 0.270833 0 0 0 0 0.270833 0 0 0 0.25 0"/>
<feBlend mode="normal" in2="BackgroundImageFix" result="effect1_dropShadow_218_1170"/>
<feBlend mode="normal" in="SourceGraphic" in2="effect1_dropShadow_218_1170" result="shape"/>
</filter>
<filter id="filter1_f_218_1170" x="90.0795" y="-1.83574" width="88.4503" height="119.541" filterUnits="userSpaceOnUse" color-interpolation-filters="sRGB">
<feFlood flood-opacity="0" result="BackgroundImageFix"/>
<feBlend mode="normal" in="SourceGraphic" in2="BackgroundImageFix" result="shape"/>
<feGaussianBlur stdDeviation="2.87478" result="effect1_foregroundBlur_218_1170"/>
</filter>
<clipPath id="clip0_218_1170">
<rect x="7" y="34.2456" width="149.412" height="93.9029" rx="4.62576" transform="rotate(-11.6791 7 34.2456)" fill="white"/>
</clipPath>
<clipPath id="clip1_218_1170">
<rect width="51.0491" height="20.7332" fill="white" transform="translate(15.5947 42.2544) rotate(-11.6791)"/>
</clipPath>
</defs>
</svg>
