<svg width="15" height="10" viewBox="0 0 15 10" fill="none" xmlns="http://www.w3.org/2000/svg">
<path d="M0 1.99994H4V2.99995H0V1.99994Z" fill="black"/>
<path d="M15 7.0002H11V8.00021H15V7.0002Z" fill="black"/>
<path d="M6.9997 1.99994H14.9997V2.99995H6.9997V1.99994Z" fill="black"/>
<path d="M8.0003 7.0002H0.000300404V8.00021H8.0003V7.0002Z" fill="black"/>
<path d="M8.00003 2.50003C8.00003 3.88076 6.88074 5.00007 5.50003 5.00007C4.11932 5.00007 3.00003 3.88076 3.00003 2.50003C3.00003 1.1193 4.11932 0 5.50003 0C6.88074 0 8.00003 1.1193 8.00003 2.50003ZM4.07503 2.50003C4.07503 3.28705 4.71303 3.92505 5.50003 3.92505C6.28704 3.92505 6.92503 3.28705 6.92503 2.50003C6.92503 1.71302 6.28704 1.07501 5.50003 1.07501C4.71303 1.07501 4.07503 1.71302 4.07503 2.50003Z" fill="black"/>
<path d="M6.99997 7.49997C6.99997 8.8807 8.11926 10 9.49997 10C10.8807 10 12 8.8807 12 7.49997C12 6.11924 10.8807 4.99993 9.49997 4.99993C8.11926 4.99993 6.99997 6.11924 6.99997 7.49997ZM10.925 7.49997C10.925 8.28698 10.287 8.92498 9.49997 8.92498C8.71296 8.92498 8.07497 8.28698 8.07497 7.49997C8.07497 6.71295 8.71296 6.07495 9.49997 6.07495C10.287 6.07495 10.925 6.71295 10.925 7.49997Z" fill="black"/>
</svg>
