<svg width="35" height="35" viewBox="0 0 35 35" fill="none" xmlns="http://www.w3.org/2000/svg">
<rect x="0.103516" y="0.509766" width="34.1379" height="34.1176" rx="17.0588" fill="#E7E7E7"/>
<path d="M18.0111 23.5391C11.5961 23.5391 7.93713 19.0567 7.78467 11.5979H10.998C11.1036 17.0724 13.4725 19.3913 15.349 19.8695V11.5979H18.3747V16.3194C20.2276 16.1162 22.1744 13.9646 22.8312 11.5979H25.8569C25.6094 12.8253 25.1161 13.9875 24.4078 15.0118C23.6995 16.0361 22.7915 16.9003 21.7405 17.5506C22.9136 18.1447 23.9498 18.9856 24.7807 20.0179C25.6115 21.0502 26.2182 22.2503 26.5605 23.5391H23.2299C22.9226 22.4197 22.2979 21.4176 21.4342 20.6585C20.5705 19.8994 19.5062 19.417 18.3747 19.2718V23.5391H18.0111Z" fill="#2D2F32"/>
</svg>
