<svg width="35" height="35" viewBox="0 0 35 35" fill="none" xmlns="http://www.w3.org/2000/svg">
<rect x="0.758789" y="0.509766" width="34.1379" height="34.1176" rx="17.0588" fill="#E7E7E7"/>
<path d="M24.5931 10.7984C22.907 9.11918 20.6589 8.18628 18.2859 8.18628C13.3525 8.18628 9.3559 12.1667 9.3559 17.08C9.3559 18.6348 9.79304 20.1896 10.5424 21.4957L9.29346 26.098L14.0395 24.8542C15.3509 25.5383 16.7871 25.9115 18.2859 25.9115C23.2192 25.9115 27.2159 21.9311 27.2159 17.0178C27.1534 14.7166 26.2792 12.4776 24.5931 10.7984ZM22.5948 20.2518C22.4074 20.7494 21.5332 21.2469 21.096 21.3091C20.7213 21.3713 20.2218 21.3713 19.7222 21.2469C19.4099 21.1226 18.9728 20.9982 18.4732 20.7494C16.2251 19.8165 14.7888 17.5775 14.6639 17.3909C14.539 17.2665 13.7272 16.2093 13.7272 15.0898C13.7272 13.9703 14.2893 13.4727 14.4766 13.224C14.6639 12.9752 14.9137 12.9752 15.1011 12.9752C15.226 12.9752 15.4133 12.9752 15.5382 12.9752C15.6631 12.9752 15.8504 12.913 16.0378 13.3483C16.2251 13.7837 16.6623 14.9032 16.7247 14.9654C16.7871 15.0898 16.7871 15.2142 16.7247 15.3385C16.6623 15.4629 16.5998 15.5873 16.4749 15.7117C16.35 15.8361 16.2251 16.0227 16.1627 16.0849C16.0378 16.2093 15.9129 16.3336 16.0378 16.5202C16.1627 16.769 16.5998 17.4531 17.2867 18.0751C18.161 18.8214 18.8479 19.0702 19.0977 19.1946C19.3475 19.3189 19.4724 19.2567 19.5973 19.1324C19.7222 19.008 20.1593 18.5104 20.2842 18.2616C20.4091 18.0129 20.5964 18.0751 20.7838 18.1373C20.9711 18.1995 22.0952 18.7592 22.2825 18.8836C22.5323 19.008 22.6572 19.0702 22.7197 19.1324C22.7821 19.3189 22.7821 19.7543 22.5948 20.2518Z" fill="#2D2F32"/>
</svg>
